<svg version="1.1" id="Layer_1" xmlns="http://www.w3.org/2000/svg" xmlns:xlink="http://www.w3.org/1999/xlink" x="0px" y="0px"
	 width="100%" viewBox="0 0 512 512" enable-background="new 0 0 512 512" xml:space="preserve">
<path fill="#010100" opacity="1.000000" stroke="none" 
	d="
M1.000000,199.000000 
	C1.000000,132.666672 1.000000,66.833336 1.000000,1.000000 
	C171.666672,1.000000 342.333344,1.000000 513.000000,1.000000 
	C513.000000,171.666672 513.000000,342.333344 513.000000,513.000000 
	C342.333344,513.000000 171.666672,513.000000 1.000000,513.000000 
	C1.000000,408.500000 1.000000,304.000000 1.000000,199.000000 
M388.128662,489.165741 
	C388.128662,489.165741 388.135590,489.282410 388.789520,489.238922 
	C389.519318,488.815216 390.249084,488.391541 390.994781,488.000000 
	C390.994781,488.000000 390.969543,487.970764 391.692139,487.964325 
	C422.847229,472.568390 438.536682,438.143921 428.790070,405.185181 
	C422.472595,383.822174 409.165436,368.195374 388.086945,359.882812 
	C388.086945,359.882812 388.175598,359.835571 387.821198,359.321564 
	C387.222046,359.190277 386.622894,359.058990 385.476593,358.454559 
	C358.711273,349.322876 334.264648,353.772034 313.487579,372.780060 
	C292.805450,391.701111 286.180908,415.758392 293.078278,442.861908 
	C303.422028,483.507996 350.067017,506.597931 387.490295,489.878174 
	C387.739380,489.654877 387.988434,489.431580 388.128662,489.165741 
M400.588562,204.450989 
	C388.784546,197.627228 377.019073,190.735550 365.161041,184.006973 
	C358.756775,180.373032 353.728790,181.767105 349.895782,187.974304 
	C348.356171,190.467514 346.963867,193.051697 345.256927,196.025864 
	C361.419342,205.221008 377.137024,214.163147 393.253479,223.668549 
	C396.084137,225.246979 398.914764,226.825424 401.974670,228.531693 
	C403.573120,225.765213 404.929932,223.504593 406.202820,221.197693 
	C410.168945,214.009811 408.467194,208.739120 400.588562,204.450989 
M395.350159,311.793884 
	C399.487854,314.243134 403.532684,316.877563 407.820343,319.027832 
	C409.093536,319.666321 411.851410,319.589325 412.545776,318.726746 
	C414.856628,315.855896 416.538757,312.478973 418.594421,309.076813 
	C412.187836,305.436768 406.576172,302.248352 400.370972,298.712250 
	C356.150635,273.142548 311.930298,247.572861 267.442383,221.848434 
	C265.785889,224.596481 264.459198,227.084564 262.858948,229.382095 
	C260.683228,232.505798 260.826050,234.808868 264.605713,236.422226 
	C265.971558,237.005234 267.185333,237.939392 268.482788,238.688614 
	C298.331238,255.924591 328.163513,273.188660 358.040466,290.375122 
	C370.298737,297.426575 382.654144,304.309174 395.350159,311.793884 
M493.656708,61.190418 
	C488.767303,41.995430 471.545288,29.521845 452.126587,31.110909 
	C433.306122,32.651016 417.304260,48.056473 416.105865,66.619995 
	C413.744812,103.193031 403.098114,137.052597 383.988892,168.291214 
	C382.464600,170.783035 381.093445,173.368546 379.468384,176.232635 
	C384.673096,179.041504 389.328705,181.554031 394.387482,184.625122 
	C396.809357,185.972916 399.231232,187.320709 402.026550,188.876328 
	C403.284302,186.765244 404.196960,185.020020 405.304077,183.408356 
	C415.186707,169.022202 424.478363,154.173111 435.178528,140.420822 
	C446.918640,125.331902 462.332611,114.020210 477.897949,103.026421 
	C491.833405,93.183823 497.774414,77.129578 493.656708,61.190418 
M428.332031,298.550079 
	C431.761169,300.579071 435.120300,302.745117 438.661560,304.554688 
	C439.742920,305.107269 442.258698,305.163330 442.535858,304.627899 
	C445.930115,298.071655 450.486115,291.647278 451.857147,284.625610 
	C453.807922,274.634796 446.295410,269.518005 437.599640,265.419098 
	C419.018097,254.676697 400.440765,243.926987 381.854034,233.193542 
	C351.593689,215.718796 321.333130,198.244370 291.060059,180.791687 
	C280.467682,174.685089 271.324036,177.105469 265.263000,187.551056 
	C264.010376,189.709839 262.777374,191.880051 261.538147,194.046616 
	C257.958527,200.304993 257.952942,200.315918 263.967285,203.787827 
	C305.470581,227.746521 346.959381,251.730438 388.491913,275.638336 
	C401.597900,283.182648 414.823395,290.519440 428.332031,298.550079 
M18.990578,316.500000 
	C18.990578,364.081055 18.990578,411.662140 18.990578,459.184143 
	C107.616493,459.184143 195.618851,459.184143 283.785004,459.184143 
	C272.995728,432.318268 273.695435,406.325836 288.378876,381.616547 
	C303.025238,356.969727 325.344604,343.572510 354.007751,340.165161 
	C354.007751,329.981628 353.748230,320.002350 354.126343,310.047302 
	C354.294403,305.623444 352.837463,303.353577 349.007965,301.173340 
	C318.090668,283.571320 287.312378,265.724976 256.508972,247.923264 
	C246.824448,242.326462 244.495880,233.514618 250.025101,223.728943 
	C251.643082,220.865417 253.294937,218.021027 255.080338,214.907898 
	C247.149902,210.624680 242.547012,203.935089 245.488129,195.550415 
	C248.814011,186.068878 253.471542,176.618210 261.784515,170.314438 
	C265.851135,167.230682 271.139801,165.302841 276.173615,164.056610 
	C283.769409,162.176117 290.936920,164.471405 297.635834,168.387344 
	C309.350006,175.234985 321.137543,181.957230 333.209473,188.913620 
	C338.130188,179.606979 342.947754,170.764114 353.659027,168.698502 
	C353.659027,135.725052 353.659027,103.318336 353.659027,70.815628 
	C339.813995,70.815628 326.317474,70.824554 312.820984,70.812401 
	C304.227905,70.804665 302.181244,68.766800 302.175293,60.228794 
	C302.165833,46.612663 302.172791,32.996529 302.172791,19.280037 
	C207.566025,19.280037 113.371925,19.280037 18.990578,19.280037 
	C18.990578,118.231400 18.990578,216.865707 18.990578,316.500000 
M318.568085,31.057383 
	C317.966583,30.615526 317.365112,30.173672 316.518311,29.551620 
	C316.518311,38.871906 316.518311,47.692108 316.518311,56.414078 
	C325.621887,56.414078 334.361816,56.414078 343.356293,56.414078 
	C342.929199,55.693909 342.813416,55.366535 342.592010,55.144485 
	C334.747894,47.277287 326.893921,39.419971 318.568085,31.057383 
z"/>
<path fill="#E2F0FE" opacity="1.000000" stroke="none" 
	d="
M18.990578,316.000000 
	C18.990578,216.865707 18.990578,118.231400 18.990578,19.280037 
	C113.371925,19.280037 207.566025,19.280037 302.172791,19.280037 
	C302.172791,32.996529 302.165833,46.612663 302.175293,60.228794 
	C302.181244,68.766800 304.227905,70.804665 312.820984,70.812401 
	C326.317474,70.824554 339.813995,70.815628 353.659027,70.815628 
	C353.659027,103.318336 353.659027,135.725052 353.659027,168.698502 
	C342.947754,170.764114 338.130188,179.606979 333.209473,188.913620 
	C321.137543,181.957230 309.350006,175.234985 297.635834,168.387344 
	C290.936920,164.471405 283.769409,162.176117 276.173615,164.056610 
	C271.139801,165.302841 265.851135,167.230682 261.784515,170.314438 
	C253.471542,176.618210 248.814011,186.068878 245.488129,195.550415 
	C242.547012,203.935089 247.149902,210.624680 255.080338,214.907898 
	C253.294937,218.021027 251.643082,220.865417 250.025101,223.728943 
	C244.495880,233.514618 246.824448,242.326462 256.508972,247.923264 
	C287.312378,265.724976 318.090668,283.571320 349.007965,301.173340 
	C352.837463,303.353577 354.294403,305.623444 354.126343,310.047302 
	C353.748230,320.002350 354.007751,329.981628 354.007751,340.165161 
	C325.344604,343.572510 303.025238,356.969727 288.378876,381.616547 
	C273.695435,406.325836 272.995728,432.318268 283.785004,459.184143 
	C195.618851,459.184143 107.616493,459.184143 18.990578,459.184143 
	C18.990578,411.662140 18.990578,364.081055 18.990578,316.000000 
M116.598145,151.535599 
	C121.400948,150.659378 123.113213,147.557770 123.030479,142.941269 
	C122.924446,137.024277 123.004723,131.103958 123.004723,125.041420 
	C129.320938,125.041420 134.967331,125.066986 140.613358,125.034676 
	C147.052719,124.997826 149.423523,122.792946 149.488922,116.424698 
	C149.589767,106.604469 149.588867,96.781693 149.488083,86.961456 
	C149.423431,80.662254 146.984940,78.344093 140.572479,78.259674 
	C134.815674,78.183899 129.057083,78.243706 123.004921,78.243706 
	C123.004921,72.064400 123.036087,66.431267 122.996803,60.798618 
	C122.950684,54.186035 120.659340,51.942795 113.922676,51.924053 
	C104.267937,51.897186 94.612968,51.888294 84.958313,51.927399 
	C78.660629,51.952908 76.244759,54.347340 76.168724,60.664452 
	C76.099327,66.429726 76.154007,72.196480 76.154007,78.243195 
	C69.786324,78.243195 63.985218,78.149750 58.188511,78.269455 
	C52.385471,78.389297 49.916595,80.822037 49.873280,86.471825 
	C49.795437,96.625420 49.794807,106.780457 49.872021,116.934052 
	C49.915447,122.644928 52.355972,124.972076 58.166573,125.027878 
	C64.099678,125.084854 70.033752,125.040497 76.154541,125.040497 
	C76.154541,131.294754 76.108955,136.941254 76.166481,142.586716 
	C76.233093,149.123550 78.664902,151.603638 85.283730,151.652740 
	C95.437088,151.728058 105.591560,151.652969 116.598145,151.535599 
M57.842850,347.261658 
	C134.627792,347.262482 211.412750,347.264282 288.197693,347.257599 
	C289.860962,347.257446 291.965485,347.779449 293.093903,346.975983 
	C295.317932,345.392456 298.321442,343.177948 298.536316,340.982971 
	C298.751984,338.780151 296.414734,335.697601 294.345673,334.107208 
	C292.788666,332.910339 289.887665,333.264984 287.584778,333.263916 
	C212.132339,333.229370 136.679916,333.235352 61.227478,333.235748 
	C60.061573,333.235779 58.892605,333.187347 57.730293,333.253448 
	C52.920750,333.526886 49.998001,335.942780 49.924652,339.935181 
	C49.839043,344.595123 52.363083,346.950439 57.842850,347.261658 
M171.499924,307.827911 
	C210.301422,307.827881 249.102921,307.832245 287.904419,307.814087 
	C289.726440,307.813232 291.607605,307.863617 293.358154,307.451904 
	C297.075836,306.577423 299.158875,303.998322 298.840881,300.208130 
	C298.529510,296.496552 296.299896,294.150818 292.374542,293.865509 
	C291.048553,293.769165 289.711700,293.809998 288.379791,293.809967 
	C212.442139,293.807922 136.504501,293.808075 60.566853,293.809357 
	C59.234787,293.809357 57.899212,293.766998 56.571316,293.845978 
	C52.704853,294.075897 50.343819,296.115631 49.952133,299.976990 
	C49.532425,304.114624 51.727352,306.637177 55.624474,307.536255 
	C57.375462,307.940247 59.263729,307.817200 61.089745,307.817871 
	C97.559799,307.831360 134.029846,307.827911 171.499924,307.827911 
M163.500000,373.001526 
	C129.195465,373.001556 94.890923,373.001343 60.586380,373.002167 
	C59.254230,373.002197 57.911129,372.903564 56.591984,373.037140 
	C52.582729,373.443054 50.159496,375.579346 49.924347,379.717499 
	C49.702240,383.626129 52.409950,386.527191 56.576550,386.943420 
	C57.896591,387.075287 59.238686,386.996918 60.570690,386.996948 
	C126.182327,386.998688 191.793976,386.999420 257.405609,386.993042 
	C259.068909,386.992889 260.795654,387.184296 262.382751,386.814331 
	C266.022491,385.965942 268.213837,383.658600 268.069855,379.732666 
	C267.926544,375.824036 265.627747,373.693726 261.912048,373.069611 
	C260.614716,372.851715 259.253601,373.003174 257.921631,373.003082 
	C226.781082,373.001129 195.640549,373.001526 163.500000,373.001526 
M219.245941,214.915695 
	C217.431473,214.746536 215.617065,214.430573 213.802505,214.429642 
	C162.511719,214.403214 111.220901,214.403488 59.930103,214.429459 
	C58.116055,214.430389 55.698879,214.070145 54.619011,215.046463 
	C52.627735,216.846848 50.269367,219.498199 50.234135,221.827789 
	C50.203072,223.881851 52.805141,226.442795 54.866848,227.898392 
	C56.257626,228.880280 58.729469,228.445267 60.718029,228.448349 
	C79.868774,228.478027 99.019585,228.466415 118.170372,228.466095 
	C150.310394,228.465546 182.450409,228.456039 214.590424,228.475006 
	C218.475662,228.477295 221.994034,227.896439 223.447586,223.613632 
	C224.723816,219.853333 223.121521,217.183716 219.245941,214.915695 
M213.245514,188.881958 
	C214.742157,188.845169 216.283691,189.026550 217.726776,188.729538 
	C221.629059,187.926315 224.081375,185.461411 223.799088,181.419235 
	C223.524384,177.485352 221.107513,175.097275 216.954437,174.900162 
	C215.791534,174.844971 214.624481,174.870346 213.459335,174.870331 
	C162.355484,174.869217 111.251617,174.869019 60.147758,174.871628 
	C58.816402,174.871689 57.473690,174.799469 56.155880,174.942108 
	C52.551723,175.332245 50.368599,177.367691 49.955154,180.972977 
	C49.511185,184.844360 51.413448,187.425720 55.053402,188.469498 
	C56.763687,188.959961 58.670238,188.866608 60.487915,188.867264 
	C111.092384,188.885574 161.696854,188.881958 213.245514,188.881958 
M107.500000,268.036255 
	C143.164536,268.036224 178.829056,268.041595 214.493591,268.030914 
	C220.562286,268.029083 224.003296,265.380035 223.884720,260.893372 
	C223.770447,256.568939 220.438309,254.043686 214.662354,254.042282 
	C162.832092,254.029633 111.001846,254.030075 59.171589,254.041153 
	C52.899780,254.042496 49.799160,256.488708 49.901897,261.229309 
	C50.001144,265.809204 52.916527,268.022491 59.002831,268.029785 
	C74.835197,268.048798 90.667610,268.036224 107.500000,268.036255 
M50.144283,421.892029 
	C51.630993,425.443939 54.483311,426.692169 58.125366,426.690582 
	C80.600975,426.680939 103.076721,426.727234 125.552109,426.655518 
	C130.835968,426.638672 134.044662,423.704987 133.952377,419.467194 
	C133.863846,415.401367 130.796677,412.689178 125.753105,412.675415 
	C103.111198,412.613678 80.468834,412.601685 57.827072,412.687164 
	C52.017498,412.709076 50.078140,414.993896 50.144283,421.892029 
z"/>
<path fill="#B9EB2C" opacity="1.000000" stroke="none" 
	d="
M386.961487,489.838013 
	C350.067017,506.597931 303.422028,483.507996 293.078278,442.861908 
	C286.180908,415.758392 292.805450,391.701111 313.487579,372.780060 
	C334.264648,353.772034 358.711273,349.322876 385.934753,358.947632 
	C386.987152,359.572327 387.581390,359.703949 388.175598,359.835571 
	C388.175598,359.835571 388.086945,359.882812 388.199402,360.163269 
	C388.924805,360.985107 389.501953,361.574554 390.155853,362.060791 
	C409.591797,376.513031 420.246918,396.176270 421.754761,419.980011 
	C423.372620,445.519623 413.256805,466.848145 394.391937,484.060577 
	C393.120392,485.220703 392.104401,486.660858 390.969543,487.970764 
	C390.969543,487.970764 390.994781,488.000000 390.639160,487.959778 
	C389.567566,488.373871 388.851562,488.828125 388.135590,489.282410 
	C388.135590,489.282410 388.128662,489.165741 387.927307,489.182007 
	C387.471100,489.411530 387.216278,489.624756 386.961487,489.838013 
M364.872467,405.372406 
	C359.524078,410.745819 354.175720,416.119263 348.573090,421.748138 
	C346.583435,418.385406 345.050323,415.629333 343.362061,412.971832 
	C338.168121,404.796082 328.399384,402.220551 320.328644,406.838196 
	C312.236786,411.467926 309.319702,421.294250 313.915009,429.741791 
	C318.679382,438.500183 323.646393,447.160919 328.855652,455.661621 
	C335.615753,466.693085 349.554016,468.562042 358.805176,459.509552 
	C374.391632,444.257782 389.763062,428.783966 405.085541,413.265869 
	C412.025299,406.237488 412.029846,395.710754 405.481506,389.033142 
	C398.730499,382.148865 388.274719,382.225983 380.923767,389.346893 
	C375.663208,394.442780 370.550812,399.691620 364.872467,405.372406 
z"/>
<path fill="#C66E5B" opacity="1.000000" stroke="none" 
	d="
M427.994141,297.951202 
	C414.823395,290.519440 401.597900,283.182648 388.491913,275.638336 
	C346.959381,251.730438 305.470581,227.746521 263.967285,203.787827 
	C257.952942,200.315918 257.958527,200.304993 261.538147,194.046616 
	C262.777374,191.880051 264.010376,189.709839 265.263000,187.551056 
	C271.324036,177.105469 280.467682,174.685089 291.060059,180.791687 
	C321.333130,198.244370 351.593689,215.718796 381.854034,233.193542 
	C400.440765,243.926987 419.018097,254.676697 437.822510,266.092712 
	C439.827789,272.184662 438.494476,277.182831 436.020630,282.043732 
	C433.326843,287.336884 430.668152,292.647949 427.994141,297.951202 
z"/>
<path fill="#C76E5B" opacity="1.000000" stroke="none" 
	d="
M393.984314,184.066559 
	C389.328705,181.554031 384.673096,179.041504 379.468384,176.232635 
	C381.093445,173.368546 382.464600,170.783035 383.988892,168.291214 
	C403.098114,137.052597 413.744812,103.193031 416.105865,66.619995 
	C417.304260,48.056473 433.306122,32.651016 452.126587,31.110909 
	C471.545288,29.521845 488.767303,41.995430 493.341614,61.658356 
	C492.506317,63.131252 491.800323,64.082916 491.494507,65.149345 
	C488.165802,76.757088 480.680206,84.957016 470.972168,91.809250 
	C462.316223,97.918869 453.974731,104.564194 446.042389,111.591560 
	C423.246460,131.786880 408.204559,157.654709 393.984314,184.066559 
z"/>
<path fill="#3C4973" opacity="1.000000" stroke="none" 
	d="
M394.965363,311.268585 
	C382.654144,304.309174 370.298737,297.426575 358.040466,290.375122 
	C328.163513,273.188660 298.331238,255.924591 268.482788,238.688614 
	C267.185333,237.939392 265.971558,237.005234 264.605713,236.422226 
	C260.826050,234.808868 260.683228,232.505798 262.858948,229.382095 
	C264.459198,227.084564 265.785889,224.596481 267.442383,221.848434 
	C311.930298,247.572861 356.150635,273.142548 400.674438,299.251099 
	C398.973755,303.616150 396.969543,307.442383 394.965363,311.268585 
z"/>
<path fill="#A14E40" opacity="1.000000" stroke="none" 
	d="
M394.185913,184.345825 
	C408.204559,157.654709 423.246460,131.786880 446.042389,111.591560 
	C453.974731,104.564194 462.316223,97.918869 470.972168,91.809250 
	C480.680206,84.957016 488.165802,76.757088 491.494507,65.149345 
	C491.800323,64.082916 492.506317,63.131252 493.353882,62.020805 
	C497.774414,77.129578 491.833405,93.183823 477.897949,103.026421 
	C462.332611,114.020210 446.918640,125.331902 435.178528,140.420822 
	C424.478363,154.173111 415.186707,169.022202 405.304077,183.408356 
	C404.196960,185.020020 403.284302,186.765244 402.026550,188.876328 
	C399.231232,187.320709 396.809357,185.972916 394.185913,184.345825 
z"/>
<path fill="#EF9786" opacity="1.000000" stroke="none" 
	d="
M392.854736,223.105286 
	C377.137024,214.163147 361.419342,205.221008 345.256927,196.025864 
	C346.963867,193.051697 348.356171,190.467514 349.895782,187.974304 
	C353.728790,181.767105 358.756775,180.373032 365.161041,184.006973 
	C377.019073,190.735550 388.784546,197.627228 400.795776,205.139526 
	C400.801331,212.772995 397.736511,218.367584 392.854736,223.105286 
z"/>
<path fill="#9DD504" opacity="1.000000" stroke="none" 
	d="
M391.330841,487.967529 
	C392.104401,486.660858 393.120392,485.220703 394.391937,484.060577 
	C413.256805,466.848145 423.372620,445.519623 421.754761,419.980011 
	C420.246918,396.176270 409.591797,376.513031 390.155853,362.060791 
	C389.501953,361.574554 388.924805,360.985107 388.207397,360.113708 
	C409.165436,368.195374 422.472595,383.822174 428.790070,405.185181 
	C438.536682,438.143921 422.847229,472.568390 391.330841,487.967529 
z"/>
<path fill="#A14E40" opacity="1.000000" stroke="none" 
	d="
M428.163086,298.250641 
	C430.668152,292.647949 433.326843,287.336884 436.020630,282.043732 
	C438.494476,277.182831 439.827789,272.184662 438.039001,266.354065 
	C446.295410,269.518005 453.807922,274.634796 451.857147,284.625610 
	C450.486115,291.647278 445.930115,298.071655 442.535858,304.627899 
	C442.258698,305.163330 439.742920,305.107269 438.661560,304.554688 
	C435.120300,302.745117 431.761169,300.579071 428.163086,298.250641 
z"/>
<path fill="#92C2F3" opacity="1.000000" stroke="none" 
	d="
M318.804688,31.309326 
	C326.893921,39.419971 334.747894,47.277287 342.592010,55.144485 
	C342.813416,55.366535 342.929199,55.693909 343.356293,56.414078 
	C334.361816,56.414078 325.621887,56.414078 316.518311,56.414078 
	C316.518311,47.692108 316.518311,38.871906 316.518311,29.551620 
	C317.365112,30.173672 317.966583,30.615526 318.804688,31.309326 
z"/>
<path fill="#273150" opacity="1.000000" stroke="none" 
	d="
M395.157776,311.531250 
	C396.969543,307.442383 398.973755,303.616150 400.971191,299.424927 
	C406.576172,302.248352 412.187836,305.436768 418.594421,309.076813 
	C416.538757,312.478973 414.856628,315.855896 412.545776,318.726746 
	C411.851410,319.589325 409.093536,319.666321 407.820343,319.027832 
	C403.532684,316.877563 399.487854,314.243134 395.157776,311.531250 
z"/>
<path fill="#E67E6D" opacity="1.000000" stroke="none" 
	d="
M393.054108,223.386917 
	C397.736511,218.367584 400.801331,212.772995 401.004700,205.408203 
	C408.467194,208.739120 410.168945,214.009811 406.202820,221.197693 
	C404.929932,223.504593 403.573120,225.765213 401.974670,228.531693 
	C398.914764,226.825424 396.084137,225.246979 393.054108,223.386917 
z"/>
<path fill="#9DD504" opacity="1.000000" stroke="none" 
	d="
M388.462555,489.260681 
	C388.851562,488.828125 389.567566,488.373871 390.631195,487.943726 
	C390.249084,488.391541 389.519318,488.815216 388.462555,489.260681 
z"/>
<path fill="#9DD504" opacity="1.000000" stroke="none" 
	d="
M387.998413,359.578552 
	C387.581390,359.703949 386.987152,359.572327 386.208344,359.184174 
	C386.622894,359.058990 387.222046,359.190277 387.998413,359.578552 
z"/>
<path fill="#9DD504" opacity="1.000000" stroke="none" 
	d="
M387.225891,489.858093 
	C387.216278,489.624756 387.471100,489.411530 387.981689,489.203247 
	C387.988434,489.431580 387.739380,489.654877 387.225891,489.858093 
z"/>
<path fill="#040404" opacity="1.000000" stroke="none" 
	d="
M116.171852,151.588654 
	C105.591560,151.652969 95.437088,151.728058 85.283730,151.652740 
	C78.664902,151.603638 76.233093,149.123550 76.166481,142.586716 
	C76.108955,136.941254 76.154541,131.294754 76.154541,125.040497 
	C70.033752,125.040497 64.099678,125.084854 58.166573,125.027878 
	C52.355972,124.972076 49.915447,122.644928 49.872021,116.934052 
	C49.794807,106.780457 49.795437,96.625420 49.873280,86.471825 
	C49.916595,80.822037 52.385471,78.389297 58.188511,78.269455 
	C63.985218,78.149750 69.786324,78.243195 76.154007,78.243195 
	C76.154007,72.196480 76.099327,66.429726 76.168724,60.664452 
	C76.244759,54.347340 78.660629,51.952908 84.958313,51.927399 
	C94.612968,51.888294 104.267937,51.897186 113.922676,51.924053 
	C120.659340,51.942795 122.950684,54.186035 122.996803,60.798618 
	C123.036087,66.431267 123.004921,72.064400 123.004921,78.243706 
	C129.057083,78.243706 134.815674,78.183899 140.572479,78.259674 
	C146.984940,78.344093 149.423431,80.662254 149.488083,86.961456 
	C149.588867,96.781693 149.589767,106.604469 149.488922,116.424698 
	C149.423523,122.792946 147.052719,124.997826 140.613358,125.034676 
	C134.967331,125.066986 129.320938,125.041420 123.004723,125.041420 
	C123.004723,131.103958 122.924446,137.024277 123.030479,142.941269 
	C123.113213,147.557770 121.400948,150.659378 116.171852,151.588654 
M90.179565,68.789955 
	C90.177315,73.786720 90.224724,78.784119 90.160187,83.780083 
	C90.080322,89.962891 87.902611,92.148010 81.705910,92.221367 
	C75.922592,92.289825 70.137810,92.236000 64.104301,92.236000 
	C64.104301,98.700462 64.104301,104.606682 64.104301,111.035706 
	C69.903938,111.035706 75.520348,110.999886 81.136101,111.044991 
	C87.807594,111.098579 90.112366,113.392754 90.166016,120.039818 
	C90.212433,125.789383 90.175659,131.539627 90.175659,137.291046 
	C96.870522,137.291046 102.771141,137.291046 108.571472,137.291046 
	C108.740654,136.570755 108.881348,136.247528 108.882965,135.923615 
	C108.908775,130.760513 108.882210,125.596962 108.937378,120.434258 
	C109.011215,113.525742 111.413429,111.095612 118.225258,111.044243 
	C123.831963,111.001953 129.439240,111.035614 135.072937,111.035614 
	C135.072937,104.498978 135.072937,98.715652 135.072937,92.237480 
	C129.048157,92.237480 123.264214,92.296471 117.482025,92.221245 
	C111.443970,92.142685 109.051872,89.776054 108.951462,83.722343 
	C108.855682,77.947487 108.930817,72.169792 108.930817,65.942085 
	C103.086800,65.942085 97.790642,65.863846 92.501945,66.027130 
	C91.716209,66.051392 90.965614,67.213814 90.179565,68.789955 
z"/>
<path fill="#060606" opacity="1.000000" stroke="none" 
	d="
M57.389122,347.251831 
	C52.363083,346.950439 49.839043,344.595123 49.924652,339.935181 
	C49.998001,335.942780 52.920750,333.526886 57.730293,333.253448 
	C58.892605,333.187347 60.061573,333.235779 61.227478,333.235748 
	C136.679916,333.235352 212.132339,333.229370 287.584778,333.263916 
	C289.887665,333.264984 292.788666,332.910339 294.345673,334.107208 
	C296.414734,335.697601 298.751984,338.780151 298.536316,340.982971 
	C298.321442,343.177948 295.317932,345.392456 293.093903,346.975983 
	C291.965485,347.779449 289.860962,347.257446 288.197693,347.257599 
	C211.412750,347.264282 134.627792,347.262482 57.389122,347.251831 
z"/>
<path fill="#050505" opacity="1.000000" stroke="none" 
	d="
M170.999908,307.827911 
	C134.029846,307.827911 97.559799,307.831360 61.089745,307.817871 
	C59.263729,307.817200 57.375462,307.940247 55.624474,307.536255 
	C51.727352,306.637177 49.532425,304.114624 49.952133,299.976990 
	C50.343819,296.115631 52.704853,294.075897 56.571316,293.845978 
	C57.899212,293.766998 59.234787,293.809357 60.566853,293.809357 
	C136.504501,293.808075 212.442139,293.807922 288.379791,293.809967 
	C289.711700,293.809998 291.048553,293.769165 292.374542,293.865509 
	C296.299896,294.150818 298.529510,296.496552 298.840881,300.208130 
	C299.158875,303.998322 297.075836,306.577423 293.358154,307.451904 
	C291.607605,307.863617 289.726440,307.813232 287.904419,307.814087 
	C249.102921,307.832245 210.301422,307.827881 170.999908,307.827911 
z"/>
<path fill="#000001" opacity="1.000000" stroke="none" 
	d="
M164.000000,373.001526 
	C195.640549,373.001526 226.781082,373.001129 257.921631,373.003082 
	C259.253601,373.003174 260.614716,372.851715 261.912048,373.069611 
	C265.627747,373.693726 267.926544,375.824036 268.069855,379.732666 
	C268.213837,383.658600 266.022491,385.965942 262.382751,386.814331 
	C260.795654,387.184296 259.068909,386.992889 257.405609,386.993042 
	C191.793976,386.999420 126.182327,386.998688 60.570690,386.996948 
	C59.238686,386.996918 57.896591,387.075287 56.576550,386.943420 
	C52.409950,386.527191 49.702240,383.626129 49.924347,379.717499 
	C50.159496,375.579346 52.582729,373.443054 56.591984,373.037140 
	C57.911129,372.903564 59.254230,373.002197 60.586380,373.002167 
	C94.890923,373.001343 129.195465,373.001556 164.000000,373.001526 
z"/>
<path fill="#080809" opacity="1.000000" stroke="none" 
	d="
M219.629364,215.040573 
	C223.121521,217.183716 224.723816,219.853333 223.447586,223.613632 
	C221.994034,227.896439 218.475662,228.477295 214.590424,228.475006 
	C182.450409,228.456039 150.310394,228.465546 118.170372,228.466095 
	C99.019585,228.466415 79.868774,228.478027 60.718029,228.448349 
	C58.729469,228.445267 56.257626,228.880280 54.866848,227.898392 
	C52.805141,226.442795 50.203072,223.881851 50.234135,221.827789 
	C50.269367,219.498199 52.627735,216.846848 54.619011,215.046463 
	C55.698879,214.070145 58.116055,214.430389 59.930103,214.429459 
	C111.220901,214.403488 162.511719,214.403214 213.802505,214.429642 
	C215.617065,214.430573 217.431473,214.746536 219.629364,215.040573 
z"/>
<path fill="#030404" opacity="1.000000" stroke="none" 
	d="
M212.773422,188.881958 
	C161.696854,188.881958 111.092384,188.885574 60.487915,188.867264 
	C58.670238,188.866608 56.763687,188.959961 55.053402,188.469498 
	C51.413448,187.425720 49.511185,184.844360 49.955154,180.972977 
	C50.368599,177.367691 52.551723,175.332245 56.155880,174.942108 
	C57.473690,174.799469 58.816402,174.871689 60.147758,174.871628 
	C111.251617,174.869019 162.355484,174.869217 213.459335,174.870331 
	C214.624481,174.870346 215.791534,174.844971 216.954437,174.900162 
	C221.107513,175.097275 223.524384,177.485352 223.799088,181.419235 
	C224.081375,185.461411 221.629059,187.926315 217.726776,188.729538 
	C216.283691,189.026550 214.742157,188.845169 212.773422,188.881958 
z"/>
<path fill="#010202" opacity="1.000000" stroke="none" 
	d="
M107.000000,268.036255 
	C90.667610,268.036224 74.835197,268.048798 59.002831,268.029785 
	C52.916527,268.022491 50.001144,265.809204 49.901897,261.229309 
	C49.799160,256.488708 52.899780,254.042496 59.171589,254.041153 
	C111.001846,254.030075 162.832092,254.029633 214.662354,254.042282 
	C220.438309,254.043686 223.770447,256.568939 223.884720,260.893372 
	C224.003296,265.380035 220.562286,268.029083 214.493591,268.030914 
	C178.829056,268.041595 143.164536,268.036224 107.000000,268.036255 
z"/>
<path fill="#070708" opacity="1.000000" stroke="none" 
	d="
M50.067421,421.496735 
	C50.078140,414.993896 52.017498,412.709076 57.827072,412.687164 
	C80.468834,412.601685 103.111198,412.613678 125.753105,412.675415 
	C130.796677,412.689178 133.863846,415.401367 133.952377,419.467194 
	C134.044662,423.704987 130.835968,426.638672 125.552109,426.655518 
	C103.076721,426.727234 80.600975,426.680939 58.125366,426.690582 
	C54.483311,426.692169 51.630993,425.443939 50.067421,421.496735 
z"/>
<path fill="#040403" opacity="1.000000" stroke="none" 
	d="
M365.122375,405.122314 
	C370.550812,399.691620 375.663208,394.442780 380.923767,389.346893 
	C388.274719,382.225983 398.730499,382.148865 405.481506,389.033142 
	C412.029846,395.710754 412.025299,406.237488 405.085541,413.265869 
	C389.763062,428.783966 374.391632,444.257782 358.805176,459.509552 
	C349.554016,468.562042 335.615753,466.693085 328.855652,455.661621 
	C323.646393,447.160919 318.679382,438.500183 313.915009,429.741791 
	C309.319702,421.294250 312.236786,411.467926 320.328644,406.838196 
	C328.399384,402.220551 338.168121,404.796082 343.362061,412.971832 
	C345.050323,415.629333 346.583435,418.385406 348.573090,421.748138 
	C354.175720,416.119263 359.524078,410.745819 365.122375,405.122314 
M337.175751,442.317841 
	C338.360626,444.318726 339.435394,446.395691 340.754456,448.303802 
	C343.111420,451.713165 346.218536,452.251740 349.149963,449.352173 
	C364.416870,434.251099 379.598511,419.062805 394.659760,403.757202 
	C395.596130,402.805573 395.252991,400.594849 395.505157,398.969940 
	C393.789551,399.216644 391.989594,399.226685 390.389282,399.796936 
	C389.396454,400.150696 388.704865,401.352692 387.880737,402.176636 
	C376.342590,413.712128 364.838440,425.281952 353.251740,436.768494 
	C348.095276,441.880341 343.689392,441.258606 339.994781,435.035156 
	C337.366821,430.608521 335.039948,425.984985 332.144928,421.745575 
	C331.217224,420.387054 328.902435,419.975708 327.222260,419.131012 
	C327.181763,421.036957 326.455719,423.295197 327.222137,424.786407 
	C330.179535,430.540405 333.613617,436.049377 337.175751,442.317841 
z"/>
<path fill="#F65159" opacity="1.000000" stroke="none" 
	d="
M90.189163,68.319824 
	C90.965614,67.213814 91.716209,66.051392 92.501945,66.027130 
	C97.790642,65.863846 103.086800,65.942085 108.930817,65.942085 
	C108.930817,72.169792 108.855682,77.947487 108.951462,83.722343 
	C109.051872,89.776054 111.443970,92.142685 117.482025,92.221245 
	C123.264214,92.296471 129.048157,92.237480 135.072937,92.237480 
	C135.072937,98.715652 135.072937,104.498978 135.072937,111.035614 
	C129.439240,111.035614 123.831963,111.001953 118.225258,111.044243 
	C111.413429,111.095612 109.011215,113.525742 108.937378,120.434258 
	C108.882210,125.596962 108.908775,130.760513 108.882965,135.923615 
	C108.881348,136.247528 108.740654,136.570755 108.571472,137.291046 
	C102.771141,137.291046 96.870522,137.291046 90.175659,137.291046 
	C90.175659,131.539627 90.212433,125.789383 90.166016,120.039818 
	C90.112366,113.392754 87.807594,111.098579 81.136101,111.044991 
	C75.520348,110.999886 69.903938,111.035706 64.104301,111.035706 
	C64.104301,104.606682 64.104301,98.700462 64.104301,92.236000 
	C70.137810,92.236000 75.922592,92.289825 81.705910,92.221367 
	C87.902611,92.148010 90.080322,89.962891 90.160187,83.780083 
	C90.224724,78.784119 90.177315,73.786720 90.189163,68.319824 
z"/>
<path fill="#EEEEF9" opacity="1.000000" stroke="none" 
	d="
M337.022919,441.983765 
	C333.613617,436.049377 330.179535,430.540405 327.222137,424.786407 
	C326.455719,423.295197 327.181763,421.036957 327.222290,419.131012 
	C328.902435,419.975708 331.217224,420.387054 332.144928,421.745575 
	C335.039948,425.984985 337.366821,430.608521 339.994781,435.035156 
	C343.689392,441.258606 348.095276,441.880341 353.251740,436.768494 
	C364.838440,425.281952 376.342590,413.712128 387.880737,402.176636 
	C388.704865,401.352692 389.396454,400.150696 390.389282,399.796936 
	C391.989594,399.226685 393.789551,399.216644 395.505157,398.969940 
	C395.252991,400.594849 395.596130,402.805573 394.659760,403.757202 
	C379.598511,419.062805 364.416870,434.251099 349.149963,449.352173 
	C346.218536,452.251740 343.111420,451.713165 340.754456,448.303802 
	C339.435394,446.395691 338.360626,444.318726 337.022919,441.983765 
z"/>
</svg>