<?xml version="1.0" encoding="UTF-8"?>
<svg version="1.1" xmlns="http://www.w3.org/2000/svg" width="830" height="1024">
<path d="M0 0 C273.9 0 547.8 0 830 0 C830 337.92 830 675.84 830 1024 C556.1 1024 282.2 1024 0 1024 C0 686.08 0 348.16 0 0 Z " fill="#FEFEFE" transform="translate(0,0)"/>
<path d="M0 0 C2.80321576 1.40160788 3.27781203 3.21924565 4.6875 6 C12.4115498 20.43817541 22.63310689 29.41722525 38 35 C59.89445531 41.28735311 84.82830672 35.5441569 104.375 24.8125 C113.23969162 19.73086449 122.06610447 13.11377381 127 4 C130.6569929 5.58813072 133.35663382 7.85328238 136.375 10.4375 C140.81953092 14.20855442 145.33377515 17.86273006 149.9375 21.4375 C155.09684903 25.45323818 160.12517769 29.59027399 165.07666016 33.859375 C167.96251206 36.33169735 170.89267565 38.70588031 173.92578125 40.99609375 C174.57417969 41.48851562 175.22257812 41.9809375 175.890625 42.48828125 C177.14673508 43.43546995 178.41082536 44.37219149 179.68359375 45.296875 C181.39453125 46.58984375 181.39453125 46.58984375 184 49 C184 50.32 184 51.64 184 53 C182.3828125 54.5703125 182.3828125 54.5703125 180.125 56.125 C165.84362399 66.67884705 153.91636018 82.04699373 151 100 C148.91395697 126.83068114 154.60812973 151.2606161 162.08398438 176.86181641 C189.92166555 272.23110047 189.92166555 272.23110047 168.75 313.0625 C151.60994503 343.99547893 123.26112079 361.03338889 92.68896484 376.62695312 C90.96571274 377.50688501 89.24682554 378.39545014 87.53369141 379.29492188 C81.94287939 382.18676009 76.250783 384.49732673 70.36035156 386.70947266 C33.19506366 400.41421729 33.19506366 400.41421729 4 426 C2.53867114 429.27982433 2.53867114 429.27982433 2 432 C1.34 432 0.68 432 0 432 C-0.27972656 431.43152344 -0.55945313 430.86304688 -0.84765625 430.27734375 C-8.98836886 414.59796481 -24.7464918 407.30417582 -40.0625 399.9453125 C-41.91158052 399.04314015 -43.73891916 398.10874535 -45.5625 397.15625 C-52.42631992 393.59954331 -59.29905026 390.59729287 -66.58398438 388.04052734 C-70.35668602 386.70204342 -73.60811668 385.1098664 -77 383 C-78.42341146 382.40274602 -79.86202671 381.84064747 -81.3125 381.3125 C-117.41066358 367.18249505 -153.71221264 343.46535544 -169.8125 306.9375 C-179.61152275 283.84376688 -180.21545178 259.74428422 -175.43579102 235.2565918 C-174.94947932 232.73839626 -174.50954452 230.21363593 -174.06640625 227.6875 C-173.00460926 221.84812216 -171.7008947 216.08209233 -170.3125 210.3125 C-170.05339844 209.23452148 -169.79429687 208.15654297 -169.52734375 207.04589844 C-166.96443236 196.5654215 -163.956629 186.23365739 -160.86572266 175.89892578 C-155.7906294 159.52400072 -155.7906294 159.52400072 -152.32421875 142.765625 C-152 141 -152 141 -151 140 C-145.49848145 118.43565358 -148.04733877 96.06729429 -158.89404297 76.84960938 C-164.47448624 67.51684156 -174.05873361 56.9706332 -184 52 C-182.55774684 48.53100162 -180.84722592 46.8244143 -177.875 44.5625 C-176.98039062 43.86898437 -176.08578125 43.17546875 -175.1640625 42.4609375 C-174.66293945 42.07389648 -174.16181641 41.68685547 -173.64550781 41.28808594 C-170.47322096 38.80485367 -167.36863467 36.23751494 -164.25 33.6875 C-158.62752208 29.10690597 -152.96387823 24.58518382 -147.25048828 20.11865234 C-140.45484181 14.80278181 -133.72882782 9.40002569 -127 4 C-124.45295494 6.50088773 -122.08213287 8.89048951 -119.9375 11.75 C-107.68015244 26.55778945 -86.51206038 34.57993736 -67.99609375 36.68359375 C-48.84387301 38.35044956 -31.510008 35.93785682 -16.07421875 23.67578125 C-8.86863298 16.88569208 -4.33805398 8.80124414 0 0 Z " fill="#FCFCFC" transform="translate(441,396)"/>
<path d="M0 0 C2.80321576 1.40160788 3.27781203 3.21924565 4.6875 6 C12.4115498 20.43817541 22.63310689 29.41722525 38 35 C59.89445531 41.28735311 84.82830672 35.5441569 104.375 24.8125 C113.23969162 19.73086449 122.06610447 13.11377381 127 4 C130.6569929 5.58813072 133.35663382 7.85328238 136.375 10.4375 C140.81953092 14.20855442 145.33377515 17.86273006 149.9375 21.4375 C155.09684903 25.45323818 160.12517769 29.59027399 165.07666016 33.859375 C167.96251206 36.33169735 170.89267565 38.70588031 173.92578125 40.99609375 C174.57417969 41.48851562 175.22257812 41.9809375 175.890625 42.48828125 C177.14673508 43.43546995 178.41082536 44.37219149 179.68359375 45.296875 C181.39453125 46.58984375 181.39453125 46.58984375 184 49 C184 50.32 184 51.64 184 53 C182.3828125 54.5703125 182.3828125 54.5703125 180.125 56.125 C165.84362399 66.67884705 153.91636018 82.04699373 151 100 C148.91395697 126.83068114 154.60812973 151.2606161 162.08398438 176.86181641 C189.92166555 272.23110047 189.92166555 272.23110047 168.75 313.0625 C151.60994503 343.99547893 123.26112079 361.03338889 92.68896484 376.62695312 C90.96571274 377.50688501 89.24682554 378.39545014 87.53369141 379.29492188 C81.94287939 382.18676009 76.250783 384.49732673 70.36035156 386.70947266 C33.19506366 400.41421729 33.19506366 400.41421729 4 426 C2.53867114 429.27982433 2.53867114 429.27982433 2 432 C1.34 432 0.68 432 0 432 C-0.27972656 431.43152344 -0.55945313 430.86304688 -0.84765625 430.27734375 C-8.98836886 414.59796481 -24.7464918 407.30417582 -40.0625 399.9453125 C-41.91158052 399.04314015 -43.73891916 398.10874535 -45.5625 397.15625 C-52.42631992 393.59954331 -59.29905026 390.59729287 -66.58398438 388.04052734 C-70.35668602 386.70204342 -73.60811668 385.1098664 -77 383 C-78.42341146 382.40274602 -79.86202671 381.84064747 -81.3125 381.3125 C-117.41066358 367.18249505 -153.71221264 343.46535544 -169.8125 306.9375 C-179.61152275 283.84376688 -180.21545178 259.74428422 -175.43579102 235.2565918 C-174.94947932 232.73839626 -174.50954452 230.21363593 -174.06640625 227.6875 C-173.00460926 221.84812216 -171.7008947 216.08209233 -170.3125 210.3125 C-170.05339844 209.23452148 -169.79429687 208.15654297 -169.52734375 207.04589844 C-166.96443236 196.5654215 -163.956629 186.23365739 -160.86572266 175.89892578 C-155.7906294 159.52400072 -155.7906294 159.52400072 -152.32421875 142.765625 C-152 141 -152 141 -151 140 C-145.49848145 118.43565358 -148.04733877 96.06729429 -158.89404297 76.84960938 C-164.47448624 67.51684156 -174.05873361 56.9706332 -184 52 C-182.55774684 48.53100162 -180.84722592 46.8244143 -177.875 44.5625 C-176.98039062 43.86898437 -176.08578125 43.17546875 -175.1640625 42.4609375 C-174.66293945 42.07389648 -174.16181641 41.68685547 -173.64550781 41.28808594 C-170.47322096 38.80485367 -167.36863467 36.23751494 -164.25 33.6875 C-158.62752208 29.10690597 -152.96387823 24.58518382 -147.25048828 20.11865234 C-140.45484181 14.80278181 -133.72882782 9.40002569 -127 4 C-124.45295494 6.50088773 -122.08213287 8.89048951 -119.9375 11.75 C-107.68015244 26.55778945 -86.51206038 34.57993736 -67.99609375 36.68359375 C-48.84387301 38.35044956 -31.510008 35.93785682 -16.07421875 23.67578125 C-8.86863298 16.88569208 -4.33805398 8.80124414 0 0 Z M-131.703125 47.99609375 C-132.21359375 48.47175781 -132.7240625 48.94742188 -133.25 49.4375 C-134.61125 50.7059375 -134.61125 50.7059375 -136 52 C-134.70391447 55.47670335 -133.17167921 58.4942898 -131.1875 61.625 C-115.01012107 88.3511321 -114.32116668 122.97596745 -121.26586914 152.92382812 C-122.10449211 156.30369436 -123.04188678 159.65232041 -124 163 C-124.21672363 163.76441406 -124.43344727 164.52882813 -124.65673828 165.31640625 C-125.62244141 168.71786518 -126.59373679 172.11762958 -127.57495117 175.51464844 C-130.28350754 184.9056593 -132.822958 194.34018078 -135.3359375 203.78515625 C-136.33266731 207.53115166 -137.3515685 211.26824465 -138.4140625 214.99609375 C-146.20800683 242.65174255 -151.81047539 273.31389753 -138.1875 300 C-117.3749982 334.72289841 -75.96801104 349.72293602 -40.49731445 364.77612305 C-27.67647009 370.23747296 -15.11506804 375.80434743 -3.56640625 383.6640625 C-1.18790273 385.22278454 -1.18790273 385.22278454 0.93164062 384.70654297 C3.01707056 383.99416877 4.75727612 383.1390723 6.66015625 382.03125 C7.36084229 381.6297876 8.06152832 381.2283252 8.78344727 380.81469727 C9.91157837 380.16392212 9.91157837 380.16392212 11.0625 379.5 C24.35106664 371.99351222 38.14567033 365.7860759 52.125 359.6875 C64.90813308 354.11019277 77.4915339 348.16684856 90 342 C90.75522949 341.63310059 91.51045898 341.26620117 92.28857422 340.88818359 C114.84237032 329.87703487 134.89498617 313.46517559 144.2109375 289.609375 C152.19845028 263.19522382 145.10058885 233.87900564 138 208 C137.78166504 207.19385254 137.56333008 206.38770508 137.33837891 205.55712891 C135.48745917 198.73041316 133.5870329 191.92276346 131.5390625 185.15234375 C121.742579 152.63874416 111.65770069 115.4299348 123 82 C123.21962402 81.34902344 123.43924805 80.69804687 123.66552734 80.02734375 C126.3796789 72.17493643 129.82594331 65.10443908 134.58203125 58.26953125 C135.92575652 56.11883048 136.56152543 54.4770966 137 52 C135.02 50.35 133.04 48.7 131 47 C127.86445924 48.1260573 124.99367845 49.51483019 122.09375 51.13671875 C110.4610364 57.63002048 98.83818543 62.43108359 86 66 C85.31405762 66.19207031 84.62811523 66.38414062 83.92138672 66.58203125 C61.79127691 72.46393718 35.43223872 70.67231955 15 60 C11.53769726 57.92241954 8.16066061 55.7332884 4.8125 53.4765625 C2.23356227 51.77029211 2.23356227 51.77029211 0.0546875 52.28735352 C-2.00919961 53.00319079 -3.78541051 53.85436056 -5.6875 54.92578125 C-6.38037109 55.30855225 -7.07324219 55.69132324 -7.78710938 56.08569336 C-8.51736328 56.49053955 -9.24761719 56.89538574 -10 57.3125 C-16.81803424 61.00414876 -23.47953991 63.99156852 -31 66 C-31.78632813 66.21140625 -32.57265625 66.4228125 -33.3828125 66.640625 C-61.40244202 73.47468098 -93.68262302 67.67994744 -118.31640625 53.02734375 C-120.14987003 51.83839986 -121.96915683 50.6269504 -123.765625 49.3828125 C-127.61337026 46.91033637 -127.61337026 46.91033637 -131.703125 47.99609375 Z " fill="#444648" transform="translate(441,396)"/>
<path d="M0 0 C1.72573242 -0.01740234 1.72573242 -0.01740234 3.48632812 -0.03515625 C13.88757887 0.00020211 22.99601739 1.97326578 32.125 7 C32.75921875 7.34409912 33.3934375 7.68819824 34.046875 8.04272461 C39.96946205 11.38318984 44.76209437 15.57459437 49.5625 20.375 C50.18382812 20.91382813 50.80515625 21.45265625 51.4453125 22.0078125 C60.74064728 30.3027525 65.67959174 42.53390222 68.5625 54.375 C68.75328125 55.13941406 68.9440625 55.90382813 69.140625 56.69140625 C71.96909837 74.68363962 68.26336572 92.90119251 57.796875 107.90625 C56.10369412 110.1147468 54.36218091 112.25269811 52.5625 114.375 C51.79808594 115.3546875 51.03367187 116.334375 50.24609375 117.34375 C47.6093491 120.50346477 44.60822347 122.7005588 41.1875 125 C40.10726562 125.73476563 39.02703125 126.46953125 37.9140625 127.2265625 C21.69130702 137.62576473 4.19519733 141.24340232 -14.85083008 137.23901367 C-32.03830809 133.08673789 -48.05763955 122.7095063 -57.58789062 107.54443359 C-60.21850158 102.97081009 -62.40812482 98.24135885 -64.4375 93.375 C-64.89382813 92.28832031 -65.35015625 91.20164062 -65.8203125 90.08203125 C-71.27509201 74.42338096 -70.52055521 55.3121772 -63.4375 40.375 C-54.55069415 22.18240737 -39.97222696 9.79954357 -21.24584961 2.5234375 C-14.16363601 0.09730324 -7.43616945 -0.07473537 0 0 Z " fill="#444648" transform="translate(441.4375,501.625)"/>
<path d="M0 0 C112.86 0 225.72 0 342 0 C340.1482404 6.172532 338.33848866 11.98243416 335.875 17.875 C334.34443841 21.56328013 332.97262376 25.10950495 332 29 C218.81 29 105.62 29 -11 29 C-8 19 -8 19 0 0 Z " fill="#EFC909" transform="translate(284,909)"/>
<path d="M0 0 C2.85644219 1.0923199 5.13695335 2.68750354 7.67578125 4.39453125 C31.95619877 19.90741303 63.00604944 25.67788999 91.17578125 19.83203125 C92.17996094 19.62578125 93.18414062 19.41953125 94.21875 19.20703125 C104.85993031 16.78420106 114.37532388 12.50848581 123.80078125 7.06640625 C127.88256091 4.94495498 127.88256091 4.94495498 130.17578125 4.83203125 C132.98828125 6.30859375 132.98828125 6.30859375 136.17578125 8.45703125 C157.44497019 22.1613902 183.4703078 25.39042013 208.11328125 20.20703125 C211.15811664 19.49267962 214.16722794 18.68540947 217.17578125 17.83203125 C217.91844238 17.62835938 218.66110352 17.4246875 219.42626953 17.21484375 C230.41190575 14.12982002 240.1970875 9.52179874 250.1640625 4.00390625 C253.10141187 2.37907644 256.00857244 0.96995058 259.17578125 -0.16796875 C261.15578125 1.48203125 263.13578125 3.13203125 265.17578125 4.83203125 C264.54375098 8.40259187 263.04572343 10.68780971 260.98828125 13.64453125 C256.66589625 20.33182772 253.70935711 27.322386 251.17578125 34.83203125 C250.75941406 36.05921875 250.34304688 37.28640625 249.9140625 38.55078125 C241.37476907 66.96209102 248.84855426 98.1030835 256.17578125 125.83203125 C256.59098086 127.4372063 257.00521731 129.04263119 257.41796875 130.6484375 C258.6675806 135.46145863 259.9576184 140.23030592 261.56640625 144.9375 C266.58020107 159.81186203 270.59210157 175.34814807 273.17578125 190.83203125 C273.48128906 192.49298828 273.48128906 192.49298828 273.79296875 194.1875 C275.1106755 202.31937525 275.40911136 210.35440602 275.48828125 218.58203125 C275.50592529 219.62343262 275.52356934 220.66483398 275.54174805 221.73779297 C275.5249775 240.96294307 266.83350042 257.24648976 253.67578125 270.83203125 C231.29392652 292.94388266 198.71641861 304.82234247 170.37719727 317.09741211 C150.26355353 325.07232103 150.26355353 325.07232103 132.16918945 336.5390625 C130.17578125 337.83203125 130.17578125 337.83203125 128.19165039 337.66333008 C125.991351 336.75597639 123.98357014 335.72241619 121.921875 334.53125 C120.66068848 333.81630371 120.66068848 333.81630371 119.37402344 333.08691406 C118.46297852 332.56967773 117.55193359 332.05244141 116.61328125 331.51953125 C104.81576593 324.94861263 92.62057977 319.49980242 80.23144531 314.15136719 C1.40563765 280.11695806 1.40563765 280.11695806 -13.19921875 245.70703125 C-13.76577065 244.09053914 -14.30766162 242.46518663 -14.82421875 240.83203125 C-15.26894531 239.59066406 -15.26894531 239.59066406 -15.72265625 238.32421875 C-26.30814332 204.23700808 -8.9728072 161.50871527 0.45800781 128.94873047 C1.71598549 124.58175081 2.94664874 120.20719823 4.17578125 115.83203125 C4.38267578 115.10693359 4.58957031 114.38183594 4.80273438 113.63476562 C14.33841539 79.92047648 13.65168149 44.16663925 -3.39453125 13.20703125 C-4.76749097 10.79694929 -4.76749097 10.79694929 -6.56640625 8.70703125 C-6.98148437 8.08828125 -7.3965625 7.46953125 -7.82421875 6.83203125 C-6.63261682 3.25722546 -4.22856249 -0.38935372 0 0 Z M2.17578125 8.83203125 C3.53666612 12.41805962 5.16359105 15.71189103 6.98828125 19.08203125 C9.49654228 24.06175731 11.35151232 29.00263092 12.92578125 34.33203125 C13.12405518 34.99493164 13.3223291 35.65783203 13.52661133 36.34082031 C23.05138032 70.07454684 14.44232241 106.87548442 4.20654297 139.47680664 C-13.3972155 193.77354648 -13.3972155 193.77354648 -5.07421875 248.14453125 C-1.97263934 253.9502515 1.80500924 258.92742449 6.17578125 263.83203125 C6.76875 264.5075 7.36171875 265.18296875 7.97265625 265.87890625 C28.65992104 287.98068487 60.92348082 299.17144849 88.17578125 310.83203125 C91.26652667 312.16973438 94.3481621 313.52690197 97.42578125 314.89453125 C98.28824463 315.27722168 99.15070801 315.65991211 100.03930664 316.05419922 C107.2209377 319.29170747 114.15861647 322.90687721 120.99511719 326.82055664 C121.73407227 327.22910889 122.47302734 327.63766113 123.234375 328.05859375 C123.87689209 328.42549316 124.51940918 328.79239258 125.18139648 329.17041016 C128.54122506 330.28500624 131.14965009 329.2999889 134.28344727 327.87084961 C134.99170654 327.47518799 135.69996582 327.07952637 136.4296875 326.671875 C137.2657251 326.21603027 138.1017627 325.76018555 138.96313477 325.29052734 C139.87893311 324.78859863 140.79473145 324.28666992 141.73828125 323.76953125 C152.03649925 318.25628403 162.55195441 313.40925901 173.23828125 308.70703125 C174.01792236 308.36329468 174.79756348 308.01955811 175.60083008 307.66540527 C181.93940095 304.8721089 188.28467694 302.09423512 194.6328125 299.32275391 C221.38200124 287.60936233 252.55746003 272.60811409 264.74609375 244.16796875 C273.589357 220.16482564 268.35789755 194.03162072 261.76171875 170.00097656 C261.08330926 167.48973076 260.44098782 164.97047182 259.80078125 162.44921875 C257.42692029 153.13885295 254.94386115 143.88951284 252.11328125 134.70703125 C248.98368858 124.53024101 246.45501372 114.23050758 244.17578125 103.83203125 C243.99466797 103.0112207 243.81355469 102.19041016 243.62695312 101.34472656 C241.45229048 91.05319576 240.98921274 81.00322782 240.99047852 70.4921875 C240.98829227 68.46723374 240.97006597 66.44282679 240.95117188 64.41796875 C240.92349603 45.59839194 245.33954167 29.32924703 254.17578125 12.83203125 C254.84764436 11.50130882 255.51695373 10.16925543 256.17578125 8.83203125 C252.64816267 10.12992865 249.43617372 11.75437859 246.16430664 13.59912109 C238.07923946 18.13472409 230.07601666 21.23921594 221.17578125 23.83203125 C220.45261719 24.05503906 219.72945312 24.27804687 218.984375 24.5078125 C217.05553105 25.05355453 215.14644268 25.46298011 213.17578125 25.83203125 C212.21929688 26.01636719 211.2628125 26.20070313 210.27734375 26.390625 C184.53531972 30.58455026 155.46407119 29.38515423 133.4921875 13.87109375 C130.27840323 12.42949743 128.54406461 12.8938143 125.17578125 13.83203125 C123.01784454 14.8481736 120.89398776 15.93847425 118.80078125 17.08203125 C94.16622646 29.98584567 63.62880339 31.93709871 37.17578125 23.83203125 C36.53576172 23.6501123 35.89574219 23.46819336 35.23632812 23.28076172 C24.89450205 20.33760216 15.65173888 15.81763962 6.17578125 10.83203125 C4.84457103 10.16113516 3.51248146 9.49192123 2.17578125 8.83203125 Z " fill="#F3F4F4" transform="translate(312.82421875,443.16796875)"/>
<path d="M0 0 C0.89525391 0.52787109 0.89525391 0.52787109 1.80859375 1.06640625 C29.3239694 16.72523073 62.62571224 24.7154906 93.92773438 16.84301758 C95.9692676 16.27374389 97.98415448 15.65422286 100 15 C101.06444336 14.65461182 101.06444336 14.65461182 102.15039062 14.30224609 C109.51819582 11.83915247 116.60204246 9.11635869 123.10546875 4.78515625 C125.83369716 3.65448839 127.19062639 4.10537238 130 5 C132.42822378 6.20987169 134.80523542 7.45682964 137.1875 8.75 C161.86717707 21.65139816 193.08135218 22.75262562 219.4375 14.5625 C221.97513469 13.74744886 224.48363778 12.88242879 227 12 C227.64622314 11.77513916 228.29244629 11.55027832 228.95825195 11.31860352 C234.71072679 9.25092286 240.03366037 6.53170792 245.43945312 3.69726562 C250.68886248 1 250.68886248 1 254 1 C253.55269531 1.70382812 253.10539062 2.40765625 252.64453125 3.1328125 C242.2054069 20.18264033 238.81232317 37.43326315 238.81469727 57.20947266 C238.81251905 59.2323133 238.79432465 61.25459959 238.77539062 63.27734375 C238.76298248 71.72315494 239.4664681 79.70056615 241 88 C241.15138428 88.89299805 241.30276855 89.78599609 241.45874023 90.70605469 C243.36518721 101.90336005 245.90040881 112.70645895 249.25976562 123.54736328 C250.77579684 128.57046671 252.15801302 133.63231779 253.5625 138.6875 C255.85606924 146.96462394 255.85606924 146.96462394 258.23046875 155.21875 C266.56253774 183.56693875 273.28918313 215.36275037 258.609375 242.578125 C241.53108614 271.5946352 206.3610264 284.7376764 177.0546875 297.45703125 C176.37371002 297.75261429 175.69273254 298.04819733 174.99111938 298.35273743 C174.30617401 298.65004257 173.62122864 298.94734772 172.91552734 299.25366211 C171.52699026 299.85654367 170.13848112 300.45948957 168.75 301.0625 C168.06705872 301.35899445 167.38411743 301.65548889 166.68048096 301.96096802 C158.11064984 305.68767387 149.61143807 309.5075677 141.25 313.6875 C140.05455566 314.28413452 140.05455566 314.28413452 138.83496094 314.89282227 C135.91869244 316.37983367 133.35508678 317.69610274 130.859375 319.83203125 C128.04826156 321.5978357 126.16710088 320.72036683 123 320 C120.46142578 318.89599609 120.46142578 318.89599609 117.9453125 317.5234375 C117.00856689 317.02078369 116.07182129 316.51812988 115.10668945 316.00024414 C113.63075317 315.19574829 113.63075317 315.19574829 112.125 314.375 C102.08917599 309.01923347 91.99460711 304.25319013 81.4609375 299.96679688 C56.19007179 289.59442662 29.45338851 278.51860852 9 260 C8.29875 259.3915625 7.5975 258.783125 6.875 258.15625 C-2.15274726 249.83379549 -8.66705637 238.76658 -12 227 C-12.33451172 225.93458984 -12.33451172 225.93458984 -12.67578125 224.84765625 C-20.11964656 197.65476052 -7.64123384 162.33594235 0.4375 136.35546875 C4.66503677 122.71954958 8.07489443 108.97387467 11 95 C11.21462891 93.97825684 11.42925781 92.95651367 11.65039062 91.90380859 C17.86116719 61.44635747 16.6470162 32.72470924 2 5 C1.31930677 3.33901266 0.6499231 1.67326692 0 0 Z M118.5 14.25 C103.59824372 21.88503991 88.80184517 25.54313867 71.98608398 25.33618164 C69.93498496 25.31247093 67.88518738 25.31566855 65.83398438 25.32226562 C48.05502952 25.28551354 31.52333215 21.45818387 15 15 C15.55190544 19.59921199 16.52689449 23.62405992 18 28 C20.67092595 37.70082168 21.45178866 46.76134346 21.33618164 56.75854492 C21.31255425 58.93250815 21.31565605 61.10523693 21.32226562 63.27929688 C21.29727211 78.39161309 18.86963298 92.6390198 15.11376953 107.23779297 C14.49229757 109.65495799 13.88391703 112.0751513 13.27734375 114.49609375 C12.88355679 116.05227186 12.48905242 117.60826866 12.09375 119.1640625 C11.91348267 119.87865631 11.73321533 120.59325012 11.54748535 121.32949829 C10.59607059 125.01255973 9.46083256 128.49076327 8 132 C7.36454389 134.40862838 6.76392399 136.82656638 6.1875 139.25 C4.99526046 144.193971 3.70221704 149.07193864 2.18774414 153.92700195 C-3.38382328 171.84260433 -7.15165998 190.59205689 -7.25 209.375 C-7.270625 210.35210938 -7.29125 211.32921875 -7.3125 212.3359375 C-7.39829057 228.4645645 0.05612056 241.9860313 11.19140625 253.2890625 C23.87268448 265.52940616 39.24405998 273.43800084 55 281 C55.76924805 281.37157227 56.53849609 281.74314453 57.33105469 282.12597656 C67.45250769 287.00837856 77.63481909 291.65925165 88 296 C90.3345996 296.9970402 92.66782938 297.99729135 95 299 C96.01344482 299.4328833 96.01344482 299.4328833 97.04736328 299.87451172 C105.95421024 303.69230929 114.47610774 307.54783652 122.6171875 312.84765625 C125.4593871 314.22216261 126.09192091 313.96879116 129 313 C130.249115 312.39489885 131.47648553 311.74366706 132.68359375 311.05859375 C144.18700964 304.70702207 155.91937419 299.32509227 168 294.1875 C220.68774911 273.59061604 220.68774911 273.59061604 256.51171875 232.546875 C268.15844793 202.77930357 255.35216264 166.67902167 246.73144531 137.33325195 C222.89630268 56.18425418 222.89630268 56.18425418 238.23046875 18.96875 C239.12135031 17.0418405 239.12135031 17.0418405 239 15 C233.42885339 16.66002563 227.86656993 18.34613811 222.3125 20.0625 C221.2090625 20.40023438 220.105625 20.73796875 218.96875 21.0859375 C216.74505566 21.77060128 214.5272038 22.4742903 212.3125 23.1875 C203.42329701 25.36787055 194.22520154 25.18635525 185.12304688 25.18530273 C183.00370381 25.18749617 180.88487705 25.20573999 178.765625 25.22460938 C171.28241363 25.25642021 164.25192538 24.93192609 157 23 C156.32243652 22.82831299 155.64487305 22.65662598 154.94677734 22.47973633 C146.11145501 20.13103691 138.45669194 16.99396301 130.57421875 12.35546875 C125.69458877 9.7860733 123.07101672 11.84313721 118.5 14.25 Z " fill="#4D4F51" transform="translate(315,452)"/>
<path d="M0 0 C10.89 0 21.78 0 33 0 C37.48835013 11.22087531 37.48835013 11.22087531 38.8515625 15.97265625 C39.29242188 17.4740918 39.29242188 17.4740918 39.7421875 19.00585938 C40.34070299 21.07815303 40.93698691 23.15109227 41.53125 25.22460938 C41.82257813 26.21396484 42.11390625 27.20332031 42.4140625 28.22265625 C42.6713916 29.11734619 42.9287207 30.01203613 43.19384766 30.93383789 C43.80484251 33.18187769 43.80484251 33.18187769 46 34 C46.09410156 32.92363281 46.18820312 31.84726562 46.28515625 30.73828125 C47.00035345 25.03304383 48.73285409 19.66250325 50.4375 14.1875 C50.75009766 13.15173828 51.06269531 12.11597656 51.38476562 11.04882812 C53.73749247 3.3937613 53.73749247 3.3937613 56 0 C58.47165848 -0.27980316 60.68978741 -0.37255486 63.16015625 -0.328125 C63.86522812 -0.32625183 64.57029999 -0.32437866 65.29673767 -0.32244873 C66.7871473 -0.31572481 68.27753919 -0.30180341 69.76782227 -0.28125 C72.05696893 -0.25007532 74.34542768 -0.24027853 76.63476562 -0.234375 C78.08073762 -0.22520598 79.52670257 -0.21483053 80.97265625 -0.203125 C81.66118179 -0.19887512 82.34970734 -0.19462524 83.05909729 -0.19024658 C87.88283631 -0.11716369 87.88283631 -0.11716369 89 1 C89.09967586 3.26449379 89.12799831 5.53214211 89.12939453 7.79882812 C89.13202301 8.8646537 89.13202301 8.8646537 89.13470459 9.95201111 C89.13912277 12.31178191 89.13618525 14.67147837 89.1328125 17.03125 C89.13348555 18.66410334 89.13445558 20.29695658 89.13571167 21.92980957 C89.1371886 25.35637361 89.13503426 28.78291163 89.13037109 32.20947266 C89.1246738 36.61154501 89.12795284 41.01355641 89.13394356 45.41562653 C89.13754931 48.78868065 89.13641052 52.16172022 89.13381577 55.53477478 C89.13314654 57.15836087 89.13397478 58.78194827 89.13629532 60.40553284 C89.13882209 62.6707817 89.13498094 64.9359305 89.12939453 67.20117188 C89.12859894 68.49277222 89.12780334 69.78437256 89.12698364 71.1151123 C89 74 89 74 88 75 C80.74 75 73.48 75 66 75 C66 59.16 66 43.32 66 27 C65.34 27 64.68 27 64 27 C63.76325562 28.13791992 63.76325562 28.13791992 63.52172852 29.29882812 C61.56841394 38.25067477 58.88755793 46.84336027 55.9375 55.5 C55.4857986 56.84357209 55.03462446 58.18732156 54.58398438 59.53125 C52.83005962 64.73898854 51.0419075 69.89523126 49 75 C44.38 75 39.76 75 35 75 C32.86580912 69.41954759 30.91094291 63.81212639 29.08203125 58.125 C28.84915405 57.40570313 28.61627686 56.68640625 28.37634277 55.9453125 C27.51969925 53.29753067 26.66628073 50.64870632 25.8125 48 C23.894375 42.06 21.97625 36.12 20 30 C19.67 44.85 19.34 59.7 19 75 C13.06 75 7.12 75 1 75 C0 74 0 74 -0.12025452 71.07041931 C-0.11803391 69.75803787 -0.11581329 68.44565643 -0.11352539 67.09350586 C-0.11367142 66.37159561 -0.11381744 65.64968536 -0.1139679 64.90589905 C-0.11326869 62.50885053 -0.10547595 60.11187877 -0.09765625 57.71484375 C-0.0957921 56.05717511 -0.09436818 54.39950593 -0.09336853 52.74183655 C-0.08954312 48.37045786 -0.07971265 43.99911219 -0.06866455 39.62774658 C-0.05665641 34.38732333 -0.0520483 29.14688906 -0.04621124 23.90645599 C-0.0365009 15.93761434 -0.01734452 7.96884518 0 0 Z " fill="#FFBE5C" transform="translate(304,268)"/>
<path d="M0 0 C6.61847025 4.82689329 10.76727933 13.64830644 12.86328125 21.41796875 C14.52590476 34.29316299 12.98100972 47.21234152 5.18359375 57.8984375 C-1.34702446 64.97560959 -9.12033062 69.55712059 -18.79296875 70.13671875 C-31.07953364 70.43164921 -39.88310543 69.40235575 -49.13671875 60.61328125 C-58.2692033 51.28965168 -60.10869948 41.14548918 -60.13330078 28.44165039 C-59.94008706 17.35332955 -55.74895556 9.18081772 -48.2265625 1.21484375 C-34.63208446 -11.61194612 -14.93171575 -9.0553631 0 0 Z " fill="#FFBE5C" transform="translate(282.81640625,274.1015625)"/>
<path d="M0 0 C6.61590524 -0.15338104 13.23134455 -0.25772529 19.84863281 -0.32958984 C22.09490085 -0.35957878 24.34105362 -0.40038448 26.58691406 -0.45263672 C52.50822193 -1.04018636 52.50822193 -1.04018636 63.125 8.625 C67.70895334 14.4313409 67.73411287 19.77038215 67 27 C65.24964094 33.30967758 61.23421614 37.27416635 56 41 C55.01 41.495 55.01 41.495 54 42 C56.0594054 48.99487697 59.41068614 55.47094162 62.54296875 62.03320312 C62.98511719 62.98259766 63.42726563 63.93199219 63.8828125 64.91015625 C64.28902832 65.76746338 64.69524414 66.62477051 65.11376953 67.50805664 C66.06042062 70.16989347 66.16998173 72.19718314 66 75 C62.22956968 75.14496508 58.45985258 75.23395607 54.6875 75.3125 C53.61564453 75.35439453 52.54378906 75.39628906 51.43945312 75.43945312 C50.41142578 75.45556641 49.38339844 75.47167969 48.32421875 75.48828125 C47.37635498 75.51446533 46.42849121 75.54064941 45.4519043 75.56762695 C43 75 43 75 41.2199707 72.61914062 C40.06813942 70.1462877 39.2136728 67.81704442 38.5 65.1875 C37.21526686 60.68424269 35.74002827 56.34541819 34 52 C33.608125 50.865625 33.21625 49.73125 32.8125 48.5625 C31.31740632 45.85384618 31.31740632 45.85384618 29.07299805 45.53100586 C28.35152588 45.46792236 27.63005371 45.40483887 26.88671875 45.33984375 C25.60410156 45.22769531 24.32148438 45.11554688 23 45 C23.00785522 46.30988892 23.00785522 46.30988892 23.01586914 47.64624023 C23.03287751 50.87589273 23.04543369 54.10552245 23.05493164 57.33520508 C23.0599708 58.73495228 23.06680216 60.1346942 23.07543945 61.53442383 C23.0875232 63.54245777 23.09269807 65.55052957 23.09765625 67.55859375 C23.10551147 69.37315063 23.10551147 69.37315063 23.11352539 71.22436523 C23 74 23 74 22 75 C20.45044441 75.09899523 18.89646327 75.13079524 17.34375 75.1328125 C15.93416016 75.13474609 15.93416016 75.13474609 14.49609375 75.13671875 C13.01302734 75.13091797 13.01302734 75.13091797 11.5 75.125 C10.51128906 75.12886719 9.52257812 75.13273437 8.50390625 75.13671875 C7.56417969 75.13542969 6.62445313 75.13414062 5.65625 75.1328125 C4.78806641 75.13168457 3.91988281 75.13055664 3.02539062 75.12939453 C1 75 1 75 0 74 C-0.09443335 71.69946165 -0.11742128 69.39597827 -0.11352539 67.09350586 C-0.11367142 66.37159561 -0.11381744 65.64968536 -0.1139679 64.90589905 C-0.11326869 62.50885053 -0.10547595 60.11187877 -0.09765625 57.71484375 C-0.0957921 56.05717511 -0.09436818 54.39950593 -0.09336853 52.74183655 C-0.08954312 48.37045786 -0.07971265 43.99911219 -0.06866455 39.62774658 C-0.05845092 35.17045539 -0.05387101 30.71315889 -0.04882812 26.25585938 C-0.0380904 17.50389107 -0.02101371 8.75194964 0 0 Z " fill="#FF924F" transform="translate(452,74)"/>
<path d="M0 0 C7.83225038 0.21189035 7.83225038 0.21189035 11.5703125 3.51147461 C12.61285581 5.17302801 13.60412562 6.86688962 14.5703125 8.57397461 C16.00459441 10.64137424 17.48152138 12.67509782 18.95751953 14.71289062 C22.32184968 19.37742284 25.57337072 24.12168226 28.828125 28.86303711 C29.44429687 29.75764648 30.06046875 30.65225586 30.6953125 31.57397461 C31.21351563 32.33709961 31.73171875 33.10022461 32.265625 33.88647461 C33.48028818 35.70982155 33.48028818 35.70982155 35.5703125 36.57397461 C35.5703125 24.69397461 35.5703125 12.81397461 35.5703125 0.57397461 C41.5103125 0.57397461 47.4503125 0.57397461 53.5703125 0.57397461 C53.5703125 25.32397461 53.5703125 50.07397461 53.5703125 75.57397461 C35.5703125 75.57397461 35.5703125 75.57397461 31.42578125 72.48803711 C30.0246582 70.44189453 30.0246582 70.44189453 28.7578125 68.19897461 C27.73449292 66.64551151 26.71105121 65.09212885 25.6875 63.53881836 C25.18444336 62.72654785 24.68138672 61.91427734 24.16308594 61.07739258 C21.45239583 56.8169057 18.3893983 52.81555107 15.3828125 48.76147461 C14.300677 47.27966263 13.22347468 45.79422942 12.15234375 44.30444336 C11.70093018 43.67948975 11.2495166 43.05453613 10.78442383 42.41064453 C9.53954243 40.52742661 8.53752923 38.61174681 7.5703125 36.57397461 C6.9103125 36.57397461 6.2503125 36.57397461 5.5703125 36.57397461 C5.5703125 49.44397461 5.5703125 62.31397461 5.5703125 75.57397461 C-0.3696875 75.57397461 -6.3096875 75.57397461 -12.4296875 75.57397461 C-14.33139454 73.67226757 -13.55752956 70.29549748 -13.55908203 67.77514648 C-13.56083435 67.0645961 -13.56258667 66.35404572 -13.56439209 65.6219635 C-13.56881027 63.2621927 -13.56587275 60.90249623 -13.5625 58.54272461 C-13.56317305 56.90987127 -13.56414308 55.27701803 -13.56539917 53.64416504 C-13.5668761 50.217601 -13.56472176 46.79106298 -13.56005859 43.36450195 C-13.5543613 38.9624296 -13.55764034 34.5604182 -13.56363106 30.15834808 C-13.56723681 26.78529395 -13.56609802 23.41225439 -13.56350327 20.03919983 C-13.56283404 18.41561374 -13.56366228 16.79202634 -13.56598282 15.16844177 C-13.56850959 12.90319291 -13.56466844 10.63804411 -13.55908203 8.37280273 C-13.55828644 7.08120239 -13.55749084 5.78960205 -13.55667114 4.4588623 C-13.27370193 -1.96979572 -5.08057784 0.02078579 0 0 Z " fill="#FFBE5B" transform="translate(670.4296875,267.426025390625)"/>
<path d="M0 0 C0.66 0 1.32 0 2 0 C3.27341024 3.79080602 4.54324676 7.58280029 5.8125 11.375 C6.16892578 12.43589844 6.52535156 13.49679687 6.89257812 14.58984375 C8.55451778 19.56041557 10.19914636 24.53625871 11.76171875 29.5390625 C12.00237061 30.30686035 12.24302246 31.0746582 12.4909668 31.86572266 C13 34 13 34 13 38 C26.53 38 40.06 38 54 38 C50.24480817 41.75519183 46.74238128 44.7765253 42.4375 47.75 C41.20356469 48.61595994 39.97050933 49.48317495 38.73828125 50.3515625 C38.11904785 50.78758789 37.49981445 51.22361328 36.86181641 51.67285156 C32.16974974 55.01747186 27.59107327 58.51885653 23 62 C23.5843208 66.99208865 24.64742558 71.39590403 26.28515625 76.17578125 C26.50570175 76.82701462 26.72624725 77.47824799 26.95347595 78.1492157 C27.65072201 80.20566004 28.35602526 82.25920973 29.0625 84.3125 C29.77142827 86.3839937 30.47856363 88.45605739 31.18223572 90.52934265 C31.81685717 92.3976115 32.45723322 94.26392266 33.09790039 96.13012695 C34 99 34 99 34 101 C30.17479679 99.28428386 26.88075601 96.88294599 23.5 94.4375 C22.88777588 93.99929932 22.27555176 93.56109863 21.64477539 93.10961914 C18.58833834 90.91190475 15.56488683 88.68185625 12.58984375 86.375 C11.54957031 85.570625 10.50929688 84.76625 9.4375 83.9375 C8.04337891 82.83728516 8.04337891 82.83728516 6.62109375 81.71484375 C3.85700518 79.90644601 2.26536809 79.28245327 -1 79 C-3.22480795 79.99838951 -3.22480795 79.99838951 -5.2578125 81.68359375 C-6.04373779 82.27833496 -6.82966309 82.87307617 -7.6394043 83.48583984 C-8.45965088 84.1298877 -9.27989746 84.77393555 -10.125 85.4375 C-11.82145827 86.73067384 -13.51807222 88.02364347 -15.21484375 89.31640625 C-16.0332373 89.94820801 -16.85163086 90.58000977 -17.69482422 91.23095703 C-20.65403895 93.50192398 -23.66180239 95.69349963 -26.6875 97.875 C-27.53699219 98.49117187 -28.38648438 99.10734375 -29.26171875 99.7421875 C-29.83535156 100.15726563 -30.40898437 100.57234375 -31 101 C-32.03250572 97.84622028 -31.97792424 96.12219282 -30.82421875 93.02734375 C-30.5411084 92.24085449 -30.25799805 91.45436523 -29.96630859 90.64404297 C-29.64742676 89.77150879 -29.32854492 88.89897461 -29 88 C-28.31380483 85.98223156 -27.63308517 83.9625951 -26.95703125 81.94140625 C-26.60576172 80.89662109 -26.25449219 79.85183594 -25.89257812 78.77539062 C-25.53615234 77.71513672 -25.17972656 76.65488281 -24.8125 75.5625 C-24.26045898 73.93151367 -24.26045898 73.93151367 -23.69726562 72.26757812 C-23.34986328 71.23181641 -23.00246094 70.19605469 -22.64453125 69.12890625 C-22.32846924 68.19119385 -22.01240723 67.25348145 -21.68676758 66.28735352 C-20.90414547 64.07878425 -20.90414547 64.07878425 -21 62 C-22.62616304 60.51979472 -22.62616304 60.51979472 -24.76953125 59.0234375 C-25.57148926 58.43852539 -26.37344727 57.85361328 -27.19970703 57.25097656 C-28.06192871 56.6319043 -28.92415039 56.01283203 -29.8125 55.375 C-30.6772998 54.74561523 -31.54209961 54.11623047 -32.43310547 53.46777344 C-36.16917892 50.75151873 -39.91959431 48.05553345 -43.67578125 45.3671875 C-44.64902344 44.66851563 -45.62226563 43.96984375 -46.625 43.25 C-47.46289062 42.65703125 -48.30078125 42.0640625 -49.1640625 41.453125 C-51 40 -51 40 -52 38 C-38.47 38 -24.94 38 -11 38 C-10.67 35.69 -10.34 33.38 -10 31 C-9.45334962 28.92230341 -8.86017049 26.85632717 -8.22265625 24.8046875 C-7.87396484 23.67675781 -7.52527344 22.54882812 -7.16601562 21.38671875 C-6.61977539 19.64841797 -6.61977539 19.64841797 -6.0625 17.875 C-5.70220703 16.70839844 -5.34191406 15.54179688 -4.97070312 14.33984375 C-3.46096446 9.48532496 -1.94400969 4.70076309 0 0 Z " fill="#FAFAFA" transform="translate(441,515)"/>
<path d="M0 0 C0.87779114 -0.00807175 1.75558228 -0.01614349 2.65997314 -0.02445984 C4.52964287 -0.03833123 6.39933825 -0.04903963 8.26904297 -0.05688477 C11.0874321 -0.07389766 13.90458549 -0.11772836 16.72265625 -0.16210938 C28.68198902 -0.26647188 40.21852518 -0.21133275 50.015625 7.61328125 C54.98632506 12.60495473 56.55764468 16.49370392 56.828125 23.55078125 C56.62760097 31.19684985 55.01181398 36.4951765 49.703125 42.05078125 C41.36456201 47.55737945 34.79636259 48.80072752 24.828125 48.48828125 C23.72404297 48.47023438 22.61996094 48.4521875 21.48242188 48.43359375 C18.78422519 48.38687173 16.08790465 48.32138265 13.390625 48.23828125 C13.39848022 49.41185181 13.39848022 49.41185181 13.40649414 50.60913086 C13.42719606 54.13133958 13.44026338 57.65353555 13.453125 61.17578125 C13.46150391 62.40748047 13.46988281 63.63917969 13.47851562 64.90820312 C13.48334961 66.66293945 13.48334961 66.66293945 13.48828125 68.453125 C13.49613647 70.07915649 13.49613647 70.07915649 13.50415039 71.73803711 C13.390625 74.23828125 13.390625 74.23828125 12.390625 75.23828125 C10.84106941 75.33727648 9.28708827 75.36907649 7.734375 75.37109375 C6.32478516 75.37302734 6.32478516 75.37302734 4.88671875 75.375 C3.40365234 75.36919922 3.40365234 75.36919922 1.890625 75.36328125 C0.90191406 75.36714844 -0.08679688 75.37101562 -1.10546875 75.375 C-2.04519531 75.37371094 -2.98492187 75.37242187 -3.953125 75.37109375 C-4.82130859 75.36996582 -5.68949219 75.36883789 -6.58398438 75.36767578 C-8.609375 75.23828125 -8.609375 75.23828125 -9.609375 74.23828125 C-9.70905086 71.97378746 -9.73737331 69.70613914 -9.73876953 67.43945312 C-9.74052185 66.72890274 -9.74227417 66.01835236 -9.74407959 65.28627014 C-9.74849777 62.92649934 -9.74556025 60.56680288 -9.7421875 58.20703125 C-9.74286055 56.57417791 -9.74383058 54.94132467 -9.74508667 53.30847168 C-9.7465636 49.88190764 -9.74440926 46.45536962 -9.73974609 43.02880859 C-9.7340488 38.62673624 -9.73732784 34.22472484 -9.74331856 29.82265472 C-9.74692431 26.4496006 -9.74578552 23.07656103 -9.74319077 19.70350647 C-9.74252154 18.07992038 -9.74334978 16.45633298 -9.74567032 14.83274841 C-9.74819709 12.56749955 -9.74435594 10.30235075 -9.73876953 8.03710938 C-9.73797394 6.74550903 -9.73717834 5.45390869 -9.73635864 4.12316895 C-9.47954158 -1.71134942 -4.70289469 0.04082818 0 0 Z " fill="#FFBD5B" transform="translate(412.609375,267.76171875)"/>
<path d="M0 0 C3.95827235 -0.05785647 7.9164367 -0.09354717 11.875 -0.125 C13.00292969 -0.14175781 14.13085938 -0.15851563 15.29296875 -0.17578125 C16.36933594 -0.18222656 17.44570313 -0.18867188 18.5546875 -0.1953125 C19.54968262 -0.20578613 20.54467773 -0.21625977 21.56982422 -0.22705078 C24 0 24 0 26 2 C26.53876785 3.54296343 27.00993486 5.11009866 27.4375 6.6875 C28.41462821 10.27774822 29.67651965 13.57994691 31.17260742 16.98510742 C33.18111528 21.87628929 34.67952362 26.97043814 36.30664062 31.99804688 C38.05003647 37.3214226 39.95278988 42.52695748 42.10375977 47.69995117 C43.35181355 50.90286992 44.26552338 54.17738865 45.20703125 57.48046875 C46.30953887 60.98351019 47.74866872 64.31814449 49.23046875 67.67578125 C50 70 50 70 50 75 C42.41 75 34.82 75 27 75 C25.35 70.71 23.7 66.42 22 62 C14.08 62 6.16 62 -2 62 C-2.639375 63.959375 -3.27875 65.91875 -3.9375 67.9375 C-5.875 73.875 -5.875 73.875 -7 75 C-8.41570123 75.08651611 -9.835595 75.10704904 -11.25390625 75.09765625 C-12.10791016 75.09443359 -12.96191406 75.09121094 -13.84179688 75.08789062 C-14.73962891 75.07951172 -15.63746094 75.07113281 -16.5625 75.0625 C-17.46419922 75.05798828 -18.36589844 75.05347656 -19.29492188 75.04882812 C-21.53001314 75.03700225 -23.76497437 75.0205222 -26 75 C-26.13988596 71.07653183 -25.51294731 68.59515615 -23.85546875 65.015625 C-22.88696779 62.73367753 -22.19008961 60.44312659 -21.5 58.0625 C-20.43792016 54.41091622 -19.24644604 50.85863896 -17.875 47.30859375 C-16.74459053 44.32612948 -15.68826282 41.31954016 -14.625 38.3125 C-12.96362436 33.63769827 -11.24074399 28.99685306 -9.4375 24.375 C-7.43037409 19.22190872 -5.6503229 14.02912463 -3.9921875 8.75390625 C-2.89065885 5.69651375 -1.50120741 2.87943455 0 0 Z " fill="#FFBE5C" transform="translate(566,268)"/>
<path d="M0 0 C7.48465679 4.24903844 12.7344067 8.83601674 16 17 C16 19.31 16 21.62 16 24 C9.07 24 2.14 24 -5 24 C-5.99 21.36 -6.98 18.72 -8 16 C-12.01964938 13.32023374 -15.27632299 13.19473344 -20 14 C-24.27383965 17.09171379 -25.68889699 19.99135648 -27 25 C-27.3010963 28.109061 -27.32483932 31.19065083 -27.3125 34.3125 C-27.32861328 35.11623047 -27.34472656 35.91996094 -27.36132812 36.74804688 C-27.36635491 42.99634097 -26.70814898 49.76975422 -22.55126953 54.72802734 C-19.6729385 57.08813195 -16.28371091 56.45637739 -12.7265625 56.34375 C-8.84020583 55.85377953 -6.83004411 54.69199318 -4 52 C-2.443427 49.72125521 -1.24020171 47.48040342 0 45 C5.91492272 45.45224761 11.35199888 46.1582605 17 48 C17.57033719 54.5707597 13.86955413 58.98800607 10 64 C7.54220875 66.47299408 5.02449994 68.2772537 2 70 C1.29617187 70.41121094 0.59234375 70.82242188 -0.1328125 71.24609375 C-8.59955075 75.39336045 -18.94432156 75.31712954 -28.03515625 73.33984375 C-38.08396487 69.75209291 -44.42355599 62.40938489 -49 53 C-51.8613801 46.90565422 -52.54807618 41.45084625 -52.5 34.75 C-52.49427979 33.82485596 -52.48855957 32.89971191 -52.48266602 31.9465332 C-52.28806495 24.46847936 -51.01446452 18.42314323 -47 12 C-46.53851563 11.2575 -46.07703125 10.515 -45.6015625 9.75 C-35.54237526 -3.73033214 -14.78979895 -7.7871633 0 0 Z " fill="#FFBE5C" transform="translate(200,270)"/>
<path d="M0 0 C1.01037827 0.00222061 2.02075653 0.00444122 3.06175232 0.00672913 C4.77341331 0.00684242 4.77341331 0.00684242 6.51965332 0.00695801 C7.76129745 0.01211929 9.00294159 0.01728058 10.2822113 0.02259827 C12.17785072 0.02472069 12.17785072 0.02472069 14.11178589 0.02688599 C17.47705394 0.0315487 20.84225495 0.04053972 24.20750427 0.05158997 C27.63930175 0.06180606 31.07110614 0.06638403 34.50291443 0.07142639 C41.24056569 0.08248072 47.97817616 0.09975815 54.71580505 0.12025452 C54.71580505 5.40025452 54.71580505 10.68025452 54.71580505 16.12025452 C43.49580505 16.12025452 32.27580505 16.12025452 20.71580505 16.12025452 C20.71580505 20.74025452 20.71580505 25.36025452 20.71580505 30.12025452 C27.97580505 30.12025452 35.23580505 30.12025452 42.71580505 30.12025452 C42.71580505 35.40025452 42.71580505 40.68025452 42.71580505 46.12025452 C35.45580505 46.12025452 28.19580505 46.12025452 20.71580505 46.12025452 C20.72740662 48.12990295 20.73900818 50.13955139 20.7509613 52.21009827 C20.75791245 54.14946876 20.76482901 56.08883955 20.77073669 58.0282135 C20.77577562 59.37945838 20.78260683 60.73069778 20.79124451 62.08192444 C20.80332925 64.02045886 20.80850334 65.95903252 20.8134613 67.89759827 C20.82131653 69.64931335 20.82131653 69.64931335 20.82933044 71.43641663 C20.71580505 74.12025452 20.71580505 74.12025452 19.71580505 75.12025452 C18.09322961 75.21942022 16.46640674 75.25105228 14.84080505 75.25306702 C13.8559613 75.25435608 12.87111755 75.25564514 11.85643005 75.25697327 C10.8200238 75.25310608 9.78361755 75.24923889 8.71580505 75.24525452 C7.16119568 75.2510553 7.16119568 75.2510553 5.57518005 75.25697327 C4.5903363 75.2556842 3.60549255 75.25439514 2.59080505 75.25306702 C1.68072693 75.25193909 0.7706488 75.25081116 -0.16700745 75.24964905 C-2.28419495 75.12025452 -2.28419495 75.12025452 -3.28419495 74.12025452 C-3.38387081 71.85576072 -3.41219326 69.5881124 -3.41358948 67.32142639 C-3.4153418 66.61087601 -3.41709412 65.90032562 -3.41889954 65.16824341 C-3.42331772 62.80847261 -3.4203802 60.44877614 -3.41700745 58.08900452 C-3.4176805 56.45615118 -3.41865053 54.82329794 -3.41990662 53.19044495 C-3.42138354 49.76388091 -3.4192292 46.33734288 -3.41456604 42.91078186 C-3.40886875 38.5087095 -3.41214778 34.10669811 -3.4181385 29.70462799 C-3.42174426 26.33157386 -3.42060547 22.95853429 -3.41801071 19.58547974 C-3.41734148 17.96189364 -3.41816973 16.33830625 -3.42049026 14.71472168 C-3.42301703 12.44947281 -3.41917589 10.18432402 -3.41358948 7.91908264 C-3.41279388 6.6274823 -3.41199829 5.33588196 -3.41117859 4.00514221 C-3.24239858 0.17070044 -3.24239858 0.17070044 0 0 Z " fill="#FF9351" transform="translate(355.28419494628906,73.87974548339844)"/>
<path d="M0 0 C1.91703735 -0.00472824 1.91703735 -0.00472824 3.87280273 -0.009552 C5.27848342 -0.00776222 6.6841638 -0.00571127 8.08984375 -0.00341797 C9.52091488 -0.00409105 10.9519859 -0.00506111 12.38305664 -0.00631714 C15.38591599 -0.00779391 18.38874565 -0.00564023 21.39160156 -0.00097656 C25.24886946 0.00472073 29.10606779 0.00144161 32.96333313 -0.00454903 C35.91947966 -0.00815521 38.87560958 -0.00701579 41.83175659 -0.00442123 C43.25438444 -0.00375212 44.67701378 -0.00457984 46.09963989 -0.00690079 C48.08465549 -0.0094282 50.06967634 -0.00489589 52.0546875 0 C53.75226196 0.00119339 53.75226196 0.00119339 55.48413086 0.00241089 C58.02734375 0.12939453 58.02734375 0.12939453 59.02734375 1.12939453 C59.10054538 3.66217103 59.11961944 6.16043371 59.08984375 8.69189453 C59.06921875 11.14626953 59.04859375 13.60064453 59.02734375 16.12939453 C52.09734375 16.12939453 45.16734375 16.12939453 38.02734375 16.12939453 C38.03258057 17.8811499 38.03781738 19.63290527 38.04321289 21.43774414 C38.05931137 27.21327954 38.07081642 32.98881416 38.07915592 38.7643652 C38.08438364 42.26748338 38.09147925 45.77057738 38.1027832 49.27368164 C38.11568581 53.29720294 38.12057287 57.32069867 38.125 61.34423828 C38.13016129 62.6077562 38.13532257 63.87127411 38.14064026 65.17308044 C38.14071579 66.33420853 38.14079132 67.49533661 38.14086914 68.69165039 C38.14308975 69.71979355 38.14531036 70.74793671 38.14759827 71.80723572 C38.02734375 74.12939453 38.02734375 74.12939453 37.02734375 75.12939453 C29.76734375 75.12939453 22.50734375 75.12939453 15.02734375 75.12939453 C14.53234375 46.41939453 14.53234375 46.41939453 14.02734375 17.12939453 C7.09734375 16.79939453 0.16734375 16.46939453 -6.97265625 16.12939453 C-6.99328125 13.67501953 -7.01390625 11.22064453 -7.03515625 8.69189453 C-7.04426025 7.91789307 -7.05336426 7.1438916 -7.06274414 6.34643555 C-7.06990538 4.60717736 -7.02290327 2.8679415 -6.97265625 1.12939453 C-5.17003103 -0.67323069 -2.42888615 0.0017075 0 0 Z " fill="#FFBE5B" transform="translate(738.97265625,267.87060546875)"/>
<path d="M0 0 C7.26 0 14.52 0 22 0 C22.33 19.14 22.66 38.28 23 58 C34.22 58.33 45.44 58.66 57 59 C57 63.95 57 68.9 57 74 C55.29434382 75.70565618 53.09266505 75.12752055 50.76171875 75.12939453 C49.64385986 75.13254669 48.52600098 75.13569885 47.37426758 75.13894653 C46.15763428 75.1369223 44.94100098 75.13489807 43.6875 75.1328125 C42.44830811 75.13376923 41.20911621 75.13472595 39.93237305 75.13571167 C37.30611719 75.13639374 34.67995367 75.13503538 32.05371094 75.13037109 C28.68071286 75.12467381 25.30779435 75.12795302 21.93479919 75.13394356 C18.72736323 75.1384177 15.519937 75.13528882 12.3125 75.1328125 C11.0958667 75.13483673 9.8792334 75.13686096 8.62573242 75.13894653 C6.94894409 75.13421829 6.94894409 75.13421829 5.23828125 75.12939453 C4.24868408 75.12859894 3.25908691 75.12780334 2.23950195 75.12698364 C0 75 0 75 -1 74 C-1.09967586 71.73550621 -1.12799831 69.46785789 -1.12939453 67.20117188 C-1.13114685 66.49062149 -1.13289917 65.78007111 -1.13470459 65.04798889 C-1.13912277 62.68821809 -1.13618525 60.32852163 -1.1328125 57.96875 C-1.13348555 56.33589666 -1.13445558 54.70304342 -1.13571167 53.07019043 C-1.1371886 49.64362639 -1.13503426 46.21708837 -1.13037109 42.79052734 C-1.1246738 38.38845499 -1.12795284 33.98644359 -1.13394356 29.58437347 C-1.13754931 26.21131935 -1.13641052 22.83827978 -1.13381577 19.46522522 C-1.13314654 17.84163913 -1.13397478 16.21805173 -1.13629532 14.59446716 C-1.13882209 12.3292183 -1.13498094 10.0640695 -1.12939453 7.79882812 C-1.12859894 6.50722778 -1.12780334 5.21562744 -1.12698364 3.8848877 C-1 1 -1 1 0 0 Z " fill="#FFBE5C" transform="translate(478,268)"/>
<path d="M0 0 C-1.4269136 9.82984926 -8.9990958 17.36429103 -15.54296875 24.33984375 C-18.42061976 27.45539277 -21.03660148 30.71530702 -23.65234375 34.05078125 C-25.57698174 36.46858771 -27.52857522 38.85431558 -29.50390625 41.23046875 C-30.13006836 41.98440918 -30.75623047 42.73834961 -31.40136719 43.51513672 C-32.65338571 45.02018198 -33.90785567 46.5231921 -35.16503906 48.02392578 C-39.69485597 53.47955385 -43.15828577 57.76125763 -44 65 C-42.35577655 65.11063933 -40.70922748 65.18675121 -39.0625 65.25 C-38.14597656 65.29640625 -37.22945313 65.3428125 -36.28515625 65.390625 C-27.71788741 64.37192478 -19.65204006 58.82675413 -12.125 54.875 C-11.01930664 54.29733887 -9.91361328 53.71967773 -8.77441406 53.12451172 C-3.15606387 50.18694505 2.45541711 47.23640324 8.06298828 44.27832031 C11.11134982 42.6707673 14.16175146 41.06711795 17.21289062 39.46484375 C19.29578077 38.37012223 21.37764561 37.27344947 23.45898438 36.17578125 C26.65918413 34.48878957 29.86360058 32.81000354 33.07019043 31.13519287 C34.33620291 30.4724763 35.60097996 29.80739313 36.86437988 29.13970947 C58.39631109 17.76710912 58.39631109 17.76710912 69.8125 17.9375 C70.99779297 17.95103516 70.99779297 17.95103516 72.20703125 17.96484375 C72.79871094 17.97644531 73.39039063 17.98804688 74 18 C73.57380933 23.40063486 72.55861281 26.24110096 69 30.3125 C68.19433594 31.24835938 67.38867188 32.18421875 66.55859375 33.1484375 C63.34810323 36.72654143 60.12925433 40.29548964 56.84765625 43.80859375 C55.14176676 45.83185803 54.12516597 47.63010171 53 50 C60.30674615 48.12104744 67.38376078 45.92323833 74.4375 43.25 C75.4375708 42.87367432 76.4376416 42.49734863 77.46801758 42.10961914 C87.1268821 38.42410427 96.65464589 34.43488243 106.1875 30.4375 C169.76237705 3.81904918 169.76237705 3.81904918 186.6875 3.875 C187.47511719 3.87242187 188.26273438 3.86984375 189.07421875 3.8671875 C191 4 191 4 192 5 C191.82364548 7.69082872 191.38164079 10.32851446 191 13 C191.70608398 12.69707031 192.41216797 12.39414063 193.13964844 12.08203125 C196.33997951 10.71391866 199.54488195 9.35685776 202.75 8 C203.86117188 7.52304688 204.97234375 7.04609375 206.1171875 6.5546875 C207.18710937 6.10351562 208.25703125 5.65234375 209.359375 5.1875 C210.34389648 4.76855469 211.32841797 4.34960938 212.34277344 3.91796875 C215 3 215 3 219 3 C218 6 218 6 215.79443359 7.3503418 C212.66051719 8.81003562 209.52516902 10.26312369 206.375 11.6875 C205.29347656 12.19861328 204.21195313 12.70972656 203.09765625 13.23632812 C192.82509385 17.93361093 192.82509385 17.93361093 187 17 C186.34 16.34 185.68 15.68 185 15 C185.55555556 10.44444444 185.55555556 10.44444444 187 9 C181.2211445 8.7222446 176.36588216 9.70341774 170.8125 11.25 C169.97750977 11.47671387 169.14251953 11.70342773 168.28222656 11.93701172 C160.64462792 14.03890011 153.03678618 16.22924939 145.77246094 19.41577148 C142.24216087 20.93468973 138.66045563 22.16359125 135 23.33984375 C133.68741606 23.76732047 132.37491864 24.19506294 131.0625 24.62304688 C129.02965447 25.28210285 126.99611192 25.93874528 124.9609375 26.59057617 C117.91362991 28.85323127 111.32652784 31.10481065 105 35 C103.01889518 35.72088011 101.01706389 36.38689501 99 37 C96.34274212 37.92748722 93.70291957 38.90076761 91.0625 39.875 C90.38509766 40.11863281 89.70769531 40.36226562 89.00976562 40.61328125 C85.62694604 41.8652164 82.49966686 43.21550953 79.39453125 45.05859375 C76.15223731 46.91293217 73.18237805 48.08982038 69.625 49.1875 C66.02506161 50.07992423 66.02506161 50.07992423 63 52 C61.02715358 52.26149658 59.04574333 52.45992624 57.0625 52.625 C55.44021484 52.76808594 55.44021484 52.76808594 53.78515625 52.9140625 C51 53 51 53 49 52 C48.61842652 48.69498662 48.74750206 47.35097787 50.72265625 44.60546875 C51.49480469 43.80753906 52.26695312 43.00960937 53.0625 42.1875 C53.88363281 41.31867188 54.70476562 40.44984375 55.55078125 39.5546875 C56.35902344 38.71164063 57.16726563 37.86859375 58 37 C62.35515251 32.20675522 66.32988491 27.33834923 70 22 C62.58008164 22.87398077 56.25775779 25.43175614 49.53515625 28.52368164 C46.37459492 29.97678218 43.39131026 31.23246355 40 32 C40 32.66 40 33.32 40 34 C39.05125 34.391875 38.1025 34.78375 37.125 35.1875 C28.50336632 38.8909398 20.27820604 43.42204158 12.0625 47.9375 C10.22005208 48.94661458 8.37760417 49.95572917 6.53515625 50.96484375 C3.73834282 52.49805306 0.94190705 54.03192702 -1.85327148 55.56811523 C-7.25602027 58.52919678 -12.67800046 61.42995353 -18.1875 64.1875 C-18.83396484 64.51685547 -19.48042969 64.84621094 -20.14648438 65.18554688 C-34.85240057 72.56049787 -34.85240057 72.56049787 -43 71 C-45.97498226 69.68050068 -46.83781597 68.66114958 -49 66 C-50.08389269 61.50958743 -49.84794263 59.49733121 -47.58203125 55.49609375 C-43.01812844 49.03134894 -37.75065917 43.06980521 -32.6015625 37.06640625 C-29.85681428 33.8536458 -27.25709207 30.54250838 -24.68359375 27.19140625 C-20.04346022 21.15169648 -15.38807865 15.38807865 -10 10 C-8.94712186 8.36622358 -7.9272999 6.70818403 -7 5 C-13.00634184 6.96125448 -18.42517555 9.74302363 -23.95874023 12.75292969 C-27.83240313 14.85578876 -31.72962794 16.87482618 -35.69140625 18.80639648 C-45.41846379 23.55324969 -54.77218436 28.89293772 -64.12597656 34.33203125 C-67.12819073 36.0743968 -70.13786968 37.80336366 -73.1484375 39.53125 C-88.09216285 48.13638321 -102.41558531 57.03002149 -115.984375 67.67578125 C-119.52435462 70.40413342 -123.16877397 72.93958186 -126.87890625 75.4296875 C-129.14660245 77.10853441 -131.05412708 78.96146646 -133 81 C-133 78 -133 78 -131.171875 76.09765625 C-130.37265625 75.42605469 -129.5734375 74.75445312 -128.75 74.0625 C-126.39881472 72.06860268 -124.10400035 70.10458903 -121.9296875 67.91796875 C-120.16034312 66.15936938 -118.4018987 64.6965092 -116.375 63.25 C-115.78460938 62.82203125 -115.19421875 62.3940625 -114.5859375 61.953125 C-113 61 -113 61 -111 61 C-111 60.34 -111 59.68 -111 59 C-109.05048122 57.49341671 -107.11002722 56.1116366 -105.0625 54.75 C-104.46421387 54.34523437 -103.86592773 53.94046875 -103.24951172 53.5234375 C-102.047069 52.7112471 -100.84266169 51.90195708 -99.63623047 51.09570312 C-98.30428736 50.20376629 -96.98090621 49.29905402 -95.66015625 48.390625 C-90.00366327 44.52553575 -84.13059267 41.02697675 -78.2421875 37.53125 C-75.33650211 35.80493902 -72.44875246 34.05259767 -69.5703125 32.28125 C-52.20045267 21.63760665 -34.26877408 11.58153305 -15.75 3.0625 C-15.06663574 2.73862305 -14.38327148 2.41474609 -13.67919922 2.08105469 C-8.86230279 -0.04500705 -5.15369913 -0.28059029 0 0 Z " fill="#161616" transform="translate(392,175)"/>
<path d="M0 0 C7.59 0 15.18 0 23 0 C23.02255209 9.63113018 23.0409157 19.26224295 23.05181217 28.89339352 C23.05704074 33.36505549 23.06413789 37.83669853 23.07543945 42.30834961 C23.08626929 46.62011973 23.09227704 50.93187159 23.09487724 55.24365425 C23.09673132 56.89236298 23.1003516 58.54107066 23.10573006 60.18977165 C23.11294178 62.49103872 23.11399089 64.7922294 23.11352539 67.09350586 C23.115746 68.4058873 23.11796661 69.71826874 23.12025452 71.07041931 C23 74 23 74 22 75 C14.74 75 7.48 75 0 75 C0 50.25 0 25.5 0 0 Z " fill="#FFBD5B" transform="translate(624,268)"/>
<path d="M0 0 C7.59 0 15.18 0 23 0 C23.02255209 9.63113018 23.0409157 19.26224295 23.05181217 28.89339352 C23.05704074 33.36505549 23.06413789 37.83669853 23.07543945 42.30834961 C23.08626929 46.62011973 23.09227704 50.93187159 23.09487724 55.24365425 C23.09673132 56.89236298 23.1003516 58.54107066 23.10573006 60.18977165 C23.11294178 62.49103872 23.11399089 64.7922294 23.11352539 67.09350586 C23.115746 68.4058873 23.11796661 69.71826874 23.12025452 71.07041931 C23 74 23 74 22 75 C14.74 75 7.48 75 0 75 C0 50.25 0 25.5 0 0 Z " fill="#FF9350" transform="translate(419,74)"/>
<path d="M0 0 C5.35549535 2.69217001 9.28540052 6.73120157 11.1875 12.4375 C11.91916488 23.11261054 11.90277291 31.72953806 4.8125 40.3125 C-1.22997277 45.20402557 -5.93750508 45.9814919 -13.6171875 45.7890625 C-20.56713118 45.02439877 -25.35898375 41.7817195 -29.8125 36.4375 C-33.71555149 30.91939272 -33.77040656 24.93870191 -32.8125 18.4375 C-29.913289 9.92492303 -25.61953428 3.90007944 -17.92578125 -0.6875 C-12.3087428 -3.01322387 -5.54168318 -2.18849522 0 0 Z " fill="#47494B" transform="translate(401.8125,657.5625)"/>
<path d="M0 0 C14.19 0 28.38 0 43 0 C38.55555556 14.44444444 38.55555556 14.44444444 35.1484375 21.5625 C34.00100022 23.99787709 32.99983957 26.50040109 32 29 C17.81 29 3.62 29 -11 29 C-8 19 -8 19 0 0 Z " fill="#F1CB0A" transform="translate(284,909)"/>
<path d="M0 0 C14.19 0 28.38 0 43 0 C41.1482404 6.172532 39.33848866 11.98243416 36.875 17.875 C35.34443841 21.56328013 33.97262376 25.10950495 33 29 C18.81 29 4.62 29 -10 29 C-9.35318912 25.76594562 -8.77007265 23.07569853 -7.6953125 20.0390625 C-7.44136719 19.31976562 -7.18742188 18.60046875 -6.92578125 17.859375 C-6.66152344 17.12203125 -6.39726563 16.3846875 -6.125 15.625 C-5.86847656 14.89539063 -5.61195313 14.16578125 -5.34765625 13.4140625 C-3.72269683 8.84131238 -1.9213234 4.48308794 0 0 Z " fill="#060604" transform="translate(583,909)"/>
<path d="M0 0 C14.19 0 28.38 0 43 0 C41.23886115 5.87046284 39.51078801 11.5735868 37.4375 17.3125 C37.02371094 18.46363281 36.60992188 19.61476563 36.18359375 20.80078125 C35.16629937 23.55049773 34.08886709 26.27783229 33 29 C18.81 29 4.62 29 -10 29 C-9.22517535 24.3510521 -8.38867974 21.02665 -6.6875 16.75 C-6.27886719 15.71359375 -5.87023437 14.6771875 -5.44921875 13.609375 C-4.97097656 12.41828125 -4.49273438 11.2271875 -4 10 C-2.68 6.7 -1.36 3.4 0 0 Z " fill="#EFC909" transform="translate(540,909)"/>
<path d="M0 0 C1.77206192 0.00015919 3.54412846 0.00585754 5.31616211 0.01586914 C6.24698105 0.01728409 7.17779999 0.01869904 8.13682556 0.02015686 C11.12241777 0.02577367 14.10793615 0.03832899 17.09350586 0.05102539 C19.11238499 0.05603823 21.13126529 0.06060151 23.15014648 0.06469727 C28.11046158 0.07574856 33.07072118 0.09302444 38.03100586 0.11352539 C37.55978796 1.70539906 37.08688579 3.29677421 36.61328125 4.88793945 C36.21853355 6.21731537 36.21853355 6.21731537 35.81581116 7.57354736 C34.84033741 10.73061307 33.68691737 13.79267005 32.46850586 16.86352539 C30.86062462 20.93081375 29.41727763 24.95471008 28.03100586 29.11352539 C13.84100586 29.11352539 -0.34899414 29.11352539 -14.96899414 29.11352539 C-14.2462269 25.4996892 -13.595565 22.90826877 -12.21899414 19.61352539 C-10.05056791 14.34734741 -8.02826357 9.03239196 -6.01977539 3.70336914 C-4.57024018 0.13072287 -4.57024018 0.13072287 0 0 Z " fill="#060604" transform="translate(501.968994140625,908.886474609375)"/>
<path d="M0 0 C13.86 0 27.72 0 42 0 C39.76647834 10.05084746 39.76647834 10.05084746 37.5625 14.5 C35.18345401 19.33267022 33.7608103 23.7175691 32 29 C17.81 29 3.62 29 -11 29 C-7.6136725 17.71224165 -7.6136725 17.71224165 -6.0625 13.9375 C-5.76472656 13.20402344 -5.46695312 12.47054687 -5.16015625 11.71484375 C-3.48339598 7.7911118 -1.73298848 3.89922407 0 0 Z " fill="#060604" transform="translate(327,909)"/>
<path d="M0 0 C14.19 0 28.38 0 43 0 C41.23954269 5.28137192 39.50315097 10.45019333 37.5 15.625 C37.0978125 16.66914062 36.695625 17.71328125 36.28125 18.7890625 C34.9134296 22.21695386 33.45384358 25.60769832 32 29 C18.14 29 4.28 29 -10 29 C-9.35318912 25.76594562 -8.77007265 23.07569853 -7.6953125 20.0390625 C-7.44136719 19.31976562 -7.18742187 18.60046875 -6.92578125 17.859375 C-6.66152344 17.12203125 -6.39726562 16.3846875 -6.125 15.625 C-5.86847656 14.89539063 -5.61195313 14.16578125 -5.34765625 13.4140625 C-3.72269683 8.84131238 -1.9213234 4.48308794 0 0 Z " fill="#060504" transform="translate(412,909)"/>
<path d="M0 0 C1.66687991 0.66613332 3.333506 1.33290182 5 2 C5.70116943 2.28061279 6.40233887 2.56122559 7.12475586 2.8503418 C9.40432932 3.7761772 11.67070925 4.73082178 13.9375 5.6875 C14.72318359 6.00138672 15.50886719 6.31527344 16.31835938 6.63867188 C21.76287854 8.96683028 25.97803555 11.77153293 29 17 C29.97770074 21.82949157 29.52595246 24.9856631 27.25 29.375 C24.58307886 32.486408 22.65157631 34.71129926 18.51953125 35.43359375 C11.7943971 35.44329813 6.89118192 34.25833271 1 31 C0.81824219 31.56847656 0.63648438 32.13695312 0.44921875 32.72265625 C-1.14084634 37.60701003 -2.90459778 42.31029027 -5 47 C-10.85272256 46.54979057 -15.08220119 43.96160773 -20 41 C-18.74076421 36.9985836 -17.27274557 33.29799114 -15.390625 29.55078125 C-14.62878906 28.03000977 -14.62878906 28.03000977 -13.8515625 26.47851562 C-13.32304687 25.43373047 -12.79453125 24.38894531 -12.25 23.3125 C-11.73695313 22.28705078 -11.22390625 21.26160156 -10.6953125 20.20507812 C-7.2691221 13.39143566 -3.69451731 6.6717568 0 0 Z " fill="#484A4C" transform="translate(342,638)"/>
<path d="M0 0 C0.33 1.32 0.66 2.64 1 4 C-1.28929053 5.17154293 -3.58118362 6.33738074 -5.875 7.5 C-6.52597656 7.83386719 -7.17695312 8.16773438 -7.84765625 8.51171875 C-12.7734375 11 -12.7734375 11 -15 11 C-14.7834375 11.53109375 -14.566875 12.0621875 -14.34375 12.609375 C-13.92609375 13.66898438 -13.92609375 13.66898438 -13.5 14.75 C-13.2215625 15.44609375 -12.943125 16.1421875 -12.65625 16.859375 C-12 19 -12 19 -12 23 C-11.02160156 22.58427734 -11.02160156 22.58427734 -10.0234375 22.16015625 C-5.35696311 20.22611598 -1.06977397 18.53366042 4 18 C4.66 19.65 5.32 21.3 6 23 C4.3970947 23.81498562 2.79262722 24.62689927 1.1875 25.4375 C0.29417969 25.88996094 -0.59914063 26.34242188 -1.51953125 26.80859375 C-4 28 -4 28 -7 29 C-6.7834375 29.61488281 -6.566875 30.22976563 -6.34375 30.86328125 C-6.0653125 31.67152344 -5.786875 32.47976563 -5.5 33.3125 C-5.2215625 34.11300781 -4.943125 34.91351562 -4.65625 35.73828125 C-4 38 -4 38 -4 41 C-1.95686516 40.2330666 0.08444372 39.46126798 2.125 38.6875 C3.26195312 38.25824219 4.39890625 37.82898438 5.5703125 37.38671875 C9.02391245 36.06072143 9.02391245 36.06072143 12.2421875 34.26953125 C15 33 15 33 18 34 C18.495 36.475 18.495 36.475 19 39 C-9.82837529 53 -9.82837529 53 -17 53 C-17.17015625 52.32195313 -17.3403125 51.64390625 -17.515625 50.9453125 C-18.71322765 46.34600872 -19.96206074 41.88221181 -21.8125 37.5 C-23.9181464 32.44480999 -25.59246314 27.27761744 -27.25 22.0625 C-27.52046143 21.22074219 -27.79092285 20.37898437 -28.06958008 19.51171875 C-28.3198999 18.71507812 -28.57021973 17.9184375 -28.828125 17.09765625 C-29.0540332 16.38101807 -29.27994141 15.66437988 -29.51269531 14.92602539 C-30 13 -30 13 -30 10 C-29.03175293 9.60675537 -29.03175293 9.60675537 -28.04394531 9.20556641 C-25.1119585 8.01368899 -22.18097185 6.81937103 -19.25 5.625 C-17.72632813 5.00625 -17.72632813 5.00625 -16.171875 4.375 C-14.70234375 3.77558594 -14.70234375 3.77558594 -13.203125 3.1640625 C-12.30239258 2.79748535 -11.40166016 2.4309082 -10.47363281 2.05322266 C-8.01665407 1.04850427 -8.01665407 1.04850427 -5.81542969 -0.15869141 C-3.49940175 -1.23198784 -2.35303535 -0.84036977 0 0 Z " fill="#4A4C4E" transform="translate(544,640)"/>
<path d="M0 0 C4.15959448 2.33977189 5.54270311 4.5552644 7 9 C7.41379305 13.28358562 7.32438288 17.57339732 7.3125 21.875 C7.32861328 23.03386719 7.34472656 24.19273437 7.36132812 25.38671875 C7.36886027 38.5679736 7.36886027 38.5679736 2.125 43.91015625 C-1.76959989 45.90757053 -5.74783005 45.63179153 -10 45 C-13.73380272 42.51079819 -15.36553894 39.12421545 -17 35 C-17.44024981 31.01512726 -17.41872112 27.0678401 -17.375 23.0625 C-17.38660156 22.00353516 -17.39820313 20.94457031 -17.41015625 19.85351562 C-17.38274569 12.53032679 -16.41591161 7.76882211 -12.4375 1.5625 C-8.50020297 -0.96140835 -4.53251588 -0.72725944 0 0 Z " fill="#FFFDFA" transform="translate(264,283)"/>
<path d="M0 0 C0.495 2.97 0.495 2.97 1 6 C-0.55460937 6.14695312 -0.55460937 6.14695312 -2.140625 6.296875 C-3.51051741 6.4470002 -4.88030404 6.59809287 -6.25 6.75 C-6.93191406 6.811875 -7.61382812 6.87375 -8.31640625 6.9375 C-11.5235968 7.31115327 -13.76812749 7.84332938 -16.45703125 9.66015625 C-19.6221894 14.45997835 -18.50753838 20.48958332 -18 26 C-17.02525584 30.7419986 -15.9255729 34.91362321 -12 38 C-5.48181363 39.62954659 -0.06616284 36.98349585 5.6171875 33.99609375 C8 33 8 33 11 34 C11 35.65 11 37.3 11 39 C8.730384 40.14829977 6.45939222 41.29371978 4.1875 42.4375 C3.54490234 42.76298828 2.90230469 43.08847656 2.24023438 43.42382812 C-5.89368599 47.51186064 -12.84183569 47.67648057 -21.8125 46.5 C-27.5043238 43.82149468 -30.95834014 39.40034664 -33.4375 33.6875 C-34.87812077 24.24343054 -34.60671644 17.04994552 -29 9 C-22.82620181 2.04897781 -15.62245092 -0.21450204 -6.55078125 -0.984375 C-4.15109369 -0.99907446 -2.28116474 -0.70518442 0 0 Z " fill="#4A4C4E" transform="translate(512,654)"/>
<path d="M0 0 C4.29 0 8.58 0 13 0 C13.13751277 13.36929696 12.74380741 26.65131342 12 40 C12.5347998 39.78794922 13.06959961 39.57589844 13.62060547 39.35742188 C16.03736417 38.40143386 18.45614058 37.45065947 20.875 36.5 C21.71675781 36.16613281 22.55851562 35.83226562 23.42578125 35.48828125 C24.23144531 35.17246094 25.03710938 34.85664062 25.8671875 34.53125 C26.61081543 34.23798828 27.35444336 33.94472656 28.12060547 33.64257812 C30 33 30 33 32 33 C32 37.62 32 42.24 32 47 C27.87495488 47.02717819 23.75009209 47.04692522 19.625 47.0625 C18.46871094 47.07087891 17.31242187 47.07925781 16.12109375 47.08789062 C9.34599441 47.10702932 2.72360274 46.85222001 -4 46 C-4.24673792 38.03406019 -3.57342316 30.19296084 -2.77319336 22.27563477 C-2.56118956 20.17451255 -2.35719822 18.07272198 -2.15429688 15.97070312 C-1.62420597 10.58619625 -1.06276273 5.31381366 0 0 Z " fill="#4B4D4F" transform="translate(421,661)"/>
<path d="M0 0 C0.7151605 5.76541096 1.42715741 11.53120047 2.13623047 17.29736328 C2.3778744 19.25873357 2.6203812 21.21999775 2.86376953 23.18115234 C3.21353639 26.00070153 3.56019451 28.8206182 3.90625 31.640625 C4.0156189 32.51680481 4.12498779 33.39298462 4.2376709 34.29571533 C4.33777466 35.11626404 4.43787842 35.93681274 4.54101562 36.78222656 C4.62984009 37.50170471 4.71866455 38.22118286 4.81018066 38.96246338 C4.99695259 40.96728884 5 42.98649339 5 45 C-2.92 45.495 -2.92 45.495 -11 46 C-11.93263577 39.4402005 -12.30926957 32.93080981 -12.5625 26.3125 C-12.6049585 25.25482422 -12.64741699 24.19714844 -12.69116211 23.10742188 C-12.97237288 15.73370209 -13.12971434 8.37930494 -13 1 C-8.6062682 0.29700291 -4.44493976 -0.05036759 0 0 Z " fill="#47494B" transform="translate(469,661)"/>
<path d="M0 0 C-1 3 -1 3 -3.20556641 4.3503418 C-6.33948281 5.81003562 -9.47483098 7.26312369 -12.625 8.6875 C-13.70652344 9.19861328 -14.78804687 9.70972656 -15.90234375 10.23632812 C-26.17490615 14.93361093 -26.17490615 14.93361093 -32 14 C-32.99 13.01 -32.99 13.01 -34 12 C-33.44444444 7.44444444 -33.44444444 7.44444444 -32 6 C-37.7788555 5.7222446 -42.63411784 6.70341774 -48.1875 8.25 C-49.02249023 8.47671387 -49.85748047 8.70342773 -50.71777344 8.93701172 C-58.35537208 11.03890011 -65.96321382 13.22924939 -73.22753906 16.41577148 C-76.75783913 17.93468973 -80.33954437 19.16359125 -84 20.33984375 C-85.31258394 20.76732047 -86.62508136 21.19506294 -87.9375 21.62304688 C-89.97034553 22.28210285 -92.00388808 22.93874528 -94.0390625 23.59057617 C-101.08637009 25.85323127 -107.67347216 28.10481065 -114 32 C-115.98110482 32.72088011 -117.98293611 33.38689501 -120 34 C-122.65725788 34.92748722 -125.29708043 35.90076761 -127.9375 36.875 C-128.61490234 37.11863281 -129.29230469 37.36226562 -129.99023438 37.61328125 C-133.37511231 38.86597817 -136.50783296 40.21834603 -139.6171875 42.05859375 C-142.79562588 43.88270908 -145.70561859 45.08392827 -149.1875 46.1875 C-150.19167969 46.51105469 -151.19585937 46.83460938 -152.23046875 47.16796875 C-154.47829425 47.84326753 -156.71657319 48.46047911 -159 49 C-159 48.34 -159 47.68 -159 47 C-159.66 46.67 -160.32 46.34 -161 46 C-159.4833374 45.48083008 -159.4833374 45.48083008 -157.93603516 44.95117188 C-146.9322436 41.14717998 -136.1435216 36.92111353 -125.375 32.5 C-123.013588 31.53489695 -120.65171357 30.57093173 -118.28982544 29.60699463 C-116.74768121 28.97743006 -115.20574697 28.34735084 -113.66403198 27.71673584 C-107.51464497 25.20295914 -101.34869135 22.73248188 -95.17724609 20.2734375 C-92.69552528 19.27876594 -90.22358462 18.26757929 -87.7578125 17.234375 C-47.596738 0.82447359 -47.596738 0.82447359 -32.3125 0.875 C-31.52488281 0.87242187 -30.73726562 0.86984375 -29.92578125 0.8671875 C-28 1 -28 1 -27 2 C-27.17635452 4.69082872 -27.61835921 7.32851446 -28 10 C-27.29391602 9.69707031 -26.58783203 9.39414063 -25.86035156 9.08203125 C-22.66002049 7.71391866 -19.45511805 6.35685776 -16.25 5 C-14.58324219 4.28457031 -14.58324219 4.28457031 -12.8828125 3.5546875 C-11.27792969 2.87792969 -11.27792969 2.87792969 -9.640625 2.1875 C-8.65610352 1.76855469 -7.67158203 1.34960938 -6.65722656 0.91796875 C-4 0 -4 0 0 0 Z " fill="#232323" transform="translate(611,178)"/>
<path d="M0 0 C3.02071167 0.52862454 3.72080398 0.96385995 5.5 3.4375 C6.77863474 12.73352016 5.63921723 21.96525604 1.5 30.4375 C-0.37300694 32.70482419 -1.02202367 33.33945357 -3.9375 33.9375 C-6.5 33.4375 -6.5 33.4375 -8.8125 31.4375 C-11.56764753 26.53945994 -10.94843445 21.56129128 -9.51171875 16.296875 C-9.08215728 14.92332281 -8.64065283 13.55345066 -8.1875 12.1875 C-7.97416016 11.49398437 -7.76082031 10.80046875 -7.54101562 10.0859375 C-4.56073195 0.79812809 -4.56073195 0.79812809 0 0 Z " fill="#F5F5F5" transform="translate(393.5,662.5625)"/>
<path d="M0 0 C1.18529297 0.01353516 1.18529297 0.01353516 2.39453125 0.02734375 C3.28205078 0.04474609 3.28205078 0.04474609 4.1875 0.0625 C3.76130933 5.46313486 2.74611281 8.30360096 -0.8125 12.375 C-1.61816406 13.31085938 -2.42382812 14.24671875 -3.25390625 15.2109375 C-6.46439677 18.78904143 -9.68324567 22.35798964 -12.96484375 25.87109375 C-14.65786734 27.87909848 -15.7699803 29.66634216 -16.8125 32.0625 C-14.5025 32.0625 -12.1925 32.0625 -9.8125 32.0625 C-9.8125 32.7225 -9.8125 33.3825 -9.8125 34.0625 C-11.26986087 34.25741452 -12.72844593 34.44319358 -14.1875 34.625 C-15.40566406 34.78162109 -15.40566406 34.78162109 -16.6484375 34.94140625 C-18.8125 35.0625 -18.8125 35.0625 -20.8125 34.0625 C-21.19407348 30.75748662 -21.06499794 29.41347787 -19.08984375 26.66796875 C-18.31769531 25.87003906 -17.54554688 25.07210937 -16.75 24.25 C-15.92886719 23.38117188 -15.10773438 22.51234375 -14.26171875 21.6171875 C-13.04935547 20.35261719 -13.04935547 20.35261719 -11.8125 19.0625 C-7.45734749 14.26925522 -3.48261509 9.40084923 0.1875 4.0625 C-7.23241836 4.93648077 -13.55474221 7.49425614 -20.27734375 10.58618164 C-23.43790508 12.03928218 -26.42118974 13.29496355 -29.8125 14.0625 C-29.8125 14.7225 -29.8125 15.3825 -29.8125 16.0625 C-30.84375 16.495625 -31.875 16.92875 -32.9375 17.375 C-35.38430865 18.41514133 -37.69575196 19.52111159 -40.0625 20.75 C-42.8125 22.0625 -42.8125 22.0625 -45.8125 22.0625 C-45.8125 20.7425 -45.8125 19.4225 -45.8125 18.0625 C-11.82193357 -0.17644677 -11.82193357 -0.17644677 0 0 Z " fill="#1C1C1C" transform="translate(461.8125,192.9375)"/>
<path d="M0 0 C1.13953125 -0.03738281 2.2790625 -0.07476562 3.453125 -0.11328125 C7.41803371 0.3987745 9.02605093 1.42177853 11.75 4.3125 C12.54514894 7.20951116 12.09084694 9.24487756 11.75 12.3125 C9.75 15.3125 9.75 15.3125 6.75 16.3125 C4.54329586 16.40699363 2.33372095 16.44239739 0.125 16.4375 C-1.04289062 16.44007813 -2.21078125 16.44265625 -3.4140625 16.4453125 C-6.25 16.3125 -6.25 16.3125 -7.25 15.3125 C-7.34909302 12.98089945 -7.37970504 10.64620058 -7.375 8.3125 C-7.37757813 7.03375 -7.38015625 5.755 -7.3828125 4.4375 C-7.15434684 -0.93816248 -4.86628874 0.10365413 0 0 Z " fill="#FFFCF7" transform="translate(433.25,283.6875)"/>
<path d="M0 0 C2.39706123 -0.10854617 4.78915838 -0.18753157 7.1875 -0.25 C7.86103516 -0.28351563 8.53457031 -0.31703125 9.22851562 -0.3515625 C12.83418291 -0.42191698 14.84929089 -0.09170131 17.953125 1.796875 C20 4 20 4 20.5625 7.5 C19.90170855 11.61159127 19.31041775 12.56213645 16 15 C13.27911382 15.31855703 11.00952826 15.42797695 8.3125 15.3125 C7.27899414 15.29799805 7.27899414 15.29799805 6.22460938 15.28320312 C1.16886475 15.16886475 1.16886475 15.16886475 0 14 C-0.07271741 11.64686445 -0.08370868 9.29166332 -0.0625 6.9375 C-0.05347656 5.64714844 -0.04445313 4.35679688 -0.03515625 3.02734375 C-0.02355469 2.02832031 -0.01195312 1.02929688 0 0 Z " fill="#FFFAF7" transform="translate(475,89)"/>
<path d="M0 0 C0.99 0.495 0.99 0.495 2 1 C1.34 1.66 0.68 2.32 0 3 C0 3.99 0 4.98 0 6 C-0.62003906 6.32871094 -1.24007812 6.65742188 -1.87890625 6.99609375 C-17.39419034 15.32963062 -32.38182361 24.48619018 -46.26586914 35.34594727 C-50.36231065 38.54460653 -54.56441027 41.53395496 -58.87890625 44.4296875 C-61.14660245 46.10853441 -63.05412708 47.96146646 -65 50 C-65 47 -65 47 -63.171875 45.09765625 C-62.37265625 44.42605469 -61.5734375 43.75445312 -60.75 43.0625 C-58.39881472 41.06860268 -56.10400035 39.10458903 -53.9296875 36.91796875 C-52.16034312 35.15936938 -50.4018987 33.6965092 -48.375 32.25 C-47.78460938 31.82203125 -47.19421875 31.3940625 -46.5859375 30.953125 C-45 30 -45 30 -43 30 C-43 29.34 -43 28.68 -43 28 C-41.05048122 26.49341671 -39.11002722 25.1116366 -37.0625 23.75 C-36.1650708 23.14285156 -36.1650708 23.14285156 -35.24951172 22.5234375 C-34.047069 21.7112471 -32.84266169 20.90195708 -31.63623047 20.09570312 C-30.30428736 19.20376629 -28.98090621 18.29905402 -27.66015625 17.390625 C-22.37748123 13.78096606 -16.90855446 10.50081895 -11.40283203 7.24609375 C-7.5171901 4.94318759 -3.7371565 2.53736278 0 0 Z " fill="#151515" transform="translate(324,206)"/>
<path d="M0 0 C-3.99955266 2.66636844 -8.27507044 4.03419249 -12.7734375 5.68359375 C-15.96085825 6.88630535 -15.96085825 6.88630535 -18.5390625 8.53515625 C-21.3023085 10.17994554 -23.93119064 11.04358579 -27 12 C-29.65673795 12.92898779 -32.29707289 13.90076483 -34.9375 14.875 C-35.61490234 15.11863281 -36.29230469 15.36226562 -36.99023438 15.61328125 C-40.37511231 16.86597817 -43.50783296 18.21834603 -46.6171875 20.05859375 C-49.79562588 21.88270908 -52.70561859 23.08392827 -56.1875 24.1875 C-57.19167969 24.51105469 -58.19585937 24.83460938 -59.23046875 25.16796875 C-61.47829425 25.84326753 -63.71657319 26.46047911 -66 27 C-66 26.34 -66 25.68 -66 25 C-66.66 24.67 -67.32 24.34 -68 24 C-66.99324219 23.65533691 -65.98648437 23.31067383 -64.94921875 22.95556641 C-54.63841143 19.39077521 -44.50009384 15.48935349 -34.40380859 11.35839844 C-31.97533431 10.36490926 -29.54451997 9.37732745 -27.11328125 8.390625 C-17.77806686 4.60114959 -17.77806686 4.60114959 -8.56640625 0.5234375 C-5.00824985 -0.99647597 -3.5697183 -1.38182644 0 0 Z " fill="#363636" transform="translate(518,200)"/>
<path d="M0 0 C2.97 0 5.94 0 9 0 C8.57380933 5.40063486 7.55861281 8.24110096 4 12.3125 C3.19433594 13.24835938 2.38867188 14.18421875 1.55859375 15.1484375 C-1.65189677 18.72654143 -4.87074567 22.29548964 -8.15234375 25.80859375 C-9.84536734 27.81659848 -10.9574803 29.60384216 -12 32 C-9.69 32 -7.38 32 -5 32 C-5 32.66 -5 33.32 -5 34 C-6.45736087 34.19491452 -7.91594593 34.38069358 -9.375 34.5625 C-10.59316406 34.71912109 -10.59316406 34.71912109 -11.8359375 34.87890625 C-14 35 -14 35 -16 34 C-16.38157348 30.69498662 -16.25249794 29.35097787 -14.27734375 26.60546875 C-13.50519531 25.80753906 -12.73304688 25.00960937 -11.9375 24.1875 C-11.11636719 23.31867188 -10.29523438 22.44984375 -9.44921875 21.5546875 C-8.64097656 20.71164063 -7.83273437 19.86859375 -7 19 C-2.64484749 14.20675522 1.32988491 9.33834923 5 4 C4.01 3.67 3.02 3.34 2 3 C2.99 3 3.98 3 5 3 C5 2.34 5 1.68 5 1 C3.35 1 1.7 1 0 1 C0 0.67 0 0.34 0 0 Z " fill="#1F1F1F" transform="translate(457,193)"/>
<path d="M0 0 C0.66 0 1.32 0 2 0 C3.00605593 2.60197202 4.00502525 5.20629362 5 7.8125 C5.28617188 8.55048828 5.57234375 9.28847656 5.8671875 10.04882812 C6.13789062 10.76103516 6.40859375 11.47324219 6.6875 12.20703125 C7.06455078 13.18893433 7.06455078 13.18893433 7.44921875 14.19067383 C8 16 8 16 8 19 C3.38 19 -1.24 19 -6 19 C-4.70024676 12.28460827 -2.70071112 6.27980887 0 0 Z " fill="#FFFAF3" transform="translate(575,292)"/>
<path d="M0 0 C2.16874252 0.50603992 3.99967627 0.99983813 6 2 C6.2975048 9.73512476 6.2975048 9.73512476 4 13 C1 15 1 15 -2.1875 14.625 C-3.5796875 14.315625 -3.5796875 14.315625 -5 14 C-3.45730076 9.27934033 -1.92205381 4.58335908 0 0 Z " fill="#EDEDED" transform="translate(351,650)"/>
<path d="M0 0 C-0.99 0.33 -1.98 0.66 -3 1 C-2.67 1.66 -2.34 2.32 -2 3 C-5.75039067 4.29147472 -9.50406093 5.57287073 -13.26098633 6.84521484 C-15.16341566 7.49181419 -17.06317587 8.14624942 -18.96289062 8.80078125 C-20.16494141 9.20683594 -21.36699219 9.61289063 -22.60546875 10.03125 C-23.71043701 10.40830078 -24.81540527 10.78535156 -25.95385742 11.17382812 C-28.80831592 11.94801163 -31.06455605 12.17197068 -34 12 C-34 11.34 -34 10.68 -34 10 C-30.68872971 8.72594675 -27.37576271 7.45636184 -24.0625 6.1875 C-22.67321289 5.65286133 -22.67321289 5.65286133 -21.25585938 5.10742188 C-18.50916311 4.05693102 -15.75664789 3.02406898 -13 2 C-11.73325439 1.52167725 -11.73325439 1.52167725 -10.44091797 1.03369141 C-9.26166748 0.60902588 -9.26166748 0.60902588 -8.05859375 0.17578125 C-7.36950928 -0.07647217 -6.6804248 -0.32872559 -5.97045898 -0.58862305 C-3.66662915 -1.06959855 -2.21464589 -0.72727572 0 0 Z " fill="#303030" transform="translate(550,188)"/>
<path d="M0 0 C0.66 0.33 1.32 0.66 2 1 C0.66426012 4.08498196 -0.6397295 5.78646108 -3.34375 7.76953125 C-4.34100098 8.50913086 -4.34100098 8.50913086 -5.35839844 9.26367188 C-6.06512695 9.77478516 -6.77185547 10.28589844 -7.5 10.8125 C-8.21961914 11.34294922 -8.93923828 11.87339844 -9.68066406 12.41992188 C-14.3841524 15.87322259 -19.13940754 19.24743443 -23.984375 22.5 C-26.2089222 24.15547699 -28.08509396 25.99883693 -30 28 C-30 25 -30 25 -28.171875 23.09765625 C-27.37265625 22.42605469 -26.5734375 21.75445312 -25.75 21.0625 C-23.39881472 19.06860268 -21.10400035 17.10458903 -18.9296875 14.91796875 C-17.16034312 13.15936938 -15.4018987 11.6965092 -13.375 10.25 C-12.78460938 9.82203125 -12.19421875 9.3940625 -11.5859375 8.953125 C-10 8 -10 8 -8 8 C-8 7.34 -8 6.68 -8 6 C-6.25 4.4921875 -6.25 4.4921875 -4 2.875 C-3.2575 2.33617187 -2.515 1.79734375 -1.75 1.2421875 C-0.88375 0.62730469 -0.88375 0.62730469 0 0 Z " fill="#2B2B2B" transform="translate(289,228)"/>
<path d="M0 0 C-0.33 0.99 -0.66 1.98 -1 3 C-2.68652344 3.79956055 -2.68652344 3.79956055 -4.859375 4.38671875 C-5.64570312 4.60263672 -6.43203125 4.81855469 -7.2421875 5.04101562 C-8.48355469 5.36102539 -8.48355469 5.36102539 -9.75 5.6875 C-10.56210937 5.91244141 -11.37421875 6.13738281 -12.2109375 6.36914062 C-16.21156914 7.44097109 -19.820256 8.31433034 -24 8 C-18.18630192 2.18630192 -7.96780814 -0.38867357 0 0 Z " fill="#1A1A1A" transform="translate(569,182)"/>
<path d="M0 0 C0 0.66 0 1.32 0 2 C-2.1794482 2.9735857 -4.3601236 3.9442043 -6.54296875 4.91015625 C-8.04854623 5.57797201 -9.55176244 6.25118328 -11.05078125 6.93359375 C-13.89300626 8.20559595 -15.84668936 9 -19 9 C-19 8.34 -19 7.68 -19 7 C-19.66 6.67 -20.32 6.34 -21 6 C-18.25262623 4.99222971 -15.50250048 3.99358554 -12.75 3 C-11.97269531 2.71382812 -11.19539063 2.42765625 -10.39453125 2.1328125 C-9.64042969 1.86210937 -8.88632812 1.59140625 -8.109375 1.3125 C-7.41811523 1.06113281 -6.72685547 0.80976563 -6.01464844 0.55078125 C-4 0 -4 0 0 0 Z " fill="#2B2B2B" transform="translate(471,218)"/>
<path d="M0 0 C1.33804687 0.04060547 1.33804687 0.04060547 2.703125 0.08203125 C3.37859375 0.11683594 4.0540625 0.15164062 4.75 0.1875 C4.75 0.8475 4.75 1.5075 4.75 2.1875 C2.62607494 2.8575834 0.50082476 3.52346797 -1.625 4.1875 C-2.80835938 4.55875 -3.99171875 4.93 -5.2109375 5.3125 C-8.25 6.1875 -8.25 6.1875 -10.25 6.1875 C-8.47067551 0.84952652 -5.38077387 -0.21239897 0 0 Z " fill="#0F0F0F" transform="translate(457.25,193.8125)"/>
<path d="M0 0 C0.66 0.33 1.32 0.66 2 1 C1.34 1.66 0.68 2.32 0 3 C0 3.99 0 4.98 0 6 C-6.75 10 -6.75 10 -9 10 C-9 8.68 -9 7.36 -9 6 C-7.03125 4.296875 -7.03125 4.296875 -4.5 2.75 C-3.6646875 2.22921875 -2.829375 1.7084375 -1.96875 1.171875 C-1.3190625 0.78515625 -0.669375 0.3984375 0 0 Z " fill="#232323" transform="translate(324,206)"/>
<path d="M0 0 C-1.32332319 3.96996957 -4.0089399 5.76036395 -7.24609375 8.14453125 C-9 9 -9 9 -12 8 C-8.74188349 3.53517367 -5.80764026 0 0 0 Z " fill="#101010" transform="translate(300,223)"/>
<path d="M0 0 C2.97 0 5.94 0 9 0 C8.67 2.31 8.34 4.62 8 7 C6.02 7.66 4.04 8.32 2 9 C2.99 7.35 3.98 5.7 5 4 C4.01 3.67 3.02 3.34 2 3 C2.99 3 3.98 3 5 3 C5 2.34 5 1.68 5 1 C3.35 1 1.7 1 0 1 C0 0.67 0 0.34 0 0 Z " fill="#2A2A2A" transform="translate(457,193)"/>
<path d="M0 0 C-2.62905661 1.75270441 -4.97979619 2.96869839 -7.875 4.1875 C-8.71804688 4.55230469 -9.56109375 4.91710937 -10.4296875 5.29296875 C-13.35303439 6.09711128 -15.11173467 5.81264813 -18 5 C-15.37094339 3.24729559 -13.02020381 2.03130161 -10.125 0.8125 C-8.86042969 0.26529297 -8.86042969 0.26529297 -7.5703125 -0.29296875 C-4.64696561 -1.09711128 -2.88826533 -0.81264813 0 0 Z " fill="#434343" transform="translate(487,213)"/>
<path d="M0 0 C0.33 1.32 0.66 2.64 1 4 C3.31 4 5.62 4 8 4 C8 4.66 8 5.32 8 6 C3.545 6.495 3.545 6.495 -1 7 C-1.625 4.625 -1.625 4.625 -2 2 C-1.34 1.34 -0.68 0.68 0 0 Z " fill="#121212" transform="translate(444,221)"/>
<path d="M0 0 C-0.33 0.99 -0.66 1.98 -1 3 C-4.75907641 4.62323754 -7.92086213 5.23994929 -12 5 C-12 4.34 -12 3.68 -12 3 C-10.75336669 2.49166409 -9.50250613 1.99368855 -8.25 1.5 C-7.55390625 1.2215625 -6.8578125 0.943125 -6.140625 0.65625 C-4 0 -4 0 0 0 Z " fill="#212121" transform="translate(528,195)"/>
<path d="M0 0 C-1 3 -1 3 -3.9375 4.6875 C-7 6 -7 6 -9 6 C-9 5.34 -9 4.68 -9 4 C-9.66 3.67 -10.32 3.34 -11 3 C-4.5 0 -4.5 0 0 0 Z " fill="#313131" transform="translate(611,178)"/>
<path d="M0 0 C0.66 0.33 1.32 0.66 2 1 C0.41641358 4.16717283 -0.45263699 5.73268318 -3.6875 7.3125 C-4.450625 7.539375 -5.21375 7.76625 -6 8 C-6 7.34 -6 6.68 -6 6 C-6.66 5.67 -7.32 5.34 -8 5 C-6.71475739 4.13619741 -5.42157581 3.28419631 -4.125 2.4375 C-3.04605469 1.72400391 -3.04605469 1.72400391 -1.9453125 0.99609375 C-1.30335938 0.66738281 -0.66140625 0.33867187 0 0 Z " fill="#242424" transform="translate(306,217)"/>
<path d="M0 0 C0 0.99 0 1.98 0 3 C-4.43076923 5.09230769 -4.43076923 5.09230769 -7.3125 4.625 C-7.869375 4.41875 -8.42625 4.2125 -9 4 C-4.5 0 -4.5 0 0 0 Z " fill="#131313" transform="translate(602,182)"/>
<path d="M0 0 C0.99 0 1.98 0 3 0 C2.42655063 2.86724686 2.1385485 3.8614515 0 6 C-0.66 6 -1.32 6 -2 6 C-2.66 7.32 -3.32 8.64 -4 10 C-4.39801392 6.5173782 -4.12373826 5.19200764 -2.1875 2.1875 C-1.465625 1.465625 -0.74375 0.74375 0 0 Z " fill="#2E2E2E" transform="translate(445,217)"/>
<path d="M0 0 C1.99788438 0.34578768 3.99759451 0.68143549 6 1 C6 1.33 6 1.66 6 2 C2.37 2.33 -1.26 2.66 -5 3 C-5 2.34 -5 1.68 -5 1 C-5.66 0.67 -6.32 0.34 -7 0 C-3.70955471 -1.0968151 -3.16885176 -0.90538622 0 0 Z " fill="#3F3F3F" transform="translate(574,181)"/>
<path d="M0 0 C0.53625 0.37125 1.0725 0.7425 1.625 1.125 C-1.01404371 2.53877341 -3.44620629 3.49740135 -6.375 4.125 C-6.375 3.465 -6.375 2.805 -6.375 2.125 C-7.035 1.795 -7.695 1.465 -8.375 1.125 C-2.95961538 -1.09038462 -2.95961538 -1.09038462 0 0 Z " fill="#3D3D3D" transform="translate(458.375,222.875)"/>
<path d="M0 0 C0.33 0.99 0.66 1.98 1 3 C-1.3125 5.0625 -1.3125 5.0625 -4 7 C-4.99 6.67 -5.98 6.34 -7 6 C-4.69 4.02 -2.38 2.04 0 0 Z " fill="#161616" transform="translate(463,199)"/>
<path d="M0 0 C-3.44069624 2.29379749 -4.72290301 3 -9 3 C-9 2.34 -9 1.68 -9 1 C-5.57367167 -0.61798838 -3.61944899 -1.34053666 0 0 Z " fill="#2F2F2F" transform="translate(503,206)"/>
<path d="M0 0 C-0.33 0.99 -0.66 1.98 -1 3 C-3.64 3.33 -6.28 3.66 -9 4 C-6.1329385 1.1329385 -4.08408532 0 0 0 Z " fill="#0B0B0B" transform="translate(554,186)"/>
</svg>
