<?xml version="1.0" encoding="UTF-8"?>
<svg version="1.1" xmlns="http://www.w3.org/2000/svg" width="512" height="512">
<path d="M0 0 C3.31063759 1.31123568 6.23267087 2.88174476 9.28125 4.7265625 C10.52577838 5.45969506 11.77191699 6.19010002 13.01953125 6.91796875 C13.64811035 7.2855127 14.27668945 7.65305664 14.92431641 8.03173828 C24.68543631 13.65535482 34.75437572 17.76282518 45.3359375 21.5234375 C46.07295898 21.78576172 46.80998047 22.04808594 47.56933594 22.31835938 C49.07567864 22.85173105 50.58425238 23.3788339 52.09472656 23.90039062 C57.67080966 25.88068182 57.67080966 25.88068182 58.78125 28.1015625 C58.89093726 29.56372949 58.9402785 31.03066092 58.95825195 32.49682617 C58.97108719 33.40925583 58.98392242 34.32168549 58.99714661 35.26176453 C59.00822701 36.75060905 59.00822701 36.75060905 59.01953125 38.26953125 C59.027603 39.29653641 59.03567474 40.32354156 59.04399109 41.38166809 C59.05785034 43.56652127 59.06856422 45.75139627 59.07641602 47.9362793 C59.09344851 51.2307471 59.1372952 54.52416314 59.18164062 57.81835938 C59.36794778 82.79703806 52.8752505 100.80653526 35.28125 119.0390625 C25.88331229 128.43401721 12.93822369 138.06414572 -0.21875 141.1015625 C-2.9495693 140.6239258 -5.54134686 139.84127375 -8.21875 139.1015625 C-8.34180622 165.07778351 -8.17347475 191.03273111 -7.64727783 217.00421143 C-7.27645463 235.37390169 -7.07753368 253.728233 -7.21875 272.1015625 C-4.63513482 272.15563817 -2.05265745 272.1952695 0.53125 272.2265625 C1.26085937 272.24332031 1.99046875 272.26007813 2.7421875 272.27734375 C6.5857124 272.31228489 9.52731772 272.27655934 12.78125 270.1015625 C12.45125 269.2559375 12.12125 268.4103125 11.78125 267.5390625 C10.69155495 263.79323578 10.34226454 260.97926741 10.78125 257.1015625 C13.43809093 254.65933154 16.18204384 253.39660652 19.54638672 252.16870117 C20.48771454 251.8221196 21.42904236 251.47553802 22.39889526 251.11845398 C23.4093692 250.75580948 24.41984314 250.39316498 25.4609375 250.01953125 C26.50645782 249.64169998 27.55197815 249.26386871 28.62918091 248.87458801 C30.83847803 248.07992698 33.04920143 247.2892217 35.26123047 246.50219727 C38.64325779 245.29370498 42.01475749 244.05852021 45.38671875 242.82226562 C47.53586247 242.05302072 49.68558408 241.28538803 51.8359375 240.51953125 C52.84236298 240.14676559 53.84878845 239.77399994 54.88571167 239.38993835 C58.95131796 237.97062495 61.93581281 237.02480711 66.25830078 237.41723633 C69.82376058 239.79754475 70.78504156 242.72298782 72.09375 246.6328125 C72.37951904 247.42417603 72.66528809 248.21553955 72.9597168 249.03088379 C73.92227396 251.71379684 74.85094223 254.40731274 75.78125 257.1015625 C76.47696545 259.05677423 77.17495038 261.01117965 77.875 262.96484375 C80.20789655 269.49972003 82.49577303 276.04998139 84.78125 282.6015625 C86.45260966 287.38344977 88.12602992 292.16461208 89.80078125 296.9453125 C90.21761673 298.13568115 90.63445221 299.3260498 91.06391907 300.55249023 C93.78379468 308.30385297 96.55088629 316.03672625 99.35546875 323.7578125 C99.70860138 324.732948 100.06173401 325.7080835 100.42556763 326.71276855 C102.43098319 332.25140345 102.43098319 332.25140345 104.45581055 337.78295898 C105.36808211 340.26125404 106.26902697 342.74340778 107.16796875 345.2265625 C107.43574631 345.94283813 107.70352386 346.65911377 107.97941589 347.39709473 C109.42148981 351.41678679 110.33684777 354.83308696 109.78125 359.1015625 C107.62685059 361.80059464 105.42815902 362.83372892 102.22143555 364.00268555 C101.30005295 364.34281174 100.37867035 364.68293793 99.42936707 365.03337097 C98.43560562 365.38974136 97.44184418 365.74611176 96.41796875 366.11328125 C95.39322952 366.48636917 94.3684903 366.85945709 93.31269836 367.24385071 C91.14463951 368.03046362 88.97501091 368.81276142 86.80395508 369.59106445 C83.48734058 370.78238481 80.17812318 371.99274493 76.86914062 373.20507812 C74.76083662 373.96730841 72.65212541 374.72841353 70.54296875 375.48828125 C69.55528 375.85072433 68.56759125 376.21316742 67.54997253 376.58659363 C58.53058333 379.79062627 58.53058333 379.79062627 53.78125 379.1015625 C50.17808978 375.79055041 49.22854476 372.9099812 48.78125 368.1015625 C42.90340807 370.57644331 39.64911259 373.06971467 35.65625 377.99609375 C32.47471904 381.56868789 28.63999587 384.3015655 24.78125 387.1015625 C25.420625 388.0296875 26.06 388.9578125 26.71875 389.9140625 C30.16299762 395.23699064 30.44165214 399.91029239 29.78125 406.1015625 C28.12805581 411.37561137 25.57626721 415.22455217 20.78125 418.1015625 C15.55506966 420.42430932 11.46428734 421.70447047 5.78125 420.1015625 C5.4409375 421.6484375 5.4409375 421.6484375 5.09375 423.2265625 C3.5790229 428.4592561 0.59592347 431.87771295 -3.90625 434.9140625 C-9.19189615 436.80891678 -14.81410354 437.90311132 -20.21875 436.1015625 C-20.445625 436.9678125 -20.6725 437.8340625 -20.90625 438.7265625 C-22.81045637 443.62309316 -25.47083437 446.83432367 -29.71875 449.9140625 C-33.33620286 451.14141258 -36.10864137 451.27918628 -39.90625 451.4140625 C-43.27673744 451.53859006 -43.27673744 451.53859006 -46.21875 452.1015625 C-48.25172897 454.75009663 -48.25172897 454.75009663 -49.21875 458.1015625 C-53.81498134 463.08472148 -58.22037991 465.85579446 -65.03125 466.4140625 C-73.73768445 466.12003657 -79.1279097 462.01421332 -85.21875 456.1015625 C-85.63125 456.49988281 -86.04375 456.89820313 -86.46875 457.30859375 C-91.26148055 461.70549611 -95.80768802 464.91872055 -102.48046875 465.1953125 C-107.97214075 464.82236364 -111.77268547 463.32713873 -116.21875 460.1015625 C-120.21875 455.07592147 -120.21875 455.07592147 -120.21875 451.1015625 C-120.92 451.15957031 -121.62125 451.21757812 -122.34375 451.27734375 C-128.41184238 451.56590793 -132.57410168 451.205231 -137.6015625 447.671875 C-139.32830367 445.9951843 -140.07020931 444.60157418 -141.03125 442.4140625 C-142.82294584 438.93423657 -142.82294584 438.93423657 -145.69140625 438.3515625 C-147.6331868 438.05885803 -149.57882996 437.79076354 -151.52734375 437.546875 C-156.28403734 436.75984587 -159.06534957 434.19088513 -162.46875 430.9765625 C-164.28289192 427.99618649 -164.53519699 426.36615874 -164.96875 422.9765625 C-165.31661752 420.35585603 -165.31661752 420.35585603 -166.21875 418.1015625 C-168.15302276 416.87920958 -169.90712546 416.42986079 -172.1171875 415.86328125 C-176.72673539 414.19253434 -179.31932565 409.73687949 -181.59375 405.6015625 C-183.16688302 399.3090304 -182.27938624 393.73313317 -179.21875 388.1015625 C-178.14643388 386.86487676 -177.0413826 385.65585358 -175.90625 384.4765625 C-174.31433475 382.84105376 -174.31433475 382.84105376 -173.21875 381.1015625 C-173.54801958 377.86371222 -173.54801958 377.86371222 -175.21875 375.1015625 C-175.6209375 373.9878125 -175.6209375 373.9878125 -176.03125 372.8515625 C-177.66989271 370.43672062 -179.49399634 369.96201102 -182.21875 369.1015625 C-182.6209375 370.74125 -182.6209375 370.74125 -183.03125 372.4140625 C-184.6905333 377.56657379 -184.6905333 377.56657379 -187.21875 379.1015625 C-192.3832762 379.62685718 -196.02185656 378.13404648 -200.53125 375.84765625 C-201.56741455 375.33985374 -201.56741455 375.33985374 -202.62451172 374.8217926 C-204.82821558 373.73853334 -207.02340726 372.63915111 -209.21875 371.5390625 C-210.66223014 370.82639888 -212.10623689 370.11480087 -213.55078125 369.40429688 C-216.3984044 368.00200071 -219.23836907 366.58560624 -222.07421875 365.15966797 C-224.80732609 363.78982546 -227.55666771 362.46995538 -230.33203125 361.18798828 C-230.97769043 360.88353287 -231.62334961 360.57907745 -232.28857422 360.26539612 C-234.0403443 359.4412484 -235.79924436 358.63230422 -237.55859375 357.82446289 C-240.21875 356.1015625 -240.21875 356.1015625 -241.84765625 353.95874023 C-242.2807211 350.62442584 -241.64596956 349.4219093 -240.24194336 346.42298889 C-239.86734482 345.61345796 -239.49274628 344.80392702 -239.10679626 343.96986485 C-238.813741 343.35332507 -238.52068573 342.7367853 -238.21875 342.1015625 C-239.08954225 342.10432788 -239.08954225 342.10432788 -239.97792625 342.10714912 C-254.09034853 342.15127915 -268.20276048 342.18439515 -282.31523705 342.20518684 C-289.1398707 342.21550828 -295.96445836 342.2295851 -302.7890625 342.25244141 C-309.37018356 342.27447179 -315.95126926 342.28611801 -322.53242874 342.29131699 C-325.0483437 342.29502391 -327.56425592 342.30226216 -330.0801506 342.31302261 C-333.59304298 342.32745513 -337.10573529 342.3295439 -340.61865234 342.32861328 C-341.66809525 342.33580383 -342.71753815 342.34299438 -343.79878235 342.35040283 C-345.22910545 342.34627884 -345.22910545 342.34627884 -346.68832397 342.34207153 C-347.93550988 342.34483691 -347.93550988 342.34483691 -349.20789146 342.34765816 C-351.21875 342.1015625 -351.21875 342.1015625 -353.21875 340.1015625 C-353.61862122 335.54054252 -353.54777392 330.96528011 -353.53442383 326.38867188 C-353.53126197 324.1101916 -353.55472517 321.83300729 -353.58007812 319.5546875 C-353.58235088 318.11198081 -353.58305473 316.66927062 -353.58203125 315.2265625 C-353.58650269 313.25042969 -353.58650269 313.25042969 -353.59106445 311.234375 C-353.46820068 310.20054687 -353.34533691 309.16671875 -353.21875 308.1015625 C-350.11789429 306.03432536 -349.48943319 305.85658827 -345.98828125 305.90625 C-345.18583984 305.91269531 -344.38339844 305.91914063 -343.55664062 305.92578125 C-342.72326172 305.94253906 -341.88988281 305.95929688 -341.03125 305.9765625 C-340.18626953 305.98558594 -339.34128906 305.99460937 -338.47070312 306.00390625 C-336.38659757 306.02745547 -334.30263783 306.06332603 -332.21875 306.1015625 C-332.23969727 305.48635742 -332.26064453 304.87115234 -332.28222656 304.23730469 C-332.36552017 301.44222441 -332.41745013 298.64740535 -332.46875 295.8515625 C-332.51902344 294.39943359 -332.51902344 294.39943359 -332.5703125 292.91796875 C-332.58320313 291.98339844 -332.59609375 291.04882812 -332.609375 290.0859375 C-332.63032227 289.22709961 -332.65126953 288.36826172 -332.67285156 287.48339844 C-332.03726266 284.14963212 -330.91421626 283.15034193 -328.21875 281.1015625 C-325.48192029 280.8104104 -323.17934961 280.71833832 -320.46875 280.8515625 C-319.77136719 280.86960937 -319.07398438 280.88765625 -318.35546875 280.90625 C-316.64263461 280.95317696 -314.93051176 281.02491645 -313.21875 281.1015625 C-313.20936433 280.52937201 -313.19997866 279.95718153 -313.19030857 279.36765194 C-312.95834594 265.23385651 -312.72434388 251.10009584 -312.48825932 236.96636868 C-312.37412138 230.13050779 -312.26060379 223.29463779 -312.14868164 216.45874023 C-311.64422704 185.66889807 -311.10417786 154.88311689 -310.21875 124.1015625 C-311.0025 124.1428125 -311.78625 124.1840625 -312.59375 124.2265625 C-315.21875 124.1015625 -315.21875 124.1015625 -317.21875 122.1015625 C-317.44580078 120.13037109 -317.44580078 120.13037109 -317.4140625 117.75 C-317.40761719 116.89921875 -317.40117187 116.0484375 -317.39453125 115.171875 C-317.37777344 114.28242188 -317.36101562 113.39296875 -317.34375 112.4765625 C-317.33472656 111.579375 -317.32570313 110.6821875 -317.31640625 109.7578125 C-317.2927997 107.53879664 -317.2598731 105.32031173 -317.21875 103.1015625 C-318.88429932 103.11727295 -318.88429932 103.11727295 -320.58349609 103.13330078 C-324.69462879 103.16944199 -328.80574739 103.19244146 -332.91699219 103.21142578 C-334.69794067 103.22149681 -336.47887257 103.23515435 -338.25976562 103.25244141 C-340.81644783 103.27664163 -343.37291185 103.28803434 -345.9296875 103.296875 C-346.72869476 103.30719757 -347.52770203 103.31752014 -348.35092163 103.32815552 C-350.3083222 103.32855476 -352.26518077 103.22397319 -354.21875 103.1015625 C-356.21875 101.1015625 -356.21875 101.1015625 -356.65625 97.6640625 C-356.4396875 95.900625 -356.4396875 95.900625 -356.21875 94.1015625 C-352.65104989 91.50308621 -348.63106865 89.88767703 -344.5859375 88.16015625 C-343.93417542 87.8808577 -343.28241333 87.60155914 -342.61090088 87.313797 C-340.4401336 86.3850485 -338.26702933 85.46191598 -336.09375 84.5390625 C-334.53493505 83.87416044 -332.97617998 83.20911795 -331.41748047 82.54394531 C-317.60353524 76.65766773 -303.75115806 70.86293518 -289.89550781 65.07568359 C-276.8663126 59.63325099 -263.85047241 54.15998025 -250.84375 48.6640625 C-249.92063019 48.27410095 -248.99751038 47.8841394 -248.04641724 47.48236084 C-238.42452083 43.4175926 -228.80404457 39.34947325 -219.18457031 35.27897644 C-215.17898582 33.58428282 -211.17298647 31.89057126 -207.16693115 30.19699097 C-204.39879236 29.02627417 -201.6312671 27.85411636 -198.86376953 26.68188477 C-195.41383101 25.22128909 -191.96050775 23.76916165 -188.50439453 22.32324219 C-184.73352032 20.74539838 -180.97797874 19.13509569 -177.22607422 17.51269531 C-175.24336423 16.66945107 -173.26045904 15.82666563 -171.27734375 14.984375 C-169.9007534 14.3792659 -169.9007534 14.3792659 -168.49635315 13.76193237 C-162.05747242 11.05505288 -158.63754801 10.81902596 -152.00708008 13.30639648 C-150.84587646 13.81501221 -149.68467285 14.32362793 -148.48828125 14.84765625 C-147.83661987 15.13032852 -147.1849585 15.41300079 -146.5135498 15.70423889 C-145.09574311 16.31985401 -143.67921051 16.93841001 -142.26382446 17.55957031 C-138.37995436 19.26353159 -134.48636161 20.94503392 -130.59375 22.62890625 C-129.76676102 22.98725555 -128.93977203 23.34560486 -128.08772278 23.71481323 C-117.03864698 28.49295188 -105.92113104 33.10862284 -94.80801392 37.73532104 C-83.56307195 42.417485 -72.35838272 47.17361 -61.21875 52.1015625 C-61.24493408 51.35994873 -61.27111816 50.61833496 -61.2980957 49.85424805 C-61.40192431 46.49940105 -61.46703239 43.14489145 -61.53125 39.7890625 C-61.57314453 38.62181641 -61.61503906 37.45457031 -61.65820312 36.25195312 C-61.67431641 35.13369141 -61.69042969 34.01542969 -61.70703125 32.86328125 C-61.73321533 31.83162842 -61.75939941 30.79997559 -61.78637695 29.73706055 C-61.21875 27.1015625 -61.21875 27.1015625 -58.90991211 25.31542969 C-56.20641984 24.09600089 -53.48923179 23.16175567 -50.6484375 22.31445312 C-41.79751068 19.67345077 -33.53467266 16.1071927 -25.21875 12.1015625 C-24.18137695 11.60342041 -23.14400391 11.10527832 -22.07519531 10.59204102 C-17.14129208 8.17613797 -12.4570169 5.64992882 -7.84375 2.6640625 C-4.82206605 0.82464555 -3.59267637 0.11336115 0 0 Z M-262.21875 124.1015625 C-261.97714693 138.81332571 -261.73399804 153.52506163 -261.48825932 168.23675632 C-261.37412138 175.07261721 -261.26060379 181.90848721 -261.14868164 188.74438477 C-260.64422432 219.53439343 -260.09513268 250.31965307 -259.21875 281.1015625 C-249.31875 281.1015625 -239.41875 281.1015625 -229.21875 281.1015625 C-228.36353631 275.19754956 -228.36353631 275.19754956 -228.02256775 269.35292053 C-228.00436478 268.47554733 -227.9861618 267.59817413 -227.96740723 266.69421387 C-227.95230103 265.75364136 -227.93719482 264.81306885 -227.92163086 263.84399414 C-227.90197769 262.8343309 -227.88232452 261.82466766 -227.86207581 260.78440857 C-227.79823504 257.44357706 -227.74074901 254.10267084 -227.68359375 250.76171875 C-227.6404583 248.40131635 -227.59704182 246.04091908 -227.55335999 243.68052673 C-227.46238536 238.71162387 -227.37449203 233.74267866 -227.28881836 228.77368164 C-227.18100286 222.53127408 -227.06623513 216.2890194 -226.94925499 210.04677773 C-226.41521677 181.39250495 -226.116564 152.76132897 -226.21875 124.1015625 C-238.09875 124.1015625 -249.97875 124.1015625 -262.21875 124.1015625 Z M-178.21875 124.1015625 C-177.55875 162.7115625 -176.89875 201.3215625 -176.21875 241.1015625 C-160.79768033 250.63241784 -160.79768033 250.63241784 -144.21875 255.1015625 C-142.81163591 211.44030544 -142.06384178 167.78568167 -142.21875 124.1015625 C-154.09875 124.1015625 -165.97875 124.1015625 -178.21875 124.1015625 Z M-94.21875 124.1015625 C-93.97692555 138.27451711 -93.73371199 152.4474462 -93.48825932 166.62033844 C-93.37425374 173.20618851 -93.26078398 179.79204686 -93.14868164 186.37792969 C-92.62778372 216.95605366 -92.05862033 247.53035082 -91.21875 278.1015625 C-87.85016842 276.50763539 -85.54752551 274.6820079 -82.84375 272.1015625 C-77.21758088 267.06810163 -73.51850777 266.02991397 -66.01953125 266.0703125 C-64.39204956 266.07708008 -64.39204956 266.07708008 -62.73168945 266.08398438 C-61.90241943 266.08978516 -61.07314941 266.09558594 -60.21875 266.1015625 C-59.95248869 253.9363207 -59.69147795 241.77097719 -59.43644714 229.6054945 C-59.31776417 223.95121585 -59.19753924 218.2969805 -59.07324219 212.64282227 C-58.42568301 183.12369002 -58.08165312 153.62785175 -58.21875 124.1015625 C-70.09875 124.1015625 -81.97875 124.1015625 -94.21875 124.1015625 Z " fill="#020202" transform="translate(379.21875,22.8984375)"/>
<path d="M0 0 C3.46516565 1.08393113 6.50886102 2.20483767 9.59375 4.109375 C15.02262078 6.89619533 20.53458707 6.4355272 26.5 6.25 C27.60859375 6.23195313 28.7171875 6.21390625 29.859375 6.1953125 C32.57383296 6.1485115 35.28644716 6.08296375 38 6 C34.9944805 9.93132685 31.85642215 12.90291525 28 15.9609375 C23.16847475 20.88682848 21.5472324 25.27278217 21.46986389 32.01708984 C21.48671486 33.30800537 21.48671486 33.30800537 21.50390625 34.625 C21.5017234 35.98359131 21.5017234 35.98359131 21.49949646 37.36962891 C21.50114908 39.27574902 21.51263862 41.18188337 21.53344727 43.08789062 C21.56241487 45.99146701 21.55403982 48.89321591 21.54101562 51.796875 C21.54725376 53.6562588 21.55564528 55.51563688 21.56640625 57.375 C21.56347061 58.23561035 21.56053497 59.0962207 21.55751038 59.98291016 C21.6634016 66.80972011 22.9148164 71.54055268 27.4375 76.875 C30.39548321 79.34680399 30.39548321 79.34680399 34 80 C35.794375 80.185625 35.794375 80.185625 37.625 80.375 C43.95793901 80.25706817 49.31904213 77.30307048 54.05078125 73.23828125 C58.60922697 68.42604626 60.95636416 63.24444285 63 57 C63.391875 55.88625 63.78375 54.7725 64.1875 53.625 C65.16275925 49.27384335 65.43304138 45.0216506 65.65625 40.57421875 C66 38 66 38 68 36 C72.35968646 36.25731708 74.68371455 38.02998702 77.9375 40.8125 C78.89914062 41.6271875 79.86078125 42.441875 80.8515625 43.28125 C81.901266 44.18724015 82.95073774 45.09349887 84 46 C85.11136045 46.94864199 86.22335444 47.89654221 87.3359375 48.84375 C90.29725142 51.36955189 93.24864231 53.90666802 96.19726562 56.44726562 C99.1489589 58.98962332 102.10531397 61.52653507 105.0625 64.0625 C105.64233643 64.55983643 106.22217285 65.05717285 106.81958008 65.56958008 C111.23225341 69.35072616 115.66558005 73.10688247 120.10571289 76.85571289 C124.67552736 80.71726491 129.21779523 84.61033594 133.75634766 88.50854492 C137.78020861 91.96197563 141.82274836 95.39245166 145.875 98.8125 C153.23499184 105.03533995 153.23499184 105.03533995 156.75 108.0625 C157.67039062 108.85333984 157.67039062 108.85333984 158.609375 109.66015625 C160.68484232 111.65983404 160.99128429 112.93463215 161.375 115.8125 C161 119 161 119 159 121.875 C155.83008775 124.12035451 153.98141574 124.55394535 150.13134766 124.44140625 C146.09331245 123.6051213 143.57701024 120.85396299 140.6875 118.0625 C139.3761837 116.85938565 138.06367607 115.65756853 136.75 114.45703125 C136.11320313 113.86486816 135.47640625 113.27270508 134.8203125 112.66259766 C132.3608979 110.41627075 129.78828751 108.32989115 127.1875 106.25 C123.69764112 103.42512161 120.31989486 100.52282421 117 97.5 C115.33570737 95.99736637 113.66895577 94.49745264 112 93 C111.05640625 92.15308594 110.1128125 91.30617188 109.140625 90.43359375 C108.18671875 89.60988281 107.2328125 88.78617187 106.25 87.9375 C105.38890625 87.18339844 104.5278125 86.42929687 103.640625 85.65234375 C100.49214731 83.68221644 98.64998359 83.58807328 95 84 C93.72051088 85.08869843 93.72051088 85.08869843 93.5234375 87.6796875 C94.22309649 92.55436076 96.88997324 94.16920378 100.625 97.125 C102.01049328 98.2707407 103.3959082 99.41657615 104.78125 100.5625 C105.48765625 101.13613281 106.1940625 101.70976562 106.921875 102.30078125 C110.04022723 104.85056174 113.07917706 107.48946606 116.125 110.125 C119.64217656 113.14673608 123.17303183 116.15073426 126.73046875 119.125 C127.33165527 119.6288623 127.9328418 120.13272461 128.55224609 120.65185547 C129.6997928 121.61222951 130.84974985 122.56973297 132.00244141 123.52392578 C135.24119289 126.23565242 136.80706571 127.55299282 137.375 131.8125 C137 135 137 135 135 137.875 C131.78729928 140.15066301 129.94633841 140.48203446 126.05566406 140.36572266 C122.56777125 139.74519256 120.34430395 137.61718088 117.875 135.25 C116.7502524 134.23669893 115.62524312 133.22368827 114.5 132.2109375 C113.63955078 131.41768066 113.63955078 131.41768066 112.76171875 130.60839844 C109.86048199 127.95965291 106.86589067 125.42148752 103.875 122.875 C102.70551764 121.8778522 101.53624387 120.8804597 100.3671875 119.8828125 C99.80354492 119.40231445 99.23990234 118.92181641 98.65917969 118.42675781 C97.05380428 117.04626725 95.46734727 115.64650042 93.8828125 114.2421875 C92.93148437 113.41976562 91.98015625 112.59734375 91 111.75 C90.175 111.02296875 89.35 110.2959375 88.5 109.546875 C85.43917282 107.65298818 83.53839437 107.61801424 80 108 C78.71443692 109.0911835 78.71443692 109.0911835 78.5546875 111.7109375 C79.17299247 116.27771635 81.66996926 117.94673793 85.125 120.625 C86.40661962 121.66881717 87.68785829 122.71310222 88.96875 123.7578125 C89.63261719 124.28922852 90.29648437 124.82064453 90.98046875 125.36816406 C94.25250908 128.01206125 97.4359247 130.75713978 100.625 133.5 C101.2039502 133.99193848 101.78290039 134.48387695 102.37939453 134.99072266 C110.89093826 142.25020052 110.89093826 142.25020052 111.5 146.4375 C110.90851499 150.65183071 110.2883921 152.28707652 107 155 C103.4799579 155.86457174 102.32838379 156.06130435 99 155 C94.15117929 151.78862675 89.94225583 147.87434478 85.765625 143.84375 C81.56415062 139.7108508 81.56415062 139.7108508 76 138.5625 C74.515 138.7790625 74.515 138.7790625 73 139 C71.97628328 141.71011879 71.97628328 141.71011879 72 145 C73.9312936 147.26427525 75.5985972 148.91156284 77.875 150.75 C84.84993743 156.64943687 84.84993743 156.64943687 85.3125 160.8125 C84.91645896 164.85211856 84.01158942 166.29729155 81 169 C77.8125 170.25 77.8125 170.25 74 170 C69.88028321 167.50790903 66.39495414 164.39495414 63 161 C62.69140625 158.390625 62.69140625 158.390625 62.5625 155.25 C62.24686009 150.45801224 61.55561201 147.15286951 59 143 C58.67 142.01 58.34 141.02 58 140 C55.62374655 138.81608777 55.62374655 138.81608777 53 138 C52.01 137.67 51.02 137.34 50 137 C50.05800781 136.154375 50.11601562 135.30875 50.17578125 134.4375 C50.4387587 127.82549552 50.46984916 122.94065213 46.4296875 117.51953125 C43.35023759 114.24656399 40.26798315 113.00157744 36 112 C35.98582031 111.3709375 35.97164063 110.741875 35.95703125 110.09375 C35.59874276 103.66392411 34.47061509 98.80259146 30 94 C24.93471426 90.16856591 20.2231954 89.29738116 14 90 C11.98473831 90.96887581 9.98166034 91.9641321 8 93 C4.70884386 93 3.86506796 91.87165002 1.4375 89.5625 C0.633125 88.716875 -0.17125 87.87125 -1 87 C-4.54815071 84.63456619 -6.17256132 84.73076687 -10.375 84.75 C-11.49648437 84.74484375 -12.61796875 84.7396875 -13.7734375 84.734375 C-16.93012177 84.99424731 -19.15368045 85.65679302 -22 87 C-22.268125 86.39671875 -22.53625 85.7934375 -22.8125 85.171875 C-25.90002775 78.87494341 -28.46916667 76.54591808 -35 74 C-33.73516196 69.99449544 -32.26513075 66.2629958 -30.41796875 62.4921875 C-29.90443848 61.43660645 -29.3909082 60.38102539 -28.86181641 59.29345703 C-28.30929199 58.16536621 -27.75676758 57.03727539 -27.1875 55.875 C-26.00992598 53.45397137 -24.83355431 51.03242411 -23.66015625 48.609375 C-23.35873718 47.98713043 -23.05731812 47.36488586 -22.74676514 46.7237854 C-20.62024559 42.31970024 -18.54314264 37.89466215 -16.49609375 33.453125 C-16.21176987 32.83660065 -15.92744598 32.22007629 -15.63450623 31.58486938 C-14.27640016 28.63604337 -12.92441475 25.68455496 -11.57885742 22.72998047 C-8.01566307 14.97157023 -4.12631945 7.47024587 0 0 Z " fill="#EAD4AB" transform="translate(237,308)"/>
<path d="M0 0 C0.87589783 0.371819 1.75179565 0.743638 2.65423584 1.12672424 C5.53951926 2.35243412 8.422044 3.58450225 11.3046875 4.81640625 C14.33417117 6.10486355 17.36439967 7.39155774 20.39468384 8.6781311 C22.4844026 9.56544883 24.57389761 10.45329368 26.66317749 11.34164429 C37.77542114 16.06441994 48.91356374 20.72476401 60.0546875 25.37890625 C62.76230464 26.51030828 65.46987189 27.64182913 68.17730713 28.77366638 C69.77802896 29.44277484 71.37888775 30.11155579 72.97991943 30.77992249 C74.38736989 31.36804772 75.79341392 31.95955466 77.19775391 32.55506897 C78.53164176 33.10953081 79.87493244 33.6418367 81.22607422 34.15281677 C82.91327569 34.80889263 84.55264328 35.58529965 86.1796875 36.37890625 C87.1953125 39.6015625 87.1953125 39.6015625 87.4296875 43.44140625 C87.88869451 49.0496866 88.76201798 54.09380883 90.59375 59.42578125 C91.1796875 61.37890625 91.1796875 61.37890625 91.1796875 64.37890625 C3.0696875 64.37890625 -85.0403125 64.37890625 -175.8203125 64.37890625 C-173.17267323 62.6138134 -170.82251572 61.43455256 -167.9140625 60.19140625 C-166.8835376 59.74982178 -165.8530127 59.3082373 -164.79125977 58.85327148 C-163.07314087 58.12346069 -163.07314087 58.12346069 -161.3203125 57.37890625 C-160.0845199 56.8517239 -158.84876259 56.32445881 -157.61303711 55.79711914 C-144.72078384 50.30504156 -131.78757539 44.90986451 -118.85742188 39.5078125 C-106.60193419 34.38673559 -94.35889551 29.23706167 -82.12521362 24.06411743 C-79.33356968 22.88450807 -76.54107652 21.70693314 -73.74829102 20.5300293 C-65.04396505 16.86082317 -56.34497716 13.18058191 -47.66394043 9.45654297 C-43.67615012 7.74805769 -39.68403676 6.04983482 -35.69116211 4.35327148 C-33.79149747 3.54309901 -31.89383072 2.72822432 -29.99829102 1.90844727 C-27.38141133 0.77719563 -24.75813292 -0.33772662 -22.1328125 -1.44921875 C-21.36102661 -1.78773865 -20.58924072 -2.12625854 -19.79406738 -2.47503662 C-11.92930367 -5.76413462 -7.36994315 -3.16759488 0 0 Z " fill="#238595" transform="translate(231.8203125,50.62109375)"/>
<path d="M0 0 C0.69938187 0.0527005 1.39876373 0.105401 2.11933899 0.15969849 C4.44935333 0.34040263 6.77725286 0.53968273 9.10546875 0.7421875 C10.31707672 0.84412415 10.31707672 0.84412415 11.55316162 0.94812012 C16.74382368 1.3871825 21.93024132 1.8629161 27.11547852 2.36181641 C29.79960081 2.61782005 32.48466947 2.86164363 35.16992188 3.10546875 C43.80368374 3.9179026 52.12068042 4.9147471 60.52416992 7.12402344 C66.70207301 8.60349479 71.81601543 7.93158463 77.87890625 6.21875 C78.86036621 5.94369629 79.84182617 5.66864258 80.85302734 5.38525391 C81.59633301 5.17304199 82.33963867 4.96083008 83.10546875 4.7421875 C83.3427066 5.42075806 83.57994446 6.09932861 83.82437134 6.79846191 C86.08699789 13.26921028 88.35138184 19.73934137 90.61762428 26.20882416 C91.78198492 29.53293391 92.94572133 32.85725915 94.10791016 36.18212891 C95.23128428 39.39581763 96.35626589 42.60893924 97.4825058 45.82162476 C98.14145588 47.70216089 98.79915499 49.58313523 99.45684814 51.46411133 C101.28602108 56.67300164 103.12760135 61.86969021 105.12792969 67.015625 C105.41856293 67.76396606 105.70919617 68.51230713 106.00863647 69.2833252 C106.74577247 71.156451 107.4996965 73.02294797 108.25537109 74.88867188 C109.10991523 77.75711295 109.36287877 79.04722954 108.10546875 81.7421875 C105.9609375 82.796875 105.9609375 82.796875 103.29296875 83.6171875 C98.31477114 85.43127646 96.84721627 87.14312715 94.10546875 91.7421875 C85.64612929 100.21733881 85.64612929 100.21733881 81.10546875 101.7421875 C75.89995794 101.57538876 73.57008264 99.82247465 69.91796875 96.2421875 C68.96664062 95.33597656 68.0153125 94.42976563 67.03515625 93.49609375 C66.55014648 93.03348145 66.06513672 92.57086914 65.56542969 92.09423828 C63.31470368 90.00987028 60.93399588 88.09996 58.54296875 86.1796875 C54.96718406 83.29369957 51.50145557 80.33773946 48.10546875 77.2421875 C44.78557389 74.21936329 41.40782763 71.31706589 37.91796875 68.4921875 C33.4432712 64.86951276 29.07247447 61.14640205 24.73046875 57.3671875 C24.09512207 56.81643555 23.45977539 56.26568359 22.80517578 55.69824219 C19.72575173 53.0278958 16.65742614 50.34673345 13.609375 47.640625 C6.78784788 41.64089687 0.06738082 35.7740569 -9.14453125 34.1796875 C-13.67972211 35.10734018 -16.74735268 37.20707415 -19.51171875 40.90625 C-21.20758627 44.38421559 -21.52492017 47.6349602 -21.83203125 51.4296875 C-22.9730349 62.1915654 -25.84491872 70.1485875 -33.89453125 77.7421875 C-36.94437121 79.26710748 -39.53686815 78.97781298 -42.89453125 78.7421875 C-44.89499005 77.24542591 -45.7627448 76.33451596 -46.30912781 73.8787384 C-46.32659561 73.18116928 -46.34406342 72.48360016 -46.36206055 71.76489258 C-46.38765549 70.97008987 -46.41325043 70.17528717 -46.43962097 69.35639954 C-46.44923355 68.50015488 -46.45884613 67.64391022 -46.46875 66.76171875 C-46.48347855 65.87489914 -46.49820709 64.98807953 -46.51338196 64.0743866 C-46.5373399 62.1957562 -46.55275619 60.31700043 -46.56030273 58.43823242 C-46.5818333 55.5809567 -46.66194576 52.7291332 -46.74414062 49.87304688 C-46.93970686 36.57139551 -46.93970686 36.57139551 -44.20117188 31.77856445 C-42.19933834 29.76258451 -40.2765438 28.27492234 -37.89453125 26.7421875 C-36.58813597 25.61317546 -35.29437122 24.46921309 -34.01953125 23.3046875 C-33.35953125 22.73621094 -32.69953125 22.16773438 -32.01953125 21.58203125 C-29.65967633 19.53884804 -27.33788523 17.45732851 -25.01953125 15.3671875 C-24.18550781 14.61566406 -23.35148437 13.86414063 -22.4921875 13.08984375 C-20.70583771 11.47541334 -18.92212765 9.85805883 -17.140625 8.23828125 C-15.81224609 7.03365234 -15.81224609 7.03365234 -14.45703125 5.8046875 C-13.65394531 5.07378906 -12.85085938 4.34289062 -12.0234375 3.58984375 C-7.68718321 -0.17354759 -5.65383948 -0.44342425 0 0 Z " fill="#E1BE7E" transform="translate(314.89453125,299.2578125)"/>
<path d="M0 0 C2.47127771 1.29071304 4.81364615 2.61543701 7.1875 4.0625 C13.25121589 7.61314412 19.39436299 10.65814482 25.875 13.375 C26.63449951 13.69605713 27.39399902 14.01711426 28.17651367 14.34790039 C33.68162156 16.60923575 39.27608143 18.37849757 45 20 C45.10027516 25.2794872 45.17211836 30.55839777 45.21972656 35.83862305 C45.23961147 37.627784 45.26672938 39.41688201 45.30175781 41.20581055 C45.6974461 61.96198891 41.96324637 78.20208338 27.16796875 93.765625 C26.45253906 94.50296875 25.73710937 95.2403125 25 96 C24.45988281 96.61359375 23.91976562 97.2271875 23.36328125 97.859375 C17.8910038 103.86923134 10.96541404 107.95145271 4 112 C3.20335937 112.48984375 2.40671875 112.9796875 1.5859375 113.484375 C-2.26955068 115.36157898 -4.24790916 115.25831157 -8.34375 113.8515625 C-15.59733076 110.61122537 -21.99740031 106.17344681 -28 101 C-28.66257812 100.48050781 -29.32515625 99.96101563 -30.0078125 99.42578125 C-42.99518023 88.90855993 -50.48785117 74.33604671 -53 58 C-53.45330157 51.40604138 -53.28623091 44.79129366 -53.1875 38.1875 C-53.17241466 36.4160271 -53.15873312 34.64454166 -53.14648438 32.87304688 C-53.11380946 28.58171526 -53.06224392 24.29100039 -53 20 C-52.41734375 19.79955078 -51.8346875 19.59910156 -51.234375 19.39257812 C-36.09666513 14.14436267 -21.49220889 8.48145515 -7.9921875 -0.28515625 C-4.97290992 -1.36854409 -3.08026263 -0.8404127 0 0 Z " fill="#2FA4CA" transform="translate(382,37)"/>
<path d="M0 0 C8.91 0 17.82 0 27 0 C27.26429688 14.98971013 27.52571864 29.9794649 27.78230286 44.96930885 C27.9016071 51.93416109 28.02207258 58.89898919 28.14550781 65.86376953 C28.68925559 96.57962913 29.12714588 127.27837679 29 158 C18.77 158 8.54 158 -2 158 C-2.05725044 149.29157135 -2.10322926 140.58355213 -2.125 131.875 C-2.12671204 131.19532166 -2.12842407 130.51564331 -2.13018799 129.81536865 C-2.19410391 100.8682747 -1.64749397 71.93889734 -1 43 C-0.97608437 41.93075035 -0.95216873 40.8615007 -0.92752838 39.75984955 C-0.63001665 26.50628266 -0.31959642 13.25305167 0 0 Z " fill="#C0C0C8" transform="translate(80,147)"/>
<path d="M0 0 C8.91 0 17.82 0 27 0 C27.26235741 17.38676028 27.52345042 34.77353805 27.78230286 52.1603508 C27.90256389 60.2354936 28.02336869 68.31062755 28.14550781 76.38574219 C28.25210978 83.43372763 28.35763631 90.48172827 28.46193409 97.5297482 C28.51706377 101.25276191 28.57268929 104.97576654 28.62960815 108.69875336 C28.87032793 124.4663763 29.07439308 140.23014355 29 156 C24.97527137 157.34157621 21.08963647 157.56472001 16.875 157.875 C16.05773437 157.96007812 15.24046875 158.04515625 14.3984375 158.1328125 C9.51814478 158.47257971 6.44380368 157.99743349 2.19189453 155.48095703 C1.40106476 155.01964386 0.61023499 154.55833069 -0.20455933 154.08303833 C-1.09330246 153.54693436 -1.09330246 153.54693436 -2 153 C-2.32547937 117.17223194 -1.76181432 81.38149934 -1 45.5625 C-0.96412655 43.87532238 -0.96412655 43.87532238 -0.92752838 42.15406036 C-0.62787568 28.10249022 -0.31756933 14.05117596 0 0 Z " fill="#C0C0C8" transform="translate(248,147)"/>
<path d="M0 0 C5.01735498 12.62311135 9.64066019 25.34491496 14.0625 38.1875 C15.36307071 41.95410357 16.66663052 45.71965947 17.97265625 49.484375 C18.30182037 50.43324081 18.6309845 51.38210663 18.97012329 52.35972595 C21.29544435 59.03765722 23.68939815 65.68825872 26.12109375 72.328125 C26.61428856 73.67956352 26.61428856 73.67956352 27.1174469 75.05830383 C28.68949048 79.36488651 30.27166802 83.66722618 31.87133789 87.96362305 C32.43554751 89.5055178 32.99929465 91.04758189 33.5625 92.58984375 C33.82626938 93.28575623 34.09003876 93.9816687 34.36180115 94.69866943 C35.27777581 97.23301741 35.97818886 99.57486521 36.11669922 102.2746582 C34.17533681 105.27413529 30.81761445 105.93855826 27.5703125 107.015625 C26.45110916 107.40666412 26.45110916 107.40666412 25.30929565 107.80560303 C23.72980193 108.35420825 22.14759379 108.89505048 20.56298828 109.42871094 C18.13635527 110.24617473 15.71827012 111.08561011 13.30078125 111.9296875 C11.7660737 112.45963454 10.23093079 112.9883228 8.6953125 113.515625 C7.60768112 113.8905307 7.60768112 113.8905307 6.49807739 114.27301025 C3.54160868 115.26543133 1.14116189 116 -2 116 C-2.40613525 114.82646973 -2.81227051 113.65293945 -3.23071289 112.44384766 C-10.80117772 90.57932111 -18.40967606 68.72924966 -26.1875 46.9375 C-26.49656281 46.06998108 -26.80562561 45.20246216 -27.12405396 44.30865479 C-30.34287308 35.27892441 -33.60331753 26.28219103 -37.14575195 17.37329102 C-38 15 -38 15 -38 13 C-32.91113754 11.1445353 -27.82078954 9.29322861 -22.72900391 7.44580078 C-20.99616433 6.81641577 -19.26374016 6.18588584 -17.53173828 5.55419922 C-15.04567413 4.6477179 -12.55815716 3.74533134 -10.0703125 2.84375 C-9.29317902 2.55939087 -8.51604553 2.27503174 -7.71536255 1.98205566 C-2.22774341 0 -2.22774341 0 0 0 Z " fill="#4280C9" transform="translate(440,273)"/>
<path d="M0 0 C4.16057959 0.49440502 7.51150721 2.04528119 11.25390625 3.87109375 C12.43791016 4.44537109 13.62191406 5.01964844 14.84179688 5.61132812 C16.08208558 6.21994138 17.32231944 6.82866642 18.5625 7.4375 C19.80638667 8.04283982 21.05052508 8.64766266 22.29492188 9.25195312 C26.87392094 11.48031616 31.44657597 13.71983625 36 16 C34.16479472 21.91620252 31.99510992 27.45089682 29.2265625 32.98828125 C28.86655151 33.72078598 28.50654053 34.45329071 28.13562012 35.20799255 C27.36751359 36.77006366 26.59701243 38.33095925 25.82427979 39.89074707 C23.77628419 44.02634527 21.74762357 48.17140169 19.71875 52.31640625 C19.31286652 53.14490082 18.90698303 53.97339539 18.48880005 54.82699585 C14.93785293 62.09141038 11.50593204 69.40496319 8.125 76.75 C2.22299891 89.56894842 -3.85421759 102.29614653 -10 115 C-16.35043956 112.99914371 -22.28377384 110.21082085 -28.30566406 107.40478516 C-30.25589174 106.49725831 -32.20978685 105.59798963 -34.1640625 104.69921875 C-35.40647924 104.12288977 -36.64867479 103.54608365 -37.890625 102.96875 C-39.57720215 102.18661133 -39.57720215 102.18661133 -41.29785156 101.38867188 C-44 100 -44 100 -46 98 C-45.66583698 93.69385385 -43.72779539 90.19260193 -41.75 86.4375 C-37.94651508 79.02654983 -34.41941064 71.50421303 -30.9375 63.9375 C-25.51582351 52.17866393 -19.9294675 40.50706078 -14.2668457 28.86254883 C-13.64787157 27.58939322 -13.02897354 26.3162006 -12.41015625 25.04296875 C-12.1130928 24.43175674 -11.81602936 23.82054474 -11.50996399 23.19081116 C-8.6707683 17.33932896 -5.89521699 11.45873774 -3.16870117 5.55395508 C-1.1016794 1.1016794 -1.1016794 1.1016794 0 0 Z " fill="#4280C9" transform="translate(197,274)"/>
<path d="M0 0 C2.62855011 -0.19210981 5.24268782 -0.3289282 7.875 -0.4375 C8.96554687 -0.52547852 8.96554687 -0.52547852 10.078125 -0.61523438 C16.03292521 -0.79805719 20.30096376 0.99170305 25.00703049 4.62518501 C28.93767137 9.30892193 28.39820447 14.69128096 28.31884766 20.55444336 C28.33577185 21.92497574 28.3570684 23.29546 28.38238525 24.66586304 C28.43852088 28.37055083 28.43376765 32.07291706 28.41779757 35.77790141 C28.41153342 39.65530351 28.46165542 43.53197479 28.50570679 47.40907288 C28.58052011 54.7436191 28.60487838 62.07742384 28.6109556 69.412314 C28.62034503 77.76575705 28.68621663 86.11845901 28.7567513 94.47157466 C28.90052701 111.64766201 28.97363834 128.82333933 29 146 C21.88868736 146.1391722 14.94617463 145.73492545 7.875 145 C6.91851562 144.90460938 5.96203125 144.80921875 4.9765625 144.7109375 C2.65056246 144.4783375 0.32511041 144.24130321 -2 144 C-2.15068048 112.65918419 -1.76451224 81.35032234 -1.07287598 50.01745605 C-0.94869272 44.34309238 -0.83010305 38.6686115 -0.7109375 32.99414062 C-0.47920075 21.99597755 -0.2416502 10.99794943 0 0 Z " fill="#C0C0C8" transform="translate(332,147)"/>
<path d="M0 0 C8.58 0 17.16 0 26 0 C26.60476439 17.57596515 27.17124279 35.15121432 27.63848877 52.73130798 C27.67888949 54.24925807 27.7193149 55.7672075 27.75976562 57.28515625 C27.77947292 58.02594705 27.79918022 58.76673784 27.81948471 59.52997684 C27.94648259 64.23033368 28.09461378 68.9295722 28.25585938 73.62890625 C28.44597697 79.21485516 28.58617929 84.799662 28.68408203 90.38796997 C28.72732877 92.38867237 28.78825911 94.38908708 28.86865234 96.38864136 C29.42371013 110.60093836 26.63139486 119.79278456 19.23803711 131.90560913 C17.47404234 134.88976406 16.04929009 137.9479386 14.6171875 141.10546875 C13.92109375 142.6378418 13.92109375 142.6378418 13.2109375 144.20117188 C12.77007812 145.18666016 12.32921875 146.17214844 11.875 147.1875 C11.15570313 148.77594727 11.15570313 148.77594727 10.421875 150.39648438 C9.27607083 152.92871159 8.13540197 155.46309641 7 158 C4.03 158 1.06 158 -2 158 C-2.28917706 120.02437929 -1.82958814 82.09173664 -1 44.125 C-0.97608437 43.03012268 -0.95216873 41.93524536 -0.92752838 40.80718994 C-0.62938579 27.20453246 -0.31899339 13.60218356 0 0 Z " fill="#C1C1C8" transform="translate(164,147)"/>
<path d="M0 0 C32.62102456 -0.20532386 65.24186291 -0.36459178 97.86338616 -0.45958797 C101.71483337 -0.47084429 105.56627931 -0.4824932 109.41772461 -0.49438477 C110.18447643 -0.49674556 110.95122826 -0.49910635 111.74121498 -0.50153869 C124.15564932 -0.54069832 136.56970849 -0.61165772 148.98392028 -0.69437516 C161.72256047 -0.77854625 174.4610042 -0.82853038 187.19991106 -0.84679645 C195.06044066 -0.85914455 202.91990988 -0.89813777 210.78011303 -0.9712482 C216.80798366 -1.0244586 222.83494269 -1.03009542 228.86307526 -1.01796913 C231.33547687 -1.02044742 233.80791821 -1.03838128 236.2800808 -1.07284927 C239.65536864 -1.11760509 243.02611263 -1.10688307 246.40150452 -1.08229065 C247.38108834 -1.10850622 248.36067216 -1.1347218 249.36994034 -1.16173178 C253.60580657 -1.07824428 256.02267839 -0.90311851 259.2085408 2.04085743 C264 8.08401984 264 8.08401984 264 10 C176.88 10 89.76 10 0 10 C0 6.7 0 3.4 0 0 Z " fill="#949EAC" transform="translate(73,126)"/>
<path d="M0 0 C38.28 0 76.56 0 116 0 C115 5 115 5 110 14 C73.7 14 37.4 14 0 14 C0 9.38 0 4.76 0 0 Z " fill="#939DAB" transform="translate(37,340)"/>
<path d="M0 0 C34.98 0 69.96 0 106 0 C101 12 101 12 100 13 C96.8949275 13.09533653 93.81213542 13.12551126 90.70678711 13.11352539 C89.73128403 13.11367142 88.75578094 13.11381744 87.75071716 13.1139679 C84.50957047 13.11326833 81.26848046 13.10547391 78.02734375 13.09765625 C75.78674857 13.09579222 73.54615298 13.09436825 71.30555725 13.09336853 C65.3954049 13.08954213 59.48527695 13.0797108 53.57513428 13.06866455 C47.54944183 13.05845306 41.52374547 13.05387147 35.49804688 13.04882812 C23.66535384 13.03808864 11.83267894 13.02101076 0 13 C0 8.71 0 4.42 0 0 Z " fill="#949EAC" transform="translate(59,316)"/>
<path d="M0 0 C3.125 0.3125 3.125 0.3125 5.5 1.3125 C7.51343731 3.79057668 7.99741192 5.78089166 7.8125 8.96484375 C6.42453375 13.70443305 2.86763432 17.0866658 -0.39794922 20.67333984 C-2.02745219 22.48168413 -3.61119381 24.32423299 -5.19140625 26.17578125 C-16.31032024 39.17701245 -16.31032024 39.17701245 -19.875 42.3125 C-23.41861243 42.3125 -25.74091591 41.97100044 -28.8125 40.1875 C-30.51609261 37.18116011 -30.16051469 34.70655593 -29.875 31.3125 C-28.22265625 28.57421875 -28.22265625 28.57421875 -25.9375 26 C-24.70580078 24.58847656 -24.70580078 24.58847656 -23.44921875 23.1484375 C-22.17498047 21.74464844 -22.17498047 21.74464844 -20.875 20.3125 C-20.09769531 19.43851562 -19.32039062 18.56453125 -18.51953125 17.6640625 C-17.0271578 15.99445365 -15.52733886 14.33146492 -14.01953125 12.67578125 C-11.39942465 9.78841423 -8.83883247 6.85233509 -6.28515625 3.90625 C-3.12990774 0.34020736 -3.12990774 0.34020736 0 0 Z " fill="#DEBC7C" transform="translate(254.875,407.6875)"/>
<path d="M0 0 C2.87890625 0.375 2.87890625 0.375 4.87890625 2.375 C5.34375 5.109375 5.34375 5.109375 4.87890625 8.375 C3.12668863 10.71129016 1.49538359 12.59599597 -0.55859375 14.625 C-1.659498 15.76109521 -2.75975158 16.89782128 -3.859375 18.03515625 C-4.40932129 18.59477051 -4.95926758 19.15438477 -5.52587891 19.73095703 C-7.83794825 22.11379678 -10.03914475 24.58193253 -12.24609375 27.0625 C-17.85137283 33.33507421 -17.85137283 33.33507421 -20.49609375 33.7265625 C-23.8551171 33.2766933 -24.83659776 32.20951786 -27.12109375 29.75 C-27.80042969 29.01910156 -28.47976563 28.28820312 -29.1796875 27.53515625 C-29.82035156 26.82230469 -30.46101563 26.10945313 -31.12109375 25.375 C-31.66894531 24.81683594 -32.21679688 24.25867188 -32.78125 23.68359375 C-35.0453327 21.26815176 -36.13537275 20.00327619 -36.05859375 16.625 C-35.12109375 14.375 -35.12109375 14.375 -33.12109375 12.375 C-30.30859375 11.875 -30.30859375 11.875 -27.12109375 12.375 C-25.06855197 14.20895941 -23.72970144 16.10402444 -22.12109375 18.375 C-18.53509106 17.81371262 -17.14471901 16.65632799 -14.87109375 13.875 C-14.26910156 13.1634375 -13.66710937 12.451875 -13.046875 11.71875 C-11.71973268 10.10356665 -10.40532372 8.47786464 -9.1015625 6.84375 C-8.09029297 5.62171875 -8.09029297 5.62171875 -7.05859375 4.375 C-6.14400391 3.2303125 -6.14400391 3.2303125 -5.2109375 2.0625 C-3.12109375 0.375 -3.12109375 0.375 0 0 Z " fill="#010405" transform="translate(393.12109375,76.625)"/>
<path d="M0 0 C2.375 1.5625 2.375 1.5625 4 4 C4.4642918 7.29407026 4.69183077 9.81794558 2.96533203 12.76782227 C1.50962943 14.59582403 -0.02079464 16.30098345 -1.625 18 C-2.14707031 18.5775 -2.66914063 19.155 -3.20703125 19.75 C-4.26033961 20.9151411 -5.32058076 22.07405271 -6.38769531 23.2265625 C-8.57147799 25.62859117 -10.64588429 28.11726401 -12.71630859 30.6171875 C-14.70184832 32.756042 -15.95237998 32.99482391 -18.875 33.3125 C-22 33 -22 33 -24.375 31.4375 C-26 29 -26 29 -26.8125 25.875 C-25.73256297 20.72453108 -23.20255879 18.42433271 -19.59375 14.70703125 C-16.09136535 11.05168101 -12.99640995 7.11188764 -9.84765625 3.15234375 C-6.83435842 -0.35786154 -4.52517355 -0.45251736 0 0 Z " fill="#DEBC7C" transform="translate(273,430)"/>
<path d="M0 0 C2 1.625 2 1.625 3 4 C2.87573156 10.68564217 0.15245199 14.12782914 -4.0625 18.9375 C-4.61099609 19.62134766 -5.15949219 20.30519531 -5.72460938 21.00976562 C-9.77178315 25.70411204 -9.77178315 25.70411204 -13.12817383 26.51269531 C-16.85404469 26.61954856 -18.67033207 26.27338316 -21.5625 23.875 C-23.41475215 20.1704957 -23.18747274 18.95980083 -22 15 C-20.08383719 12.18282595 -17.85587929 9.70163238 -15.5625 7.1875 C-14.96373047 6.50751953 -14.36496094 5.82753906 -13.74804688 5.12695312 C-9.07024405 -0.12706282 -7.34689971 -1.67560871 0 0 Z " fill="#DCBA7B" transform="translate(231,403)"/>
<path d="M0 0 C3.6875 0.3125 3.6875 0.3125 6.125 1.9375 C8.15869897 5.02872243 8.07403058 6.65394309 7.6875 10.3125 C6.04296875 13.015625 6.04296875 13.015625 3.875 15.5625 C3.16730469 16.41328125 2.45960938 17.2640625 1.73046875 18.140625 C-0.3125 20.3125 -0.3125 20.3125 -3.3125 22.3125 C-9.41456897 22.09456897 -9.41456897 22.09456897 -12.25 19.625 C-13.65100322 16.57575771 -13.67275706 14.65306543 -13.3125 11.3125 C-11.37890625 8.57421875 -11.37890625 8.57421875 -8.875 6 C-8.05128906 5.13761719 -7.22757812 4.27523438 -6.37890625 3.38671875 C-3.31665719 0.31289219 -3.31665719 0.31289219 0 0 Z " fill="#DDBB7B" transform="translate(282.3125,454.6875)"/>
</svg>
