<?xml version="1.0" encoding="UTF-8"?>
<svg version="1.1" xmlns="http://www.w3.org/2000/svg" width="512" height="512">
<path d="M0 0 C5.74612771 4.39040071 9.90929778 8.52634534 13.00161743 15.10014343 C15.22127712 18.83936576 15.22127712 18.83936576 18.94929123 20.81791115 C22.0607415 21.14886814 25.03385158 21.15607912 28.16162109 21.05786133 C29.32982895 21.0610437 30.4980368 21.06422607 31.7016449 21.06750488 C35.56057633 21.06733083 39.41515934 20.99776905 43.2734375 20.9296875 C45.95868275 20.92077589 48.64354686 20.91627211 51.32876587 20.9181366 C57.67680296 20.91426488 64.02346153 20.86386137 70.37107337 20.79301995 C81.726549 20.66665539 93.08216873 20.59604679 104.43832648 20.57738417 C109.05931845 20.56730496 113.67855049 20.51248036 118.29916382 20.44770813 C120.72596619 20.43379871 123.15277513 20.42097934 125.57958984 20.40942383 C126.67284073 20.38508774 127.76609161 20.36075165 128.89247131 20.3356781 C136.94758789 20.34227632 141.53752428 22.43725282 147.5234375 27.68359375 C151.65188189 32.57568103 153.21581037 36.84090828 153.8125 43.28515625 C153.1545344 50.91755721 151.04890235 56.05876796 145.51171875 61.40234375 C139.0340528 66.25744871 133.64547786 66.30121398 125.82250977 66.16796875 C124.65269562 66.16049118 123.48288147 66.15301361 122.27761841 66.14530945 C119.74198811 66.12833263 117.2063937 66.10509793 114.67086983 66.07632446 C110.65670391 66.03479725 106.64322319 66.01755456 102.62889099 66.01049805 C91.21724597 65.98702731 79.80626551 65.94628938 68.39526367 65.81787109 C62.08580711 65.74712201 55.77744144 65.71566091 49.46758503 65.72816086 C46.13176389 65.7330734 42.80110045 65.7115393 39.46542549 65.65362549 C35.74409924 65.59101307 32.0285485 65.59640904 28.30688477 65.6171875 C27.2100386 65.58227707 26.11319244 65.54736664 24.98310852 65.51139832 C21.79606821 65.57144469 19.46707646 65.73178628 16.5 66.91015625 C13.48255908 70.27112216 11.55070316 73.91327564 9.5 77.91015625 C8.84 78.57015625 8.18 79.23015625 7.5 79.91015625 C7.12653332 83.11554028 7.12653332 83.11554028 7.0859375 86.88671875 C7.06657135 87.57196625 7.0472052 88.25721375 7.0272522 88.96322632 C6.96743169 91.15374269 6.92106244 93.34431155 6.875 95.53515625 C6.83682237 97.01955427 6.79777076 98.50393009 6.7578125 99.98828125 C6.66172916 103.6287031 6.57770718 107.26929061 6.5 110.91015625 C7.45841797 110.89275391 8.41683594 110.87535156 9.40429688 110.85742188 C10.66306641 110.84388672 11.92183594 110.83035156 13.21875 110.81640625 C14.46591797 110.79900391 15.71308594 110.78160156 16.99804688 110.76367188 C22.73800072 111.00377033 26.34675199 112.59758719 30.2421875 116.78125 C35.62670464 123.59562696 37.359191 129.23893635 36.5 137.91015625 C35.28883756 143.00234287 33.22960349 147.18055276 29.5 150.91015625 C27.72510775 151.73994932 27.72510775 151.73994932 25.91435909 152.58650589 C24.02570431 153.57850948 24.02570431 153.57850948 22.5 154.91015625 C21.7576247 157.74621008 21.55326724 159.49490312 21.62025452 162.33856201 C21.61018999 163.08926979 21.60012546 163.83997757 21.58975595 164.61343408 C21.5644966 167.13098305 21.58914395 169.64556457 21.61352539 172.16308594 C21.6056382 173.96662428 21.59467841 175.77015143 21.58087158 177.57365417 C21.55209804 182.4723391 21.56640127 187.37007067 21.58831334 192.26875591 C21.60392419 197.38711106 21.58009434 202.50527701 21.56040955 207.62359619 C21.52914202 217.31692372 21.5334559 227.00989745 21.55048412 236.70324731 C21.56814198 247.73826935 21.5462391 258.77310119 21.52097714 269.80809546 C21.46989743 292.50884559 21.46861534 315.20938097 21.5 337.91015625 C22.33660156 337.88920898 23.17320312 337.86826172 24.03515625 337.84667969 C27.17362309 337.77803659 30.31170416 337.72813062 33.45068359 337.69042969 C35.46347627 337.6606958 37.47592134 337.60983896 39.48828125 337.55859375 C47.94022588 337.47364958 54.19833749 337.73305926 60.5234375 343.875 C65.40737399 351.00328881 67.36769462 356.15311512 66.5 364.91015625 C64.97339449 371.32858526 62.06427679 376.20063839 56.5 379.91015625 C57.05608014 386.0373356 59.60531684 391.1964485 62.125 396.72265625 C62.53878906 397.66947266 62.95257813 398.61628906 63.37890625 399.59179688 C67.24104685 408.12020157 71.83004387 415.9465288 80.0625 420.84765625 C81.39474609 421.66556641 81.39474609 421.66556641 82.75390625 422.5 C88.55123796 425.47700818 93.86576106 426.25731757 100.25 426.78515625 C112.29386118 427.98602113 122.32853646 431.41816121 130.2890625 441.08203125 C133.64208872 445.87206871 137.5 451.88447067 137.5 457.91015625 C138.29059814 457.88920898 139.08119629 457.86826172 139.89575195 457.84667969 C143.53453464 457.76269347 147.17311243 457.71123537 150.8125 457.66015625 C152.67745117 457.60988281 152.67745117 457.60988281 154.58007812 457.55859375 C166.83771127 457.42990469 175.39190225 459.88121106 184.26953125 468.4765625 C192.39422946 477.34116317 194.68288837 485.08584855 194.86328125 497.01953125 C194.5 499.91015625 194.5 499.91015625 193.43517685 501.5672251 C190.51967843 503.59045809 187.5971705 503.32169697 184.17388916 503.28767967 C183.04052305 503.29422016 183.04052305 503.29422016 181.88426065 503.30089277 C179.33184134 503.31191182 176.77995516 503.30139637 174.22753906 503.29110718 C172.38742418 503.29456112 170.54731137 503.2993239 168.70720291 503.30528891 C163.63461504 503.3178648 158.5621955 503.31159871 153.48960686 503.30233026 C148.02532662 503.29556696 142.56107616 503.30600743 137.09680176 503.31427002 C126.38593758 503.32763871 115.67513632 503.32471568 104.96426964 503.3160321 C96.26251075 503.30926827 87.56076955 503.30833318 78.85900879 503.31160355 C77.62247031 503.31206325 76.38593184 503.31252294 75.1119225 503.31299657 C72.60024229 503.31395571 70.08856209 503.31492835 67.57688189 503.31591435 C44.67463545 503.32423312 21.77241658 503.31559326 -1.12982339 503.29988656 C-22.04880693 503.28564912 -42.96773569 503.28692298 -63.88671875 503.30126953 C-87.37483449 503.31732408 -110.8629261 503.32365337 -134.35104752 503.31443274 C-136.85370127 503.31347705 -139.35635503 503.31253394 -141.85900879 503.31160355 C-143.09049487 503.31114072 -144.32198095 503.31067789 -145.59078479 503.31020104 C-154.28623866 503.30760629 -162.98167315 503.31199257 -171.67712402 503.31904221 C-182.26802827 503.32743945 -192.85886578 503.32521458 -203.44976234 503.30919997 C-208.85765381 503.30129328 -214.26543384 503.29826633 -219.67332458 503.30814743 C-224.6177702 503.31704538 -229.56200043 503.31224293 -234.50642633 503.29621477 C-236.301127 503.29284608 -238.09584563 503.29460746 -239.89053488 503.30184214 C-242.31858324 503.31088393 -244.74588091 503.30169134 -247.17388916 503.28767967 C-247.88068864 503.29470317 -248.58748813 503.30172667 -249.31570578 503.308963 C-252.16572324 503.27579088 -254.05848499 503.21925623 -256.43078232 501.55843604 C-259.49374752 496.83664392 -257.95300982 489.19030566 -256.9140625 483.9609375 C-253.76681773 473.84066875 -246.5204087 466.78950604 -237.8359375 461.06640625 C-230.07476706 457.22475667 -222.58241338 457.67333507 -214.0625 457.78515625 C-212.75861328 457.79417969 -211.45472656 457.80320312 -210.11132812 457.8125 C-206.90736168 457.83597228 -203.70377736 457.86880898 -200.5 457.91015625 C-200.22542969 456.69585937 -199.95085937 455.4815625 -199.66796875 454.23046875 C-197.24375869 444.58037052 -191.55158831 437.74853117 -183.2890625 432.5078125 C-176.59413264 428.77035166 -170.03568082 427.8020605 -162.5 426.91015625 C-151.76595693 425.5038244 -141.93019772 422.17209252 -134.5 413.91015625 C-129.84132194 407.77832864 -126.79722182 400.54599376 -123.5625 393.59765625 C-123.14822754 392.72544434 -122.73395508 391.85323242 -122.30712891 390.95458984 C-121.73937744 389.700896 -121.73937744 389.700896 -121.16015625 388.421875 C-120.81605713 387.67381592 -120.47195801 386.92575684 -120.11743164 386.1550293 C-119.34649306 383.35203198 -119.62670241 381.66667007 -120.5 378.91015625 C-122.12339805 377.2013162 -123.79319053 375.53568908 -125.5 373.91015625 C-129.58282279 367.93173717 -130.37903323 362.04463529 -129.5 354.91015625 C-127.18282111 347.52550202 -123.21259786 342.71583412 -116.5 338.91015625 C-113.08248347 337.77098407 -110.46512063 337.79677144 -106.86328125 337.8125 C-105.56455078 337.81572266 -104.26582031 337.81894531 -102.92773438 337.82226562 C-101.55598892 337.83062094 -100.18424413 337.83908588 -98.8125 337.84765625 C-97.42903805 337.8526729 -96.04557437 337.85723552 -94.66210938 337.86132812 C-91.27469605 337.87313096 -87.88736967 337.88959606 -84.5 337.91015625 C-84.4671077 314.11889099 -84.47400194 290.32792653 -84.52846622 266.53669357 C-84.55282307 255.49035956 -84.56408276 244.44430018 -84.54467773 233.39794922 C-84.52780038 223.77166823 -84.5353256 214.14577125 -84.57234758 204.51954103 C-84.59109977 199.42078676 -84.59750066 194.32268219 -84.57469368 189.22393036 C-84.55362137 184.42687162 -84.5651214 179.63100496 -84.60184479 174.83405113 C-84.60955228 173.07160458 -84.6052544 171.30905931 -84.58818626 169.54667854 C-84.5666824 167.14254373 -84.58802575 164.742489 -84.62025452 162.33856201 C-84.60375557 161.63816984 -84.58725663 160.93777767 -84.57025772 160.21616149 C-84.55604415 157.99882476 -84.55604415 157.99882476 -85.5 154.91015625 C-87.71192355 153.09904012 -89.87448369 152.14240952 -92.5 150.91015625 C-94.4609375 148.69140625 -94.4609375 148.69140625 -95.875 146.41015625 C-96.59816406 145.2809375 -96.59816406 145.2809375 -97.3359375 144.12890625 C-100.01638005 139.01987481 -100.19688739 133.56628875 -99.5 127.91015625 C-97.18282111 120.52550202 -93.21259786 115.71583412 -86.5 111.91015625 C-82.93954823 110.72333899 -80.06191663 110.81325793 -76.3125 110.84765625 C-75.04019531 110.85667969 -73.76789063 110.86570312 -72.45703125 110.875 C-71.48121094 110.88660156 -70.50539062 110.89820312 -69.5 110.91015625 C-69.46966342 106.6588111 -69.48581689 102.41077538 -69.54272461 98.15991211 C-69.55576199 96.71791361 -69.55669309 95.27574762 -69.54467773 93.83374023 C-69.48367558 85.45320624 -69.67691964 79.09160342 -75.80639648 72.70483398 C-77.54406125 70.86346543 -78.42433639 69.18122192 -79.5 66.91015625 C-80.11622726 66.90961148 -80.73245453 66.90906672 -81.36735535 66.90850544 C-96.3833567 66.8935176 -111.39900826 66.85099028 -126.41482544 66.77806568 C-133.67648658 66.74345871 -140.93795874 66.71806583 -148.19970703 66.71459961 C-154.53139518 66.7115537 -160.86274639 66.69097959 -167.19430447 66.64963168 C-170.54494128 66.62835538 -173.89468769 66.61828713 -177.24545288 66.62400246 C-180.99228069 66.62890447 -184.73771815 66.60282918 -188.484375 66.56958008 C-190.13839073 66.58251854 -190.13839073 66.58251854 -191.82582092 66.59571838 C-199.87379799 66.47616532 -204.53517976 64.38511453 -210.5234375 59.13671875 C-214.65188189 54.24463147 -216.21581037 49.97940422 -216.8125 43.53515625 C-216.1545344 35.90275529 -214.04890235 30.76154454 -208.51171875 25.41796875 C-202.03352348 20.56246705 -196.63113957 20.51456422 -188.80664062 20.63647461 C-187.04950996 20.64528152 -187.04950996 20.64528152 -185.25688171 20.65426636 C-182.71798269 20.66789933 -180.1791115 20.68786018 -177.64030457 20.71342278 C-173.62221082 20.75031251 -169.60476969 20.76370878 -165.58654785 20.76747131 C-154.16395951 20.78168406 -142.74192738 20.81671285 -131.31982422 20.92700195 C-125.00417346 20.98773307 -118.68943461 21.01279982 -112.37349653 20.99806315 C-109.03410622 20.99184581 -105.698995 21.0098649 -102.35969543 21.06095695 C-98.63606981 21.11623474 -94.91723092 21.10992878 -91.19335938 21.08959961 C-90.09291794 21.12091476 -88.9924765 21.15222992 -87.85868835 21.18449402 C-84.76265757 21.13026557 -82.40350156 20.99465291 -79.5 19.91015625 C-76.77636864 16.86493848 -75.20367279 13.59208344 -73.5 9.91015625 C-55.66938811 -12.22003581 -23.11792597 -15.82637083 0 0 Z " fill="#020201" transform="translate(287.5,9.08984375)"/>
<path d="M0 0 C5.4360571 5.07447242 8.71594507 12.69728478 12.125 19.1875 C13.27406453 21.34220137 14.42514369 23.49582946 15.578125 25.6484375 C16.43954102 27.2567041 16.43954102 27.2567041 17.31835938 28.89746094 C19.76496216 33.4113152 22.30958057 37.86539723 24.875 42.3125 C32.06189682 54.79437677 39.02293075 67.40001595 46 80 C53.63546686 93.77995011 61.29027319 107.54697482 69.06005859 121.25170898 C73.49516269 129.08404527 77.87961956 136.94393277 82.25 144.8125 C82.74922974 145.710896 82.74922974 145.710896 83.25854492 146.62744141 C90.9007471 160.38378544 91.94096 172.03579428 87.77026367 187.3684082 C80.49774189 212.17706629 64.97560887 233.38559241 42.17724609 246.00927734 C20.12948511 257.56474417 -7.0565784 261.56443455 -31.1875 254.3203125 C-56.41932111 245.85334572 -77.27859854 229.64714843 -89.40917969 205.64624023 C-96.0955972 191.69080426 -100.91032045 175.58466075 -99 160 C-97.40268999 155.52753198 -95.16411287 151.57923416 -92.75 147.5 C-92.11247803 146.37198975 -91.47495605 145.24397949 -90.81811523 144.08178711 C-88.90369572 140.70613135 -86.95470248 137.35244446 -85 134 C-83.97254044 132.20076928 -82.94758577 130.40010454 -81.92578125 128.59765625 C-80.00120429 125.20802486 -78.06368847 121.82630375 -76.1171875 118.44921875 C-70.60716941 108.85711597 -65.28644529 99.15757461 -59.92773438 89.48046875 C-50.82540786 73.04648105 -41.69045951 56.63095985 -32.5 40.24609375 C-30.05578128 35.88783611 -27.6193816 31.52530958 -25.1875 27.16015625 C-24.55980713 26.03496582 -23.93211426 24.90977539 -23.28540039 23.75048828 C-22.09027774 21.60782554 -20.89665315 19.46432623 -19.70483398 17.31982422 C-8.79129874 -2.22840041 -8.79129874 -2.22840041 0 0 Z M-13 39 C-13.3810791 39.68698975 -13.7621582 40.37397949 -14.15478516 41.08178711 C-21.65198178 54.59443684 -29.16568301 68.0973261 -36.72485352 81.57543945 C-41.02496473 89.24709851 -45.29726508 96.93390652 -49.5625 104.625 C-54.34591654 113.24568321 -59.15121157 121.85339565 -64 130.4375 C-64.53463867 131.38407471 -65.06927734 132.33064941 -65.62011719 133.3059082 C-68.98319689 139.24434311 -72.40185983 145.14352054 -75.92578125 150.98828125 C-77.1570109 152.91394509 -77.1570109 152.91394509 -77 155 C-55.55 155 -34.1 155 -12 155 C-12 116.72 -12 78.44 -12 39 C-12.33 39 -12.66 39 -13 39 Z M4 40 C4 77.95 4 115.9 4 155 C25.45 155 46.9 155 69 155 C64.02159244 145.66548583 59.02690534 136.36155046 53.875 127.125 C53.22517843 125.95772793 52.5754409 124.79040907 51.92578125 123.62304688 C47.05855742 114.88138039 42.17001674 106.15164083 37.27539062 97.42529297 C32.9518066 89.71311821 28.66060525 81.9833285 24.375 74.25 C18.01427535 62.77687084 11.54732608 51.36757971 5 40 C4.67 40 4.34 40 4 40 Z " fill="#000000" transform="translate(422,90)"/>
<path d="M0 0 C3.00593181 0.6078786 4.07222993 2.16555147 6.10546875 4.42578125 C7.14034523 6.02547241 8.1129349 7.66660275 9.03125 9.3359375 C9.84348022 10.79990967 9.84348022 10.79990967 10.67211914 12.29345703 C11.24824951 13.34774902 11.82437988 14.40204102 12.41796875 15.48828125 C13.33340454 17.1431958 13.33340454 17.1431958 14.26733398 18.83154297 C15.56185077 21.17252541 16.85406355 23.51461193 18.14257812 25.85888672 C21.29919432 31.59977207 24.4857307 37.3240737 27.66796875 43.05078125 C28.29485596 44.1807251 28.92174316 45.31066895 29.56762695 46.47485352 C33.54765935 53.64385917 37.56153709 60.7926488 41.60546875 67.92578125 C46.93938305 77.33432728 52.20414795 86.77995685 57.44921875 96.23828125 C61.6496513 103.81113501 65.86945582 111.37277715 70.10546875 118.92578125 C75.22784361 128.06154049 80.33029817 137.20816545 85.41796875 146.36328125 C85.91453979 147.25635986 85.91453979 147.25635986 86.42114258 148.16748047 C87.35416717 149.845757 88.28647563 151.5244316 89.21875 153.203125 C89.75282471 154.16468506 90.28689941 155.12624512 90.8371582 156.11694336 C96.11271149 165.7205829 92.71548858 178.33160819 90.10546875 188.42578125 C85.96650049 202.41943585 79.62084613 214.38489247 70.10546875 225.42578125 C69.31076172 226.43705078 69.31076172 226.43705078 68.5 227.46875 C55.05035885 244.10645424 33.00175524 254.40097929 12.10546875 257.42578125 C-15.93912153 259.08177799 -41.33215707 254.49341176 -63.26953125 235.765625 C-82.02690152 219.04588572 -94.20391388 197.10287705 -96.64575195 171.80786133 C-97.38437051 158.71231452 -91.31862811 149.36812645 -84.72021484 138.46191406 C-82.43284191 134.65798657 -80.26047664 130.79606325 -78.09277344 126.9230957 C-76.4979823 124.07479478 -74.88721406 121.23601868 -73.2734375 118.3984375 C-69.62812866 111.9712669 -66.03996659 105.51287753 -62.45703125 99.05078125 C-57.05098949 89.30176129 -51.61958142 79.56750675 -46.16650391 69.84472656 C-42.50732497 63.31643038 -38.86578868 56.77861513 -35.23608398 50.23388672 C-29.78843682 40.41149738 -24.33217188 30.59388982 -18.83203125 20.80078125 C-18.32019287 19.88345215 -17.80835449 18.96612305 -17.28100586 18.02099609 C-7.35353254 0.40009839 -7.35353254 0.40009839 0 0 Z M6.10546875 39.42578125 C6.10546875 77.70578125 6.10546875 115.98578125 6.10546875 155.42578125 C27.55546875 155.42578125 49.00546875 155.42578125 71.10546875 155.42578125 C69.54587556 151.52679826 67.92528838 148.12218087 65.90234375 144.47265625 C65.5882254 143.90421997 65.27410706 143.33578369 64.95046997 142.75012207 C63.92170997 140.89038124 62.8886882 139.03304767 61.85546875 137.17578125 C61.13148496 135.86957045 60.40769193 134.5632539 59.68408203 133.25683594 C53.43137837 121.97714342 47.1329245 110.72296933 40.81884766 99.47753906 C37.93260437 94.33675236 35.05005549 89.19389901 32.16796875 84.05078125 C31.60013672 83.03886719 31.03230469 82.02695313 30.44726562 80.984375 C27.28585958 75.34434127 24.14674751 69.69281169 21.03125 64.02734375 C20.01177018 62.17750887 18.99198381 60.32784327 17.97213745 58.47821045 C17.00406452 56.71866826 16.04115088 54.95629063 15.07836914 53.19384766 C14.48660889 52.12054199 13.89484863 51.04723633 13.28515625 49.94140625 C12.76679199 48.99555664 12.24842773 48.04970703 11.71435547 47.07519531 C9.87426691 43.91701579 9.87426691 43.91701579 6.10546875 39.42578125 Z M-10.89453125 40.42578125 C-11.47400513 41.47197632 -11.47400513 41.47197632 -12.06518555 42.53930664 C-18.79933968 54.69220284 -25.54097565 66.83967561 -32.39453125 78.92578125 C-37.72272656 88.32398897 -42.98246171 97.75891292 -48.22070312 107.20751953 C-53.13937285 116.07714759 -58.08933907 124.92885773 -63.06420898 133.76708984 C-67.09504124 140.94454815 -70.9899891 148.17448868 -74.89453125 155.42578125 C-53.44453125 155.42578125 -31.99453125 155.42578125 -9.89453125 155.42578125 C-9.89453125 117.47578125 -9.89453125 79.52578125 -9.89453125 40.42578125 C-10.22453125 40.42578125 -10.55453125 40.42578125 -10.89453125 40.42578125 Z " fill="#000000" transform="translate(95.89453125,89.57421875)"/>
<path d="M0 0 C1.3039119 -0.00838898 2.60782379 -0.01677795 3.95124817 -0.02542114 C5.39438165 -0.01445455 6.83751213 -0.0030886 8.28063965 0.00863647 C9.80181708 0.00649037 11.32299291 0.00261231 12.84416199 -0.00286865 C16.97438871 -0.0125646 21.10418335 0.00274424 25.23435783 0.02303743 C29.55532212 0.04060199 33.87627292 0.03708347 38.19726562 0.03631592 C45.45380892 0.03818915 52.71018497 0.05555587 59.9666748 0.08285522 C68.3577675 0.11430628 76.74867701 0.12485142 85.13982439 0.12338412 C93.20975316 0.12216353 101.27962224 0.13237469 109.34953308 0.14896774 C112.78485073 0.15603082 116.22014725 0.15969387 119.6554718 0.16075516 C123.70038878 0.16276386 127.74515189 0.17497201 131.79001808 0.19508743 C133.27510956 0.20093033 134.76021875 0.2033896 136.24532127 0.20223236 C138.27123018 0.20125108 140.29713225 0.21379791 142.32299805 0.22705078 C144.02420933 0.23207831 144.02420933 0.23207831 145.75978851 0.23720741 C148.62459972 0.49120478 150.2827474 0.91236759 152.66149902 2.49447632 C154.186419 5.54431628 153.8971245 8.13681322 153.66149902 11.49447632 C152.1188709 13.59806013 150.98041585 14.33501791 148.66149902 15.49447632 C147.00863899 15.59702828 145.35170617 15.63664882 143.69569397 15.64596558 C142.64551086 15.65430923 141.59532776 15.66265289 140.51332092 15.67124939 C139.35638229 15.67543381 138.19944366 15.67961823 137.00744629 15.68392944 C135.18544205 15.6963694 135.18544205 15.6963694 133.32662964 15.70906067 C130.68182197 15.72649328 128.03707242 15.74214242 125.39224434 15.75483704 C121.21160519 15.77503812 117.03103601 15.80269359 112.85044861 15.83151245 C103.97499817 15.89163744 95.09950577 15.94345804 86.22399902 15.99447632 C76.646484 16.04954547 67.06899019 16.10603283 57.49154323 16.1720252 C53.33436112 16.20038651 49.17718722 16.22397844 45.01995671 16.24394989 C41.82826144 16.26047307 38.63660951 16.28326311 35.44494629 16.30502319 C33.71257469 16.31129982 33.71257469 16.31129982 31.94520569 16.31770325 C30.89220276 16.32604691 29.83919983 16.33439056 28.75428772 16.34298706 C27.37964277 16.35071766 27.37964277 16.35071766 25.97722721 16.35860443 C23.50213609 16.40308738 23.50213609 16.40308738 20.66149902 17.49447632 C20.66149902 21.12447632 20.66149902 24.75447632 20.66149902 28.49447632 C23.57530542 29.46574512 25.46770638 29.63012292 28.5019989 29.6526947 C29.99749016 29.66737793 29.99749016 29.66737793 31.52319336 29.68235779 C33.16209534 29.69099098 33.16209534 29.69099098 34.83410645 29.69979858 C35.98546585 29.70969818 37.13682526 29.71959778 38.32307434 29.72979736 C42.1376844 29.76144433 45.95230692 29.78618253 49.76696777 29.81088257 C52.40827258 29.83144933 55.04957408 29.85244572 57.69087219 29.87385559 C63.93812379 29.92376841 70.1854009 29.96871246 76.43270236 30.01187795 C83.54512152 30.06126239 90.65749461 30.11617605 97.76986921 30.17155755 C112.40036886 30.28535592 127.03091436 30.39219964 141.66149902 30.49447632 C142.94958565 33.05307577 144.23576534 35.61260428 145.52087402 38.17269897 C145.88358398 38.8926857 146.24629395 39.61267242 146.61999512 40.35447693 C149.17495023 45.44929169 151.48410827 50.60269544 153.66149902 55.86947632 C156.43377135 62.37101497 159.47343751 67.53290712 164.19274902 72.84213257 C165.66149902 74.49447632 165.66149902 74.49447632 165.66149902 75.49447632 C103.62149902 75.49447632 41.58149902 75.49447632 -22.33850098 75.49447632 C-20.35850098 72.85447632 -18.37850098 70.21447632 -16.33850098 67.49447632 C-13.3694141 62.31196194 -10.86770597 56.90209427 -8.33850098 51.49447632 C-7.86589844 50.49416382 -7.3932959 49.49385132 -6.90637207 48.46322632 C-5.36160678 45.17089273 -3.84641774 41.86633284 -2.33850098 38.55697632 C-1.84519287 37.50324829 -1.35188477 36.44952026 -0.84362793 35.36386108 C1.9808285 29.05192793 3.23857461 24.41216996 2.66149902 17.49447632 C2.01140869 17.38240845 1.36131836 17.27034058 0.69152832 17.15487671 C-2.95647047 16.49824474 -5.78015493 15.86216762 -8.90100098 13.80697632 C-10.95890632 10.49643295 -10.88442556 8.31594841 -10.33850098 4.49447632 C-7.27551167 0.39602827 -4.9986821 -0.00480208 0 0 Z " fill="#A96E50" transform="translate(184.3385009765625,361.5055236816406)"/>
<path d="M0 0 C52.14 0 104.28 0 158 0 C156.83832673 12.77840594 156.83832673 12.77840594 154.3125 19 C154.04268311 19.68223633 153.77286621 20.36447266 153.49487305 21.06738281 C145.81373252 40.05668278 131.73015101 56.13218514 113 65 C92.84706498 72.9083387 71.50053918 75.79633427 50.99316406 67.15429688 C29.85726285 57.80247962 14.24896846 43.37911066 5.0625 22.0078125 C2.63966068 15.14903944 0 7.29945036 0 0 Z " fill="#FED377" transform="translate(15,260)"/>
<path d="M0 0 C52.14 0 104.28 0 158 0 C154.41915779 23.27547436 144.84731619 42.0447792 126.25 56.8125 C109.4329873 68.83088391 91.34708089 72.43291661 71 72 C69.75669922 71.97486328 69.75669922 71.97486328 68.48828125 71.94921875 C53.02887497 70.91859166 38.65221299 62.6295647 27 53 C26.20078125 52.40058594 25.4015625 51.80117188 24.578125 51.18359375 C14.78627619 42.89019453 8.70975295 31.72055663 4 20 C3.65195312 19.15566406 3.30390625 18.31132812 2.9453125 17.44140625 C0.69944024 11.44171893 0.61368619 6.7505481 0 0 Z " fill="#FED377" transform="translate(339,260)"/>
<path d="M0 0 C1.59679373 -0.00461198 3.19358321 -0.01096689 4.79036385 -0.01890898 C9.16743867 -0.03558491 13.544164 -0.02736386 17.92123997 -0.0149641 C22.64594761 -0.00590875 27.37059541 -0.01988581 32.09529114 -0.03088379 C41.34698601 -0.0486688 50.59855106 -0.04482897 59.85025101 -0.03323323 C67.37001727 -0.02419858 74.88974716 -0.02297505 82.40951729 -0.02732849 C83.47989966 -0.02794142 84.55028204 -0.02855436 85.65310024 -0.02918586 C87.8275954 -0.03046477 90.00209055 -0.03176162 92.17658568 -0.03307623 C112.56648203 -0.04448212 132.95630644 -0.03136845 153.346191 -0.00987476 C170.83841976 0.00799366 188.33054232 0.00489422 205.82276917 -0.0135498 C226.13830455 -0.03496075 246.45377688 -0.04338078 266.76932198 -0.03110075 C268.93610989 -0.02982656 271.10289781 -0.02856908 273.26968575 -0.02732849 C274.86881229 -0.02640284 274.86881229 -0.02640284 276.50024442 -0.02545848 C284.00972463 -0.02200607 291.51916482 -0.02783165 299.02863884 -0.0372467 C308.18208078 -0.04847065 317.33538554 -0.04541837 326.48881178 -0.02412373 C331.15829856 -0.0136183 335.82755667 -0.00948284 340.4970417 -0.02272034 C344.77368075 -0.03466068 349.04987971 -0.02805471 353.32647897 -0.00681013 C354.87147282 -0.00235098 356.41650403 -0.0045949 357.96147376 -0.01431328 C367.35843412 -0.06887765 375.36708769 0.25260441 382.81666565 6.54309082 C383.63457581 7.54662598 383.63457581 7.54662598 384.4690094 8.57043457 C385.32172424 9.57783691 385.32172424 9.57783691 386.19166565 10.60559082 C387.4065094 12.50793457 387.4065094 12.50793457 387.4065094 15.50793457 C249.4665094 15.50793457 111.5265094 15.50793457 -30.5934906 15.50793457 C-29.68910905 11.89040835 -29.27708805 10.70080345 -27.0309906 8.00793457 C-26.57595154 7.44074707 -26.12091248 6.87355957 -25.65208435 6.28918457 C-17.87564296 -0.43957686 -9.7289242 -0.06110214 0 0 Z " fill="#FED377" transform="translate(77.59349060058594,481.4920654296875)"/>
<path d="M0 0 C1.674001 -0.0083016 1.674001 -0.0083016 3.3818202 -0.0167709 C7.11126117 -0.03035466 10.84003031 -0.01541966 14.56945801 -0.00050354 C17.24729748 -0.00428754 19.92509244 -0.00963594 22.60292053 -0.01687622 C29.11508135 -0.03078769 35.62704786 -0.02326808 42.13919938 -0.00820064 C49.72743931 0.0086862 57.31563119 0.00544582 64.90388411 0.00170528 C78.44593101 -0.00416947 91.98788485 0.0099831 105.52990723 0.03465271 C118.66177865 0.05857235 131.79352574 0.06565648 144.92541504 0.05516052 C159.23506911 0.04374366 173.54466571 0.04183075 187.8543191 0.05625862 C189.38103389 0.05778441 190.90774869 0.05930477 192.4344635 0.06081963 C193.18558001 0.06157744 193.93669651 0.06233525 194.71057412 0.06311603 C199.9963434 0.06785292 205.28208696 0.06601165 210.56785583 0.06175423 C217.0119882 0.05682061 223.45600317 0.06284283 229.9001087 0.08264852 C233.18620445 0.09250034 236.47208578 0.09603294 239.75819588 0.08975601 C243.32409552 0.08379892 246.88946992 0.09631749 250.45532227 0.11352539 C251.48879146 0.10751535 252.52226066 0.1015053 253.5870471 0.09531313 C260.86009365 0.15912448 266.72477056 0.97604746 272.47766113 5.81370544 C278.72766113 13.27898322 278.72766113 13.27898322 278.72766113 15.50120544 C177.74766113 15.50120544 76.76766113 15.50120544 -27.27233887 15.50120544 C-21.08471651 3.12596072 -13.26579386 -0.12329157 0 0 Z " fill="#B78466" transform="translate(130.2723388671875,451.49879455566406)"/>
<path d="M0 0 C6.30966017 3.94978727 11.0749595 8.68891664 15 15 C15.41378906 15.63035156 15.82757813 16.26070312 16.25390625 16.91015625 C20.70304868 24.955818 20.17882921 35.47009892 18.3046875 44.26171875 C14.70993968 55.09127415 7.55851845 63.09994253 -2.56640625 68.32421875 C-11.89882863 72.19574768 -22.02857864 72.4169313 -31.58984375 69.10546875 C-41.80578597 64.41971243 -48.91075983 57.39342707 -53.23828125 47.11328125 C-56.79020491 37.25896996 -56.5197428 25.97036125 -52.125 16.5 C-46.72601726 7.07612431 -39.49990025 0.59813145 -29.2734375 -3.1875 C-19.26929322 -5.67062889 -9.12591283 -4.84144671 0 0 Z " fill="#FAD075" transform="translate(274,19)"/>
<path d="M0 0 C1.3039119 -0.00838898 2.60782379 -0.01677795 3.95124817 -0.02542114 C5.39438165 -0.01445455 6.83751213 -0.0030886 8.28063965 0.00863647 C9.80181708 0.00649037 11.32299291 0.00261231 12.84416199 -0.00286865 C16.97438871 -0.0125646 21.10418335 0.00274424 25.23435783 0.02303743 C29.55532212 0.04060199 33.87627292 0.03708347 38.19726562 0.03631592 C45.45380892 0.03818915 52.71018497 0.05555587 59.9666748 0.08285522 C68.3577675 0.11430628 76.74867701 0.12485142 85.13982439 0.12338412 C93.20975316 0.12216353 101.27962224 0.13237469 109.34953308 0.14896774 C112.78485073 0.15603082 116.22014725 0.15969387 119.6554718 0.16075516 C123.70038878 0.16276386 127.74515189 0.17497201 131.79001808 0.19508743 C133.27510956 0.20093033 134.76021875 0.2033896 136.24532127 0.20223236 C138.27123018 0.20125108 140.29713225 0.21379791 142.32299805 0.22705078 C144.02420933 0.23207831 144.02420933 0.23207831 145.75978851 0.23720741 C148.62459972 0.49120478 150.2827474 0.91236759 152.66149902 2.49447632 C154.186419 5.54431628 153.8971245 8.13681322 153.66149902 11.49447632 C152.1188709 13.59806013 150.98041585 14.33501791 148.66149902 15.49447632 C147.00863899 15.59702828 145.35170617 15.63664882 143.69569397 15.64596558 C142.64551086 15.65430923 141.59532776 15.66265289 140.51332092 15.67124939 C139.35638229 15.67543381 138.19944366 15.67961823 137.00744629 15.68392944 C135.18544205 15.6963694 135.18544205 15.6963694 133.32662964 15.70906067 C130.68182197 15.72649328 128.03707242 15.74214242 125.39224434 15.75483704 C121.21160519 15.77503812 117.03103601 15.80269359 112.85044861 15.83151245 C103.97499817 15.89163744 95.09950577 15.94345804 86.22399902 15.99447632 C76.646484 16.04954547 67.06899019 16.10603283 57.49154323 16.1720252 C53.33436112 16.20038651 49.17718722 16.22397844 45.01995671 16.24394989 C41.82826144 16.26047307 38.63660951 16.28326311 35.44494629 16.30502319 C33.71257469 16.31129982 33.71257469 16.31129982 31.94520569 16.31770325 C30.89220276 16.32604691 29.83919983 16.33439056 28.75428772 16.34298706 C27.37964277 16.35071766 27.37964277 16.35071766 25.97722721 16.35860443 C23.50213609 16.40308738 23.50213609 16.40308738 20.66149902 17.49447632 C20.00149902 19.47447632 19.34149902 21.45447632 18.66149902 23.49447632 C14.04149902 23.49447632 9.42149902 23.49447632 4.66149902 23.49447632 C4.00149902 21.51447632 3.34149902 19.53447632 2.66149902 17.49447632 C0.64293894 16.49180163 0.64293894 16.49180163 -1.71350098 16.36947632 C-4.7729421 15.86203278 -6.25793694 15.54753068 -8.90100098 13.80697632 C-10.95890632 10.49643295 -10.88442556 8.31594841 -10.33850098 4.49447632 C-7.27551167 0.39602827 -4.9986821 -0.00480208 0 0 Z " fill="#B78466" transform="translate(184.3385009765625,361.5055236816406)"/>
<path d="M0 0 C4.62 0 9.24 0 14 0 C14 60.06 14 120.12 14 182 C9.38 182 4.76 182 0 182 C0 121.94 0 61.88 0 0 Z " fill="#FFD478" transform="translate(279,165)"/>
<path d="M0 0 C4.62 0 9.24 0 14 0 C14 60.06 14 120.12 14 182 C9.38 182 4.76 182 0 182 C0 121.94 0 61.88 0 0 Z " fill="#FFE7AD" transform="translate(249,165)"/>
<path d="M0 0 C4.62 0 9.24 0 14 0 C14 60.06 14 120.12 14 182 C9.38 182 4.76 182 0 182 C0 121.94 0 61.88 0 0 Z " fill="#FFF5DE" transform="translate(219,165)"/>
<path d="M0 0 C1.65410637 -0.00087616 1.65410637 -0.00087616 3.34162903 -0.00177002 C6.98881438 0.00101807 10.63518386 0.03214584 14.28222656 0.06347656 C16.80999302 0.07093633 19.33776525 0.07663051 21.86553955 0.08062744 C27.84024369 0.09434272 33.81459729 0.12587206 39.78916097 0.1660254 C46.59198488 0.21075173 53.39482287 0.23273225 60.19775724 0.25280714 C74.18962245 0.29460531 88.18120981 0.3657586 102.17285156 0.45410156 C102.17285156 5.40410156 102.17285156 10.35410156 102.17285156 15.45410156 C87.50862099 15.54669124 72.84445255 15.61807665 58.17998886 15.66135025 C51.37103068 15.6819769 44.56225744 15.7100991 37.75341797 15.75585938 C31.18525858 15.79998107 24.61724113 15.82322468 18.04892731 15.83361053 C15.54022442 15.84101405 13.03153232 15.85547093 10.52291107 15.87702179 C7.01504079 15.90596446 3.50797004 15.91006125 0 15.90820312 C-1.04225235 15.92258423 -2.0845047 15.93696533 -3.15834045 15.95178223 C-10.15844429 15.91153204 -10.15844429 15.91153204 -13.47259521 13.64447021 C-15.47627991 10.40442909 -15.35953557 8.18081148 -14.82714844 4.45410156 C-11.38119308 -1.11815095 -5.84871781 -0.0807012 0 0 Z " fill="#FDE6AC" transform="translate(101.8271484375,44.5458984375)"/>
<path d="M0 0 C14.51657802 -0.09262851 29.03308588 -0.16372899 43.5498991 -0.20724869 C50.29044854 -0.22786673 57.03081089 -0.25597247 63.77124023 -0.30175781 C70.27456271 -0.34591148 76.77776371 -0.36912955 83.28122902 -0.37950897 C85.76398595 -0.38690703 88.24673208 -0.40135345 90.72940636 -0.42292023 C94.20354697 -0.45190298 97.67688124 -0.455958 101.15112305 -0.45410156 C102.18042938 -0.46848267 103.20973572 -0.48286377 104.27023315 -0.49768066 C108.65265319 -0.47229514 111.28598544 -0.41162991 115.13899231 1.80963135 C117 4 117 4 117.625 7.5 C117 11 117 11 115.13899231 13.19036865 C110.51616478 15.85543208 106.39837758 15.52741434 101.15112305 15.45410156 C100.05799301 15.45468567 98.96486298 15.45526978 97.83860779 15.45587158 C94.22932057 15.45308727 90.62086152 15.42197731 87.01171875 15.390625 C84.50780183 15.38316389 82.00387907 15.37747034 79.49995422 15.37347412 C73.58552038 15.35976775 67.67135178 15.32824988 61.75705415 15.28807616 C54.36087538 15.23893015 46.96465968 15.21748574 39.56835938 15.1953125 C26.37875112 15.15242396 13.18940495 15.08415998 0 15 C0 10.05 0 5.1 0 0 Z " fill="#FEE6AC" transform="translate(308,45)"/>
<path d="M0 0 C5.50863019 3.06132474 8.89792531 7.42085061 11.6875 13 C12.48766272 21.19407143 12.87995767 28.47653785 7.54296875 35.1953125 C1.42618033 41.14469408 -4.85069514 43.51057282 -13.328125 43.3984375 C-20.23947692 42.47571774 -25.62252546 38.39811255 -29.9375 33.0625 C-33.63331049 26.82185999 -33.42059463 19.99010379 -32.3125 13 C-29.90092119 6.4102207 -25.10701758 2.30640899 -19.01953125 -0.9609375 C-12.39307448 -3.50442596 -6.41949461 -2.8199579 0 0 Z " fill="#040302" transform="translate(266.3125,32)"/>
<path d="M0 0 C1.38112221 -0.00569504 1.38112221 -0.00569504 2.79014587 -0.01150513 C5.83375105 -0.01891461 8.87640153 0.00247769 11.91992188 0.02490234 C14.03454476 0.02728664 16.14916978 0.02819212 18.26379395 0.02767944 C22.69569153 0.03080815 27.12726578 0.04737904 31.55908203 0.07421875 C37.24214637 0.10819851 42.92485532 0.11584734 48.60800934 0.11432838 C52.9745829 0.11487206 57.34107865 0.12583883 61.70762634 0.14033127 C63.80321158 0.14669898 65.89880564 0.1506381 67.99440002 0.15211868 C70.92220089 0.15645191 73.84962398 0.17395362 76.77734375 0.1953125 C78.07882607 0.19395294 78.07882607 0.19395294 79.40660095 0.19256592 C80.60519493 0.20536087 80.60519493 0.20536087 81.82800293 0.21841431 C82.51968315 0.221766 83.21136337 0.22511768 83.9240036 0.22857094 C86.27494871 0.53642193 87.8724119 1.25037659 89.88867188 2.48583984 C91.41359185 5.5356798 91.12429736 8.12817674 90.88867188 11.48583984 C89.34604375 13.58942365 88.2075887 14.32638143 85.88867188 15.48583984 C82.91988056 15.60021203 79.974024 15.65371442 77.00439453 15.6628418 C76.08393845 15.66941299 75.16348236 15.67598419 74.21513367 15.68275452 C71.16099981 15.70250891 68.10691512 15.71415385 65.05273438 15.72412109 C64.0114677 15.72819662 62.97020103 15.73227215 61.89738083 15.73647118 C56.38796943 15.75733939 50.87858301 15.77163881 45.36914062 15.78100586 C39.67023766 15.79208195 33.97172392 15.82649369 28.27295876 15.86617756 C23.89782978 15.89228229 19.52279447 15.90069215 15.14759445 15.90428734 C13.04639426 15.9091679 10.94519865 15.9208234 8.84407425 15.93932533 C5.90631201 15.96358977 2.96956937 15.96277515 0.03173828 15.95581055 C-1.27445717 15.97502563 -1.27445717 15.97502563 -2.60704041 15.99462891 C-8.46873379 15.94387465 -8.46873379 15.94387465 -11.65151978 13.67521667 C-13.79903032 10.4544447 -13.65129216 8.2655881 -13.11132812 4.48583984 C-9.71258907 -0.6022641 -5.57417585 -0.0722041 0 0 Z " fill="#FED377" transform="translate(217.111328125,134.51416015625)"/>
<path d="M0 0 C52.14 0 104.28 0 158 0 C156.83832673 12.77840594 156.83832673 12.77840594 154.3125 19 C154.04268311 19.68223633 153.77286621 20.36447266 153.49487305 21.06738281 C145.51407933 40.79748477 131.6546244 54.89935735 113 65 C113 61.12311386 114.23938119 60.13606194 116.625 57.125 C121.11616694 51.1314781 124.10127619 44.87484939 127 38 C127.50660156 36.88625 128.01320312 35.7725 128.53515625 34.625 C130.12120736 30.70005219 131.18620113 26.86713639 132.125 22.75 C132.38373901 21.63999634 132.38373901 21.63999634 132.64770508 20.50756836 C133.80569569 15.35403393 134.54194446 10.28646793 134.82421875 5.00390625 C135 3 135 3 136 1 C91.45 1 46.9 1 1 1 C0.67 1.66 0.34 2.32 0 3 C0 2.01 0 1.02 0 0 Z " fill="#F3B46A" transform="translate(15,260)"/>
<path d="M0 0 C52.14 0 104.28 0 158 0 C154.39941226 23.40382034 144.71186137 42.33844294 125.875 57 C121.16518187 60.38787179 116.45709047 63.029384 111 65 C112.3640412 62.00043367 113.96606294 59.78774644 116.125 57.3125 C123.30526698 48.1576596 127.69994238 37.05020168 130.875 25.9375 C131.06594238 25.27951416 131.25688477 24.62152832 131.45361328 23.94360352 C133.46309259 16.32744011 134.00362424 8.97100606 135 1 C90.45 1 45.9 1 0 1 C0 0.67 0 0.34 0 0 Z " fill="#F3B46A" transform="translate(339,260)"/>
<path d="M0 0 C7.92 0 15.84 0 24 0 C27.88086547 7.62312861 31.69237164 15.17951412 35.01953125 23.05932617 C38.11677423 30.37440327 41.21541613 36.36734314 46.53125 42.34765625 C48 44 48 44 48 45 C30.02806848 46.45094948 30.02806848 46.45094948 23.625 43.3828125 C21.02172577 41.09681232 19.02975208 38.80437175 17 36 C16.40960938 35.26136719 15.81921875 34.52273438 15.2109375 33.76171875 C9.33410789 25.56367562 0 10.0880701 0 0 Z " fill="#985D48" transform="translate(302,392)"/>
<path d="M0 0 C2.47395833 0.74869792 4.94791667 1.49739583 7.421875 2.24609375 C8.27265625 2.49488281 9.1234375 2.74367188 10 3 C10.62003906 3.19335938 11.24007812 3.38671875 11.87890625 3.5859375 C20.3790415 5.24526409 29.73682269 4.35260936 38 2 C40.64 1.34 43.28 0.68 46 0 C46 6.6 46 13.2 46 20 C30.82 20 15.64 20 0 20 C0 13.4 0 6.8 0 0 Z " fill="#F59A5D" transform="translate(233,100)"/>
<path d="M0 0 C1.381875 0.45375 2.76375 0.9075 4.1875 1.375 C10.38128298 3.25001895 16.59646888 4.11440527 23 5 C23 9.95 23 14.9 23 20 C15.41 20 7.82 20 0 20 C0 13.4 0 6.8 0 0 Z " fill="#F7B56A" transform="translate(233,100)"/>
<path d="M0 0 C3.08325358 -0.0582253 6.16636505 -0.09367134 9.25 -0.125 C10.55904297 -0.15013672 10.55904297 -0.15013672 11.89453125 -0.17578125 C12.73886719 -0.18222656 13.58320313 -0.18867188 14.453125 -0.1953125 C15.22817383 -0.20578613 16.00322266 -0.21625977 16.80175781 -0.22705078 C19.29907849 0.03089105 20.87839667 0.67239594 23 2 C24.52491998 5.04983996 24.23562548 7.6423369 24 11 C22.45737187 13.10358381 21.31891683 13.84054159 19 15 C17.55151418 15.08342159 16.09929131 15.10732861 14.6484375 15.09765625 C13.79765625 15.09443359 12.946875 15.09121094 12.0703125 15.08789062 C11.18085938 15.07951172 10.29140625 15.07113281 9.375 15.0625 C8.02921875 15.05573242 8.02921875 15.05573242 6.65625 15.04882812 C4.43743352 15.03702591 2.21874982 15.02056155 0 15 C0.16242188 14.4121875 0.32484375 13.824375 0.4921875 13.21875 C1.52207098 8.7189514 1.21876422 4.41076576 0 0 Z " fill="#FDBA6D" transform="translate(284,135)"/>
<path d="M0 0 C3.08325358 -0.0582253 6.16636505 -0.09367134 9.25 -0.125 C10.55904297 -0.15013672 10.55904297 -0.15013672 11.89453125 -0.17578125 C12.73886719 -0.18222656 13.58320313 -0.18867188 14.453125 -0.1953125 C15.22817383 -0.20578613 16.00322266 -0.21625977 16.80175781 -0.22705078 C19.29907849 0.03089105 20.87839667 0.67239594 23 2 C24.52491998 5.04983996 24.23562548 7.6423369 24 11 C22.45737187 13.10358381 21.31891683 13.84054159 19 15 C17.55151418 15.08342159 16.09929131 15.10732861 14.6484375 15.09765625 C13.79765625 15.09443359 12.946875 15.09121094 12.0703125 15.08789062 C11.18085938 15.07951172 10.29140625 15.07113281 9.375 15.0625 C8.02921875 15.05573242 8.02921875 15.05573242 6.65625 15.04882812 C4.43743352 15.03702591 2.21874982 15.02056155 0 15 C0.33 14.01 0.66 13.02 1 12 C1.13708847 7.68171307 1.09407204 4.1671433 0 0 Z " fill="#A96E50" transform="translate(314,362)"/>
<path d="M0 0 C3.06345144 -0.10822792 6.1230601 -0.18741479 9.1875 -0.25 C10.05181641 -0.28351562 10.91613281 -0.31703125 11.80664062 -0.3515625 C16.00604536 -0.41592119 18.37977628 -0.36251958 22.07421875 1.796875 C24 4 24 4 24.625 7.5 C24 11 24 11 22.07421875 13.203125 C17.73522114 15.73926083 14.11163965 15.44094352 9.1875 15.25 C8.30384766 15.23195313 7.42019531 15.21390625 6.50976562 15.1953125 C4.33937457 15.14838513 2.16954481 15.07664731 0 15 C0.16242188 14.4121875 0.32484375 13.824375 0.4921875 13.21875 C1.52207098 8.7189514 1.21876422 4.41076576 0 0 Z " fill="#FDD277" transform="translate(401,45)"/>
<path d="M0 0 C17.63707686 -0.66882173 17.63707686 -0.66882173 24.75 5.3125 C31 12.77777778 31 12.77777778 31 15 C23.74 15 16.48 15 9 15 C7.53515625 12.265625 6.0703125 9.53125 4.60546875 6.796875 C3.21034812 4.36644588 1.73804039 2.19212301 0 0 Z " fill="#A86D50" transform="translate(378,452)"/>
<path d="M0 0 C16.22850452 -0.83104717 16.22850452 -0.83104717 23 4 C25.65278896 6.45062475 28.05206551 8.94969744 30 12 C30 12.99 30 13.98 30 15 C22.74 15 15.48 15 8 15 C7.01 12.36 6.02 9.72 5 7 C3.7050184 4.73888226 3.7050184 4.73888226 2.3125 3 C1.1678125 1.515 1.1678125 1.515 0 0 Z " fill="#FCB96C" transform="translate(435,482)"/>
<path d="M0 0 C2.375 1.5625 2.375 1.5625 4 4 C4.56783945 7.97487617 4.62340519 10.06489221 2.375 13.4375 C-0.71685231 15.47161336 -2.36367425 15.60605429 -6 15 C-8.375 13.4375 -8.375 13.4375 -10 11 C-10.56783945 7.02512383 -10.62340519 4.93510779 -8.375 1.5625 C-5.28314769 -0.47161336 -3.63632575 -0.60605429 0 0 Z " fill="#B28063" transform="translate(259,45)"/>
</svg>
