<?xml version="1.0" encoding="UTF-8"?>
<svg version="1.1" xmlns="http://www.w3.org/2000/svg" width="192" height="192">
<path d="M0 0 C63.36 0 126.72 0 192 0 C192 63.36 192 126.72 192 192 C128.64 192 65.28 192 0 192 C0 128.64 0 65.28 0 0 Z " fill="#FDFDFD" transform="translate(0,0)"/>
<path d="M0 0 C2.27734375 0.05078125 2.27734375 0.05078125 5 1 C6.79151191 3.06341085 8.15145867 4.88640308 9.5625 7.1875 C10.14729126 8.12928101 10.14729126 8.12928101 10.74389648 9.09008789 C18.6704908 22.43427051 19.93826832 37.06772406 16.5625 52.0625 C12.81331456 66.74666081 2.91711487 78.65071704 -9.953125 86.35546875 C-19.51798877 91.51804266 -27.53609944 93.43609585 -38.3125 93.5 C-39.23135986 93.50636475 -40.15021973 93.51272949 -41.09692383 93.51928711 C-47.22691518 93.404713 -52.32508255 92.28918275 -58 90 C-59.01707031 89.5978125 -60.03414062 89.195625 -61.08203125 88.78125 C-74.43312916 82.51635713 -85.41473933 72.09549401 -90.71875 58.10400391 C-95.7982233 42.93739204 -95.54451063 27.64598146 -89 13 C-86.82213182 8.67476284 -84.43617678 4.43617678 -81 1 C-78.25 0.6875 -78.25 0.6875 -76 1 C-74.68995012 5.38215515 -74.68995012 5.38215515 -76.07421875 8.140625 C-76.60660156 8.83671875 -77.13898438 9.5328125 -77.6875 10.25 C-85.87990665 21.6812651 -87.39660947 33.41651906 -85.57421875 47.2265625 C-82.89704057 59.67626226 -75.95699127 70.34770361 -65.5859375 77.71484375 C-56.98858673 83.15805809 -48.97970973 85.57428871 -38.8125 85.5 C-37.89629883 85.49427979 -36.98009766 85.48855957 -36.03613281 85.48266602 C-23.94585966 85.16757202 -13.84489767 81.45572217 -5 73 C-4.37609375 72.40445313 -3.7521875 71.80890625 -3.109375 71.1953125 C6.5858717 61.03638008 10.37637606 48.72781974 10.30078125 34.99633789 C10.03911339 24.97702893 6.62483445 13.56032947 -0.703125 6.31640625 C-1.13109375 5.88199219 -1.5590625 5.44757813 -2 5 C-1.74853421 2.86254078 -1.54074221 1.54074221 0 0 Z " fill="#444445" transform="translate(134,61)"/>
<path d="M0 0 C1.11375 0.7115625 1.11375 0.7115625 2.25 1.4375 C5.45400408 3.39184643 5.45400408 3.39184643 9 4 C9.969375 3.360625 10.93875 2.72125 11.9375 2.0625 C17.77218415 -1.55123986 25.00741777 -0.74783661 31.5234375 0.47265625 C37.36665143 2.18461542 42.16229924 5.37612234 47 9 C47.68835938 9.51046875 48.37671875 10.0209375 49.0859375 10.546875 C53.65663965 14.16612487 53.65663965 14.16612487 54.984375 17.390625 C55 20 55 20 53.015625 22.38671875 C52.10296875 23.14597656 51.1903125 23.90523437 50.25 24.6875 C49.34765625 25.45449219 48.4453125 26.22148438 47.515625 27.01171875 C42.46954813 31 42.46954813 31 39 31 C39.34846994 28.11086737 39.82132771 27.15401619 42.06640625 25.21875 C43.73223576 24.07169994 45.39890509 22.92586858 47.06640625 21.78125 C47.70449219 21.1934375 48.34257813 20.605625 49 20 C49 18.68 49 17.36 49 16 C43.52616182 10.84291195 35.80969904 5 28 5 C28.928125 5.556875 29.85625 6.11375 30.8125 6.6875 C34.07461046 9.05412916 35.48981224 10.30842992 37 14 C37.42444225 17.93788089 37.61590549 22.32748753 36 26 C35.01 26.33 34.02 26.66 33 27 C33.86625 27.77085938 34.7325 28.54171875 35.625 29.3359375 C36.75025901 30.34867061 37.87524497 31.36170718 39 32.375 C39.85851562 33.13683594 39.85851562 33.13683594 40.734375 33.9140625 C42.19441277 35.23504905 43.60152157 36.61400799 45 38 C45 38.66 45 39.32 45 40 C41.96147295 38.59023295 39.4060405 36.91129772 36.75 34.875 C36.04359375 34.33617187 35.3371875 33.79734375 34.609375 33.2421875 C34.07828125 32.83226562 33.5471875 32.42234375 33 32 C33 33.32 33 34.64 33 36 C22.1020525 36.68990523 14.1557822 36.70543665 5 30 C4.154375 29.40058594 3.30875 28.80117187 2.4375 28.18359375 C-1.30209813 25.40885988 -4.3197874 22.83605429 -7 19 C-5.60807296 15.86989542 -3.97357774 13.67663308 -1.5625 11.25 C-0.96566406 10.63640625 -0.36882812 10.0228125 0.24609375 9.390625 C2 8 2 8 5 8 C4.52531987 12.27212118 1.92614175 14.07385825 -1 17 C-1.3495016 19.96563161 -1.3495016 19.96563161 0.35546875 21.38671875 C5.17146479 24.8294945 5.17146479 24.8294945 11 25 C11 22.36 11 19.72 11 17 C12.32 17 13.64 17 15 17 C15.268125 18.11375 15.53625 19.2275 15.8125 20.375 C16.65809019 24.21840951 16.65809019 24.21840951 20 26 C22.32387947 26.39387788 24.65793749 26.73486085 27 27 C27 26.34 27 25.68 27 25 C26.0925 25.0825 25.185 25.165 24.25 25.25 C21 25 21 25 18.6875 23.3125 C17 21 17 21 16.72265625 18.640625 C15.70963512 14.93899102 13.76026565 13.75154111 10.75 11.4375 C9.79609375 10.69371094 8.8421875 9.94992188 7.859375 9.18359375 C5.96809573 7.73929715 4.06187032 6.31434511 2.140625 4.91015625 C1.43421875 4.27980469 0.7278125 3.64945312 0 3 C0 2.01 0 1.02 0 0 Z " fill="#494244" transform="translate(75,78)"/>
<path d="M0 0 C3.98990539 1.9655069 7.56296519 4.38053313 11.1171875 7.04296875 C11.80554688 7.5534375 12.49390625 8.06390625 13.203125 8.58984375 C17.77382715 12.20909362 17.77382715 12.20909362 19.1015625 15.43359375 C19.1171875 18.04296875 19.1171875 18.04296875 17.1328125 20.4296875 C16.22015625 21.18894531 15.3075 21.94820312 14.3671875 22.73046875 C13.46484375 23.49746094 12.5625 24.26445313 11.6328125 25.0546875 C6.58673563 29.04296875 6.58673563 29.04296875 3.1171875 29.04296875 C3.46565744 26.15383612 3.93851521 25.19698494 6.18359375 23.26171875 C7.84942326 22.11466869 9.51609259 20.96883733 11.18359375 19.82421875 C11.82167969 19.23640625 12.45976563 18.64859375 13.1171875 18.04296875 C13.1171875 16.72296875 13.1171875 15.40296875 13.1171875 14.04296875 C7.64334932 8.8858807 -0.07311346 3.04296875 -7.8828125 3.04296875 C-6.9546875 3.59984375 -6.0265625 4.15671875 -5.0703125 4.73046875 C-1.80820204 7.09709791 -0.39300026 8.35139867 1.1171875 12.04296875 C1.55565791 16.11099979 1.41967695 20.1355004 0.1171875 24.04296875 C-1.5328125 24.37296875 -3.1828125 24.70296875 -4.8828125 25.04296875 C-6.50230261 22.47083741 -6.92690001 21.36627716 -6.5078125 18.29296875 C-6.1984375 17.17921875 -6.1984375 17.17921875 -5.8828125 16.04296875 C-7.5328125 15.71296875 -9.1828125 15.38296875 -10.8828125 15.04296875 C-10.8828125 13.39296875 -10.8828125 11.74296875 -10.8828125 10.04296875 C-13.64557427 10.56565341 -16.2089001 11.15166462 -18.8828125 12.04296875 C-21.36328125 10.390625 -21.36328125 10.390625 -24.0703125 8.10546875 C-24.97136719 7.35394531 -25.87242188 6.60242188 -26.80078125 5.828125 C-27.48785156 5.23902344 -28.17492187 4.64992188 -28.8828125 4.04296875 C-20.2459055 -3.15445375 -10.64913013 -4.15433098 0 0 Z " fill="#EDE8E8" transform="translate(110.8828125,79.95703125)"/>
<path d="M0 0 C10.58049563 -1.01302618 18.12033028 1.45414425 26.53125 7.95703125 C28.41613985 9.58639906 30.23350051 11.24389168 32 13 C30.53145801 16.65129291 28.6053903 18.28955143 25.4375 20.5625 C21.80102586 23.06734287 21.80102586 23.06734287 20 27 C20.99 27.33 21.98 27.66 23 28 C21.68 28.33 20.36 28.66 19 29 C17.02 26.69 15.04 24.38 13 22 C14.32 22 15.64 22 17 22 C17.76110996 13.87006501 17.76110996 13.87006501 15.25 6.375 C11.88962335 2.82793576 9.06818608 1.80013407 4.25 1.375 C3.45078125 1.30023438 2.6515625 1.22546875 1.828125 1.1484375 C1.22484375 1.09945312 0.6215625 1.05046875 0 1 C0 0.67 0 0.34 0 0 Z " fill="#F2F2F2" transform="translate(94,82)"/>
<path d="M0 0 C3.15551768 1.81308558 6.08850242 3.81902363 9 6 C9.68835938 6.51046875 10.37671875 7.0209375 11.0859375 7.546875 C15.65663965 11.16612487 15.65663965 11.16612487 16.984375 14.390625 C17 17 17 17 15.015625 19.38671875 C14.10296875 20.14597656 13.1903125 20.90523437 12.25 21.6875 C11.34765625 22.45449219 10.4453125 23.22148438 9.515625 24.01171875 C4.46954813 28 4.46954813 28 1 28 C1.34846994 25.11086737 1.82132771 24.15401619 4.06640625 22.21875 C5.73223576 21.07169994 7.39890509 19.92586858 9.06640625 18.78125 C9.70449219 18.1934375 10.34257813 17.605625 11 17 C11 15.68 11 14.36 11 13 C2.32596129 4.82789481 -5.90120909 1.57731789 -17.6640625 1.828125 C-21.1857482 2.00957016 -24.53913422 2.34078747 -28 3 C-28 2.01 -28 1.02 -28 0 C-19.97148408 -5.50526806 -8.41944726 -4.14758749 0 0 Z " fill="#4C4C4E" transform="translate(113,81)"/>
<path d="M0 0 C12.06896552 7.75862069 12.06896552 7.75862069 14 15 C16.5654594 17.5654594 18.47686668 17.54046087 22 18 C22 18.66 22 19.32 22 20 C17.997753 20.31390173 15.61671263 20.34116018 12.0625 18.375 C10 16 10 16 9.6875 12.75 C9.790625 11.8425 9.89375 10.935 10 10 C8.68 10 7.36 10 6 10 C6 12.64 6 15.28 6 18 C3.4375 18.875 3.4375 18.875 0 19 C-2.6317915 17.29275002 -4.80915266 15.23621992 -7 13 C-6.20148326 8.71704655 -4.05142295 7.05142295 -1 4 C-0.13880866 1.82653432 -0.13880866 1.82653432 0 0 Z " fill="#F5F5F5" transform="translate(80,85)"/>
<path d="M0 0 C-0.47468013 4.27212118 -3.07385825 6.07385825 -6 9 C-6 9.99 -6 10.98 -6 12 C4.52540397 21.68337165 12.82672177 24.58335139 27 24 C27 24.99 27 25.98 27 27 C20.90666543 29.03111152 14.06217438 29.12226286 8.015625 26.90625 C0.54567828 22.93915965 -7.1052155 18.00566032 -12 11 C-10.60807296 7.86989542 -8.97357774 5.67663308 -6.5625 3.25 C-5.96566406 2.63640625 -5.36882812 2.0228125 -4.75390625 1.390625 C-3 0 -3 0 0 0 Z " fill="#424244" transform="translate(80,86)"/>
<path d="M0 0 C1.32 0 2.64 0 4 0 C4.268125 1.11375 4.53625 2.2275 4.8125 3.375 C5.65809019 7.21840951 5.65809019 7.21840951 9 9 C10.258125 8.938125 11.51625 8.87625 12.8125 8.8125 C16.26363704 8.69129556 17.86300994 9.26388254 20.5 11.5 C21.325 12.325 22.15 13.15 23 14 C22.67 15.65 22.34 17.3 22 19 C20.68 18.67 19.36 18.34 18 18 C18.99 18 19.98 18 21 18 C21 17.01 21 16.02 21 15 C20.01 15.33 19.02 15.66 18 16 C10.78602909 16.80743528 4.29065611 15.7397662 -2 12 C-3.78515625 9.859375 -3.78515625 9.859375 -5 8 C-3.35 8 -1.7 8 0 8 C0 5.36 0 2.72 0 0 Z " fill="#E9E9E9" transform="translate(86,95)"/>
<path d="M0 0 C4.33729795 2.25205855 7.13397371 4.4386024 9 9 C9.53203788 13.30697331 9.47823733 16.282644 7 20 C6.34 20 5.68 20 5 20 C4.97421875 19.16855469 4.9484375 18.33710937 4.921875 17.48046875 C4.86515625 16.39378906 4.8084375 15.30710937 4.75 14.1875 C4.70359375 13.10855469 4.6571875 12.02960938 4.609375 10.91796875 C4.25574002 7.93510756 4.25574002 7.93510756 2.203125 6.12890625 C-0.12584589 4.93551514 -1.41175707 4.64889676 -4 4.75 C-5.03640625 4.78867188 -5.03640625 4.78867188 -6.09375 4.828125 C-8.1437161 5.01295801 -10.04478392 5.34826131 -12 6 C-12 4.68 -12 3.36 -12 2 C-7.85747753 -0.00849574 -4.5849842 -0.48262992 0 0 Z " fill="#4A4A4B" transform="translate(103,83)"/>
<path d="M0 0 C3.23537141 0.59993642 5.17614297 1.6363199 7.6875 3.75 C8.59048828 4.48476562 8.59048828 4.48476562 9.51171875 5.234375 C11.48167935 7.57144112 12.00462709 8.9322393 12 12 C10.015625 14.38671875 10.015625 14.38671875 7.25 16.6875 C6.34765625 17.45449219 5.4453125 18.22148438 4.515625 19.01171875 C-0.53045187 23 -0.53045187 23 -4 23 C-3.65153006 20.11086737 -3.17867229 19.15401619 -0.93359375 17.21875 C0.73223576 16.07169994 2.39890509 14.92586858 4.06640625 13.78125 C4.70449219 13.1934375 5.34257813 12.605625 6 12 C6.44572515 8.11404296 6.44572515 8.11404296 4.46875 6.296875 C3.49421875 5.53117187 3.49421875 5.53117187 2.5 4.75 C1.8503125 4.22921875 1.200625 3.7084375 0.53125 3.171875 C0.0259375 2.78515625 -0.479375 2.3984375 -1 2 C-0.67 1.34 -0.34 0.68 0 0 Z " fill="#424244" transform="translate(118,86)"/>
<path d="M0 0 C0.33 0.33 0.66 0.66 1 1 C0.95875 1.928125 0.9175 2.85625 0.875 3.8125 C1.01324117 7.33764977 1.65727752 8.46205064 4 11 C0.62537285 10.45276317 -1.08235 9.9451 -4 8 C-3.67 9.65 -3.34 11.3 -3 13 C-3.66 13 -4.32 13 -5 13 C-5.69937202 11.5682384 -6.38412718 10.12932968 -7.0625 8.6875 C-7.44535156 7.88699219 -7.82820313 7.08648437 -8.22265625 6.26171875 C-9 4 -9 4 -8 1 C-5.26752652 -0.36623674 -3.01801098 -0.128426 0 0 Z " fill="#404042" transform="translate(77,42)"/>
<path d="M0 0 C0.763125 0.20625 1.52625 0.4125 2.3125 0.625 C2.6425 2.275 2.9725 3.925 3.3125 5.625 C1.3325 6.615 1.3325 6.615 -0.6875 7.625 C0.3025 9.11 0.3025 9.11 1.3125 10.625 C1.3125 11.615 1.3125 12.605 1.3125 13.625 C-2.14874816 12.47125061 -2.57062583 11.74798029 -4.4375 8.75 C-4.88609375 8.05132812 -5.3346875 7.35265625 -5.796875 6.6328125 C-6.6875 4.625 -6.6875 4.625 -5.6875 1.625 C-2.6875 -0.375 -2.6875 -0.375 0 0 Z " fill="#424243" transform="translate(63.6875,47.375)"/>
<path d="M0 0 C0.99 0 1.98 0 3 0 C3.33872513 1.41538717 3.67074624 2.83237963 4 4.25 C4.185625 5.03890625 4.37125 5.8278125 4.5625 6.640625 C5 9 5 9 5 13 C4.34 13 3.68 13 3 13 C3 12.01 3 11.02 3 10 C0.03 10.66 -2.94 11.32 -6 12 C-4.68535639 7.39874735 -2.96668552 3.77578157 0 0 Z " fill="#4D4C4E" transform="translate(106,39)"/>
<path d="M0 0 C1.32 0 2.64 0 4 0 C4.226875 1.093125 4.45375 2.18625 4.6875 3.3125 C5.65966516 7.05660666 5.65966516 7.05660666 8.3125 8.875 C10.89869652 9.95759389 13.22973281 10.60424754 16 11 C16 11.99 16 12.98 16 14 C10.23582927 13.74883788 6.10197251 13.4748791 2 9 C0.22371132 5.616593 0 3.91065931 0 0 Z " fill="#4F4F50" transform="translate(86,95)"/>
<path d="M0 0 C2.6875 -0.25 2.6875 -0.25 5 0 C5 1.98 5 3.96 5 6 C6.65 6 8.3 6 10 6 C9.67 7.98 9.34 9.96 9 12 C5.03869629 12 4.17085599 10.65122875 1.3125 8 C0.50425781 7.2575 -0.30398437 6.515 -1.13671875 5.75 C-1.75160156 5.1725 -2.36648437 4.595 -3 4 C-1.66796875 2.015625 -1.66796875 2.015625 0 0 Z " fill="#BC303C" transform="translate(96,89)"/>
<path d="M0 0 C0.66 0 1.32 0 2 0 C3.2890625 1.53125 3.2890625 1.53125 4.625 3.5 C5.07101563 4.1496875 5.51703125 4.799375 5.9765625 5.46875 C6.31429687 5.9740625 6.65203125 6.479375 7 7 C6.01 8.485 6.01 8.485 5 10 C1.72724974 10 -0.846632 9.70074844 -4 9 C-4.33 8.01 -4.66 7.02 -5 6 C-4.34 5.01 -3.68 4.02 -3 3 C-2.01 3 -1.02 3 0 3 C0 2.01 0 1.02 0 0 Z " fill="#F3F3F3" transform="translate(64,93)"/>
<path d="M0 0 C0.99 0 1.98 0 3 0 C4.32 2.64 5.64 5.28 7 8 C7.99 5.36 8.98 2.72 10 0 C10.66 0 11.32 0 12 0 C11.01 4.29 10.02 8.58 9 13 C7.68 13 6.36 13 5 13 C4.16209211 11.21046815 3.32980604 9.41830305 2.5 7.625 C1.80390625 6.12839844 1.80390625 6.12839844 1.09375 4.6015625 C0 2 0 2 0 0 Z " fill="#4A4A4B" transform="translate(86,38)"/>
<path d="M0 0 C2.4375 0.8125 2.4375 0.8125 5 2 C5.33 2.99 5.66 3.98 6 5 C4.35 4.67 2.7 4.34 1 4 C1 4.66 1 5.32 1 6 C1.66 6.33 2.32 6.66 3 7 C3 7.66 3 8.32 3 9 C0.525 8.01 0.525 8.01 -2 7 C-2.33 8.32 -2.66 9.64 -3 11 C-2.01 11.33 -1.02 11.66 0 12 C0 12.66 0 13.32 0 14 C-2.475 13.01 -2.475 13.01 -5 12 C-5 7.86021808 -4.67617664 7.01426496 -2.5 3.75 C-2.0359375 3.04359375 -1.571875 2.3371875 -1.09375 1.609375 C-0.7328125 1.07828125 -0.371875 0.5471875 0 0 Z " fill="#464647" transform="translate(128,47)"/>
<path d="M0 0 C5.94 0 11.88 0 18 0 C18 0.99 18 1.98 18 3 C12.76655404 4.74448199 7.12042565 4.67853621 1.875 3 C1.25625 2.67 0.6375 2.34 0 2 C0 1.34 0 0.68 0 0 Z " fill="#373739" transform="translate(89,110)"/>
<path d="M0 0 C-0.33 1.65 -0.66 3.3 -1 5 C-2.32 4.67 -3.64 4.34 -5 4 C-4.01 4 -3.02 4 -2 4 C-2 3.01 -2 2.02 -2 1 C-2.99 1.33 -3.98 1.66 -5 2 C-6.72795352 2.06802967 -8.45835365 2.08495645 -10.1875 2.0625 C-11.53908203 2.04896484 -11.53908203 2.04896484 -12.91796875 2.03515625 C-13.60503906 2.02355469 -14.29210937 2.01195313 -15 2 C-11.91190305 0.23537317 -10.76687864 0 -7 0 C-7 -0.99 -7 -1.98 -7 -3 C-8.65 -3 -10.3 -3 -12 -3 C-12 -3.33 -12 -3.66 -12 -4 C-6.66800198 -6.10048407 -3.98534988 -3.31921071 0 0 Z " fill="#D4D4D4" transform="translate(109,109)"/>
<path d="M0 0 C3.26604763 0.59841491 5.17406707 1.6589078 7.6875 3.8125 C8.28949219 4.31394531 8.89148438 4.81539063 9.51171875 5.33203125 C11.18775622 7.21042495 11.6002351 8.54277844 12 11 C6.86782097 8.74684823 3.0903084 5.73936478 -1 2 C-0.67 1.34 -0.34 0.68 0 0 Z " fill="#424243" transform="translate(118,86)"/>
<path d="M0 0 C2.97 0.99 5.94 1.98 9 3 C9 3.66 9 4.32 9 5 C8.06414062 5.12181641 8.06414062 5.12181641 7.109375 5.24609375 C4.8507553 5.79429444 4.8507553 5.79429444 3.953125 7.84765625 C3.60507813 8.94400391 3.60507813 8.94400391 3.25 10.0625 C3.00765625 10.79597656 2.7653125 11.52945313 2.515625 12.28515625 C2.34546875 12.85105469 2.1753125 13.41695312 2 14 C1.01 14 0.02 14 -1 14 C0.04097612 10.13351728 1.03698408 6.50538557 3 3 C2.01 3 1.02 3 0 3 C0 2.01 0 1.02 0 0 Z " fill="#49494A" transform="translate(116,41)"/>
<path d="M0 0 C0.66 0 1.32 0 2 0 C3.5635348 3.12706959 3.39958487 6.57982443 3 10 C2.01 11.485 2.01 11.485 1 13 C0.34 13 -0.32 13 -1 13 C-1.02696365 11.20841511 -1.04637917 9.41671527 -1.0625 7.625 C-1.07410156 6.62726563 -1.08570312 5.62953125 -1.09765625 4.6015625 C-1 2 -1 2 0 0 Z " fill="#696969" transform="translate(109,90)"/>
<path d="M0 0 C3.66379303 1.57508859 6.29851305 3.84193573 9.25 6.5 C10.14203125 7.2940625 11.0340625 8.088125 11.953125 8.90625 C14 11 14 11 14 13 C10.24269753 11.3718356 7.383177 8.98598083 4.25 6.375 C3.26515625 5.55773437 2.2803125 4.74046875 1.265625 3.8984375 C0.51796875 3.27195312 -0.2296875 2.64546875 -1 2 C-0.67 1.34 -0.34 0.68 0 0 Z " fill="#4B4B4B" transform="translate(106,105)"/>
<path d="M0 0 C1 1 1 1 1.0625 3.5625 C1.041875 4.366875 1.02125 5.17125 1 6 C-2.6959107 6 -5.50462849 5.16512384 -9 4 C-8.67 3.01 -8.34 2.02 -8 1 C-5.26752652 -0.36623674 -3.01801098 -0.128426 0 0 Z " fill="#4F4F50" transform="translate(77,42)"/>
<path d="M0 0 C0.66 0 1.32 0 2 0 C2.433125 1.423125 2.433125 1.423125 2.875 2.875 C3.76825109 6.05211578 3.76825109 6.05211578 6 8 C7.98821313 8.39764263 9.98944339 8.73775349 12 9 C12 9.66 12 10.32 12 11 C8.03640173 11.31087045 5.61066944 11.32482417 2.0625 9.4375 C0 7 0 7 -0.3125 3.25 C-0.209375 2.1775 -0.10625 1.105 0 0 Z " fill="#EAE4E5" transform="translate(90,94)"/>
<path d="M0 0 C1.65 0.33 3.3 0.66 5 1 C5.33 2.65 5.66 4.3 6 6 C5.01 6.66 4.02 7.32 3 8 C1.68 7.34 0.36 6.68 -1 6 C-1 5.01 -1 4.02 -1 3 C-0.34 2.67 0.32 2.34 1 2 C0.67 1.34 0.34 0.68 0 0 Z " fill="#8E8E8E" transform="translate(61,47)"/>
<path d="M0 0 C-0.33 1.32 -0.66 2.64 -1 4 C-8.425 3.01 -8.425 3.01 -16 2 C-16 1.67 -16 1.34 -16 1 C-14.27327966 0.63409254 -12.54346345 0.28277805 -10.8125 -0.0625 C-9.36810547 -0.35833984 -9.36810547 -0.35833984 -7.89453125 -0.66015625 C-4.96389138 -1.00423947 -2.83692932 -0.74164697 0 0 Z " fill="#666667" transform="translate(111,80)"/>
<path d="M0 0 C1.32 0.66 2.64 1.32 4 2 C3.02433888 3.16959987 2.044375 4.33561177 1.0625 5.5 C0.51722656 6.1496875 -0.02804688 6.799375 -0.58984375 7.46875 C-1.05519531 7.9740625 -1.52054687 8.479375 -2 9 C-2.33 9 -2.66 9 -3 9 C-3.26218749 5.85375007 -3.24754367 4.38162983 -1.5 1.6875 C-1.005 1.130625 -0.51 0.57375 0 0 Z " fill="#535354" transform="translate(126,95)"/>
<path d="M0 0 C0.33 0 0.66 0 1 0 C1 3.3 1 6.6 1 10 C1.99 9.67 2.98 9.34 4 9 C4 9.66 4 10.32 4 11 C2.35 11.33 0.7 11.66 -1 12 C-1.66 10.68 -2.32 9.36 -3 8 C-2.34 7.01 -1.68 6.02 -1 5 C-0.61500109 3.34450469 -0.27206865 1.6777567 0 0 Z " fill="#DCD9DA" transform="translate(107,93)"/>
<path d="M0 0 C0.99 0.33 1.98 0.66 3 1 C2.67 3.31 2.34 5.62 2 8 C0.68 7.67 -0.64 7.34 -2 7 C-2 3 -2 3 0 0 Z " fill="#828283" transform="translate(106,39)"/>
<path d="M0 0 C0 0.99 0 1.98 0 3 C-1.4800841 2.88637738 -2.95910074 2.75877092 -4.4375 2.625 C-5.26121094 2.55539063 -6.08492188 2.48578125 -6.93359375 2.4140625 C-7.61550781 2.27742188 -8.29742187 2.14078125 -9 2 C-9.33 1.34 -9.66 0.68 -10 0 C-6.7169902 -1.6415049 -3.57454967 -0.51888624 0 0 Z " fill="#3A3A3C" transform="translate(102,106)"/>
<path d="M0 0 C2.4375 0.8125 2.4375 0.8125 5 2 C5.33 2.99 5.66 3.98 6 5 C4.35 4.67 2.7 4.34 1 4 C1 4.66 1 5.32 1 6 C1.66 6.33 2.32 6.66 3 7 C3 7.66 3 8.32 3 9 C1.68 8.34 0.36 7.68 -1 7 C-0.67 4.69 -0.34 2.38 0 0 Z " fill="#3F3F40" transform="translate(128,47)"/>
<path d="M0 0 C1.14926266 0.95421808 2.29430541 1.91352045 3.4375 2.875 C4.07558594 3.40867187 4.71367188 3.94234375 5.37109375 4.4921875 C7 6 7 6 8 8 C5.2980567 7.63487253 3.41609148 7.30130763 1.1875 5.6875 C0 4 0 4 0 0 Z " fill="#B82E3C" transform="translate(92,95)"/>
<path d="M0 0 C1.31611677 0.95336021 2.62778961 1.91285774 3.9375 2.875 C4.66839844 3.40867187 5.39929688 3.94234375 6.15234375 4.4921875 C8 6 8 6 9 8 C5.81390075 7.64598897 4.20933322 7.16972964 1.6875 5.125 C0 3 0 3 0 0 Z " fill="#494949" transform="translate(84,85)"/>
<path d="M0 0 C2.49505962 2.49505962 2.35948376 3.67328888 2.625 7.125 C2.69976562 8.03507812 2.77453125 8.94515625 2.8515625 9.8828125 C2.92503906 10.93082031 2.92503906 10.93082031 3 12 C2.34 12 1.68 12 1 12 C1 11.01 1 10.02 1 9 C0.34 8.67 -0.32 8.34 -1 8 C-0.34 8 0.32 8 1 8 C0.67 7.34 0.34 6.68 0 6 C-0.039992 4.00039988 -0.04346799 1.99952758 0 0 Z " fill="#323234" transform="translate(108,40)"/>
<path d="M0 0 C2.97 0.99 5.94 1.98 9 3 C9 3.66 9 4.32 9 5 C5.87709365 4.51421457 3.00419641 4.0013988 0 3 C0 2.01 0 1.02 0 0 Z " fill="#59595A" transform="translate(116,41)"/>
<path d="M0 0 C2.475 0.99 2.475 0.99 5 2 C5 2.99 5 3.98 5 5 C2.13275314 4.42655063 1.1385485 4.1385485 -1 2 C-0.67 1.34 -0.34 0.68 0 0 Z " fill="#555556" transform="translate(72,98)"/>
<path d="M0 0 C0.6875 1.8125 0.6875 1.8125 1 4 C-0.4375 5.75 -0.4375 5.75 -2 7 C-2.66 5.68 -3.32 4.36 -4 3 C-2.68 2.01 -1.36 1.02 0 0 Z " fill="#B72937" transform="translate(105,95)"/>
<path d="M0 0 C2.5625 0.25 2.5625 0.25 5 1 C5.33 1.66 5.66 2.32 6 3 C4.824375 2.9071875 4.824375 2.9071875 3.625 2.8125 C2.325625 2.9053125 2.325625 2.9053125 1 3 C0.34 3.99 -0.32 4.98 -1 6 C-1.625 4.125 -1.625 4.125 -2 2 C-1.34 1.34 -0.68 0.68 0 0 Z " fill="#5A5A5A" transform="translate(134,61)"/>
<path d="M0 0 C2.625 0.9375 2.625 0.9375 5 2 C4.01 3.485 4.01 3.485 3 5 C-0.875 3.25 -0.875 3.25 -2 1 C-1.34 0.67 -0.68 0.34 0 0 Z " fill="#474748" transform="translate(77,102)"/>
<path d="M0 0 C4.19174654 1.04793663 5.21592961 1.91763635 8 5 C7.34 5.66 6.68 6.32 6 7 C4.02 4.69 2.04 2.38 0 0 Z " fill="#473C3F" transform="translate(91,93)"/>
<path d="M0 0 C1.32 0.66 2.64 1.32 4 2 C3.34 2 2.68 2 2 2 C2 2.66 2 3.32 2 4 C3.65 4.33 5.3 4.66 7 5 C4 6 4 6 0.8125 4.5625 C-0.115625 4.046875 -1.04375 3.53125 -2 3 C-1.34 2.67 -0.68 2.34 0 2 C0 1.34 0 0.68 0 0 Z " fill="#666667" transform="translate(87,108)"/>
<path d="M0 0 C0.66 0 1.32 0 2 0 C2 1.98 2 3.96 2 6 C1.01 6.33 0.02 6.66 -1 7 C-0.67 4.69 -0.34 2.38 0 0 Z " fill="#3E3E40" transform="translate(109,96)"/>
<path d="M0 0 C0.99 0 1.98 0 3 0 C2.6875 1.875 2.6875 1.875 2 4 C1.01 4.66 0.02 5.32 -1 6 C-1.042721 4.33388095 -1.04063832 2.66617115 -1 1 C-0.67 0.67 -0.34 0.34 0 0 Z " fill="#4B4B4B" transform="translate(77,86)"/>
<path d="M0 0 C-0.33 1.65 -0.66 3.3 -1 5 C-1.99 5 -2.98 5 -4 5 C-4 3.68 -4 2.36 -4 1 C-2 0 -2 0 0 0 Z " fill="#525253" transform="translate(95,84)"/>
<path d="M0 0 C2.475 0.495 2.475 0.495 5 1 C4.67 1.99 4.34 2.98 4 4 C2.68 3.67 1.36 3.34 0 3 C0 2.01 0 1.02 0 0 Z " fill="#DCDCDC" transform="translate(71,44)"/>
</svg>
