<?xml version="1.0" encoding="UTF-8"?>
<svg version="1.1" xmlns="http://www.w3.org/2000/svg" width="256" height="256">
<path d="M0 0 C2.58584266 0.6969199 3.82412176 1.72161145 5.79458618 3.52700806 C6.49029724 4.16350281 7.1860083 4.79999756 7.90280151 5.45578003 C11.85993474 9.2312365 15.7333082 13.08338727 19.58120728 16.96987915 C20.45298615 17.84544464 21.32476501 18.72101013 22.22296143 19.62310791 C25.45404292 22.86839212 28.68045879 26.11828993 31.9067688 29.36831665 C35.08719076 32.57155606 38.271327 35.77107348 41.45620728 38.96987915 C42.29573944 39.81770966 43.13527161 40.66554016 44.00024414 41.5390625 C44.77510162 42.31722321 45.54995911 43.09538391 46.34829712 43.89712524 C47.03032196 44.5843869 47.7123468 45.27164856 48.41503906 45.97973633 C50.04497196 47.65187326 50.04497196 47.65187326 52.12026978 48.57144165 C52.36390259 47.9990979 52.6075354 47.42675415 52.85855103 46.83706665 C58.79604066 36.17532056 73.36008229 29.06791369 84.68276978 25.57144165 C103.49333912 21.64087492 122.05847913 24.42654258 138.35122681 34.40493774 C152.15957199 43.51013693 161.98808617 58.31025156 165.74307251 74.38442993 C169.68566056 97.24378509 161.02319735 120.29601257 148.38418579 139.16299438 C146.90727262 141.41483553 146.90727262 141.41483553 147.37995148 143.53851891 C148.66137711 147.05732876 151.55818168 149.38791742 154.1847229 151.96060181 C154.81724472 152.59195541 155.44976654 153.22330902 156.10145569 153.87379456 C158.19459618 155.95974512 160.29804492 158.03497966 162.40151978 160.11050415 C163.85573483 161.55658447 165.30921663 163.00340249 166.76199341 164.45092773 C170.58898561 168.26079155 174.42445601 172.06200017 178.26217651 175.86105347 C184.40754487 181.94725068 190.54028818 188.04616353 196.67250061 194.14561081 C198.81975581 196.27886579 200.97075983 198.40828366 203.12234497 200.53717041 C204.43358336 201.83838867 205.74474482 203.13968447 207.05581665 204.44107056 C207.95976418 205.33255547 207.95976418 205.33255547 208.88197327 206.24205017 C214.02211843 211.35436497 214.02211843 211.35436497 214.43276978 216.44644165 C214.37367604 219.40112818 214.18591942 220.46202558 212.62026978 223.07144165 C209.78997738 224.76961709 207.5363468 225.32995546 204.22601318 225.12835693 C196.22216534 223.01154385 188.54224756 212.10865108 182.77939224 206.30572891 C180.9071481 204.42058969 179.03168234 202.53870783 177.15539551 200.65759277 C173.18251565 196.67336407 169.21361883 192.68518243 165.24526978 188.69644165 C160.62362719 184.05118737 156.00036078 179.40757312 151.37289047 174.76812363 C149.52394652 172.91269161 147.67803361 171.05427954 145.83221436 169.19573975 C144.70588635 168.06578159 143.57941904 166.93596226 142.45278931 165.80630493 C141.68293953 165.02870567 141.68293953 165.02870567 140.89753723 164.23539734 C138.2628523 161.56756834 138.2628523 161.56756834 135.12026978 159.57144165 C134.85995972 160.29130249 134.59964966 161.01116333 134.33145142 161.75283813 C133.06978313 164.68893173 131.57217129 167.0529938 129.74136353 169.6690979 C129.07121216 170.63057739 128.40106079 171.59205688 127.71060181 172.58267212 C127.00016724 173.58959106 126.28973267 174.59651001 125.55776978 175.63394165 C124.83702271 176.6614856 124.11627563 177.68902954 123.37368774 178.74771118 C109.04401993 199.10956657 109.04401993 199.10956657 106.12026978 200.57144165 C100.43598605 201.13055153 100.43598605 201.13055153 98.12026978 200.57144165 C94.22086107 197.2060284 91.18870823 193.22755689 88.18276978 189.07144165 C87.71604858 188.42908569 87.24932739 187.78672974 86.76846313 187.12490845 C38.05205705 119.43533161 38.05205705 119.43533161 37.87026978 87.50894165 C37.84964478 86.63044556 37.82901978 85.75194946 37.80776978 84.84683228 C37.77731264 79.6120126 38.38075673 75.85682768 40.30386353 70.97451782 C41.33961145 66.90286611 41.52969842 65.30278105 39.45309448 61.59346008 C36.63143994 58.35815414 33.65685877 55.44536508 30.51089478 52.53237915 C29.38467359 51.43670783 28.26181048 50.33757515 27.1421814 49.23516846 C24.19531198 46.35103935 21.20671401 43.51435154 18.20645142 40.6859436 C15.15493059 37.7950932 12.14261281 34.86404579 9.12808228 31.9347229 C5.7427403 28.64740659 2.35402979 25.36458697 -1.06619263 22.11352539 C-1.58419434 21.62006622 -2.10219604 21.12660706 -2.63589478 20.61819458 C-4.03563603 19.28649749 -5.43826403 17.95783651 -6.84109497 16.62939453 C-9.72009854 13.7231102 -9.85240062 12.91032871 -10.19223022 8.69644165 C-10.13313649 5.74175512 -9.94537986 4.68085772 -8.37973022 2.07144165 C-5.5570273 0.3778199 -3.30184936 -0.17993227 0 0 Z " fill="#E74444" transform="translate(25.879730224609375,15.428558349609375)"/>
<path d="M0 0 C13.15385208 9.99171168 23.1536414 24.49664703 26 41 C28.31152308 66.10463531 18.57478249 86.74982671 6 108 C3.10984919 106.68995776 1.03557826 105.28755525 -1.20800781 103.05078125 C-1.80832825 102.45676514 -2.40864868 101.86274902 -3.02716064 101.25073242 C-3.66272888 100.61111572 -4.29829712 99.97149902 -4.953125 99.3125 C-5.61334656 98.65419189 -6.27356812 97.99588379 -6.95379639 97.31762695 C-8.34470501 95.92807708 -9.73310008 94.53600726 -11.11914062 93.14160156 C-13.24909741 91.00090714 -15.38954496 88.8711209 -17.53125 86.7421875 C-18.88085039 85.39126613 -20.22983059 84.03972482 -21.578125 82.6875 C-22.22179016 82.0478833 -22.86545532 81.4082666 -23.52862549 80.74926758 C-28 76.22992911 -28 76.22992911 -28 74 C-27.0925 73.401875 -26.185 72.80375 -25.25 72.1875 C-20.0299798 68.67402486 -16.60105098 64.13928183 -15 58 C-14.11641449 50.87808785 -14.64701411 44.85534386 -19 39 C-23.8160302 33.63530813 -29.30141401 30.60699436 -36.44921875 29.68359375 C-42.45992094 29.39824648 -47.16246791 30.3284866 -52 34 C-54.85880756 36.85389552 -57.47089876 39.85207612 -60 43 C-66.55377097 37.61359076 -72.47246635 31.64114873 -78.4375 25.625 C-79.46525983 24.59221405 -80.49325285 23.55966009 -81.52148438 22.52734375 C-84.01701598 20.02089713 -86.50938082 17.5113292 -89 15 C-84.41642475 3.04826342 -71.96323441 -2.84348946 -60.8984375 -7.95703125 C-40.50587027 -15.29505746 -17.84075421 -11.7641628 0 0 Z " fill="#017297" transform="translate(166,51)"/>
<path d="M0 0 C5.55153557 4.62432301 10.68532596 9.5485616 15.78100586 14.66748047 C16.63058868 15.51691727 17.48017151 16.36635406 18.35549927 17.24153137 C20.66467735 19.55128322 22.97163402 21.86322545 25.27758861 24.17619467 C27.69542349 26.60031731 30.1161257 29.02157336 32.53651428 31.44314575 C37.11049497 36.02022386 41.68192244 40.59984313 46.25241905 45.18040001 C51.45968184 50.39887351 56.66981362 55.61447862 61.88017833 60.82985473 C72.58996199 71.55006675 83.29616999 82.27384317 94 93 C92.33594414 97.37466139 90.12466594 101.08132955 87.5 104.9375 C87.06075195 105.58920166 86.62150391 106.24090332 86.16894531 106.91235352 C81.57135224 113.69830272 76.81883526 120.36994735 72 127 C71.37609375 127.86367187 70.7521875 128.72734375 70.109375 129.6171875 C66.25772472 134.87113764 66.25772472 134.87113764 64 136 C58.31571627 136.55910987 58.31571627 136.55910987 56 136 C52.10059129 132.63458675 49.06843845 128.65611524 46.0625 124.5 C45.59577881 123.85764404 45.12905762 123.21528809 44.64819336 122.5534668 C-6.43745672 51.57191635 -6.43745672 51.57191635 -4 12 C-2.38413879 2.38413879 -2.38413879 2.38413879 0 0 Z " fill="#017197" transform="translate(68,80)"/>
<path d="M0 0 C5.82383375 3.56638679 10.32338571 8.95288688 12.3984375 15.46875 C13.56416371 23.45704223 12.02478631 29.86956916 7.3984375 36.46875 C4.36118498 39.73861486 1.65206346 42.05087468 -2.6015625 43.46875 C-12.8315625 33.23875 -23.0615625 23.00875 -33.6015625 12.46875 C-31.71925809 7.76298898 -30.90036669 6.41913952 -27.2890625 3.28125 C-26.52980469 2.60707031 -25.77054687 1.93289062 -24.98828125 1.23828125 C-17.36793622 -4.41149993 -8.3814977 -3.70160782 0 0 Z " fill="#E7F6F7" transform="translate(139.6015625,82.53125)"/>
</svg>
