<?xml version="1.0" encoding="UTF-8"?>
<svg version="1.1" xmlns="http://www.w3.org/2000/svg" width="512" height="512">
<path d="M0 0 C0.64499899 -0.00581376 1.28999798 -0.01162753 1.9545424 -0.01761746 C4.12498902 -0.03226465 6.29431304 -0.01831169 8.4647522 -0.00457001 C10.03278369 -0.0091771 11.60081086 -0.01552872 13.16882896 -0.02347898 C17.48478413 -0.04022198 21.80038684 -0.03190353 26.1163435 -0.01953411 C30.76808788 -0.01050619 35.41977047 -0.0244421 40.07150269 -0.0354538 C49.18704571 -0.0532678 58.30245722 -0.04938623 67.41800547 -0.03780323 C74.82444751 -0.0287805 82.23085262 -0.02753988 89.63729858 -0.0318985 C91.21670921 -0.0328179 91.21670921 -0.0328179 92.82802713 -0.03375587 C94.96685808 -0.03503473 97.10568902 -0.03633158 99.24451995 -0.03764623 C119.31425233 -0.04906047 139.38391171 -0.0359251 159.45363212 -0.01444477 C176.68540273 0.00342697 193.91706556 0.0003231 211.14883423 -0.01811981 C231.14530272 -0.03951163 251.14170717 -0.04796176 271.1381855 -0.03567076 C273.2692782 -0.03439652 275.40037091 -0.03313904 277.53146362 -0.0318985 C279.10439228 -0.03097285 279.10439228 -0.03097285 280.70909727 -0.03002849 C288.10917085 -0.02657052 295.50920393 -0.03241355 302.90927124 -0.04181671 C311.92388231 -0.05301933 320.93835401 -0.05003331 329.95294905 -0.02869374 C334.55495598 -0.01815986 339.15673029 -0.01410112 343.75873566 -0.02729034 C347.96804404 -0.03917192 352.17690325 -0.03272222 356.38617063 -0.01138014 C357.91235255 -0.00689601 359.4385721 -0.00922074 360.96473002 -0.01888329 C363.03328665 -0.03097964 365.10028796 -0.0186444 367.16876221 0 C368.31942484 0.00064941 369.47008747 0.00129882 370.65561867 0.00196791 C374.22485003 0.61301121 375.40389769 1.66515845 377.5843811 4.50336456 C378.09231567 6.96955109 378.09231567 6.96955109 378.10195923 9.75922394 C378.11456787 10.8071109 378.12717651 11.85499786 378.14016724 12.93463898 C378.12802185 14.62381439 378.12802185 14.62381439 378.1156311 16.34711456 C378.11945801 17.50835846 378.12328491 18.66960236 378.12722778 19.86603546 C378.12994902 22.32051206 378.12257315 24.77501754 378.10586548 27.22943878 C378.08446076 30.98937298 378.10566198 34.74739615 378.1312561 38.50727081 C378.12861287 40.89138962 378.12348798 43.27550724 378.1156311 45.65961456 C378.12372803 46.78573151 378.13182495 47.91184845 378.14016724 49.07209015 C378.12125427 50.64392059 378.12125427 50.64392059 378.10195923 52.24750519 C378.09877686 53.16809723 378.09559448 54.08868927 378.09231567 55.03717804 C377.42509481 58.27675101 376.16859456 59.49908052 373.5843811 61.50336456 C372.5943811 61.50336456 371.6043811 61.50336456 370.5843811 61.50336456 C370.5843811 67.11336456 370.5843811 72.72336456 370.5843811 78.50336456 C372.2343811 79.16336456 373.8843811 79.82336456 375.5843811 80.50336456 C377.5843811 82.50336456 377.5843811 82.50336456 377.82489014 84.33835602 C377.82044891 85.08004028 377.81600769 85.82172455 377.81143188 86.58588409 C377.81128082 87.42660461 377.81112976 88.26732513 377.81097412 89.13352203 C377.80065155 90.04189819 377.79032898 90.95027435 377.7796936 91.88617706 C377.77544876 93.28028305 377.77544876 93.28028305 377.77111816 94.7025528 C377.75990179 97.67795306 377.73479471 100.65305491 377.7093811 103.62836456 C377.69935318 105.64268314 377.69022701 107.65700642 377.68203735 109.67133331 C377.65995771 114.61545913 377.62541804 119.55936121 377.5843811 124.50336456 C378.77982544 124.47194366 378.77982544 124.47194366 379.99942017 124.439888 C383.61094545 124.35673134 387.22226934 124.30470422 390.8343811 124.25336456 C392.08863892 124.21984894 393.34289673 124.18633331 394.63516235 124.15180206 C395.84043579 124.13891144 397.04570923 124.12602081 398.2875061 124.11273956 C399.39771118 124.0917923 400.50791626 124.07084503 401.65176392 124.049263 C405.3491853 124.62179079 406.29089625 125.59210751 408.5843811 128.50336456 C409.08577776 131.25735956 409.08577776 131.25735956 409.08774567 134.49337864 C409.09817666 135.72768118 409.10860765 136.96198372 409.11935472 138.23368937 C409.11070616 139.60565233 409.10167952 140.97761296 409.09231567 142.34957123 C409.09692321 143.80536951 409.10327514 145.26116315 409.11122465 146.71694702 C409.127963 150.72295608 409.11965122 154.72858525 409.10727978 158.73459589 C409.09824936 163.05313958 409.11218939 167.37161681 409.12319946 171.6901474 C409.14101397 180.15431846 409.13713077 188.61834787 409.1255489 197.08252455 C409.11652218 203.96402161 409.11528729 210.84547893 409.11964417 217.72698021 C409.1202571 218.70574018 409.12087003 219.68450014 409.12150154 220.6929195 C409.12278043 222.68122834 409.12407728 224.66953716 409.1253919 226.65784597 C409.13680736 245.31809687 409.12367105 263.97826927 409.10219043 282.6385073 C409.08433815 298.6417576 409.08740626 314.64489178 409.10586548 330.64813995 C409.12728891 349.22991487 409.13568801 367.81162079 409.12341642 386.39340633 C409.12214224 388.37661706 409.12088476 390.35982781 409.11964417 392.34303856 C409.11871851 393.80668943 409.11871851 393.80668943 409.11777416 395.29990901 C409.11432422 402.16770231 409.12014236 409.03545179 409.12956238 415.9032383 C409.14080096 424.28121727 409.13770411 432.6590464 409.1164394 441.03700829 C409.10595094 445.30976987 409.10176909 449.58228196 409.11503601 453.8550415 C409.12701292 457.77174328 409.12031083 461.68796591 409.0991258 465.60462462 C409.0946818 467.01653052 409.09687615 468.42847745 409.10662895 469.84035666 C409.18150513 481.58728589 407.32786374 491.25632757 399.6312561 500.43305206 C390.85704572 509.3077305 381.73175132 512.78083025 369.3856641 512.90393511 C367.18039839 512.90947288 364.97545195 512.90036953 362.77020264 512.89104462 C361.16159884 512.89522126 359.55299799 512.90070059 357.94440258 512.90736443 C353.53930062 512.92179444 349.13438615 512.91758196 344.72927403 512.91019762 C339.97251339 512.90546219 335.21579308 512.91797913 330.45904541 512.92821503 C321.14601237 512.94540109 311.8330468 512.94624342 302.52000202 512.94100212 C294.94927006 512.93695877 287.37855801 512.93840595 279.807827 512.94375038 C278.19083371 512.94487301 278.19083371 512.94487301 276.5411739 512.94601833 C274.35114074 512.94754982 272.16110759 512.94908817 269.97107445 512.95063329 C249.43853699 512.96435769 228.90603764 512.95892111 208.37350105 512.94744808 C189.59620717 512.93751616 170.81901184 512.95045581 152.04173316 512.97438227 C132.7532032 512.99877469 113.46471912 513.00838076 94.17617404 513.00172955 C83.35033164 512.9982376 72.52456502 513.0004678 61.69873428 513.01798058 C52.4827986 513.03270432 43.26699206 513.0333357 34.0510589 513.01590966 C29.35093427 513.0073987 24.65104033 513.00525253 19.95092773 513.02056122 C15.64400934 513.03441533 11.33751912 513.02963591 7.03062545 513.01032198 C5.47687448 513.00656388 3.92308915 513.00947848 2.36936881 513.01993363 C-9.74726683 513.09563697 -19.81649881 511.5421427 -29.3453064 503.55023956 C-38.3193642 494.67777487 -41.72944519 485.34833953 -41.82151121 472.9063651 C-41.81550116 471.67853285 -41.80949112 470.4507006 -41.80329895 469.18566132 C-41.80747759 467.84842953 -41.81295801 466.5112013 -41.81961876 465.17397958 C-41.83402142 461.51925642 -41.8298451 457.86475976 -41.82245195 454.21002448 C-41.81770999 450.26117269 -41.83023882 446.31236919 -41.84046936 442.36353302 C-41.85763944 434.63702345 -41.85850153 426.91059526 -41.85325646 419.18407156 C-41.84921213 412.90618441 -41.85066141 406.62832127 -41.85600471 400.35043526 C-41.85675314 399.45636788 -41.85750156 398.5623005 -41.85827266 397.64114017 C-41.85980414 395.82482589 -41.86134249 394.00851162 -41.86288763 392.19219736 C-41.87660482 375.17314007 -41.87117925 358.1541288 -41.85970242 341.13507257 C-41.84975884 325.55720588 -41.86273149 309.97945778 -41.88663661 294.40160938 C-41.91099983 278.40483723 -41.92064307 262.40812038 -41.91398388 246.41133004 C-41.91048702 237.43067842 -41.9127551 228.45011813 -41.93023491 219.46948051 C-41.94492168 211.82923695 -41.9456381 204.18914913 -41.928164 196.54890873 C-41.91962464 192.64961496 -41.91757576 188.75059984 -41.93281555 184.85132027 C-41.94911281 180.62936851 -41.93457886 176.4080952 -41.91682434 172.1861496 C-41.92642935 170.94716374 -41.93603435 169.70817788 -41.94593042 168.431647 C-41.93611613 167.30409633 -41.92630184 166.17654565 -41.91619015 165.01482677 C-41.91608281 164.04002698 -41.91597547 163.06522718 -41.91586488 162.06088799 C-41.26861144 158.7517843 -40.04053823 157.55733066 -37.4156189 155.50336456 C-34.48300171 155.049263 -34.48300171 155.049263 -31.1187439 155.11273956 C-29.91347046 155.12563019 -28.70819702 155.13852081 -27.46640015 155.15180206 C-25.58501343 155.2020755 -25.58501343 155.2020755 -23.6656189 155.25336456 C-22.39589233 155.27141144 -21.12616577 155.28945831 -19.81796265 155.30805206 C-16.68308812 155.35519303 -13.5497333 155.42098792 -10.4156189 155.50336456 C-10.41930607 154.72883816 -10.42299324 153.95431175 -10.42679214 153.15631485 C-10.51508772 134.31983292 -10.58130146 115.48339223 -10.62286758 96.64674759 C-10.64350239 87.53751702 -10.67164045 78.4284245 -10.71737671 69.31928253 C-10.75721645 61.38075236 -10.78304503 53.44232214 -10.79197288 45.50369477 C-10.79719251 41.29929371 -10.80947936 37.09517864 -10.83853912 32.89086914 C-10.86566317 28.93461051 -10.87407011 24.97875604 -10.86804962 21.02241325 C-10.86915122 19.56954439 -10.87712337 18.1166622 -10.8924408 16.66387367 C-10.91231732 14.68165713 -10.90517902 12.69922436 -10.89663696 10.71692657 C-10.90032413 9.60708782 -10.90401131 8.49724907 -10.90781021 7.35377884 C-9.8197039 1.05225815 -5.83422976 0.00329271 0 0 Z " fill="#FEDF7C" transform="translate(72.41561889648438,-0.5033645629882813)"/>
<path d="M0 0 C0.64499899 -0.00581376 1.28999798 -0.01162753 1.9545424 -0.01761746 C4.12498902 -0.03226465 6.29431304 -0.01831169 8.4647522 -0.00457001 C10.03278369 -0.0091771 11.60081086 -0.01552872 13.16882896 -0.02347898 C17.48478413 -0.04022198 21.80038684 -0.03190353 26.1163435 -0.01953411 C30.76808788 -0.01050619 35.41977047 -0.0244421 40.07150269 -0.0354538 C49.18704571 -0.0532678 58.30245722 -0.04938623 67.41800547 -0.03780323 C74.82444751 -0.0287805 82.23085262 -0.02753988 89.63729858 -0.0318985 C91.21670921 -0.0328179 91.21670921 -0.0328179 92.82802713 -0.03375587 C94.96685808 -0.03503473 97.10568902 -0.03633158 99.24451995 -0.03764623 C119.31425233 -0.04906047 139.38391171 -0.0359251 159.45363212 -0.01444477 C176.68540273 0.00342697 193.91706556 0.0003231 211.14883423 -0.01811981 C231.14530272 -0.03951163 251.14170717 -0.04796176 271.1381855 -0.03567076 C273.2692782 -0.03439652 275.40037091 -0.03313904 277.53146362 -0.0318985 C279.10439228 -0.03097285 279.10439228 -0.03097285 280.70909727 -0.03002849 C288.10917085 -0.02657052 295.50920393 -0.03241355 302.90927124 -0.04181671 C311.92388231 -0.05301933 320.93835401 -0.05003331 329.95294905 -0.02869374 C334.55495598 -0.01815986 339.15673029 -0.01410112 343.75873566 -0.02729034 C347.96804404 -0.03917192 352.17690325 -0.03272222 356.38617063 -0.01138014 C357.91235255 -0.00689601 359.4385721 -0.00922074 360.96473002 -0.01888329 C363.03328665 -0.03097964 365.10028796 -0.0186444 367.16876221 0 C368.31942484 0.00064941 369.47008747 0.00129882 370.65561867 0.00196791 C374.22485003 0.61301121 375.40389769 1.66515845 377.5843811 4.50336456 C378.09231567 6.96955109 378.09231567 6.96955109 378.10195923 9.75922394 C378.11456787 10.8071109 378.12717651 11.85499786 378.14016724 12.93463898 C378.12802185 14.62381439 378.12802185 14.62381439 378.1156311 16.34711456 C378.11945801 17.50835846 378.12328491 18.66960236 378.12722778 19.86603546 C378.12994902 22.32051206 378.12257315 24.77501754 378.10586548 27.22943878 C378.08446076 30.98937298 378.10566198 34.74739615 378.1312561 38.50727081 C378.12861287 40.89138962 378.12348798 43.27550724 378.1156311 45.65961456 C378.12372803 46.78573151 378.13182495 47.91184845 378.14016724 49.07209015 C378.12125427 50.64392059 378.12125427 50.64392059 378.10195923 52.24750519 C378.09877686 53.16809723 378.09559448 54.08868927 378.09231567 55.03717804 C377.42563763 58.27411543 376.14263588 59.47380319 373.5843811 61.50336456 C370.6468811 62.06586456 370.6468811 62.06586456 367.5843811 61.50336456 C365.9343811 59.85336456 364.2843811 58.20336456 362.5843811 56.50336456 C362.5843811 42.97336456 362.5843811 29.44336456 362.5843811 15.50336456 C244.4443811 15.50336456 126.3043811 15.50336456 4.5843811 15.50336456 C4.5843811 61.70336456 4.5843811 107.90336456 4.5843811 155.50336456 C9.8643811 155.50336456 15.1443811 155.50336456 20.5843811 155.50336456 C20.56772652 153.28375755 20.56772652 153.28375755 20.55073547 151.01931 C20.44944532 137.08474956 20.37415621 123.15023693 20.32532024 109.21540546 C20.29954448 102.05106884 20.26440654 94.88700714 20.20718384 87.72284698 C20.15732893 81.47813902 20.1250855 75.23363015 20.11393863 68.9887287 C20.1074231 65.68231179 20.08949896 62.37659692 20.05573082 59.07032967 C20.01951568 55.37814723 20.01443292 51.68715066 20.01675415 47.99481964 C19.99877777 46.90005814 19.98080139 45.80529663 19.96228027 44.67736053 C19.9928574 40.19240112 20.14953119 37.28659897 22.34922791 33.32459259 C27.40734384 30.47712851 32.20338641 30.81569189 37.91445923 30.87226105 C39.79082314 30.86152809 39.79082314 30.86152809 41.70509338 30.85057831 C45.12912304 30.83657812 48.55163982 30.8449872 51.97554588 30.86466861 C55.56200416 30.88107467 59.14841378 30.87223951 62.7348938 30.86714935 C68.7572778 30.86263054 74.77935099 30.87848469 80.80166626 30.90644073 C87.75973272 30.938492 94.71723869 30.93847642 101.67534494 30.92122597 C108.37470417 30.90535024 115.07385833 30.91210106 121.77320862 30.92916298 C124.62162245 30.93602728 127.4698716 30.93500752 130.31828308 30.92761803 C134.29717295 30.91851928 138.27548912 30.94251343 142.25430298 30.9699173 C144.02492348 30.96012848 144.02492348 30.96012848 145.83131409 30.95014191 C150.20165007 31.00139204 153.72522129 31.16904287 157.81556702 32.76070404 C160.840751 37.45144726 160.26842516 42.46657249 160.21548462 47.91938019 C160.22621758 49.82719521 160.22621758 49.82719521 160.23716736 51.77355194 C160.25568443 55.25927519 160.24274191 58.74423372 160.22307706 62.22992516 C160.20669123 65.87825028 160.21550334 69.52652693 160.22059631 73.17487335 C160.22511738 79.30158453 160.20924695 85.42799042 160.18130493 91.55463409 C160.14925266 98.63709668 160.14926852 105.71900865 160.1665197 112.80151033 C160.18238565 119.61566602 160.1756509 126.42961992 160.15858269 133.24376678 C160.15171151 136.14324569 160.15274522 139.04256286 160.16012764 141.94203949 C160.16921406 145.99078694 160.14525363 150.03868434 160.11782837 154.08734894 C160.12761719 155.89377113 160.12761719 155.89377113 160.13760376 157.73668671 C160.11851707 159.389645 160.11851707 159.389645 160.0990448 161.0759964 C160.09623788 162.033153 160.09343096 162.9903096 160.09053898 163.97647095 C159.4306145 167.27101408 158.2099908 168.46458909 155.5843811 170.50336456 C152.94037224 170.90644851 150.70528888 171.06810742 148.06192017 171.049263 C146.93450661 171.06476952 146.93450661 171.06476952 145.78431702 171.08058929 C143.30599503 171.1100301 140.82848926 171.11151667 138.3500061 171.11273956 C136.62934816 171.12772042 134.90870459 171.14444737 133.18807983 171.16284943 C128.66386253 171.20654606 124.13983919 171.22652707 119.615448 171.24158478 C114.99690266 171.26114758 110.37856706 171.3031185 105.76016235 171.34320831 C96.70163326 171.41853539 87.64315106 171.46881169 78.5843811 171.50336456 C85.40008368 180.7784038 85.40008368 180.7784038 95.19845581 186.27173615 C102.15309907 187.27509669 109.15132221 186.89295377 116.1468811 186.56586456 C119.28265845 186.46920481 122.4169739 186.39298628 125.55384827 186.34331512 C127.49123816 186.30759503 129.42837674 186.24240056 131.36357117 186.14351654 C135.95562521 186.00951659 137.89559214 185.98635156 141.67788696 188.82538605 C143.5843811 191.50336456 143.5843811 191.50336456 144.1468811 194.56586456 C143.41715728 198.37664453 142.74760929 199.22558362 139.5843811 201.50336456 C131.5878463 203.5038806 122.90696784 203.38342221 114.7093811 203.62836456 C112.87322235 203.68539047 112.87322235 203.68539047 110.99996948 203.74356842 C88.89492624 204.1129329 88.89492624 204.1129329 82.48477173 198.55756378 C80.32996741 196.13754189 78.41676625 193.63371259 76.57519531 190.96979523 C76.0615807 190.24684202 75.54796608 189.52388882 75.01878738 188.77902794 C74.02476802 187.36828125 73.04718628 185.94570497 72.09189987 184.50844765 C67.69211962 178.2385399 62.22111986 172.79409583 54.52603912 171.03203416 C42.17408945 169.07839806 29.40515767 169.72322586 16.95001984 170.00554276 C12.05508032 170.10010436 7.16002792 170.10778025 2.26431274 170.12335968 C-7.29768628 170.16629892 -16.85569234 170.30384237 -26.4156189 170.50336456 C-26.37962214 209.5876004 -26.32268724 248.67175447 -26.23769794 287.75591585 C-26.22768057 292.37086914 -26.21783643 296.98582278 -26.20809937 301.60077667 C-26.20615799 302.51952523 -26.20421662 303.43827378 -26.20221642 304.38486321 C-26.17120106 319.25825689 -26.15421706 334.13163514 -26.14242467 349.00505506 C-26.13001072 364.26822002 -26.10250377 379.53130405 -26.06100583 394.79441792 C-26.03587745 404.21148273 -26.02250114 413.62841333 -26.02418932 423.04551215 C-26.02421909 429.50445403 -26.00957942 435.96325925 -25.98345461 442.42214786 C-25.96881673 446.14781351 -25.96059866 449.87319892 -25.96981621 453.5988884 C-25.97965026 457.64225942 -25.958569 461.68489103 -25.93460083 465.72820282 C-25.94236125 466.90039932 -25.95012167 468.07259582 -25.95811725 469.28031343 C-25.87109912 477.57200078 -24.39585881 483.77806467 -19.1656189 490.31586456 C-11.07240444 496.75364879 -4.32560381 497.07519264 5.71987915 496.98438263 C7.1580924 496.98612857 8.59630441 496.9896339 10.03450966 496.99473929 C13.97294528 497.00365878 17.91094357 496.98771768 21.84932351 496.96762705 C26.10143756 496.95032257 30.35352775 496.95620087 34.60566711 496.95923615 C41.96823958 496.96133162 49.33067004 496.94880187 56.69320679 496.92628479 C67.33812106 496.89375034 77.9829668 496.88335629 88.6279254 496.87833282 C105.89941959 496.86958244 123.17083813 496.84297382 140.44229126 496.80512238 C157.21800356 496.76839565 173.9936953 496.74008712 190.7694397 496.72309113 C191.80382537 496.72204023 192.83821105 496.72098934 193.90394175 496.7199066 C199.09324927 496.71468638 204.28255694 496.70963156 209.4718647 496.70465899 C252.50942256 496.66320495 295.54689792 496.59276349 338.5843811 496.50336456 C337.9862561 495.71961456 337.3881311 494.93586456 336.7718811 494.12836456 C331.63449637 486.31723723 331.14837633 477.80520731 331.22361755 468.70890045 C331.22105428 467.56104509 331.218491 466.41318974 331.21585006 465.23055089 C331.21093071 461.40581598 331.22737506 457.58148073 331.24380493 453.75678253 C331.24632521 451.00657148 331.2443072 448.25636807 331.24247742 445.50615692 C331.24090891 439.59619681 331.25027369 433.68633652 331.26719093 427.77640152 C331.291634 419.23177982 331.29939161 410.6872061 331.30315491 402.14255323 C331.30971109 388.27744479 331.32964958 374.41238949 331.35806274 360.54730988 C331.38562492 347.08344538 331.40684792 333.61959535 331.41958618 320.15570831 C331.42037435 319.32496378 331.42116252 318.49421925 331.42197458 317.63830064 C331.42588986 313.4704512 331.42968094 309.30260165 331.43341029 305.13475204 C331.46448024 270.59091799 331.51729327 236.04714702 331.5843811 201.50336456 C330.30663252 201.50889532 330.30663252 201.50889532 329.00307083 201.51453781 C308.28891682 201.6028237 287.57479517 201.66904243 266.86049271 201.71061325 C256.84325662 201.73125025 246.82614603 201.75939256 236.80899048 201.80512238 C228.0793947 201.84495533 219.34988978 201.8707891 210.62020564 201.87971854 C205.99663087 201.8849393 201.37331608 201.89723351 196.74982452 201.92628479 C192.39960315 201.95339801 188.04974929 201.9618179 183.69945145 201.95579529 C182.10145446 201.95689737 180.50344541 201.96487577 178.90552139 201.98018646 C176.72569424 202.00005139 174.54725963 201.99531796 172.36740112 201.98438263 C170.53672026 201.98991339 170.53672026 201.98991339 168.66905594 201.99555588 C164.9758227 201.40626287 163.80049797 200.46539447 161.5843811 197.50336456 C161.0218811 194.56586456 161.0218811 194.56586456 161.5843811 191.50336456 C164.20433129 188.1719403 165.68845807 186.67082326 169.90586948 185.8825388 C171.17920108 185.88455012 172.45253267 185.88656145 173.76445007 185.88863373 C174.47643804 185.88295047 175.18842602 185.87726722 175.92198938 185.87141174 C178.30232103 185.85851598 180.68094953 185.88128942 183.06118774 185.90399933 C184.76970272 185.9021351 186.47821651 185.89809811 188.1867218 185.8920517 C192.82314328 185.88207362 197.45895381 185.90325227 202.09528661 185.93053174 C206.94608591 185.95435544 211.79687296 185.95141674 216.64772034 185.95183563 C224.79280953 185.9564641 232.93766502 185.9801096 241.08267212 186.01630402 C250.50249935 186.05805172 259.92211615 186.07561968 269.34203058 186.07892376 C279.36754467 186.08252218 289.39298292 186.10139488 299.41846538 186.12604403 C302.30904277 186.13227514 305.19961439 186.13590988 308.09019661 186.13907814 C312.63005763 186.14497555 317.16976803 186.16127986 321.70956612 186.1856823 C323.37687516 186.19312744 325.04420317 186.19719456 326.71152878 186.19766235 C328.98494015 186.19891867 331.25795344 186.21245273 333.53129578 186.2292099 C334.80425035 186.23386041 336.07720491 186.23851091 337.38873386 186.24330235 C340.43609779 186.49129725 342.09950159 186.77658174 344.5843811 188.50336456 C346.71848987 191.70452772 346.8338194 192.4953976 346.83047676 196.16728497 C346.83445886 197.13119189 346.83844095 198.09509882 346.84254372 199.08821505 C346.83671804 200.14948731 346.83089236 201.21075957 346.82489014 202.30419159 C346.82745341 203.99250185 346.82745341 203.99250185 346.83006847 205.71491939 C346.83337636 209.50603709 346.8223382 213.29697982 346.81143188 217.08808136 C346.80975589 219.79785017 346.81109561 222.50761549 346.81231689 225.21738434 C346.81336659 231.06141933 346.80708121 236.90540974 346.79584122 242.74943352 C346.77960056 251.1989478 346.77437968 259.64844048 346.77186523 268.09796868 C346.76748587 281.80611091 346.75417024 295.51422938 346.73526001 309.2223587 C346.71690744 322.54006582 346.70274789 335.85776649 346.69424438 349.1754837 C346.69371894 349.99611932 346.69319349 350.81675493 346.69265212 351.66225829 C346.69004208 355.77906594 346.68751466 359.89587364 346.68502831 364.01268137 C346.66428831 398.17625971 346.62890776 432.33980918 346.5843811 466.50336456 C351.8643811 466.50336456 357.1443811 466.50336456 362.5843811 466.50336456 C362.58069393 464.53317226 362.57700676 462.56297997 362.57320786 460.53308487 C362.48636723 413.79934774 362.42064999 367.0656175 362.38011979 320.33181636 C362.37511676 314.58382317 362.36993949 308.83583015 362.36465454 303.08783722 C362.3636053 301.943481 362.36255606 300.79912479 362.36147502 299.62009111 C362.34405413 281.07353597 362.31250719 262.52703026 362.27576992 243.98050448 C362.23840732 224.96011953 362.21615517 205.93976052 362.20802712 186.91934037 C362.20252963 175.17599155 362.18514583 163.43278242 362.15271524 151.68947658 C362.13162511 143.64441543 362.12516855 135.59942684 362.13037559 127.55434003 C362.13294597 122.90778718 362.12891504 118.26147897 362.1075592 113.61496925 C362.08816703 109.36482472 362.08706298 105.11509055 362.10078552 100.86492756 C362.10248279 99.32380856 362.09734641 97.78266449 362.08484837 96.24159524 C362.068888 94.15289209 362.07738771 92.06568701 362.09218979 89.97700882 C362.09067091 88.81506461 362.08915203 87.6531204 362.08758712 86.45596576 C362.69365346 82.85392495 363.72437535 81.70585694 366.5843811 79.50336456 C369.5218811 78.50336456 369.5218811 78.50336456 372.5843811 78.50336456 C375.24526978 79.90473175 375.24526978 79.90473175 377.5843811 82.50336456 C378.28369237 85.699403 378.16628795 88.82335518 378.07266235 92.08148956 C378.06558762 93.00806366 378.05851288 93.93463776 378.05122375 94.88928986 C378.02326481 97.84480742 377.96052382 100.798421 377.8968811 103.75336456 C377.87180016 105.75854551 377.84898663 107.76375619 377.82852173 109.76898956 C377.77343315 114.68117999 377.68715022 119.59194964 377.5843811 124.50336456 C378.77982544 124.47194366 378.77982544 124.47194366 379.99942017 124.439888 C383.61094545 124.35673134 387.22226934 124.30470422 390.8343811 124.25336456 C392.08863892 124.21984894 393.34289673 124.18633331 394.63516235 124.15180206 C395.84043579 124.13891144 397.04570923 124.12602081 398.2875061 124.11273956 C399.39771118 124.0917923 400.50791626 124.07084503 401.65176392 124.049263 C405.3491853 124.62179079 406.29089625 125.59210751 408.5843811 128.50336456 C409.08577776 131.25735956 409.08577776 131.25735956 409.08774567 134.49337864 C409.09817666 135.72768118 409.10860765 136.96198372 409.11935472 138.23368937 C409.11070616 139.60565233 409.10167952 140.97761296 409.09231567 142.34957123 C409.09692321 143.80536951 409.10327514 145.26116315 409.11122465 146.71694702 C409.127963 150.72295608 409.11965122 154.72858525 409.10727978 158.73459589 C409.09824936 163.05313958 409.11218939 167.37161681 409.12319946 171.6901474 C409.14101397 180.15431846 409.13713077 188.61834787 409.1255489 197.08252455 C409.11652218 203.96402161 409.11528729 210.84547893 409.11964417 217.72698021 C409.1202571 218.70574018 409.12087003 219.68450014 409.12150154 220.6929195 C409.12278043 222.68122834 409.12407728 224.66953716 409.1253919 226.65784597 C409.13680736 245.31809687 409.12367105 263.97826927 409.10219043 282.6385073 C409.08433815 298.6417576 409.08740626 314.64489178 409.10586548 330.64813995 C409.12728891 349.22991487 409.13568801 367.81162079 409.12341642 386.39340633 C409.12214224 388.37661706 409.12088476 390.35982781 409.11964417 392.34303856 C409.11871851 393.80668943 409.11871851 393.80668943 409.11777416 395.29990901 C409.11432422 402.16770231 409.12014236 409.03545179 409.12956238 415.9032383 C409.14080096 424.28121727 409.13770411 432.6590464 409.1164394 441.03700829 C409.10595094 445.30976987 409.10176909 449.58228196 409.11503601 453.8550415 C409.12701292 457.77174328 409.12031083 461.68796591 409.0991258 465.60462462 C409.0946818 467.01653052 409.09687615 468.42847745 409.10662895 469.84035666 C409.18150513 481.58728589 407.32786374 491.25632757 399.6312561 500.43305206 C390.85704572 509.3077305 381.73175132 512.78083025 369.3856641 512.90393511 C367.18039839 512.90947288 364.97545195 512.90036953 362.77020264 512.89104462 C361.16159884 512.89522126 359.55299799 512.90070059 357.94440258 512.90736443 C353.53930062 512.92179444 349.13438615 512.91758196 344.72927403 512.91019762 C339.97251339 512.90546219 335.21579308 512.91797913 330.45904541 512.92821503 C321.14601237 512.94540109 311.8330468 512.94624342 302.52000202 512.94100212 C294.94927006 512.93695877 287.37855801 512.93840595 279.807827 512.94375038 C278.19083371 512.94487301 278.19083371 512.94487301 276.5411739 512.94601833 C274.35114074 512.94754982 272.16110759 512.94908817 269.97107445 512.95063329 C249.43853699 512.96435769 228.90603764 512.95892111 208.37350105 512.94744808 C189.59620717 512.93751616 170.81901184 512.95045581 152.04173316 512.97438227 C132.7532032 512.99877469 113.46471912 513.00838076 94.17617404 513.00172955 C83.35033164 512.9982376 72.52456502 513.0004678 61.69873428 513.01798058 C52.4827986 513.03270432 43.26699206 513.0333357 34.0510589 513.01590966 C29.35093427 513.0073987 24.65104033 513.00525253 19.95092773 513.02056122 C15.64400934 513.03441533 11.33751912 513.02963591 7.03062545 513.01032198 C5.47687448 513.00656388 3.92308915 513.00947848 2.36936881 513.01993363 C-9.74726683 513.09563697 -19.81649881 511.5421427 -29.3453064 503.55023956 C-38.3193642 494.67777487 -41.72944519 485.34833953 -41.82151121 472.9063651 C-41.81550116 471.67853285 -41.80949112 470.4507006 -41.80329895 469.18566132 C-41.80747759 467.84842953 -41.81295801 466.5112013 -41.81961876 465.17397958 C-41.83402142 461.51925642 -41.8298451 457.86475976 -41.82245195 454.21002448 C-41.81770999 450.26117269 -41.83023882 446.31236919 -41.84046936 442.36353302 C-41.85763944 434.63702345 -41.85850153 426.91059526 -41.85325646 419.18407156 C-41.84921213 412.90618441 -41.85066141 406.62832127 -41.85600471 400.35043526 C-41.85675314 399.45636788 -41.85750156 398.5623005 -41.85827266 397.64114017 C-41.85980414 395.82482589 -41.86134249 394.00851162 -41.86288763 392.19219736 C-41.87660482 375.17314007 -41.87117925 358.1541288 -41.85970242 341.13507257 C-41.84975884 325.55720588 -41.86273149 309.97945778 -41.88663661 294.40160938 C-41.91099983 278.40483723 -41.92064307 262.40812038 -41.91398388 246.41133004 C-41.91048702 237.43067842 -41.9127551 228.45011813 -41.93023491 219.46948051 C-41.94492168 211.82923695 -41.9456381 204.18914913 -41.928164 196.54890873 C-41.91962464 192.64961496 -41.91757576 188.75059984 -41.93281555 184.85132027 C-41.94911281 180.62936851 -41.93457886 176.4080952 -41.91682434 172.1861496 C-41.92642935 170.94716374 -41.93603435 169.70817788 -41.94593042 168.431647 C-41.93611613 167.30409633 -41.92630184 166.17654565 -41.91619015 165.01482677 C-41.91608281 164.04002698 -41.91597547 163.06522718 -41.91586488 162.06088799 C-41.26861144 158.7517843 -40.04053823 157.55733066 -37.4156189 155.50336456 C-34.48300171 155.049263 -34.48300171 155.049263 -31.1187439 155.11273956 C-29.91347046 155.12563019 -28.70819702 155.13852081 -27.46640015 155.15180206 C-25.58501343 155.2020755 -25.58501343 155.2020755 -23.6656189 155.25336456 C-22.39589233 155.27141144 -21.12616577 155.28945831 -19.81796265 155.30805206 C-16.68308812 155.35519303 -13.5497333 155.42098792 -10.4156189 155.50336456 C-10.41930607 154.72883816 -10.42299324 153.95431175 -10.42679214 153.15631485 C-10.51508772 134.31983292 -10.58130146 115.48339223 -10.62286758 96.64674759 C-10.64350239 87.53751702 -10.67164045 78.4284245 -10.71737671 69.31928253 C-10.75721645 61.38075236 -10.78304503 53.44232214 -10.79197288 45.50369477 C-10.79719251 41.29929371 -10.80947936 37.09517864 -10.83853912 32.89086914 C-10.86566317 28.93461051 -10.87407011 24.97875604 -10.86804962 21.02241325 C-10.86915122 19.56954439 -10.87712337 18.1166622 -10.8924408 16.66387367 C-10.91231732 14.68165713 -10.90517902 12.69922436 -10.89663696 10.71692657 C-10.90032413 9.60708782 -10.90401131 8.49724907 -10.90781021 7.35377884 C-9.8197039 1.05225815 -5.83422976 0.00329271 0 0 Z " fill="#010101" transform="translate(72.41561889648438,-0.5033645629882813)"/>
<path d="M0 0 C118.14 0 236.28 0 358 0 C358.33 13.53 358.66 27.06 359 41 C362.47825081 45.0745356 362.47825081 45.0745356 366 46 C366 51.61 366 57.22 366 63 C364.02 63.99 362.04 64.98 360 66 C358.60140486 68.79719028 358.86849269 71.0964851 358.8613348 74.2275486 C358.85707147 75.20098081 358.85707147 75.20098081 358.85272202 76.19407833 C358.8443363 78.3896215 358.84310379 80.58511217 358.84178162 82.78067017 C358.8372189 84.3621961 358.83221931 85.94372082 358.82681805 87.52524412 C358.81319445 91.88752554 358.80580641 96.24979914 358.79939139 100.61209631 C358.79140593 105.31013759 358.77770181 110.00816249 358.76467896 114.70619202 C358.74288982 122.851289 358.72475427 130.99638762 358.70907402 139.14149857 C358.68639754 150.91807914 358.65825166 162.6946416 358.62875474 174.47120683 C358.58105154 193.57617417 358.53779477 212.6811489 358.49731445 231.78613281 C358.45797339 250.34896419 358.41655052 268.91178899 358.37231445 287.47460938 C358.36822804 289.18985016 358.36822804 289.18985016 358.36405908 290.93974228 C358.35037983 296.67610039 358.33665952 302.41245839 358.32291877 308.14881635 C358.20891114 355.76586388 358.10218504 403.38292574 358 451 C352.72 451 347.44 451 342 451 C341.99365209 448.87823349 341.99365209 448.87823349 341.98717594 446.71360302 C341.8865699 413.16007395 341.78087399 379.60656468 341.66888306 346.05307166 C341.65511295 341.92608761 341.64138594 337.79910342 341.62768555 333.67211914 C341.62495724 332.85048701 341.62222894 332.02885488 341.61941796 331.1823248 C341.57530454 317.86654805 341.53468414 304.55076281 341.49534739 291.23497119 C341.45492746 277.57874381 341.4107706 263.92253224 341.36312145 250.26632816 C341.3338216 241.83505961 341.30746063 233.40379227 341.28482103 224.97250316 C341.26903191 219.19625902 341.24962349 213.42003422 341.22733159 207.64381155 C341.21456521 204.30782226 341.20396562 200.9718628 341.19658089 197.63585472 C341.18833582 194.02414541 341.17406358 190.41250979 341.15821838 186.80082703 C341.15675122 185.20891864 341.15675122 185.20891864 341.15525442 183.58485049 C341.14977998 182.62094356 341.14430554 181.65703663 341.1386652 180.6639204 C341.13600716 179.82967484 341.13334911 178.99542927 341.13061053 178.13590354 C341.08061348 175.81228319 341.08061348 175.81228319 340 173 C336.50945825 171.53963062 332.66479379 171.86532025 328.94018555 171.85282898 C328.229052 171.84915229 327.51791845 171.8454756 326.7852354 171.8416875 C324.40238918 171.83067436 322.01958659 171.82681094 319.63671875 171.82299805 C317.9283535 171.81673187 316.2199896 171.81008493 314.5116272 171.80308533 C308.90359441 171.78207024 303.29556142 171.77168898 297.6875 171.76171875 C295.75719183 171.75767099 293.8268838 171.75355406 291.89657593 171.74936867 C282.83248692 171.73032682 273.76840604 171.71609067 264.70430088 171.7077567 C254.23467196 171.69797152 243.76525375 171.67161449 233.29569912 171.63125581 C225.20559983 171.60113682 217.11556112 171.58629205 209.02540684 171.58297569 C204.19175934 171.58062141 199.35833722 171.57161131 194.52474976 171.54651451 C189.98075895 171.52330086 185.43714302 171.51897333 180.89310837 171.52927589 C179.22416311 171.52977292 177.55519981 171.52340359 175.88631058 171.50971985 C173.61035832 171.49210003 171.3357662 171.49905648 169.05981445 171.51225281 C167.78556107 171.50986445 166.51130768 171.5074761 165.19844055 171.50501537 C161.40458399 172.09214546 160.32725767 173.01862094 158 176 C157.34 176.99 156.68 177.98 156 179 C153.04935852 179.2208564 150.31631769 179.28060989 147.375 179.1875 C146.57320312 179.17396484 145.77140625 179.16042969 144.9453125 179.14648438 C142.96325622 179.11109051 140.98154449 179.05728234 139 179 C138.54625 178.030625 138.0925 177.06125 137.625 176.0625 C136.34213779 172.92920418 136.34213779 172.92920418 134 172 C132.59671482 171.95737746 131.1912125 171.97842967 129.78833008 172.03271484 C124.86486683 172.19339075 119.94558623 172.27145331 115.01977539 172.32128906 C112.90428731 172.35671628 110.78904998 172.41704977 108.67504883 172.50390625 C90.16144397 173.22644524 90.16144397 173.22644524 83.16552734 167.60253906 C79.39761448 164.07907215 75.90658772 160.27276163 73 156 C73 155.67 73 155.34 73 155 C73.97052811 154.99413376 74.94105621 154.98826752 75.94099426 154.98222351 C85.07894885 154.92505704 94.21666407 154.85232755 103.35437489 154.76428509 C108.05239466 154.7195216 112.7503265 154.68027882 117.44848633 154.65356445 C121.98089665 154.6275909 126.5129697 154.58723115 131.04517174 154.53681374 C132.7759145 154.52010463 134.50671564 154.50861559 136.23752785 154.50238609 C138.65846903 154.49278868 141.07853949 154.46478329 143.49926758 154.43237305 C144.21783936 154.43380814 144.93641113 154.43524323 145.67675781 154.4367218 C149.40598548 154.39476898 149.40598548 154.39476898 152.68339157 152.80719471 C154.47618832 150.34637741 154.38000044 148.71824203 154.38768005 145.68615723 C154.39758469 144.58411453 154.40748932 143.48207184 154.41769409 142.34663391 C154.41094162 140.53246223 154.41094162 140.53246223 154.40405273 138.68164062 C154.41091599 137.40830368 154.41777924 136.13496674 154.42485046 134.82304382 C154.44281462 131.32925702 154.44160764 127.83572092 154.43590808 124.34190178 C154.43282128 121.42672552 154.4389029 118.51159776 154.44494683 115.59642839 C154.45900077 108.72065744 154.45742325 101.84501071 154.44604492 94.96923828 C154.43455892 87.8714677 154.44864517 80.77407475 154.4754414 73.67635393 C154.49757731 67.58539937 154.50424069 61.49456354 154.49836498 55.40357161 C154.49498956 51.76434252 154.49744904 48.12535561 154.51461601 44.48616028 C154.53291454 40.42998216 154.51892006 36.37454212 154.50170898 32.31835938 C154.51137695 31.10891159 154.52104492 29.89946381 154.53100586 28.65336609 C154.52117172 27.55132339 154.51133759 26.4492807 154.50120544 25.31384277 C154.50099616 24.35446556 154.50078688 23.39508835 154.50057125 22.4066391 C154.19622524 19.89413617 154.19622524 19.89413617 152.30313969 18.19211483 C149.54743459 16.76575023 147.74617931 16.62030682 144.64855957 16.61231995 C143.56341568 16.60241531 142.47827179 16.59251068 141.36024475 16.58230591 C139.58187477 16.58905838 139.58187477 16.58905838 137.76757812 16.59594727 C136.51520859 16.58908401 135.26283905 16.58222076 133.97251892 16.57514954 C130.54059526 16.55998209 127.10921462 16.55838785 123.67729759 16.56409192 C120.81187171 16.56718204 117.94649503 16.56109341 115.08107615 16.55505317 C108.32175001 16.54100694 101.56255026 16.54257039 94.80322266 16.55395508 C87.82984871 16.56544072 80.85685916 16.55135369 73.88353586 16.5245586 C67.8953043 16.50241025 61.90719348 16.49576211 55.91892385 16.50163502 C52.34283333 16.50500741 48.76698931 16.50257098 45.19093323 16.48538399 C41.20460908 16.46706111 37.21875881 16.48109312 33.23242188 16.49829102 C32.04684189 16.48862305 30.8612619 16.47895508 29.63975525 16.46899414 C28.55461136 16.47882828 27.46946747 16.48866241 26.35144043 16.49879456 C25.40903252 16.49900384 24.4666246 16.49921312 23.49565887 16.49942875 C20.17726962 17.16502062 19.00577107 18.30540008 17 21 C16.40068881 23.38124385 16.40068881 23.38124385 16.48101807 25.99871826 C16.46014885 27.50889275 16.46014885 27.50889275 16.43885803 29.04957581 C16.4438884 30.14793259 16.44891876 31.24628937 16.45410156 32.37792969 C16.44376389 33.53918869 16.43342621 34.70044769 16.42277527 35.89689636 C16.39325648 39.73869594 16.39184611 43.57997074 16.390625 47.421875 C16.37564948 50.08419515 16.35911897 52.74645997 16.34051514 55.40875244 C16.29995445 61.7020343 16.27961437 67.99521254 16.26654124 74.28860497 C16.25067134 81.45431333 16.21225586 88.61984534 16.17194796 95.78545141 C16.08954827 110.5235666 16.03625634 125.26169792 16 140 C10.72 140 5.44 140 0 140 C0 93.8 0 47.6 0 0 Z " fill="#E7EFFD" transform="translate(77,15)"/>
<path d="M0 0 C13.07208213 13.36917491 19.15024116 27.82441313 19.01367188 46.44335938 C18.98862167 47.79557927 18.96322705 49.14779282 18.9375 50.5 C18.92241097 51.89516768 18.90873009 53.29035134 18.89648438 54.68554688 C18.86143868 58.06161584 18.81230508 61.43684276 18.75 64.8125 C19.90757812 64.75449219 21.06515625 64.69648438 22.2578125 64.63671875 C23.79683448 64.58979735 25.33590033 64.54429974 26.875 64.5 C27.63554687 64.45810547 28.39609375 64.41621094 29.1796875 64.37304688 C29.92734375 64.35693359 30.675 64.34082031 31.4453125 64.32421875 C32.12609863 64.29803467 32.80688477 64.27185059 33.50830078 64.24487305 C37.02773575 65.13603906 39.53390909 67.00708388 41.75 69.8125 C42.34391977 72.61813803 42.55209354 74.55393325 42.4765625 77.34375 C42.47805801 78.41405457 42.47805801 78.41405457 42.47958374 79.50598145 C42.47491998 81.00882149 42.45556549 82.51167969 42.42236328 84.01416016 C42.37512483 86.30644265 42.38125053 88.59407233 42.39453125 90.88671875 C42.3833767 92.35159005 42.36915624 93.81644188 42.3515625 95.28125 C42.35338531 95.96159302 42.35520813 96.64193604 42.35708618 97.34289551 C42.21768315 102.05328944 41.17482478 104.5743739 37.75 107.8125 C36.43 108.1425 35.11 108.4725 33.75 108.8125 C33.75 114.4225 33.75 120.0325 33.75 125.8125 C35.4 126.1425 37.05 126.4725 38.75 126.8125 C40.93275421 128.93144636 41.66352659 130.26390931 42.13768005 133.2719574 C42.14578453 134.64832115 42.14578453 134.64832115 42.15405273 136.05249023 C42.17307899 137.61947914 42.17307899 137.61947914 42.19248962 139.21812439 C42.18955399 140.34110428 42.18661835 141.46408417 42.18359375 142.62109375 C42.1888356 143.77996597 42.19407745 144.9388382 42.19947815 146.13282776 C42.2059003 148.58309122 42.20455889 151.0333855 42.19604492 153.48364258 C42.18753972 157.2324924 42.21628867 160.97981653 42.24804688 164.72851562 C42.24965908 167.10937454 42.249081 169.49023616 42.24609375 171.87109375 C42.25732773 172.99204941 42.26856171 174.11300507 42.28013611 175.26792908 C42.27075516 176.31574051 42.26137421 177.36355194 42.25170898 178.44311523 C42.25154282 179.36148666 42.25137665 180.27985809 42.25120544 181.22605896 C41.57437774 184.71878829 40.23902735 186.28932772 37.75 188.8125 C34.97322845 189.4417057 34.97322845 189.4417057 31.71520996 189.44741821 C30.4786113 189.46151733 29.24201263 189.47561646 27.96794128 189.49014282 C26.60036865 189.48042161 25.23279964 189.47018078 23.86523438 189.45947266 C22.42286576 189.46624894 20.9805058 189.47515215 19.53816223 189.48602295 C15.62275047 189.50882228 11.70799724 189.49997784 7.79257393 189.48412752 C3.6958043 189.47147159 -0.40090883 189.48320777 -4.49768066 189.49105835 C-11.37762581 189.50015585 -18.25730262 189.48816452 -25.13720703 189.46435547 C-33.09222304 189.43714378 -41.04659835 189.44595789 -49.00159883 189.4734875 C-55.83061601 189.49617486 -62.65944027 189.49938055 -69.48848295 189.48629415 C-73.56760886 189.4784975 -77.64643358 189.47746366 -81.72554016 189.49397659 C-85.5605755 189.50841695 -89.39478457 189.49840893 -93.22973061 189.46950531 C-94.63741496 189.46289197 -96.04516881 189.46479659 -97.45282555 189.47581863 C-99.37359515 189.48947218 -101.29451666 189.46931706 -103.21520996 189.44741821 C-104.29035606 189.44553308 -105.36550217 189.44364796 -106.47322845 189.4417057 C-109.25 188.8125 -109.25 188.8125 -111.59458733 186.57878685 C-113.33129657 183.67664889 -113.75490441 182.2485058 -113.77139282 178.91699219 C-113.78556244 177.9581311 -113.79973206 176.99927002 -113.81433105 176.01135254 C-113.80937622 174.97119995 -113.80442139 173.93104736 -113.79931641 172.859375 C-113.80953827 171.75476929 -113.81976013 170.65016357 -113.83029175 169.51208496 C-113.8580849 165.86200269 -113.85617082 162.21267548 -113.8515625 158.5625 C-113.85933552 156.02571328 -113.86800468 153.48892917 -113.87753296 150.95214844 C-113.89245701 145.63597094 -113.89215133 140.32007065 -113.88134766 135.00390625 C-113.86926096 128.86362964 -113.89391119 122.72426879 -113.93648779 116.58414841 C-113.97598727 110.66969849 -113.98206551 104.75553208 -113.97501755 98.84094238 C-113.97604526 96.32749275 -113.98654501 93.81402868 -114.00664139 91.30065918 C-114.03128179 87.78826021 -114.01784527 84.27798918 -113.99462891 80.765625 C-114.01756012 79.20539612 -114.01756012 79.20539612 -114.04095459 77.61364746 C-113.94046398 70.74508179 -113.94046398 70.74508179 -111.94335365 68.0476656 C-109.11798971 65.60294221 -106.69936689 64.17983204 -102.9453125 64.32421875 C-102.19765625 64.34033203 -101.45 64.35644531 -100.6796875 64.37304688 C-99.91914063 64.41494141 -99.15859375 64.45683594 -98.375 64.5 C-97.59125 64.52255859 -96.8075 64.54511719 -96 64.56835938 C-94.0824974 64.62681982 -92.1659894 64.71648717 -90.25 64.8125 C-90.26571045 63.96655273 -90.2814209 63.12060547 -90.29760742 62.24902344 C-90.34933945 59.05080516 -90.38663906 55.85280309 -90.41479492 52.65429688 C-90.42969923 51.28117774 -90.45002997 49.90810461 -90.47631836 48.53515625 C-90.77974285 32.25732496 -87.62790532 16.76697868 -76.0859375 4.4921875 C-53.17409004 -16.4697155 -25.38383564 -17.08527399 0 0 Z " fill="#040402" transform="translate(276.25,245.1875)"/>
<path d="M0 0 C27.39 0 54.78 0 83 0 C83 0.33 83 0.66 83 1 C69.8 1 56.6 1 43 1 C43.01451104 40.449405 43.05243136 79.89869262 43.12685562 119.34803277 C43.13562224 124.00676109 43.14417207 128.66548978 43.15258789 133.32421875 C43.15426695 134.25167684 43.15594602 135.17913493 43.15767596 136.13469781 C43.18433631 151.1464555 43.19344035 166.158175 43.19604143 181.16995393 C43.19910228 196.57664465 43.22106428 211.98322508 43.26052457 227.38986599 C43.284274 236.89448137 43.29332978 246.39887649 43.28351311 255.90351744 C43.27819204 262.42369314 43.29125206 268.94367171 43.3186629 275.4637913 C43.33393167 279.22406776 43.34119491 282.98390294 43.32659721 286.74419212 C43.310961 290.82674924 43.33408285 294.90819245 43.36076355 298.99069214 C43.35009029 300.17164864 43.33941703 301.35260515 43.32842034 302.56934822 C43.44778123 312.36829392 46.40955719 319.67728577 53 327 C48.16200639 327.09951569 43.32461975 327.17177037 38.48583984 327.21972656 C36.8428305 327.23973571 35.19989141 327.26695213 33.55712891 327.30175781 C31.18374212 327.35075305 28.81130351 327.37307504 26.4375 327.390625 C25.35106201 327.42159271 25.35106201 327.42159271 24.24267578 327.45318604 C17.35702227 327.4561574 12.30305145 325.04715685 7.1875 320.5 C0.20376552 312.51858917 -0.2917519 305.97313972 -0.24050903 295.58560181 C-0.24221788 294.32274113 -0.24392673 293.05988045 -0.24568737 291.75875127 C-0.25015329 288.26057652 -0.24216764 284.76252455 -0.23213124 281.26436543 C-0.22348815 277.48938459 -0.22641751 273.71441057 -0.22793579 269.93942261 C-0.2289841 263.40135688 -0.22271316 256.8633311 -0.21146011 250.32527542 C-0.19520073 240.87236945 -0.18999666 231.41948278 -0.18748413 221.96656434 C-0.18310772 206.62955408 -0.16980006 191.29256511 -0.15087891 175.95556641 C-0.13251872 161.05778103 -0.11836289 146.16000144 -0.10986328 131.26220703 C-0.10933783 130.34378873 -0.10881239 129.42537044 -0.10827102 128.47912128 C-0.10566093 123.87165118 -0.10313352 119.26418103 -0.10064721 114.65671086 C-0.07991638 76.43778834 -0.04304751 38.21890518 0 0 Z " fill="#FECF63" transform="translate(46,170)"/>
<path d="M0 0 C35.97 0 71.94 0 109 0 C109 35.97 109 71.94 109 109 C73.03 109 37.06 109 0 109 C0 73.03 0 37.06 0 0 Z " fill="#76D2F3" transform="translate(108,46)"/>
<path d="M0 0 C41.25 0 82.5 0 125 0 C125.495 11.385 125.495 11.385 126 23 C129.08669204 26.08669204 129.91927658 26.44855089 134 27 C133.34 27.33 132.68 27.66 132 28 C132.10441406 29.77117187 132.10441406 29.77117187 132.2109375 31.578125 C132.26722309 33.13535973 132.3218224 34.69265604 132.375 36.25 C132.42527344 37.02730469 132.47554687 37.80460937 132.52734375 38.60546875 C132.54667969 39.35957031 132.56601562 40.11367188 132.5859375 40.890625 C132.6173584 41.58188477 132.6487793 42.27314453 132.68115234 42.98535156 C132 45 132 45 126 49 C125.67 63.52 125.34 78.04 125 93 C83.75 93 42.5 93 0 93 C0 62.31 0 31.62 0 0 Z " fill="#81D55E" transform="translate(178,326)"/>
<path d="M0 0 C0.33 0 0.66 0 1 0 C1 125.73 1 251.46 1 381 C-4.28 381 -9.56 381 -15 381 C-15.00634791 378.87823349 -15.00634791 378.87823349 -15.01282406 376.71360302 C-15.1134301 343.16007395 -15.21912601 309.60656468 -15.33111694 276.05307166 C-15.34488705 271.92608761 -15.35861406 267.79910342 -15.37231445 263.67211914 C-15.37504276 262.85048701 -15.37777106 262.02885488 -15.38058204 261.1823248 C-15.42469546 247.86654805 -15.46531586 234.55076281 -15.50465261 221.23497119 C-15.54507254 207.57874381 -15.5892294 193.92253224 -15.63687855 180.26632816 C-15.6661784 171.83505961 -15.69253937 163.40379227 -15.71517897 154.97250316 C-15.73096809 149.19625902 -15.75037651 143.42003422 -15.77266841 137.64381155 C-15.78543479 134.30782226 -15.79603438 130.9718628 -15.80341911 127.63585472 C-15.81166418 124.02414541 -15.82593642 120.41250979 -15.84178162 116.80082703 C-15.84324878 115.20891864 -15.84324878 115.20891864 -15.84474558 113.58485049 C-15.85022002 112.62094356 -15.85569446 111.65703663 -15.8613348 110.6639204 C-15.86399284 109.82967484 -15.86665089 108.99542927 -15.86938947 108.13590354 C-15.91938652 105.81228319 -15.91938652 105.81228319 -17 103 C-20.49054175 101.53963062 -24.33520621 101.86532025 -28.05981445 101.85282898 C-28.770948 101.84915229 -29.48208155 101.8454756 -30.2147646 101.8416875 C-32.59761082 101.83067436 -34.98041341 101.82681094 -37.36328125 101.82299805 C-39.0716465 101.81673187 -40.7800104 101.81008493 -42.4883728 101.80308533 C-48.09640559 101.78207024 -53.70443858 101.77168898 -59.3125 101.76171875 C-61.24280817 101.75767099 -63.1731162 101.75355406 -65.10342407 101.74936867 C-74.16751308 101.73032682 -83.23159396 101.71609067 -92.29569912 101.7077567 C-102.76532804 101.69797152 -113.23474625 101.67161449 -123.70430088 101.63125581 C-131.79440017 101.60113682 -139.88443888 101.58629205 -147.97459316 101.58297569 C-152.80824066 101.58062141 -157.64166278 101.57161131 -162.47525024 101.54651451 C-167.01924105 101.52330086 -171.56285698 101.51897333 -176.10689163 101.52927589 C-177.77583689 101.52977292 -179.44480019 101.52340359 -181.11368942 101.50971985 C-183.38964168 101.49210003 -185.6642338 101.49905648 -187.94018555 101.51225281 C-189.21443893 101.50986445 -190.48869232 101.5074761 -191.80155945 101.50501537 C-195.59541601 102.09214546 -196.67274233 103.01862094 -199 106 C-199.66 106.99 -200.32 107.98 -201 109 C-203.95064148 109.2208564 -206.68368231 109.28060989 -209.625 109.1875 C-210.82769531 109.16719727 -210.82769531 109.16719727 -212.0546875 109.14648438 C-214.03674378 109.11109051 -216.01845551 109.05728234 -218 109 C-218.45375 108.030625 -218.9075 107.06125 -219.375 106.0625 C-220.65786221 102.92920418 -220.65786221 102.92920418 -223 102 C-224.40328518 101.95737746 -225.8087875 101.97842967 -227.21166992 102.03271484 C-232.13513317 102.19339075 -237.05441377 102.27145331 -241.98022461 102.32128906 C-244.09571269 102.35671628 -246.21095002 102.41704977 -248.32495117 102.50390625 C-266.83855603 103.22644524 -266.83855603 103.22644524 -273.83447266 97.60253906 C-277.60238552 94.07907215 -281.09341228 90.27276163 -284 86 C-284 85.67 -284 85.34 -284 85 C-258.92 85 -233.84 85 -208 85 C-208 85.33 -208 85.66 -208 86 C-226.48 86.33 -244.96 86.66 -264 87 C-262.44758786 88.55241214 -260.97793902 88.13138741 -258.81643581 88.1386652 C-257.9084757 88.14414057 -257.00051559 88.14961594 -256.06504154 88.15525723 C-255.05659404 88.15623441 -254.04814653 88.15721159 -253.00914001 88.15821838 C-251.94913788 88.16314804 -250.88913574 88.1680777 -249.79701233 88.17315674 C-246.20443902 88.18863399 -242.61188347 88.1969208 -239.01928711 88.20532227 C-236.41596346 88.21503015 -233.8126414 88.2251752 -231.20932102 88.23572445 C-224.92199527 88.26043736 -218.63466384 88.28000751 -212.34731514 88.29780969 C-205.07889814 88.31860961 -197.81051055 88.3457574 -190.54211426 88.3729248 C-171.34059479 88.44154073 -152.13904513 88.50148551 -132.9375 88.5625 C-90.058125 88.706875 -47.17875 88.85125 -3 89 C-3 185.03 -3 281.06 -3 380 C-2.01 380 -1.02 380 0 380 C0 254.6 0 129.2 0 0 Z " fill="#D5E2F4" transform="translate(434,85)"/>
<path d="M0 0 C5.28 0 10.56 0 16 0 C16.09123987 43.17779519 16.16203327 86.35557671 16.20426132 129.53344926 C16.20926418 134.63037258 16.21444146 139.72729571 16.21972656 144.82421875 C16.2207758 145.83892929 16.22182505 146.85363983 16.22290608 147.89909917 C16.24031384 164.33163461 16.27185359 180.76411411 16.30861118 197.19661635 C16.34601025 214.05643651 16.36823367 230.91622735 16.37635398 247.77608728 C16.38184389 258.18049984 16.39918667 268.58475427 16.43166587 278.98911816 C16.45280097 286.12266903 16.45920231 293.25613809 16.45400551 300.389718 C16.45144217 304.50615921 16.45538636 308.622324 16.4768219 312.73871613 C16.49631275 316.50920983 16.49725387 320.27924169 16.48359558 324.04975682 C16.48111002 326.05602951 16.49833928 328.0622969 16.51632524 330.06849051 C16.45882362 338.73455295 15.39634974 344.17910655 9.5 350.8125 C3.24227731 356.28800736 -1.67003781 358.56391086 -10.0859375 358.37109375 C-17.02763201 357.4870978 -22.29646174 354.3802208 -26.5625 348.875 C-28.18182213 346.51712018 -29.08496596 344.74510213 -30 342 C-28.89543457 341.98598145 -28.89543457 341.98598145 -27.76855469 341.97167969 C-24.42835782 341.91795845 -21.08955881 341.83431378 -17.75 341.75 C-16.59113281 341.73582031 -15.43226563 341.72164063 -14.23828125 341.70703125 C-12.56572266 341.65869141 -12.56572266 341.65869141 -10.859375 341.609375 C-9.83295898 341.58842773 -8.80654297 341.56748047 -7.74902344 341.54589844 C-4.24527999 340.85012842 -3.21515539 339.76975301 -1 337 C-0.401419 334.28590874 -0.401419 334.28590874 -0.49219131 331.24475479 C-0.47501993 329.47195204 -0.47501993 329.47195204 -0.45750165 327.66333508 C-0.46914228 325.71393777 -0.46914228 325.71393777 -0.48101807 323.72515869 C-0.47514424 322.33164053 -0.46751794 320.93812883 -0.458287 319.54462886 C-0.43797957 315.71122265 -0.44259278 311.8781855 -0.45119452 308.04474998 C-0.45612906 303.91249626 -0.43806734 299.78033647 -0.42277527 295.64811707 C-0.39943403 288.48740762 -0.39071601 281.32679953 -0.39188385 274.16605377 C-0.39355129 263.81279735 -0.37323672 253.45967626 -0.34752855 243.10645589 C-0.30641874 226.30974672 -0.28312733 209.51306185 -0.27099609 192.71630859 C-0.25917253 176.39825097 -0.23898533 160.08023911 -0.20751953 143.76220703 C-0.20558343 142.75664042 -0.20364733 141.7510738 -0.20165256 140.71503547 C-0.19188816 135.67048572 -0.18195902 130.62593631 -0.17194796 125.58138704 C-0.08908783 83.72094629 -0.03542221 41.86050584 0 0 Z " fill="#F8C400" transform="translate(450,139)"/>
<path d="M0 0 C5.82729726 3.26106301 8.84987828 7.74239786 12.0625 13.4375 C13.71286895 20.20401269 12.60178077 26.41965987 10.6875 33 C11.21859375 33.44730469 11.7496875 33.89460938 12.296875 34.35546875 C13.35648438 35.26232422 13.35648438 35.26232422 14.4375 36.1875 C15.13359375 36.77917969 15.8296875 37.37085938 16.546875 37.98046875 C23.13174196 44.19283412 27.04746881 51.74299169 28.14453125 60.75390625 C28.40599841 70.04083232 28.40599841 70.04083232 26.0723877 73.15611267 C22.90176925 75.60749149 20.94788616 75.51294537 16.96289062 75.53344727 C15.96215767 75.54637062 15.96215767 75.54637062 14.94120789 75.55955505 C12.74165768 75.58220982 10.54338199 75.57547869 8.34375 75.56640625 C6.81204856 75.57164185 5.28035035 75.5779181 3.74865723 75.58518982 C0.54077975 75.59559281 -2.66665411 75.59103406 -5.87451172 75.57641602 C-9.98411705 75.55922101 -14.09232517 75.58273078 -18.2017746 75.61790562 C-21.36400607 75.63987198 -24.52590272 75.6384403 -27.68818665 75.6301403 C-29.20324741 75.62932048 -30.71833268 75.63619002 -32.23332214 75.65091133 C-34.35238414 75.66834715 -36.46892964 75.65382957 -38.58789062 75.63110352 C-39.79272095 75.63014175 -40.99755127 75.62917999 -42.2388916 75.62818909 C-45.3125 75 -45.3125 75 -47.70178223 72.6058197 C-50.67813053 67.79068252 -49.85240134 62.87798646 -48.83984375 57.48046875 C-46.25608127 47.65598268 -41.34625913 40.12884717 -33.3125 34 C-32.6525 33.34 -31.9925 32.68 -31.3125 32 C-31.63476562 31.29488281 -31.95703125 30.58976562 -32.2890625 29.86328125 C-34.45915711 23.79198603 -34.40894918 16.54772371 -31.75 10.625 C-24.99670111 -0.85322179 -12.24901241 -5.46863903 0 0 Z " fill="#020203" transform="translate(173.3125,64)"/>
<path d="M0 0 C14.19 0 28.38 0 43 0 C43 5.28 43 10.56 43 16 C40.68742187 16.03867187 40.68742187 16.03867187 38.328125 16.078125 C36.30205497 16.13440472 34.2760144 16.19175209 32.25 16.25 C30.72632813 16.27126953 30.72632813 16.27126953 29.171875 16.29296875 C28.1921875 16.32519531 27.2125 16.35742188 26.203125 16.390625 C25.30239258 16.41157227 24.40166016 16.43251953 23.47363281 16.45410156 C20.20688819 17.17502941 19.11155789 18.43813131 17 21 C16.40068881 23.38124385 16.40068881 23.38124385 16.48101807 25.99871826 C16.46014885 27.50889275 16.46014885 27.50889275 16.43885803 29.04957581 C16.4438884 30.14793259 16.44891876 31.24628937 16.45410156 32.37792969 C16.44376389 33.53918869 16.43342621 34.70044769 16.42277527 35.89689636 C16.39325648 39.73869594 16.39184611 43.57997074 16.390625 47.421875 C16.37564948 50.08419515 16.35911897 52.74645997 16.34051514 55.40875244 C16.29995445 61.7020343 16.27961437 67.99521254 16.26654124 74.28860497 C16.25067134 81.45431333 16.21225586 88.61984534 16.17194796 95.78545141 C16.08954827 110.5235666 16.03625634 125.26169792 16 140 C10.72 140 5.44 140 0 140 C0 93.8 0 47.6 0 0 Z " fill="#D5E2F5" transform="translate(77,15)"/>
<path d="M0 0 C9.92192947 6.95675515 15.79930222 16.04503673 18.7265625 27.6796875 C18.95361328 31.22827148 18.95361328 31.22827148 18.921875 34.92578125 C18.9190451 35.58175797 18.91621521 36.23773468 18.91329956 36.91358948 C18.90222234 38.98165159 18.87714313 41.04925923 18.8515625 43.1171875 C18.84151652 44.53059265 18.83239352 45.94400467 18.82421875 47.35742188 C18.80403655 50.79848741 18.76486789 54.23858674 18.7265625 57.6796875 C13.1165625 57.6796875 7.5065625 57.6796875 1.7265625 57.6796875 C1.71238281 55.5346875 1.69820313 53.3896875 1.68359375 51.1796875 C1.65288636 49.07780783 1.61382107 46.97623572 1.57397461 44.87451172 C1.55092949 43.42573097 1.53643081 41.9767859 1.53100586 40.52783203 C1.54569889 28.69738867 1.54569889 28.69738867 -4.2734375 18.6796875 C-9.17784253 13.90434576 -14.43665119 11.54349778 -21.2109375 11.2421875 C-27.20506457 11.46048651 -31.6833269 13.19893712 -36.03125 17.36328125 C-40.82544711 22.74806786 -42.50710835 26.51563552 -42.6875 33.8515625 C-42.70686615 34.5339801 -42.7262323 35.21639771 -42.7461853 35.91949463 C-42.80574848 38.08943358 -42.85227196 40.25942627 -42.8984375 42.4296875 C-42.93663881 43.90497047 -42.9756918 45.38023165 -43.015625 46.85546875 C-43.11302765 50.46342535 -43.19277636 54.07116263 -43.2734375 57.6796875 C-48.8834375 57.6796875 -54.4934375 57.6796875 -60.2734375 57.6796875 C-60.36626552 53.62619738 -60.44558194 49.57548115 -60.49316406 45.52148438 C-60.51303728 44.14830906 -60.54014608 42.77521554 -60.57519531 41.40234375 C-60.93623743 26.87570793 -58.29552763 16.21212929 -48.30859375 5.58984375 C-34.97089998 -7.3619493 -16.134557 -9.37024101 0 0 Z " fill="#E6EEFC" transform="translate(261.2734375,253.3203125)"/>
<path d="M0 0 C7.59 0 15.18 0 23 0 C23 30.69 23 61.38 23 93 C15.41 93 7.82 93 0 93 C0 62.31 0 31.62 0 0 Z " fill="#76BE51" transform="translate(178,326)"/>
<path d="M0 0 C1.63816933 -0.01908669 1.63816933 -0.01908669 3.30943298 -0.03855896 C5.0994725 -0.02877014 5.0994725 -0.02877014 6.92567444 -0.01878357 C8.81644966 -0.03170692 8.81644966 -0.03170692 10.74542236 -0.04489136 C14.20009404 -0.06739174 17.65430772 -0.0644443 21.10902476 -0.05556989 C23.9942519 -0.05045904 26.87939303 -0.05775337 29.7646113 -0.06504196 C36.57195622 -0.08204325 43.379077 -0.07847327 50.18641663 -0.06175232 C57.20643464 -0.04483178 64.2258308 -0.0606634 71.24578089 -0.0929752 C77.27566054 -0.11967713 83.30534669 -0.12694552 89.33527952 -0.11846012 C92.93548193 -0.11353238 96.53531022 -0.11573745 100.13546562 -0.13624763 C104.15056507 -0.15802669 108.1644868 -0.1391998 112.17958069 -0.11643982 C113.37091614 -0.12813202 114.56225159 -0.13982422 115.78968811 -0.15187073 C124.75730465 -0.04823343 124.75730465 -0.04823343 127.89077759 2.82754517 C129.61732483 5.5146637 129.61732483 5.5146637 129.67982483 9.1396637 C128.49691992 12.89712636 127.92968902 13.59868296 124.61732483 15.5146637 C122.10604858 15.89498043 122.10604858 15.89498043 119.22792053 15.90234375 C118.13436249 15.91224838 117.04080444 15.92215302 115.91410828 15.93235779 C114.71917755 15.92785614 113.52424683 15.92335449 112.29310608 15.91871643 C110.39992142 15.92901131 110.39992142 15.92901131 108.4684906 15.93951416 C105.00981784 15.95745568 101.55139864 15.9562756 98.09269333 15.95057178 C95.20489963 15.94748176 92.31715477 15.95357018 89.42936802 15.95961052 C82.61730449 15.97365698 75.80536638 15.97209312 68.99330139 15.96070862 C61.965397 15.94922297 54.93787401 15.96330997 47.91001987 15.99010509 C41.87507978 16.01225307 35.84025949 16.01890167 29.80528164 16.01302868 C26.20124617 16.0096562 22.59745528 16.01209331 18.99345398 16.02927971 C14.97590421 16.04760227 10.95909821 16.03357131 6.94154358 16.01637268 C5.14914749 16.03087463 5.14914749 16.03087463 3.32054138 16.04566956 C2.22698334 16.03583542 1.13342529 16.02600128 0.00672913 16.01586914 C-1.41794426 16.01555521 -1.41794426 16.01555521 -2.87139893 16.01523495 C-6.15994186 15.35973157 -7.35101693 14.13746071 -9.38267517 11.5146637 C-9.88267517 8.0146637 -9.88267517 8.0146637 -9.38267517 4.5146637 C-6.51692391 0.81742319 -4.62147247 0.01367668 0 0 Z " fill="#020203" transform="translate(289.38267517089844,61.48533630371094)"/>
<path d="M0 0 C1.6255481 -0.01475121 1.6255481 -0.01475121 3.28393555 -0.02980042 C4.46794449 -0.02013245 5.65195343 -0.01046448 6.87184143 -0.00050354 C8.7479863 -0.00860802 8.7479863 -0.00860802 10.66203308 -0.01687622 C14.09005835 -0.02724251 17.51711887 -0.01965845 20.94505954 -0.00316501 C24.53418793 0.01069161 28.12328737 0.00422461 31.71243286 0.0007019 C37.74074887 -0.0020001 43.76886577 0.01147314 49.7971344 0.03465271 C56.76249084 0.06125047 63.72751413 0.06301342 70.69290394 0.05126435 C77.39703846 0.04047642 84.1010527 0.04668234 90.80517769 0.06081963 C93.65635592 0.06657188 96.50744591 0.06650273 99.35862541 0.06175423 C103.34232513 0.05608593 107.32569299 0.07532402 111.30934143 0.09715271 C113.0823185 0.09040024 113.0823185 0.09040024 114.89111328 0.08351135 C115.97763184 0.09341599 117.06415039 0.10332062 118.18359375 0.11352539 C119.12507987 0.11595529 120.06656599 0.11838518 121.03658199 0.12088871 C124.22374696 0.58376306 126.09535874 1.56349873 128.6552887 3.50120544 C129.7802887 6.87620544 129.7802887 6.87620544 129.6552887 10.50120544 C127.99783367 13.07496899 127.25812961 14.07142062 124.6552887 15.50120544 C120.51451894 16.25270188 116.41606484 16.17351477 112.21754456 16.13230896 C110.32414085 16.14304192 110.32414085 16.14304192 108.39248657 16.1539917 C104.93781032 16.17248413 101.48390719 16.1595826 98.02926326 16.1399014 C94.41164061 16.12349875 90.79406631 16.13232986 87.17642212 16.13742065 C81.10276456 16.14193927 75.02941521 16.12608511 68.95582581 16.09812927 C61.93525696 16.06606368 54.91524349 16.06609924 47.89463514 16.08334404 C41.13760794 16.0992095 34.38078424 16.0924765 27.62376595 16.07540703 C24.74940634 16.06853694 21.87520989 16.06956839 19.00085258 16.07695198 C14.98813406 16.08603814 10.97627323 16.06207887 6.96363831 16.03465271 C5.77027863 16.04117859 4.57691895 16.04770447 3.34739685 16.0544281 C2.25528397 16.04170364 1.16317108 16.02897919 0.03796387 16.01586914 C-0.91051957 16.01306222 -1.85900301 16.0102553 -2.83622837 16.00736332 C-6.11961048 15.34484747 -7.31427516 14.12076662 -9.3447113 11.50120544 C-9.8447113 8.00120544 -9.8447113 8.00120544 -9.3447113 4.50120544 C-6.48667253 0.81765367 -4.60828838 0.00102479 0 0 Z " fill="#030304" transform="translate(289.34471130371094,92.49879455566406)"/>
<path d="M0 0 C1.24276199 -0.00379669 2.48552399 -0.00759338 3.76594543 -0.01150513 C7.16699944 -0.0176392 10.56707851 -0.00592035 13.96801686 0.01440096 C17.52956982 0.03199749 21.09110713 0.02844639 24.6526947 0.02767944 C30.63215933 0.02955106 36.61142065 0.046897 42.59082031 0.07421875 C49.50220606 0.1056825 56.41336934 0.11621436 63.32482153 0.11474764 C70.68677833 0.11339636 78.04864946 0.12727935 85.4105804 0.14564085 C87.5306161 0.14990156 89.65063797 0.15132294 91.77067757 0.15211868 C95.72089618 0.15450223 99.67093014 0.17393141 103.62109375 0.1953125 C105.38308105 0.19395294 105.38308105 0.19395294 107.18066406 0.19256592 C108.25594864 0.20109589 109.33123322 0.20962585 110.43910217 0.21841431 C111.37283692 0.221766 112.30657167 0.22511768 113.26860142 0.22857094 C115.93260009 0.50523438 117.51003717 1.02617532 119.74584961 2.48583984 C121.74584961 5.48583984 121.74584961 5.48583984 121.62084961 8.98583984 C120.74584961 12.48583984 120.74584961 12.48583984 119.02799988 14.18035984 C116.25926268 15.76418677 114.53624536 15.86538479 111.35644531 15.8735199 C110.26288727 15.88342453 109.16932922 15.89332916 108.04263306 15.90353394 C106.84770233 15.89903229 105.65277161 15.89453064 104.42163086 15.88989258 C102.5284462 15.90018745 102.5284462 15.90018745 100.59701538 15.91069031 C97.13834263 15.92863182 93.67992343 15.92745174 90.22121811 15.92174792 C87.33342441 15.9186579 84.44567955 15.92474633 81.5578928 15.93078667 C74.74582927 15.94483313 67.93389116 15.94326927 61.12182617 15.93188477 C54.09392178 15.92039911 47.06639879 15.93448612 40.03854465 15.96128124 C34.00360456 15.98342922 27.96878427 15.99007782 21.93380642 15.98420483 C18.32977095 15.98083235 14.72598006 15.98326946 11.12197876 16.00045586 C7.10442899 16.01877842 3.08762299 16.00474746 -0.92993164 15.98754883 C-2.72232773 16.00205078 -2.72232773 16.00205078 -4.55093384 16.0168457 C-5.64449188 16.00701157 -6.73804993 15.99717743 -7.86474609 15.98704529 C-9.28941948 15.98673136 -9.28941948 15.98673136 -10.74287415 15.98641109 C-14.03132683 15.33092571 -15.21974847 14.10613808 -17.25415039 11.48583984 C-17.81665039 7.98583984 -17.81665039 7.98583984 -17.25415039 4.48583984 C-12.76180126 -1.07067738 -6.53794423 -0.06266239 0 0 Z " fill="#040404" transform="translate(297.254150390625,123.51416015625)"/>
<path d="M0 0 C5.83746223 3.19562474 10.32098765 7.6974961 12.8125 13.9375 C13.71856851 21.80765325 13.4194079 29.28158945 8.8125 35.9375 C5.78312231 39.19408102 3.05315422 41.52394859 -1.1875 42.9375 C-1.22488281 43.67355469 -1.26226562 44.40960938 -1.30078125 45.16796875 C-2.01469547 55.76469547 -2.01469547 55.76469547 -5.1875 58.9375 C-8.5625 60.0625 -8.5625 60.0625 -12.1875 59.9375 C-15.0625 58.25 -15.0625 58.25 -17.1875 54.9375 C-17.38515907 52.92247562 -17.50312128 50.89882473 -17.5625 48.875 C-17.6247323 45.73272721 -17.6247323 45.73272721 -18.1875 42.9375 C-21.04907254 40.73288664 -21.04907254 40.73288664 -23.26953125 39.9296875 C-27.40959761 37.78798311 -30.14130386 33.02989227 -32.1875 28.9375 C-33.48737588 13.74752186 -33.48737588 13.74752186 -28.671875 7.51171875 C-20.56125724 -1.08980482 -11.16113402 -5.07781323 0 0 Z " fill="#020301" transform="translate(250.1875,341.0625)"/>
<path d="M0 0 C3.96 0 7.92 0 12 0 C12 32.01 12 64.02 12 97 C18.93 97 25.86 97 33 97 C40.84187042 103.25910758 40.84187042 103.25910758 44 108 C44 108.33 44 108.66 44 109 C29.48 109 14.96 109 0 109 C0 73.03 0 37.06 0 0 Z " fill="#67B1EF" transform="translate(108,46)"/>
<path d="M0 0 C-1.010625 0.495 -2.02125 0.99 -3.0625 1.5 C-12.16461784 6.75900142 -16.87442501 15.94211128 -20.25 25.5625 C-22.0099964 33.62915015 -22.24599084 41.83845045 -22.5625 50.0625 C-22.60568359 51.11888672 -22.64886719 52.17527344 -22.69335938 53.26367188 C-22.79837337 55.84234879 -22.90052877 58.42110435 -23 61 C-21.68 61 -20.36 61 -19 61 C-19 52.42 -19 43.84 -19 35 C-18.67 35 -18.34 35 -18 35 C-18 43.91 -18 52.82 -18 62 C-23.61 62 -29.22 62 -35 62 C-35.09282802 57.94650988 -35.17214444 53.89579365 -35.21972656 49.84179688 C-35.23959978 48.46862156 -35.26670858 47.09552804 -35.30175781 45.72265625 C-35.66279993 31.19602043 -33.02209013 20.53244179 -23.03515625 9.91015625 C-17.53942147 4.57343007 -8.07745597 -3.05063064 0 0 Z " fill="#CDD9EB" transform="translate(236,249)"/>
<path d="M0 0 C1.18855591 0.01426025 1.18855591 0.01426025 2.40112305 0.02880859 C8.37726269 0.24266156 12.67723636 1.19399283 17 5.5625 C17.50789063 6.05492188 18.01578125 6.54734375 18.5390625 7.0546875 C21.5428538 10.29341219 22.10394306 12.08221532 23 16.5625 C7.82 16.5625 -7.36 16.5625 -23 16.5625 C-22.05205875 10.8748525 -21.17438267 8.23062083 -17 4.5625 C-11.49629996 0.9285116 -6.52057609 -0.12588786 0 0 Z " fill="#FA5373" transform="translate(163,107.4375)"/>
<path d="M0 0 C4.80478328 -0.39222721 8.31586665 -0.04071786 12.43725586 2.63671875 C16.27161008 5.98167016 17.81215849 10.1710397 18.31713867 15.08789062 C18.39276361 18.56714028 18.34938727 22.02144561 18.25 25.5 C18.23195313 26.70398438 18.21390625 27.90796875 18.1953125 29.1484375 C18.14846554 32.09979605 18.08288005 35.04947036 18 38 C18.99 38 19.98 38 21 38 C21 28.43 21 18.86 21 9 C21.33 9 21.66 9 22 9 C22 18.9 22 28.8 22 39 C16.39 39 10.78 39 5 39 C4.96132813 35.7825 4.96132813 35.7825 4.921875 32.5 C4.88334531 30.3981473 4.838221 28.29653095 4.79248047 26.19482422 C4.76443964 24.74604784 4.74314189 23.29712328 4.72900391 21.84814453 C4.6453724 13.75818975 4.55918825 7.00291315 0 0 Z " fill="#CCD8E9" transform="translate(258,272)"/>
<path d="M0 0 C4.44237736 1.23399371 4.44237736 1.23399371 6.375 3.9375 C6.71557617 6.7565918 6.71557617 6.7565918 6.66796875 10.13671875 C6.65830078 11.34521484 6.64863281 12.55371094 6.63867188 13.79882812 C6.61353516 15.06146484 6.58839844 16.32410156 6.5625 17.625 C6.54896484 18.89923828 6.53542969 20.17347656 6.52148438 21.48632812 C6.48608471 24.63689825 6.43227724 27.78725166 6.375 30.9375 C1.425 30.9375 -3.525 30.9375 -8.625 30.9375 C-8.75968535 26.51982066 -8.85899469 22.10622745 -8.9375 17.6875 C-8.97939453 16.43324219 -9.02128906 15.17898438 -9.06445312 13.88671875 C-9.08056641 12.68144531 -9.09667969 11.47617187 -9.11328125 10.234375 C-9.13946533 9.12416992 -9.16564941 8.01396484 -9.19262695 6.87011719 C-8.625 3.9375 -8.625 3.9375 -6.32104492 1.54003906 C-3.625 -0.0625 -3.625 -0.0625 0 0 Z " fill="#FCDE7B" transform="translate(241.625,279.0625)"/>
<path d="M0 0 C3.71317907 1.14770989 5.2692056 1.85342428 7.4375 5.0625 C8 8 8 8 7.4375 11.0625 C4.80538535 14.73150829 3.34895674 15.90259531 -1.125 16.6875 C-4.5625 16.0625 -4.5625 16.0625 -7 13.9375 C-8.85305839 10.52787255 -9.27838388 8.88054737 -8.5625 5.0625 C-5.88937913 1.25532785 -4.71546409 0.08272744 0 0 Z " fill="#F4C99D" transform="translate(163.5625,76.9375)"/>
<path d="M0 0 C1.9375 1.0625 1.9375 1.0625 3 3 C3.75471698 9.79245283 3.75471698 9.79245283 1.4375 13.5 C-1.94888329 15.58392818 -4.09385318 15.55802097 -8 15 C-10.4375 13.5 -10.4375 13.5 -12 11 C-12.61014545 8.1910285 -12.65360928 5.80363979 -12 3 C-8.3655827 -1.51548816 -5.40521016 -1.50144727 0 0 Z " fill="#72B74E" transform="translate(245,355)"/>
<path d="M0 0 C3.4375 0.9375 3.4375 0.9375 5.375 2.0625 C7.1087306 5.12202459 6.85895216 7.50567525 6.4375 10.9375 C4.8125 13.375 4.8125 13.375 2.4375 14.9375 C-1.19882575 15.54355429 -2.84564769 15.40911336 -5.9375 13.375 C-8.18590519 10.00239221 -8.13033945 7.91237617 -7.5625 3.9375 C-5.29401339 0.30792142 -4.30870043 -0.07559124 0 0 Z " fill="#060607" transform="translate(256.5625,124.0625)"/>
<path d="M0 0 C3.4375 0.9375 3.4375 0.9375 5.375 2.0625 C7.1087306 5.12202459 6.85895216 7.50567525 6.4375 10.9375 C4.8125 13.375 4.8125 13.375 2.4375 14.9375 C-1.19882575 15.54355429 -2.84564769 15.40911336 -5.9375 13.375 C-8.18590519 10.00239221 -8.13033945 7.91237617 -7.5625 3.9375 C-5.29401339 0.30792142 -4.30870043 -0.07559124 0 0 Z " fill="#060606" transform="translate(256.5625,93.0625)"/>
<path d="M0 0 C3.4375 0.9375 3.4375 0.9375 5.375 2.0625 C7.1087306 5.12202459 6.85895216 7.50567525 6.4375 10.9375 C4.8125 13.375 4.8125 13.375 2.4375 14.9375 C-1.19882575 15.54355429 -2.84564769 15.40911336 -5.9375 13.375 C-8.18590519 10.00239221 -8.13033945 7.91237617 -7.5625 3.9375 C-5.29401339 0.30792142 -4.30870043 -0.07559124 0 0 Z " fill="#060606" transform="translate(256.5625,62.0625)"/>
</svg>
