<?xml version="1.0" encoding="UTF-8"?>
<svg version="1.1" xmlns="http://www.w3.org/2000/svg" width="512" height="512">
<path d="M0 0 C6.01264436 4.94372981 11.37404608 10.43953347 12.8125 18.3125 C13.73242903 28.02925039 13.10931325 35.62074975 7.1640625 43.49609375 C4.00947177 47.24991896 0.65726764 50.26907034 -3.1875 53.3125 C-3.07600302 53.85305716 -2.96450603 54.39361431 -2.84963036 54.95055199 C0.76255354 72.46331258 4.37373897 89.97627899 7.98432112 107.48936987 C8.43692977 109.68473412 8.88954812 111.88009637 9.3421669 114.07545853 C16.56180895 149.09373736 23.7754138 184.11324502 30.96816587 219.13705802 C31.44180824 221.44336367 31.91547557 223.74966419 32.38914871 226.05596352 C35.2208967 239.84379321 38.05232861 253.63168774 40.88195801 267.41995239 C42.7499737 276.52231161 44.61864933 285.62453511 46.48828125 294.7265625 C46.6408638 295.4693979 46.79344634 296.21223331 46.9506526 296.97757888 C51.32970855 318.29473323 55.73353857 339.60662908 60.16270638 360.91342735 C61.03080889 365.08954359 61.89819953 369.26580747 62.76548767 373.4420929 C63.32580022 376.13986953 63.88615679 378.83763702 64.4465332 381.53540039 C64.5829376 382.19210964 64.71934199 382.84881889 64.85987985 383.52542841 C66.58441668 391.82727879 68.31394183 400.12807397 70.04805851 408.42792892 C71.01618733 413.06616897 71.98039733 417.70521734 72.94358253 422.34448624 C73.38744384 424.47781516 73.83306855 426.61077805 74.28058434 428.74334335 C74.88671711 431.63242181 75.48681996 434.52268909 76.08544922 437.41333008 C76.26281207 438.25103911 76.44017492 439.08874815 76.62291241 439.95184231 C76.86067504 441.10916662 76.86067504 441.10916662 77.10324097 442.28987122 C77.24126066 442.95105863 77.37928036 443.61224604 77.52148247 444.29346943 C77.8125 446.3125 77.8125 446.3125 77.8125 451.3125 C85.0725 451.3125 92.3325 451.3125 99.8125 451.3125 C100.1425 449.0025 100.4725 446.6925 100.8125 444.3125 C101.48267003 441.59464378 102.1839495 438.90750277 102.9387207 436.21386719 C103.15367691 435.43335495 103.36863312 434.65284271 103.59010315 433.84867859 C104.3020294 431.2677483 105.02011619 428.6885756 105.73828125 426.109375 C106.24655447 424.27193091 106.75445587 422.43438394 107.26200867 420.59674072 C108.60653865 415.73287114 109.95634059 410.8704795 111.30718994 406.00836182 C112.37131493 402.17524048 113.43200066 398.34117241 114.49237251 394.50701141 C115.80245986 389.77000883 117.11407897 385.03343061 118.42578125 380.296875 C118.68573002 379.35792892 118.94567879 378.41898285 119.21350479 377.45158386 C121.92468553 367.66247833 124.64733862 357.87692395 127.41457462 348.10349655 C128.54421054 344.11347164 129.66960275 340.12225398 130.79506493 336.13105011 C131.58893524 333.32408415 132.38987776 330.51919927 133.19099426 327.71429443 C133.67220407 326.00917533 134.15307337 324.30396009 134.63354492 322.59863281 C134.85572126 321.82922112 135.07789761 321.05980942 135.30680656 320.26708221 C136.34441247 316.55567852 137.24545127 313.17450663 136.8125 309.3125 C135.19658529 307.05650817 135.19658529 307.05650817 132.9375 304.9375 C108.04721691 278.44768461 100.54836746 244.28005147 101.6171875 208.91992188 C103.16501427 180.33156152 117.04464072 150.13019578 137.8125 130.3125 C142.67082947 126.9013325 147.06526135 126.55947325 152.8125 127.3125 C176.96256629 132.47360288 198.5339689 149.04858905 217.265625 164.29296875 C218.10609375 164.95941406 218.9465625 165.62585938 219.8125 166.3125 C220.63844666 167.0961795 220.63844666 167.0961795 221.4810791 167.89569092 C225.25929449 171.27260697 225.25929449 171.27260697 230.04290771 172.3730011 C232.52864164 171.84029406 234.81775401 171.10199374 237.203125 170.22265625 C238.07016052 169.92951035 238.93719604 169.63636444 239.83050537 169.33433533 C241.65585163 168.70493289 243.47444805 168.05564801 245.28613281 167.38793945 C248.05088663 166.37923706 250.83513404 165.46159659 253.6328125 164.54882812 C262.86046691 161.64694019 262.86046691 161.64694019 269.87182617 155.4543457 C270.85813104 152.70271615 271.3849304 150.19312247 271.8125 147.3125 C274.95887158 142.21320813 279.23905821 139.65254067 284.8125 137.5625 C292.46217931 136.60629009 298.1338171 137.97151997 304.5625 142.0625 C309.55275819 147.05275819 311.4700384 151.80810074 311.9140625 158.75390625 C311.66166117 165.11247813 309.39749466 170.8548663 304.8125 175.3125 C301.11909469 177.75154124 298.82235873 179.15891458 294.43017578 179.8269043 C290.58969542 181.40399453 290.25822658 181.58749965 288.63745117 185.08447266 C288.0124264 186.70352933 287.42023765 188.3355151 286.85546875 189.9765625 C286.38286369 191.27562027 286.38286369 191.27562027 285.90071106 192.60092163 C285.24408032 194.43351506 284.60194403 196.27135785 283.97338867 198.11376953 C283.00416241 200.92542516 281.96601244 203.70445372 280.91992188 206.48828125 C280.28991695 208.27451201 279.66412276 210.06223463 279.04296875 211.8515625 C278.72772751 212.67894928 278.41248627 213.50633606 278.08769226 214.35879517 C276.9271781 217.92719454 276.22520902 220.12383461 277.93557739 223.58558655 C279.45549339 225.63585764 281.04465246 227.47427623 282.8125 229.3125 C283.5653125 230.19292969 284.318125 231.07335937 285.09375 231.98046875 C285.8259375 232.81191406 286.558125 233.64335937 287.3125 234.5 C302.08712674 251.84801111 322.62518644 279.03657251 322.0703125 303.0546875 C321.33143322 309.52547875 317.50053763 312.77990784 312.75 316.75 C310.78131528 318.28437779 308.80208302 319.80531915 306.8125 321.3125 C305.94238281 321.99570312 305.07226562 322.67890625 304.17578125 323.3828125 C290.63466275 333.70563826 276.07333155 339.6479606 259.8125 344.3125 C257.92724609 344.85777344 257.92724609 344.85777344 256.00390625 345.4140625 C231.3553142 351.1914981 205.12520227 347.66537099 181.62109375 339.265625 C178.9911666 338.20538013 178.9911666 338.20538013 176.8125 338.3125 C179.82022478 349.22428647 182.82850551 360.13591951 185.83744907 371.04736996 C187.23539926 376.11687599 188.63317521 381.18642991 190.03051758 386.25610352 C198.86034791 418.3013062 198.86034791 418.3013062 207.8125 450.3125 C208.48235428 450.31614563 209.15220856 450.31979126 209.84236145 450.32354736 C216.80159452 450.36529207 223.76016312 450.43458106 230.71899414 450.52001953 C233.31755942 450.54828069 235.91621148 450.56946945 238.51489258 450.58349609 C242.24605919 450.60485366 245.97617655 450.65146946 249.70703125 450.703125 C251.45558159 450.70496796 251.45558159 450.70496796 253.23945618 450.70684814 C254.32035019 450.72656677 255.4012442 450.7462854 256.51489258 450.76660156 C257.46753494 450.77548401 258.42017731 450.78436646 259.40168762 450.79351807 C261.8125 451.3125 261.8125 451.3125 263.62016296 453.15911865 C265.24129394 456.08690929 265.2250136 458.01239122 264.8125 461.3125 C263.7010684 463.46853971 263.7010684 463.46853971 261.8125 465.3125 C258.88495684 465.81389666 258.88495684 465.81389666 255.22040558 465.81586456 C254.54418173 465.82167833 253.86795789 465.82749209 253.17124242 465.83348203 C250.88858593 465.84816567 248.60699077 465.8341591 246.32434082 465.82043457 C244.67808876 465.82504021 243.03184081 465.83139086 241.38560152 465.83934355 C236.84883239 465.85610639 232.31239801 465.84775913 227.77562737 465.83539867 C222.88802794 465.82637881 218.00048761 465.84030263 213.11289978 465.85131836 C203.5329987 465.86914103 193.9532227 465.86524695 184.37331665 465.8536678 C176.59022166 465.84464846 168.80716182 465.84340296 161.02406311 465.84776306 C159.91796661 465.84837599 158.81187012 465.84898893 157.67225555 465.84962043 C155.42551433 465.85089928 153.17877312 465.85219613 150.93203193 465.8535108 C129.84512286 465.86492758 108.75828326 465.85178569 87.67138559 465.83030933 C69.56262721 465.81243737 51.45397137 465.81554117 33.34521484 465.83398438 C12.33576057 465.85537172 -8.67363277 465.86382884 -29.68309641 465.85153532 C-31.92175197 465.85026107 -34.16040753 465.84900359 -36.39906311 465.84776306 C-38.05142246 465.84683741 -38.05142246 465.84683741 -39.7371628 465.84589306 C-47.51440083 465.84243374 -55.29160033 465.848281 -63.0688324 465.85768127 C-72.54169829 465.86887893 -82.01443154 465.86590838 -91.48728216 465.8445583 C-96.32408539 465.83401772 -101.16066716 465.82997702 -105.99746895 465.84315491 C-110.42017265 465.85502269 -114.84244839 465.8486098 -119.26511294 465.8272447 C-120.87004151 465.82275466 -122.47500581 465.82509829 -124.07991165 465.83474785 C-126.25226587 465.84681322 -128.4231308 465.83454047 -130.59540558 465.81586456 C-131.80470749 465.81521515 -133.01400941 465.81456574 -134.25995684 465.81389666 C-137.1875 465.3125 -137.1875 465.3125 -139.0760684 463.46853971 C-140.58776676 460.53603204 -140.59473048 458.57034382 -140.1875 455.3125 C-139.0378418 453.14941406 -139.0378418 453.14941406 -137.1875 451.3125 C-134.46020508 450.85839844 -134.46020508 450.85839844 -131.20703125 450.921875 C-129.46196289 450.94121094 -129.46196289 450.94121094 -127.68164062 450.9609375 C-125.85922852 451.01121094 -125.85922852 451.01121094 -124 451.0625 C-122.77345703 451.08054687 -121.54691406 451.09859375 -120.28320312 451.1171875 C-117.25052241 451.16438876 -114.21939913 451.23022323 -111.1875 451.3125 C-111.07105133 450.07649048 -110.95460266 448.84048096 -110.83462524 447.5670166 C-110.18108246 441.71841744 -109.01714987 436.00121142 -107.83349609 430.24023438 C-107.59378366 429.05742512 -107.35407122 427.87461586 -107.10709476 426.6559639 C-106.44981577 423.41689534 -105.78900972 420.17858492 -105.12659144 416.94056606 C-104.42230461 413.49360728 -103.72255124 410.04572807 -103.02223206 406.59796143 C-101.67351076 399.96172023 -100.32054957 393.32635054 -98.96608633 386.69127917 C-97.40085022 379.02277268 -95.84023347 371.35332818 -94.27965057 363.68387365 C-87.64501445 331.08105955 -80.98474773 298.48350707 -74.26641846 265.89782715 C-69.2633402 241.63145638 -64.3409334 217.34918904 -59.4375 193.0625 C-53.28881963 162.61137166 -47.11851934 132.16474673 -40.90783691 101.72619629 C-40.0555099 97.54887795 -39.20405937 93.37138252 -38.35339355 89.19372559 C-37.35870188 84.30912086 -36.36216716 79.4248959 -35.36413002 74.54097366 C-34.99685009 72.74227158 -34.63018976 70.94344286 -34.26418114 69.14448166 C-33.76436778 66.68857253 -33.26225369 64.23314506 -32.75952148 61.77783203 C-32.61368748 61.05860439 -32.46785347 60.33937675 -32.31760025 59.59835434 C-31.73553599 56.766094 -31.10306898 54.05920695 -30.1875 51.3125 C-30.868125 51.1475 -31.54875 50.9825 -32.25 50.8125 C-38.95590687 47.38820713 -43.05911912 40.98221573 -45.52734375 34.015625 C-47.66341925 25.26909099 -46.62790132 17.12602518 -42.1875 9.3125 C-37.44351648 2.15248244 -30.97621968 -2.3249378 -22.58203125 -4.30078125 C-14.41504669 -5.61975592 -7.22734209 -3.82623993 0 0 Z M-17.1875 64.3125 C-19.69628953 73.90416665 -21.76534008 83.56981429 -23.76171875 93.27734375 C-24.09365664 94.88490891 -24.42567411 96.49245764 -24.75776672 98.09999084 C-25.44781105 101.44365338 -26.13580232 104.78773072 -26.82250977 108.13208008 C-27.70172342 112.41231156 -28.58783955 116.69108261 -29.47566509 120.96953487 C-30.16105201 124.2776871 -30.84195189 127.58675103 -31.52158546 130.89608955 C-31.84653831 132.47483426 -32.17307792 134.05325326 -32.50125694 135.63133049 C-32.95825163 137.83132931 -33.40897049 140.03252592 -33.8581543 142.23413086 C-34.11557907 143.4836705 -34.37300385 144.73321014 -34.63822937 146.02061462 C-35.11747871 148.89284882 -35.42210159 151.41482806 -35.1875 154.3125 C-32.88388601 157.10060574 -29.89276117 159.09521224 -27 161.25 C-26.23107422 161.86423828 -25.46214844 162.47847656 -24.66992188 163.11132812 C-20.5523557 166.47291172 -20.5523557 166.47291172 -15.5546875 167 C-14.77351563 166.443125 -13.99234375 165.88625 -13.1875 165.3125 C-11.57294922 164.18521484 -11.57294922 164.18521484 -9.92578125 163.03515625 C-8.7791888 162.15447847 -7.63733148 161.26760557 -6.5 160.375 C-5.62891602 159.71081055 -5.62891602 159.71081055 -4.74023438 159.03320312 C-2.0334925 156.93352243 -0.10365066 155.18672599 1.8125 152.3125 C1.46715683 149.42587046 0.99925237 146.72581235 0.38720703 143.89379883 C0.21193481 143.03504654 0.0366626 142.17629425 -0.1439209 141.29151917 C-0.72731947 138.44826384 -1.32841508 135.6090557 -1.9296875 132.76953125 C-2.33720235 130.80106293 -2.74361143 128.8323654 -3.1489563 126.8634491 C-4.21967811 121.67763606 -5.30543008 116.49508046 -6.39428711 111.31304932 C-7.50237941 106.02633162 -8.59630402 100.73668644 -9.69140625 95.44726562 C-11.84287432 85.06608744 -14.01022393 74.68829372 -16.1875 64.3125 C-16.5175 64.3125 -16.8475 64.3125 -17.1875 64.3125 Z M-39.1875 170.3125 C-40.1775 175.5925 -41.1675 180.8725 -42.1875 186.3125 C-40.764375 185.36375 -39.34125 184.415 -37.875 183.4375 C-35.3125 181.72916667 -32.75 180.02083333 -30.1875 178.3125 C-31.81189672 173.25882133 -33.83477781 173.3711984 -39.1875 170.3125 Z M-0.25 173.3125 C-1.35021484 174.1478125 -1.35021484 174.1478125 -2.47265625 175 C-3.03855469 175.433125 -3.60445312 175.86625 -4.1875 176.3125 C-0.48659479 180.2377025 3.36209656 183.25830156 7.8125 186.3125 C7.39160004 180.70788469 6.89636889 175.59163453 4.8125 170.3125 C2.86098373 170.3125 1.23181253 172.18349998 -0.25 173.3125 Z M264.078125 175.5 C263.44009949 175.72196045 262.80207397 175.9439209 262.14471436 176.17260742 C260.11523402 176.88012469 258.08888578 177.59617383 256.0625 178.3125 C254.68379184 178.79483744 253.30488758 179.27661471 251.92578125 179.7578125 C248.55239092 180.93622617 245.18175547 182.12230829 241.8125 183.3125 C241.48742159 186.4503036 241.48742159 186.4503036 243.83203125 188.67260742 C244.75371094 189.57857666 245.67539062 190.4845459 246.625 191.41796875 C247.11331299 191.9020369 247.60162598 192.38610504 248.10473633 192.88484192 C249.66709826 194.4304014 251.23956327 195.96521107 252.8125 197.5 C253.87307762 198.54553282 254.93298229 199.59174873 255.9921875 200.63867188 C258.59119434 203.20458902 261.1993639 205.76096467 263.8125 208.3125 C267.95511644 206.24119178 268.82180786 199.40584548 270.29077148 195.12158203 C270.99408529 193.07967199 271.7178743 191.04583978 272.44335938 189.01171875 C272.89450287 187.7113787 273.34441277 186.41060988 273.79296875 185.109375 C274.20442139 183.92698242 274.61587402 182.74458984 275.03979492 181.52636719 C275.8202582 178.28023178 275.76573138 176.47135643 274.8125 173.3125 C270.61068988 173.3125 268.02075575 174.11662079 264.078125 175.5 Z M-22.890625 190.50390625 C-24.23833984 191.55094727 -24.23833984 191.55094727 -25.61328125 192.61914062 C-26.54527344 193.36357422 -27.47726563 194.10800781 -28.4375 194.875 C-30.27593234 196.31394177 -32.11447245 197.75274587 -33.953125 199.19140625 C-35.27957031 200.25681641 -35.27957031 200.25681641 -36.6328125 201.34375 C-39.1875 203.3125 -39.1875 203.3125 -41.5546875 204.796875 C-45.84331747 207.51820565 -47.63454124 209.47949183 -48.84375 214.4921875 C-49.15925759 216.38523305 -49.43993918 218.28437621 -49.6875 220.1875 C-49.91953125 221.64929688 -49.91953125 221.64929688 -50.15625 223.140625 C-50.53079663 225.52835974 -50.87335685 227.91620074 -51.1875 230.3125 C-50.22972656 231.02792969 -49.27195312 231.74335938 -48.28515625 232.48046875 C-47.6499707 232.95589111 -47.01478516 233.43131348 -46.36035156 233.92114258 C-44.94020714 234.98362221 -43.51896181 236.04463174 -42.09667969 237.10424805 C-38.18117678 240.03060281 -34.30555567 242.99523943 -30.48046875 246.0390625 C-29.72048584 246.63823486 -28.96050293 247.23740723 -28.17749023 247.85473633 C-26.70133979 249.02133762 -25.23313591 250.19807565 -23.77368164 251.38549805 C-22.76422485 252.17887573 -22.76422485 252.17887573 -21.734375 252.98828125 C-21.14495117 253.46177002 -20.55552734 253.93525879 -19.94824219 254.4230957 C-18.21921349 255.49151467 -18.21921349 255.49151467 -16.20776367 255.13330078 C-13.90432319 254.19744979 -12.26219697 253.05248861 -10.31640625 251.50390625 C-9.58268799 250.92672852 -8.84896973 250.34955078 -8.09301758 249.75488281 C-7.31982178 249.13452148 -6.54662598 248.51416016 -5.75 247.875 C3.61258087 240.3849353 3.61258087 240.3849353 7.921875 237.51171875 C14.02400161 233.74654775 14.02400161 233.74654775 17.453125 227.828125 C17.23646027 225.14481565 16.60832603 222.87993874 15.8125 220.3125 C15.73128906 219.46429688 15.65007812 218.61609375 15.56640625 217.7421875 C15.08414174 212.88986458 13.96735755 209.90588227 10.375 206.5625 C8.5485266 205.11030394 6.68750071 203.70147473 4.8125 202.3125 C3.25226342 201.12154002 1.69240139 199.93008926 0.1328125 198.73828125 C-1.57612236 197.44786439 -3.28708619 196.16013046 -5 194.875 C-5.836521 194.2469043 -6.67304199 193.61880859 -7.53491211 192.97167969 C-8.73386108 192.09044434 -8.73386108 192.09044434 -9.95703125 191.19140625 C-10.67479736 190.6610376 -11.39256348 190.13066895 -12.13208008 189.58422852 C-16.82121297 186.68297026 -18.56210013 187.08917149 -22.890625 190.50390625 Z M13.375 251.3125 C12.74770996 251.80854736 12.12041992 252.30459473 11.47412109 252.81567383 C6.23749639 256.96105696 1.01722067 261.12713707 -4.1875 265.3125 C-0.88692877 268.73863644 2.4759515 271.69109842 6.3125 274.5 C9.68199485 276.98541947 13.04009445 279.47453527 16.34375 282.046875 C16.92318359 282.49780518 17.50261719 282.94873535 18.09960938 283.41333008 C19.21745987 284.28565497 20.33343781 285.16038635 21.44726562 286.0378418 C24.13942902 288.13273435 26.74009299 289.8457875 29.8125 291.3125 C28.42725093 281.24817464 26.40467888 271.40675834 24.1875 261.5 C23.8589934 260.01766264 23.53086623 258.53524114 23.203125 257.05273438 C22.41060581 253.47167917 21.61301422 249.8917776 20.8125 246.3125 C18.3315596 246.3125 15.34017511 249.74930414 13.375 251.3125 Z M-55.1875 247.3125 C-56.35622629 252.93364368 -57.51355913 258.55696758 -58.66040039 264.18261719 C-59.05213216 266.09602005 -59.44696863 268.00879001 -59.8449707 269.92089844 C-60.41655006 272.66961714 -60.97692151 275.42041929 -61.53515625 278.171875 C-61.71530777 279.02618103 -61.89545929 279.88048706 -62.08106995 280.76068115 C-62.32143227 281.96147308 -62.32143227 281.96147308 -62.56665039 283.18652344 C-62.71099014 283.88823669 -62.8553299 284.58994995 -63.00404358 285.31292725 C-63.20859989 287.54247706 -62.84529956 289.18561909 -62.1875 291.3125 C-60.89779297 290.29542969 -60.89779297 290.29542969 -59.58203125 289.2578125 C-52.43237846 283.6263274 -45.25435339 278.03580392 -38.02734375 272.50390625 C-35.38994639 270.46872067 -32.78180106 268.4022214 -30.1875 266.3125 C-31.49900485 262.37798544 -33.34480076 261.47667167 -36.6875 259.0625 C-41.34903606 255.67400508 -45.89348658 252.18523727 -50.34765625 248.52734375 C-52.23729132 247.03699251 -52.23729132 247.03699251 -55.1875 247.3125 Z M-22.5625 278.875 C-27.90805233 283.33548059 -33.41534161 287.53115775 -39 291.6875 C-47.16463883 297.77191295 -55.22488745 303.96643979 -63.1875 310.3125 C-64.10144531 310.95574219 -65.01539062 311.59898437 -65.95703125 312.26171875 C-68.66158454 314.74839209 -69.16702323 316.37639395 -69.9375 319.9375 C-70.15921875 320.89914062 -70.3809375 321.86078125 -70.609375 322.8515625 C-71.35600373 327.32124527 -71.78577593 331.80039807 -72.1875 336.3125 C-70.20858046 337.27785051 -68.22934203 338.24254731 -66.25 339.20703125 C-65.31556816 339.66295906 -65.31556816 339.66295906 -64.36225891 340.12809753 C-60.88882596 341.82019214 -57.40958145 343.49846788 -53.91870117 345.15429688 C-47.32762588 348.28804606 -40.82737214 351.4531256 -34.48828125 355.07421875 C-23.95250502 361.2831588 -23.95250502 361.2831588 -12.2109375 361.4375 C-7.86368239 359.74607502 -3.96053092 357.42102684 -0.00292969 354.97119141 C5.45835843 351.75371036 11.26885315 349.19591786 17 346.5 C19.24462956 345.41250606 21.48817142 344.32276341 23.73046875 343.23046875 C28.71408823 340.81989255 33.73245901 338.51229906 38.8125 336.3125 C38.55637347 333.29020695 38.20688711 330.31814489 37.8125 327.3125 C37.72097656 326.27609375 37.62945312 325.2396875 37.53515625 324.171875 C36.67346312 318.1613874 35.47114995 314.25866348 30.61425781 310.34936523 C28.31714149 308.67201544 25.97559532 307.0759997 23.59863281 305.51416016 C20.72989658 303.58415473 18.03240127 301.44450486 15.3125 299.3125 C14.23129258 298.47939848 13.1492588 297.64736833 12.06640625 296.81640625 C9.88518691 295.13869651 7.70567285 293.4588042 5.52734375 291.77734375 C2.83482457 289.69965178 0.13834038 287.62722054 -2.56152344 285.55908203 C-3.67259818 284.70725806 -4.78257586 283.85400172 -5.89160156 282.99951172 C-7.54908063 281.72398171 -9.21136965 280.45499179 -10.875 279.1875 C-12.33486328 278.06988281 -12.33486328 278.06988281 -13.82421875 276.9296875 C-17.96089957 274.09896707 -19.06563196 275.88004835 -22.5625 278.875 Z M-76.1875 351.3125 C-77.3305966 356.81099227 -78.46982772 362.31026576 -79.60546875 367.81030273 C-79.99242454 369.68161703 -80.38043962 371.55271261 -80.76953125 373.42358398 C-81.32830334 376.11124922 -81.88327338 378.7996755 -82.4375 381.48828125 C-82.61249023 382.32587479 -82.78748047 383.16346832 -82.96777344 384.02644348 C-83.61289346 387.17049091 -84.1875 390.09370855 -84.1875 393.3125 C-79.39931647 391.83357099 -74.98844019 389.91206434 -70.48046875 387.7578125 C-69.75563797 387.41499237 -69.03080719 387.07217224 -68.28401184 386.71896362 C-65.97947302 385.62834673 -63.6771442 384.53316129 -61.375 383.4375 C-58.34838474 382.00106437 -55.32087489 380.56652483 -52.29296875 379.1328125 C-51.57478973 378.79243958 -50.85661072 378.45206665 -50.1166687 378.10137939 C-45.17204258 375.76310285 -40.20240109 373.49686969 -35.1875 371.3125 C-37.23483676 369.09319314 -39.07428468 367.69610165 -41.80102539 366.41137695 C-42.51509048 366.07125076 -43.22915558 365.73112457 -43.96485901 365.38069153 C-44.7305571 365.02432114 -45.49625519 364.66795074 -46.28515625 364.30078125 C-47.07522568 363.92769333 -47.8652951 363.55460541 -48.67930603 363.17021179 C-50.34635472 362.38471373 -52.01489697 361.60237867 -53.68481445 360.82299805 C-56.24743311 359.62619879 -58.80464974 358.41841338 -61.36132812 357.20898438 C-62.98146319 356.44726198 -64.60189591 355.6861723 -66.22265625 354.92578125 C-66.99037857 354.56333817 -67.75810089 354.20089508 -68.54908752 353.82746887 C-72.21194225 351.97199478 -72.21194225 351.97199478 -76.1875 351.3125 Z M33.35546875 354.70703125 C32.61549149 355.05505295 31.87551422 355.40307465 31.1131134 355.76164246 C29.54450706 356.5004594 27.97679659 357.24118089 26.40991211 357.98364258 C24.02229733 359.11443977 21.63153384 360.23834764 19.24023438 361.36132812 C17.71595182 362.08031799 16.19185716 362.79970638 14.66796875 363.51953125 C13.95634079 363.85402786 13.24471283 364.18852448 12.51152039 364.53315735 C8.81939076 366.28700652 5.27925031 368.13319518 1.8125 370.3125 C5.57597744 373.48401185 9.85289374 375.38939626 14.26953125 377.47265625 C15.09071945 377.86319687 15.91190765 378.25373749 16.75798035 378.65611267 C18.49261647 379.47945383 20.22834601 380.3004948 21.96508789 381.11938477 C24.60851109 382.36721639 27.24678455 383.62547741 29.88476562 384.88476562 C31.5752191 385.68553311 33.26596503 386.48568357 34.95703125 387.28515625 C35.73955765 387.65915054 36.52208405 388.03314484 37.32832336 388.41847229 C41.76799373 390.5008718 46.05752024 392.10494238 50.8125 393.3125 C49.45950941 383.79216459 47.67631095 374.40640969 45.6875 365 C45.40723717 363.66217531 45.12728775 362.32428492 44.84765625 360.98632812 C44.17233003 357.76106323 43.49389923 354.53648629 42.8125 351.3125 C39.38114832 351.3125 36.410996 353.25709695 33.35546875 354.70703125 Z M-24.9375 381.91796875 C-26.09000244 382.48322266 -27.24250488 383.04847656 -28.42993164 383.63085938 C-29.34792038 384.08755005 -29.34792038 384.08755005 -30.28445435 384.5534668 C-33.53468756 386.17006157 -36.79729484 387.76134904 -40.05859375 389.35546875 C-40.7294249 389.68416962 -41.40025604 390.01287048 -42.09141541 390.35153198 C-50.21574771 394.32267728 -58.42858419 398.09898772 -66.64648438 401.87182617 C-68.78770859 402.85802587 -70.92293334 403.85737976 -73.05126953 404.87109375 C-75.18697155 405.85265881 -77.35828261 406.75941803 -79.55419922 407.59765625 C-80.62814941 408.03980469 -81.70209961 408.48195313 -82.80859375 408.9375 C-83.77079834 409.30101562 -84.73300293 409.66453125 -85.72436523 410.0390625 C-92.82664426 416.59436256 -95.35860446 446.8364641 -96.1875 451.3125 C-43.7175 451.3125 8.7525 451.3125 62.8125 451.3125 C61.41566848 442.93151087 59.98490881 434.58862986 58.375 426.25 C58.17068359 425.13689453 57.96636719 424.02378906 57.75585938 422.87695312 C57.54896484 421.81283203 57.34207031 420.74871094 57.12890625 419.65234375 C56.94787354 418.69706787 56.76684082 417.74179199 56.58032227 416.75756836 C55.41724775 413.05385094 53.7741629 411.85012957 50.43774414 409.98486328 C49.50051514 409.53868652 48.56328613 409.09250977 47.59765625 408.6328125 C46.53240723 408.12242432 45.4671582 407.61203613 44.36962891 407.08618164 C43.21640137 406.5421167 42.06317383 405.99805176 40.875 405.4375 C39.67087305 404.86424594 38.4669373 404.29059013 37.26318359 403.71655273 C25.23758864 397.99453419 13.16251405 392.37316198 1.05957031 386.81689453 C-1.21942503 385.76101714 -3.4902893 384.68749637 -5.75488281 383.60107422 C-6.91084961 383.05080566 -8.06681641 382.50053711 -9.2578125 381.93359375 C-10.29953613 381.43142334 -11.34125977 380.92925293 -12.41455078 380.41186523 C-17.43067421 378.42316971 -20.3475791 379.64157476 -24.9375 381.91796875 Z " fill="#004D6B" transform="translate(142.1875,46.6875)"/>
<path d="M0 0 C14.21734755 7.71161902 27.04358626 17.05219803 39.57421875 27.25 C40.4146875 27.91644531 41.25515625 28.58289063 42.12109375 29.26953125 C42.67172485 29.79198425 43.22235596 30.31443726 43.78967285 30.85272217 C47.56788824 34.22963822 47.56788824 34.22963822 52.35150146 35.33003235 C54.83723539 34.79732531 57.12634776 34.05902499 59.51171875 33.1796875 C60.37875427 32.8865416 61.24578979 32.59339569 62.13909912 32.29136658 C63.96444538 31.66196414 65.7830418 31.01267926 67.59472656 30.3449707 C70.35948038 29.33626831 73.14372779 28.41862784 75.94140625 27.50585938 C85.16906066 24.60397144 85.16906066 24.60397144 92.18041992 18.41137695 C93.16672479 15.6597474 93.69352415 13.15015372 94.12109375 10.26953125 C97.26746533 5.17023938 101.54765196 2.60957192 107.12109375 0.51953125 C114.77077306 -0.43667866 120.44241085 0.92855122 126.87109375 5.01953125 C131.86135194 10.00978944 133.77863215 14.76513199 134.22265625 21.7109375 C133.97025492 28.06950938 131.70608841 33.81189755 127.12109375 38.26953125 C123.42768844 40.70857249 121.13095248 42.11594583 116.73876953 42.78393555 C112.89828917 44.36102578 112.56682033 44.5445309 110.94604492 48.04150391 C110.32102015 49.66056058 109.7288314 51.29254635 109.1640625 52.93359375 C108.84899246 53.79963226 108.53392242 54.66567078 108.20930481 55.55795288 C107.55267407 57.39054631 106.91053778 59.2283891 106.28198242 61.07080078 C105.31275616 63.88245641 104.27460619 66.66148497 103.22851562 69.4453125 C102.5985107 71.23154326 101.97271651 73.01926588 101.3515625 74.80859375 C100.87870064 76.04967392 100.87870064 76.04967392 100.39628601 77.31582642 C99.23577185 80.88422579 98.53380277 83.08086586 100.24417114 86.5426178 C101.76408714 88.59288889 103.35324621 90.43130748 105.12109375 92.26953125 C105.87390625 93.14996094 106.62671875 94.03039062 107.40234375 94.9375 C108.13453125 95.76894531 108.86671875 96.60039062 109.62109375 97.45703125 C124.39572049 114.80504236 144.93378019 141.99360376 144.37890625 166.01171875 C143.64002697 172.48251 139.80913138 175.73693909 135.05859375 179.70703125 C133.08990903 181.24140904 131.11067677 182.7623504 129.12109375 184.26953125 C128.25097656 184.95273437 127.38085938 185.6359375 126.484375 186.33984375 C112.9432565 196.66266951 98.3819253 202.60499185 82.12109375 207.26953125 C80.86425781 207.63304687 79.60742188 207.9965625 78.3125 208.37109375 C58.61799738 212.98732985 35.45183894 211.92012982 16.12109375 206.26953125 C14.87457031 205.94210937 13.62804687 205.6146875 12.34375 205.27734375 C-4.54862603 200.3376308 -19.67396541 190.72629084 -32.87890625 179.26953125 C-33.43126953 178.80466309 -33.98363281 178.33979492 -34.55273438 177.86083984 C-56.93252676 158.96249257 -72.46808054 130.22548461 -75.66357422 100.98095703 C-78.80033436 61.48338544 -69.24090347 27.33742491 -43.62890625 -2.91796875 C-31.07807454 -16.39570819 -13.79365406 -7.2555643 0 0 Z M86.38671875 38.45703125 C85.74869324 38.6789917 85.11066772 38.90095215 84.45330811 39.12963867 C82.42382777 39.83715594 80.39747953 40.55320508 78.37109375 41.26953125 C76.99238559 41.75186869 75.61348133 42.23364596 74.234375 42.71484375 C70.86098467 43.89325742 67.49034922 45.07933954 64.12109375 46.26953125 C63.79601534 49.40733485 63.79601534 49.40733485 66.140625 51.62963867 C67.06230469 52.53560791 67.98398437 53.44157715 68.93359375 54.375 C69.42190674 54.85906815 69.91021973 55.34313629 70.41333008 55.84187317 C71.97569201 57.38743265 73.54815702 58.92224232 75.12109375 60.45703125 C76.18167137 61.50256407 77.24157604 62.54877998 78.30078125 63.59570312 C80.89978809 66.16162027 83.50795765 68.71799592 86.12109375 71.26953125 C90.26371019 69.19822303 91.13040161 62.36287673 92.59936523 58.07861328 C93.30267904 56.03670324 94.02646805 54.00287103 94.75195312 51.96875 C95.20309662 50.66840995 95.65300652 49.36764113 96.1015625 48.06640625 C96.51301514 46.88401367 96.92446777 45.70162109 97.34838867 44.48339844 C98.12885195 41.23726303 98.07432513 39.42838768 97.12109375 36.26953125 C92.91928363 36.26953125 90.3293495 37.07365204 86.38671875 38.45703125 Z " fill="#0075A3" transform="translate(319.87890625,183.73046875)"/>
<path d="M0 0 C16.5794747 8.1818427 31.33814622 18.70040202 45.64770508 30.34594727 C46.48817383 31.01239258 47.32864258 31.67883789 48.19458008 32.36547852 C48.74521118 32.88793152 49.29584229 33.41038452 49.86315918 33.94866943 C53.64137457 37.32558549 53.64137457 37.32558549 58.42498779 38.42597961 C60.91072172 37.89327257 63.19983409 37.15497226 65.58520508 36.27563477 C66.4522406 35.98248886 67.31927612 35.68934296 68.21258545 35.38731384 C70.03793171 34.7579114 71.85652813 34.10862653 73.66821289 33.44091797 C76.4329667 32.43221558 79.21721412 31.51457511 82.01489258 30.60180664 C91.24254699 27.69991871 91.24254699 27.69991871 98.25390625 21.50732422 C99.24021111 18.75569467 99.76701048 16.24610099 100.19458008 13.36547852 C103.34095166 8.26618665 107.62113828 5.70551919 113.19458008 3.61547852 C120.84425939 2.6592686 126.51589718 4.02449849 132.94458008 8.11547852 C137.93483827 13.10573671 139.85211848 17.86107926 140.29614258 24.80688477 C140.04374125 31.16545665 137.77957474 36.90784482 133.19458008 41.36547852 C129.50117477 43.80451976 127.20443881 45.2118931 122.81225586 45.87988281 C118.9717755 47.45697304 118.64030666 47.64047817 117.01953125 51.13745117 C116.39450648 52.75650785 115.80231772 54.38849361 115.23754883 56.02954102 C114.92247879 56.89557953 114.60740875 57.76161804 114.28279114 58.65390015 C113.6261604 60.48649358 112.9840241 62.32433637 112.35546875 64.16674805 C111.38624248 66.97840368 110.34809251 69.75743224 109.30200195 72.54125977 C108.67199703 74.32749053 108.04620284 76.11521315 107.42504883 77.90454102 C106.95218697 79.14562119 106.95218697 79.14562119 106.46977234 80.41177368 C105.30925818 83.98017305 104.6072891 86.17681312 106.31765747 89.63856506 C107.83757347 91.68883616 109.42673254 93.52725475 111.19458008 95.36547852 C111.94739258 96.2459082 112.70020508 97.12633789 113.47583008 98.03344727 C114.20801758 98.86489258 114.94020508 99.69633789 115.69458008 100.55297852 C130.5880181 118.04049498 150.76225265 144.94145032 150.47973633 169.07641602 C149.99410063 172.97480667 148.54864157 175.22672986 146.19458008 178.36547852 C136.37964838 181.91556019 126.22994237 178.43993697 117.19458008 174.36547852 C84.15792184 158.84670387 56.26356908 133.62352936 30.67529297 108.03149414 C29.00286357 106.36126757 27.32254339 104.69925473 25.6418457 103.03735352 C19.0256495 96.45509119 13.0016352 89.68030129 7.19458008 82.36547852 C6.25998641 81.26349269 5.31862794 80.16715477 4.36645508 79.08032227 C-12.26570444 60.00699095 -37.22680851 30.32958278 -36.02026367 3.30297852 C-35.71682524 0.56651555 -35.31309095 -1.30448444 -33.80541992 -3.63452148 C-23.4802646 -10.93768013 -10.16698404 -4.82928603 0 0 Z M92.46020508 41.55297852 C91.82217957 41.77493896 91.18415405 41.99689941 90.52679443 42.22558594 C88.4973141 42.93310321 86.47096586 43.64915235 84.44458008 44.36547852 C83.06587192 44.84781595 81.68696766 45.32959322 80.30786133 45.81079102 C76.934471 46.98920468 73.56383555 48.1752868 70.19458008 49.36547852 C69.86950167 52.50328212 69.86950167 52.50328212 72.21411133 54.72558594 C73.13579102 55.63155518 74.0574707 56.53752441 75.00708008 57.47094727 C75.49539307 57.95501541 75.98370605 58.43908356 76.48681641 58.93782043 C78.04917833 60.48337992 79.62164335 62.01818958 81.19458008 63.55297852 C82.25515769 64.59851133 83.31506237 65.64472725 84.37426758 66.69165039 C86.97327442 69.25756754 89.58144398 71.81394319 92.19458008 74.36547852 C96.33719652 72.2941703 97.20388794 65.458824 98.67285156 61.17456055 C99.37616537 59.1326505 100.09995438 57.09881829 100.82543945 55.06469727 C101.27658295 53.76435722 101.72649285 52.4635884 102.17504883 51.16235352 C102.58650146 49.97996094 102.9979541 48.79756836 103.421875 47.5793457 C104.20233828 44.3332103 104.14781146 42.52433494 103.19458008 39.36547852 C98.99276996 39.36547852 96.40283583 40.1695993 92.46020508 41.55297852 Z " fill="#004A68" transform="translate(313.805419921875,180.634521484375)"/>
<path d="M0 0 C3.40029653 1.60868038 5.66247877 3.43792741 8.375 6.0625 C16.25870725 13.29408376 25.46199889 19.16846604 35.23046875 23.5390625 C39.80846025 27.31868462 41.04337017 35.22866421 42.55615234 40.77075195 C42.91052116 42.04564735 42.91052116 42.04564735 43.27204895 43.34629822 C44.04800079 46.14236004 44.8169939 48.94028478 45.5859375 51.73828125 C46.1297467 53.70309687 46.67399454 55.66779113 47.21865845 57.63237 C48.6513115 62.80440122 50.07808518 67.97803636 51.50360107 73.15203857 C52.93903238 78.3581791 54.37985874 83.56282545 55.8203125 88.76757812 C57.94488182 96.44619929 60.06643865 104.12564353 62.18505859 111.8059082 C64.77856924 121.20713252 67.38626569 130.60438011 70 140 C71.00478142 140.00546844 71.00478142 140.00546844 72.02986145 140.01104736 C78.98909452 140.05279207 85.94766312 140.12208106 92.90649414 140.20751953 C95.50505942 140.23578069 98.10371148 140.25696945 100.70239258 140.27099609 C104.43355919 140.29235366 108.16367655 140.33896946 111.89453125 140.390625 C113.64308159 140.39246796 113.64308159 140.39246796 115.42695618 140.39434814 C116.50785019 140.41406677 117.5887442 140.4337854 118.70239258 140.45410156 C119.65503494 140.46298401 120.60767731 140.47186646 121.58918762 140.48101807 C124 141 124 141 125.80766296 142.84661865 C127.42879394 145.77440929 127.4125136 147.69989122 127 151 C125.8885684 153.15603971 125.8885684 153.15603971 124 155 C121.07245684 155.50139666 121.07245684 155.50139666 117.40790558 155.50336456 C116.73168173 155.50917833 116.05545789 155.51499209 115.35874242 155.52098203 C113.07608593 155.53566567 110.79449077 155.5216591 108.51184082 155.50793457 C106.86558876 155.51254021 105.21934081 155.51889086 103.57310152 155.52684355 C99.03633239 155.54360639 94.49989801 155.53525913 89.96312737 155.52289867 C85.07552794 155.51387881 80.18798761 155.52780263 75.30039978 155.53881836 C65.7204987 155.55664103 56.1407227 155.55274695 46.56081665 155.5411678 C38.77772166 155.53214846 30.99466182 155.53090296 23.21156311 155.53526306 C22.10546661 155.53587599 20.99937012 155.53648893 19.85975555 155.53712043 C17.61301433 155.53839928 15.36627312 155.53969613 13.11953193 155.5410108 C-7.96737714 155.55242758 -29.05421674 155.53928569 -50.14111441 155.51780933 C-68.24987279 155.49993737 -86.35852863 155.50304117 -104.46728516 155.52148438 C-125.47673943 155.54287172 -146.48613277 155.55132884 -167.49559641 155.53903532 C-169.73425197 155.53776107 -171.97290753 155.53650359 -174.21156311 155.53526306 C-175.86392246 155.53433741 -175.86392246 155.53433741 -177.5496628 155.53339306 C-185.32690083 155.52993374 -193.10410033 155.535781 -200.8813324 155.54518127 C-210.35419829 155.55637893 -219.82693154 155.55340838 -229.29978216 155.5320583 C-234.13658539 155.52151772 -238.97316716 155.51747702 -243.80996895 155.53065491 C-248.23267265 155.54252269 -252.65494839 155.5361098 -257.07761294 155.5147447 C-258.68254151 155.51025466 -260.28750581 155.51259829 -261.89241165 155.52224785 C-264.06476587 155.53431322 -266.2356308 155.52204047 -268.40790558 155.50336456 C-269.61720749 155.50271515 -270.82650941 155.50206574 -272.07245684 155.50139666 C-275 155 -275 155 -276.8885684 153.15603971 C-278.40026676 150.22353204 -278.40723048 148.25784382 -278 145 C-277.06145 142.84256363 -277.06145 142.84256363 -275 141 C-271.88999746 140.3860785 -268.80222587 140.47866813 -265.64179993 140.51898193 C-264.67143474 140.51556423 -263.70106956 140.51214653 -262.70129937 140.50862527 C-259.43509147 140.502013 -256.1696972 140.52407809 -252.90356445 140.54589844 C-250.56817647 140.54702619 -248.23278706 140.54639447 -245.8973999 140.54412842 C-239.544351 140.54297753 -233.19160224 140.5665477 -226.83862329 140.59442425 C-220.87592943 140.61684918 -214.91324753 140.6209136 -208.9505172 140.62503174 C-197.13907382 140.63378929 -185.32774084 140.66041728 -173.51635742 140.69824219 C-162.04175367 140.73495041 -150.5671799 140.76326797 -139.0925293 140.78027344 C-138.38539952 140.78132433 -137.67826973 140.78237523 -136.94971178 140.78345796 C-133.40229898 140.78867806 -129.85488597 140.79373291 -126.30747283 140.79870558 C-96.87157734 140.84018192 -67.43578985 140.91093988 -38 141 C-37.85446812 139.92396011 -37.70893623 138.84792023 -37.55899429 137.73927307 C-36.95745244 133.71538716 -35.98606875 129.87406056 -34.88964844 125.96484375 C-34.67607193 125.18993812 -34.46249542 124.41503248 -34.2424469 123.61664486 C-33.53552631 121.05577502 -32.82247256 118.49665602 -32.109375 115.9375 C-31.60714424 114.12287208 -31.10530075 112.30813694 -30.6038208 110.49330139 C-29.26630578 105.65694738 -27.92355421 100.82206192 -26.57977295 95.98744583 C-25.19980019 91.01910616 -23.82470854 86.04941625 -22.44921875 81.07983398 C-20.2869707 73.26982265 -18.12216868 65.46052447 -15.95507812 57.65185547 C-13.4701609 48.69769508 -10.99055598 39.74208159 -8.515625 30.78515625 C-8.20179871 29.64944183 -7.88797241 28.51372742 -7.56463623 27.34359741 C-6.98191446 25.23468546 -6.39921067 23.12576854 -5.81652832 21.0168457 C-3.88011574 14.01055818 -1.94004957 7.00528116 0 0 Z " fill="#004561" transform="translate(280,357)"/>
<path d="M0 0 C0.70108887 0.45503906 1.40217773 0.91007812 2.12451172 1.37890625 C6.26118806 4.06075852 10.37612259 6.70562277 14.7421875 9 C15.36657715 9.33386719 15.9909668 9.66773438 16.63427734 10.01171875 C18.42533231 10.96044821 20.22808998 11.88698424 22.03125 12.8125 C27.59749642 16.91394473 28.79545165 24.31740205 30.55615234 30.75488281 C30.79239822 31.60320679 31.0286441 32.45153076 31.27204895 33.32556152 C32.04806972 36.11679632 32.81708227 38.90990874 33.5859375 41.703125 C34.12978488 43.66553456 34.67403211 45.62783334 35.21865845 47.59002686 C36.35967511 51.70471189 37.4975223 55.82025478 38.6328125 59.93652344 C40.07303789 65.15836257 41.51845944 70.37874313 42.96599388 75.59856033 C44.36189712 80.63292958 45.75532216 85.66798369 47.1484375 90.703125 C47.40739178 91.63845314 47.66634605 92.57378128 47.93314743 93.5374527 C48.68510182 96.25540086 49.43533112 98.97381963 50.18505859 101.69238281 C50.39613754 102.45464172 50.60721649 103.21690063 50.82469177 104.0022583 C53.29674133 112.9813663 55.6293486 121.99152468 58 131 C26.98 131 -4.04 131 -36 131 C-31.92457198 115.28049191 -27.84954137 99.58564387 -23.49609375 83.9453125 C-23.00463233 82.17337797 -22.51334994 80.40139378 -22.02223206 78.62936401 C-21.00781677 74.97094974 -19.99196368 71.31293939 -18.97485352 67.65527344 C-17.68978877 63.03392398 -16.40744901 58.41182402 -15.12602806 53.78946304 C-5.15519055 17.82542958 -5.15519055 17.82542958 0 0 Z " fill="#004C6B" transform="translate(292,367)"/>
<path d="M0 0 C0.495 0.99 0.495 0.99 1 2 C0.67 2.66 0.34 3.32 0 4 C-0.36021471 9.58332804 0.14002506 13.7200598 1.8125 19.0625 C3.22333302 24.35977869 3.22333302 24.35977869 2.296875 27.015625 C1.43197495 28.27465672 0.52838096 29.50756691 -0.40234375 30.71875 C-11.30563016 46.28725675 -14.23168501 69.44444811 -14.25 87.8125 C-14.25100708 88.50808014 -14.25201416 89.20366028 -14.25305176 89.9203186 C-14.23824815 105.01542211 -12.58324279 118.82576749 -7 133 C-6.76829102 133.59603027 -6.53658203 134.19206055 -6.29785156 134.80615234 C-0.77965711 148.80049232 6.40580427 161.88708361 16.89453125 172.7890625 C19 175 19 175 21.34765625 177.93359375 C24.08735463 181.25291432 27.21879044 183.82732726 30.625 186.4375 C31.24181641 186.91413086 31.85863281 187.39076172 32.49414062 187.88183594 C52.46280935 203.13195161 74.1406465 211.61008816 99 215 C99 215.33 99 215.66 99 216 C84.41560191 216.51152617 71.09759968 215.86992932 57 212 C55.74316406 211.67257812 54.48632812 211.34515625 53.19140625 211.0078125 C36.31255263 206.02954997 21.2063726 196.4580018 8 185 C7.44763672 184.53513184 6.89527344 184.07026367 6.32617188 183.59130859 C-16.05362051 164.69296132 -31.58917429 135.95595336 -34.78466797 106.71142578 C-37.80882276 68.63176244 -29.23471435 34.91153484 -4.80859375 5.34765625 C-3.23297877 3.53649479 -1.64208369 1.75083095 0 0 Z " fill="#006A94" transform="translate(279,178)"/>
<path d="M0 0 C3.90194676 0.61677217 7.0135295 1.81105194 10.55078125 3.5546875 C11.629646 4.08304199 12.70851074 4.61139648 13.82006836 5.15576172 C14.9725708 5.72311035 16.12507324 6.29045898 17.3125 6.875 C18.52202834 7.45374345 19.73240973 8.03070718 20.94360352 8.60595703 C26.88397426 11.4374547 32.6991943 14.35221521 38.4140625 17.625 C49.094036 23.92702311 49.094036 23.92702311 60.9921875 24.1328125 C65.32634981 22.43550595 69.22656437 20.10791124 73.17578125 17.66308594 C78.10963569 14.75770761 83.32247945 12.40947671 88.50180054 9.97998047 C91.38459061 8.61877765 94.24736506 7.21660935 97.11328125 5.8203125 C109.19564332 0 109.19564332 0 113 0 C113.99 4.62 114.98 9.24 116 14 C112.54163226 16.5937758 109.65400024 18.21833132 105.765625 19.99609375 C105.16876892 20.2709108 104.57191284 20.54572784 103.95697021 20.82887268 C102.05667287 21.70291337 100.1535134 22.57048876 98.25 23.4375 C95.75428942 24.58003349 93.25977781 25.7251642 90.765625 26.87109375 C89.59580078 27.40847168 88.42597656 27.94584961 87.22070312 28.49951172 C83.44039133 30.2607152 79.71296311 32.10153771 76 34 C87.15561457 39.65468365 98.40475152 45.10900696 109.6809082 50.51831055 C110.79941162 51.05496338 111.91791504 51.59161621 113.0703125 52.14453125 C114.06820801 52.62253174 115.06610352 53.10053223 116.09423828 53.59301758 C117.05313965 54.05732178 118.01204102 54.52162598 119 55 C120.08667969 55.49282471 121.17335937 55.98564941 122.29296875 56.4934082 C125 58 125 58 126.2421875 60.9609375 C126.55542969 62.65089844 126.55542969 62.65089844 126.875 64.375 C127.21144531 66.05722656 127.21144531 66.05722656 127.5546875 67.7734375 C127.94152205 70.57629136 128.09512516 73.17795362 128 76 C123.10494331 74.49669579 118.61555654 72.50238506 114.015625 70.2890625 C113.25030457 69.9243132 112.48498413 69.5595639 111.69647217 69.1837616 C110.05985114 68.40355357 108.42390289 67.62193298 106.78857422 66.83901978 C104.23241924 65.61659237 101.67337359 64.40043717 99.11328125 63.1862793 C92.00232315 59.81326507 84.89355018 56.43648439 77.80657959 53.01330566 C74.87637545 51.60186565 71.93737688 50.20893671 69 48.8125 C67.95875977 48.30219238 66.91751953 47.79188477 65.84472656 47.26611328 C64.8853418 46.81349121 63.92595703 46.36086914 62.9375 45.89453125 C62.12152344 45.50112549 61.30554688 45.10771973 60.46484375 44.70239258 C55.34398117 43.24312934 51.07507619 45.21336494 46.4921875 47.484375 C44.90857422 48.25974609 44.90857422 48.25974609 43.29296875 49.05078125 C42.16503906 49.61152344 41.03710938 50.17226563 39.875 50.75 C37.45656694 51.93405211 35.03741692 53.11651168 32.6171875 54.296875 C31.99535583 54.6009729 31.37352417 54.9050708 30.73284912 55.21838379 C23.86432952 58.57031129 16.9366142 61.79197177 10 65 C8.86288574 65.5269043 7.72577148 66.05380859 6.55419922 66.59667969 C3.3714563 68.06882175 0.18630545 69.53558689 -3 71 C-4.0621875 71.48984375 -5.124375 71.9796875 -6.21875 72.484375 C-7.71921875 73.17273438 -7.71921875 73.17273438 -9.25 73.875 C-10.14203125 74.28492188 -11.0340625 74.69484375 -11.953125 75.1171875 C-14 76 -14 76 -15 76 C-14.91038941 74.51988019 -14.80226028 73.04088249 -14.6875 71.5625 C-14.60048828 70.32693359 -14.60048828 70.32693359 -14.51171875 69.06640625 C-12.74633187 58.48756121 -12.74633187 58.48756121 -9.23603821 55.49742126 C-6.95165987 54.20551369 -4.6515119 53.13686012 -2.23828125 52.10546875 C-1.37365768 51.70596512 -0.50903412 51.30646149 0.38179016 50.89485168 C3.13789681 49.62922109 5.91113937 48.40796045 8.6875 47.1875 C10.53452586 46.34991597 12.38024649 45.50944734 14.22460938 44.66601562 C17.63112254 43.11093116 21.04511827 41.57515205 24.4675293 40.05541992 C28.71022549 38.15778463 32.85789833 36.10766594 37 34 C33.39351965 32.25701637 29.78630203 30.51556808 26.1784668 28.77539062 C24.36535375 27.90050368 22.55278575 27.02448748 20.74023438 26.1484375 C12.86295046 22.35007594 4.95244015 18.63819782 -3 15 C-1.125 2.25 -1.125 2.25 0 0 Z " fill="#0075A3" transform="translate(69,383)"/>
<path d="M0 0 C1.1330692 0.92773133 2.25906382 1.86422911 3.375 2.8125 C4.365 3.555 5.355 4.2975 6.375 5.0625 C19.59749341 16.42669704 28.15540775 34.73397075 30.375 51.8125 C31.80352434 73.94843782 27.60739342 94.7124338 12.9609375 112.04296875 C12.43757813 112.62691406 11.91421875 113.21085938 11.375 113.8125 C10.529375 114.8025 9.68375 115.7925 8.8125 116.8125 C5.89531846 119.20608486 4.12938687 119.73261943 0.375 119.8125 C-1.875 119.3125 -1.875 119.3125 -3.625 117.8125 C-5.0625 114.5 -5.0625 114.5 -5.625 110.8125 C-3.81977211 107.20779334 -1.44350704 104.34308799 1.1875 101.3125 C12.16913173 87.70658127 16.04338686 70.96461868 14.375 53.8125 C12.07603697 37.99946597 4.24604182 23.98770643 -8.03515625 13.81640625 C-22.58712842 3.09268666 -39.74214255 -1.49661424 -57.64013672 1.10546875 C-69.21147623 3.26151097 -79.94436127 8.04722499 -88.4375 16.25 C-91.28481589 18.95573665 -93.01594427 20.35538818 -97 20.5 C-100.625 19.8125 -100.625 19.8125 -102.5625 18.6875 C-104.09349826 15.98573836 -104.5007742 13.91814495 -104.625 10.8125 C-98.98566385 -0.48413197 -84.39709682 -7.29381159 -72.984375 -11.54296875 C-47.87676489 -19.48224729 -21.31656096 -15.68347736 0 0 Z " fill="#0075A4" transform="translate(479.625,143.1875)"/>
<path d="M0 0 C1.93440822 2.90161233 2.51284158 4.53721622 3.1875 7.875 C3.36667969 8.71804688 3.54585938 9.56109375 3.73046875 10.4296875 C4.0450561 13.42966541 4.08007041 15.16095777 3 18 C0.86510693 19.9882658 -1.16051868 21.66830938 -3.5 23.375 C-4.12986816 23.85106689 -4.75973633 24.32713379 -5.40869141 24.81762695 C-6.67386434 25.77337381 -7.94287181 26.72406767 -9.21582031 27.66943359 C-11.63184932 29.47120673 -14.00362356 31.32752263 -16.375 33.1875 C-17.58303982 34.12537819 -18.79123955 35.06305076 -20 36 C-14.98304442 40.68689271 -9.62492299 44.84284933 -4.125 48.9375 C-3.08146362 49.72193481 -3.08146362 49.72193481 -2.0168457 50.5222168 C1.00744104 52.79229257 4.03407238 55.02339045 7.15234375 57.1640625 C12.76123284 61.16688203 15.25963423 64.27555523 16.6171875 71.1015625 C17.22839194 75.72925328 17.73852567 80.33854391 18 85 C12.93362168 82.26054607 8.55715392 79.22584173 4.125 75.5625 C-7.99266299 65.71010684 -20.48127502 56.3347718 -33 47 C-36.64601924 48.61949073 -39.55244488 50.85985124 -42.6875 53.3125 C-43.84736772 54.2152146 -45.00753969 55.11753836 -46.16796875 56.01953125 C-46.78591309 56.50115723 -47.40385742 56.9827832 -48.04052734 57.47900391 C-51.51133429 60.17313888 -55.00697496 62.83477673 -58.5 65.5 C-62.6087693 68.63591906 -66.7156161 71.77362816 -70.796875 74.9453125 C-71.38275391 75.39970703 -71.96863281 75.85410156 -72.57226562 76.32226562 C-74.13833114 77.53829089 -75.70206867 78.75731262 -77.265625 79.9765625 C-79.769527 81.82944998 -82.29931137 83.45252513 -85 85 C-84.84742888 82.66934468 -84.63424543 80.36300605 -84.359375 78.04296875 C-84.11688895 75.98974449 -83.94124263 73.92767795 -83.828125 71.86328125 C-83.15970007 66.32203854 -81.96346336 62.53743775 -77.69921875 58.85546875 C-74.2901021 56.20552691 -70.72508864 53.80248069 -67.12011719 51.42871094 C-63.88068438 49.24571223 -60.82086717 46.84904707 -57.75 44.4375 C-52.0875058 40.06128303 -52.0875058 40.06128303 -49.640625 38.34765625 C-49.09921875 37.90292969 -48.5578125 37.45820313 -48 37 C-48 36.34 -48 35.68 -48 35 C-49.71569206 33.5567826 -51.50112283 32.1961315 -53.3125 30.875 C-53.8477832 30.47684082 -54.38306641 30.07868164 -54.93457031 29.66845703 C-57.65963882 27.65145829 -60.40777037 25.73306007 -63.24609375 23.875 C-70.79574491 18.84844422 -70.79574491 18.84844422 -71.8125 14.625 C-71.544375 13.42875 -71.27625 12.2325 -71 11 C-70.83886719 10.12214844 -70.67773438 9.24429687 -70.51171875 8.33984375 C-70.05831934 5.87902711 -69.55002226 3.44072378 -69 1 C-65.684441 1.60852863 -63.71672575 2.75103235 -61.09375 4.84375 C-60.35527832 5.42697021 -59.61680664 6.01019043 -58.85595703 6.61108398 C-58.07849121 7.23442627 -57.30102539 7.85776855 -56.5 8.5 C-54.88313032 9.77253934 -53.26594195 11.04467386 -51.6484375 12.31640625 C-49.44570982 14.05892278 -47.24519323 15.80390687 -45.05175781 17.55810547 C-43.41773703 18.86215363 -41.77302588 20.1512359 -40.125 21.4375 C-39.22007813 22.15808594 -38.31515625 22.87867188 -37.3828125 23.62109375 C-35.1780691 25.21731952 -35.1780691 25.21731952 -33.09301758 24.76171875 C-30.70091134 23.89115168 -29.1198071 22.77589008 -27.12890625 21.19140625 C-26.39526855 20.61342285 -25.66163086 20.03543945 -24.90576172 19.43994141 C-24.13248535 18.82038574 -23.35920898 18.20083008 -22.5625 17.5625 C-20.95207511 16.29004534 -19.34139591 15.01791248 -17.73046875 13.74609375 C-16.93431152 13.11429199 -16.1381543 12.48249023 -15.31787109 11.83154297 C-12.02738946 9.23145942 -8.70441368 6.67491748 -5.375 4.125 C-4.33085937 3.32320313 -3.28671875 2.52140625 -2.2109375 1.6953125 C-1.48132813 1.13585937 -0.75171875 0.57640625 0 0 Z " fill="#0075A4" transform="translate(159,276)"/>
<path d="M0 0 C6.01264436 4.94372981 11.37404608 10.43953347 12.8125 18.3125 C13.7368848 28.07631448 13.06277052 35.59175675 7.1640625 43.53125 C2.34544967 49.33883577 -2.58311601 53.08772311 -10.1875 54.3125 C-20.38888371 55.20595452 -28.77031537 53.9786705 -37 47.625 C-42.39773202 42.61008585 -45.77145094 35.96406489 -46.42578125 28.6484375 C-46.68224569 18.41685617 -44.34061749 10.61937509 -37.25 3.0703125 C-26.16692206 -6.37549257 -12.54113055 -6.63942206 0 0 Z " fill="#F44655" transform="translate(142.1875,46.6875)"/>
<path d="M0 0 C9.03485948 8.03667387 16.15237429 20.60430057 17.01391602 32.77490234 C17.77928301 49.91385762 14.75493337 64.703608 2.875 77.8125 C-0.85755448 80.30086965 -2.70940935 80.35476552 -7.125 79.8125 C-9.625 77.75 -9.625 77.75 -11.125 74.8125 C-11.41299828 69.82052974 -9.87970817 67.26430296 -6.8125 63.5625 C-0.05032483 55.29761923 1.58641239 47.03677798 1.25390625 36.4609375 C0.18936483 26.21061084 -4.33184782 17.65248271 -12.26171875 11.02734375 C-21.97934083 4.12494901 -31.28833853 2.71835482 -43.125 3.8125 C-50.43261867 5.36260093 -55.44669902 8.60655534 -61.12890625 13.31640625 C-63.82056521 15.33383361 -65.76365816 15.96528827 -69.125 15.8125 C-73.69021739 13.68206522 -73.69021739 13.68206522 -75.125 10.8125 C-75.5 8 -75.5 8 -75.125 4.8125 C-73.125 2.3125 -73.125 2.3125 -70.125 -0.1875 C-69.56683594 -0.6721875 -69.00867188 -1.156875 -68.43359375 -1.65625 C-47.72899815 -18.60030319 -20.49930975 -14.34951683 0 0 Z " fill="#0075A4" transform="translate(468.125,165.1875)"/>
<path d="M0 0 C1.97265625 0.265625 1.97265625 0.265625 4.97265625 2.265625 C5.91015625 5.515625 5.91015625 5.515625 5.97265625 9.265625 C4.25 12.12109375 4.25 12.12109375 1.97265625 15.265625 C-13.46687571 36.62832285 -21.05559399 59.86766277 -17.56640625 86.37890625 C-14.72352797 102.21541053 -8.07612387 117.37535496 2.47265625 129.578125 C5.94857833 133.7599887 5.94857833 133.7599887 6.16015625 138.203125 C4.32662312 142.93171044 4.32662312 142.93171044 1.97265625 144.265625 C-1.94272307 144.77317417 -4.13887913 144.86651895 -7.453125 142.625 C-23.68927862 127.74391231 -33.09831821 102.20400937 -34.15283203 80.70751953 C-35.1913152 50.64369281 -27.32574101 25.5859917 -8.02734375 2.265625 C-5.42029477 -0.34142398 -3.55396134 0.02657167 0 0 Z " fill="#0075A4" transform="translate(55.02734375,-0.265625)"/>
<path d="M0 0 C2.88627737 0.05659367 4.15106058 0.40589316 6.46484375 2.17578125 C18.32060931 15.01757087 26.09635269 31.84479597 30.4375 48.625 C30.7778125 49.93210937 30.7778125 49.93210937 31.125 51.265625 C36.79388905 78.192848 30.77464511 106.46499637 16.4375 129.625 C8.45563431 141.51804923 8.45563431 141.51804923 3.4375 144.625 C0.07968474 145.04472691 -1.85400017 144.98882423 -4.875 143.4375 C-7.06221094 141.08827343 -7.48779643 139.83725337 -7.5625 136.625 C-5.67208364 132.28004303 -3.28691743 128.85352149 -0.3125 125.1875 C13.94864925 106.42771179 19.07212774 82.36456192 16.12109375 59.13427734 C13.19632805 42.34172088 5.93538392 26.59451066 -5.1796875 13.66015625 C-6.80510966 11.26793889 -7.3027736 9.49590435 -7.5625 6.625 C-4.65865385 0.81730769 -4.65865385 0.81730769 0 0 Z " fill="#0075A4" transform="translate(197.5625,-0.625)"/>
<path d="M0 0 C8.33444031 2.77814677 12.74659724 11.84152769 16.64038086 19.24243164 C26.13680814 38.30439445 26.95923043 60.08762246 20.37890625 80.1640625 C16.7707711 89.62761421 11.06881839 100.36085133 3.375 107.125 C0.35994674 108.20732681 -1.20400315 108.23269687 -4.3125 107.4375 C-7.04267393 105.88794182 -7.78761583 105.13958301 -8.625 102.125 C-8.25735817 96.93389742 -6.48223048 94.10524821 -3.375 90 C6.23732093 76.770446 10.54527863 61.4578818 8.0703125 45.11279297 C5.7228152 32.51595476 0.58288149 22.49748874 -7.40234375 12.51171875 C-9.03490748 9.32482917 -8.5644818 7.5165293 -7.625 4.125 C-5.39188268 1.30933034 -3.63537786 0.17311323 0 0 Z " fill="#0075A4" transform="translate(177.625,17.875)"/>
<path d="M0 0 C1.9453125 0.4140625 1.9453125 0.4140625 4.5078125 2.5390625 C6.3241471 6.1717317 5.98397247 7.52501602 4.9453125 11.4140625 C3.0546875 14.421875 3.0546875 14.421875 0.6953125 17.5390625 C-8.32316653 29.96738041 -12.5115128 44.0263453 -11.0546875 59.4140625 C-8.90416795 71.59626698 -5.1524841 82.60895996 2.8203125 92.2890625 C5.07742296 95.05052729 5.89430207 96.14370721 6.5703125 99.7265625 C5.85412219 102.80618085 5.30415531 104.29110397 2.9453125 106.4140625 C-0.47130358 107.52817644 -2.20923937 107.8231503 -5.4765625 106.2421875 C-16.97994121 98.08524623 -23.3807916 81.73986285 -25.9921875 68.3515625 C-29.40893527 48.19716885 -25.90242353 28.32692448 -14.92578125 11.06640625 C-6.81092563 -0.27645824 -6.81092563 -0.27645824 0 0 Z " fill="#0075A4" transform="translate(76.0546875,18.5859375)"/>
<path d="M0 0 C5.62897833 3.63288672 10.84647439 7.41908835 15.859375 11.875 C17.9599586 13.26884892 17.9599586 13.26884892 20.3515625 12.5078125 C24.35552626 10.22826971 27.80042871 7.36671031 31.359375 4.45703125 C35.69326257 1 35.69326257 1 39 1 C39.73540406 4.3224505 40.38598377 7.65310823 41 11 C41.20625 12.051875 41.4125 13.10375 41.625 14.1875 C40.58222958 18.87996687 36.71474656 21.19735639 33 24 C33.83144531 24.51046875 34.66289062 25.0209375 35.51953125 25.546875 C45.50163876 32.22529569 45.50163876 32.22529569 47.125 38.875 C47.45726558 40.91045371 47.7486568 42.95297806 48 45 C48.38804631 47.0847978 48.78345723 49.16824323 49.1875 51.25 C49.46244741 52.83262411 49.7349096 54.41569504 50 56 C46.8394358 54.53975358 44.18674123 52.75939405 41.41015625 50.6640625 C40.10981445 49.68566406 40.10981445 49.68566406 38.78320312 48.6875 C37.88537109 48.006875 36.98753906 47.32625 36.0625 46.625 C34.72155273 45.61566406 34.72155273 45.61566406 33.35351562 44.5859375 C32.05124023 43.60367188 32.05124023 43.60367188 30.72265625 42.6015625 C29.89266113 41.97668945 29.06266602 41.35181641 28.20751953 40.70800781 C26.46056774 39.35635169 24.77766649 37.92195823 23.12109375 36.4609375 C21.16792778 34.77093014 21.16792778 34.77093014 19.13183594 35.22436523 C16.63542979 36.1326431 14.88808777 37.34621173 12.76953125 38.94921875 C11.56393555 39.85124023 11.56393555 39.85124023 10.33398438 40.77148438 C9.50189453 41.40376953 8.66980469 42.03605469 7.8125 42.6875 C1.66122729 47.32656451 -4.53868643 51.8002919 -11 56 C-8.66386295 34.89231467 -8.66386295 34.89231467 -0.9375 28.5 C3.64615385 25 3.64615385 25 6 25 C3.14723863 22.06799526 0.34920216 19.35684596 -3 17 C-2.36934845 11.2190275 -1.34844868 5.6556294 0 0 Z " fill="#0075A3" transform="translate(106,200)"/>
<path d="M0 0 C4.99025819 4.99025819 6.9075384 9.74560074 7.3515625 16.69140625 C7.09916117 23.04997813 4.83499466 28.7923663 0.25 33.25 C-5.22483949 37.04027349 -10.05854654 38.76212747 -16.75390625 38.03125 C-22.68490091 36.82415911 -28.67334219 34.38593284 -32.10546875 29.203125 C-35.23882971 22.642297 -36.68371801 16.61380164 -34.5625 9.5625 C-31.91680278 2.65758617 -28.22199985 -0.51400007 -21.75 -3.75 C-14.07321601 -6.628794 -6.58546382 -4.1907497 0 0 Z " fill="#F44655" transform="translate(446.75,188.75)"/>
<path d="M0 0 C5 1.66666667 10 3.33333333 15 5 C13.52905088 9.46302405 12.05382475 13.92460529 10.57495117 18.38500977 C10.07448048 19.89635753 9.57509558 21.40806536 9.0769043 22.92016602 C5.38302012 34.12829595 1.36521908 45.14814007 -3.0546875 56.09375 C-5.62791959 62.4867447 -7.89275318 68.9910741 -10.17578125 75.4921875 C-10.51222656 76.43320312 -10.84867187 77.37421875 -11.1953125 78.34375 C-11.49453613 79.19130859 -11.79375977 80.03886719 -12.10205078 80.91210938 C-13 83 -13 83 -15 85 C-22.16065574 85.68196721 -22.16065574 85.68196721 -25 83.375 C-27.47779984 77.49022539 -25.30224448 72.24432102 -23.1875 66.625 C-22.79594727 65.54992187 -22.79594727 65.54992187 -22.39648438 64.453125 C-21.17550598 61.11276929 -19.91871429 57.78705144 -18.65039062 54.46435547 C-16.64374762 49.11095829 -14.8218093 43.69584826 -12.98828125 38.28125 C-12.61519333 37.18276733 -12.24210541 36.08428467 -11.85771179 34.95251465 C-10.6747882 31.46874444 -9.49361812 27.98438268 -8.3125 24.5 C-7.50727748 22.12756478 -6.70194015 19.75516853 -5.89648438 17.3828125 C-3.92966061 11.58899195 -1.96427341 5.79468565 0 0 Z " fill="#0075A3" transform="translate(418,222)"/>
<path d="M0 0 C0.12117188 0.58007812 0.24234375 1.16015625 0.3671875 1.7578125 C0.53476562 2.53898438 0.70234375 3.32015625 0.875 4.125 C1.03742188 4.89070312 1.19984375 5.65640625 1.3671875 6.4453125 C2.0885434 9.357453 3.03928563 12.15888383 4 15 C-0.31827681 16.49616885 -4.6375748 17.9893417 -8.95776367 19.47998047 C-10.42125039 19.98538254 -11.88447562 20.49154259 -13.34741211 20.99853516 C-20.3879385 23.43796283 -27.41973081 25.85674767 -34.55859375 27.99609375 C-39.37394569 29.45121059 -44.08956918 31.08625699 -48.8046875 32.83203125 C-49.4662233 33.07547272 -50.12775909 33.31891418 -50.80934143 33.56973267 C-53.52341443 34.56956 -56.23665563 35.57063204 -58.94140625 36.59545898 C-60.95330978 37.35541068 -62.97173124 38.09517247 -64.9921875 38.83203125 C-66.17151855 39.27264893 -67.35084961 39.7132666 -68.56591797 40.16723633 C-72.46050209 41.11167159 -75.11867471 40.92617805 -79 40 C-81.534112 37.465888 -81.39257035 35.53769983 -81.65625 32.0703125 C-80.82004013 29.43226945 -79.48080598 28.45434109 -77.14941406 27.04931641 C-72.1623557 24.61469841 -66.86537456 22.92505227 -61.625 21.125 C-59.70540937 20.45528357 -57.78686765 19.78262077 -55.86836243 19.10980225 C-54.0067434 18.45726085 -52.14424841 17.80722018 -50.28173828 17.15722656 C-46.51690341 15.82964753 -42.78887093 14.43164635 -39.0625 13 C-31.96728202 10.31112221 -24.80971427 7.80672149 -17.64059448 5.32324219 C-16.30247075 4.8596894 -14.96467832 4.39517905 -13.62722778 3.9296875 C-11.74483913 3.27528088 -9.86073284 2.62582144 -7.9765625 1.9765625 C-6.87393066 1.59580566 -5.77129883 1.21504883 -4.63525391 0.82275391 C-2 0 -2 0 0 0 Z " fill="#0075A3" transform="translate(412,205)"/>
<path d="M0 0 C0 0.66 0 1.32 0 2 C-0.54527344 2.12375 -1.09054688 2.2475 -1.65234375 2.375 C-9.20387844 4.44037701 -15.08259481 8.55557832 -19.41796875 15.16015625 C-23.35502924 22.76422615 -24.31559229 30.43298568 -21.75 38.6875 C-18.8881087 46.31921012 -14.10160651 52.04106823 -7.046875 56.1328125 C-3.75861657 57.52592962 -0.54132011 57.64586799 3 58 C3 58.33 3 58.66 3 59 C-7.31140339 59.58183467 -15.46469951 58.75736102 -23.8125 52.3125 C-29.21023202 47.29758585 -32.58395094 40.65156489 -33.23828125 33.3359375 C-33.49474569 23.10435617 -31.15311749 15.30687509 -24.0625 7.7578125 C-16.90586235 1.65840541 -9.20279159 -0.18044689 0 0 Z " fill="#DE404D" transform="translate(129,42)"/>
<path d="M0 0 C0 0.66 0 1.32 0 2 C-0.51949219 2.21914062 -1.03898437 2.43828125 -1.57421875 2.6640625 C-7.69643587 5.44791724 -10.95293546 8.39326724 -14.3125 14.3125 C-15.97153769 20.79782915 -15.576904 26.34414909 -12.26953125 32.2109375 C-9.14365754 36.61601492 -5.15299285 39.33285525 0 41 C0 41.66 0 42.32 0 43 C-6.93636657 42.66969683 -12.58366839 41.59758381 -18 37 C-21.94198007 31.5375419 -24 25.70648522 -24 19 C-22.74170857 12.92337309 -20.60470846 7.48455373 -15.328125 3.84765625 C-9.92587769 0.60399921 -6.21023098 -0.14114161 0 0 Z " fill="#DC414E" transform="translate(435,184)"/>
</svg>
